<?xml version="1.0" encoding="utf-8" ?>
<svg baseProfile="full" height="200mm" version="1.1" viewBox="0,0,200,200" width="200mm" xmlns="http://www.w3.org/2000/svg" xmlns:ev="http://www.w3.org/2001/xml-events" xmlns:xlink="http://www.w3.org/1999/xlink"><defs /><rect fill="#1a1a1a" height="200" width="200" x="0" y="0" /><text alignment-baseline="middle" fill="#e1ed5e" style="dominant-baseline: central; font-size:9.0px; font-family:Arial;" text-anchor="middle" x="100.0" y="100.0">2024</text><line stroke="#e1ed5e" stroke-width="0.3" x1="100.0" x2="100.0" y1="15.0" y2="10.0" /><path d="M 100.0 14.0 a86.0,86.0 0 0,1 42.35913384403234,11.155469271406648" fill="none" id="id73" stroke="none" /><text fill="#e1ed5e" style="font-size:6.75px; font-family:Arial;" text-anchor="middle"><textPath startOffset="22.145653131862478" xlink:href="#id73">January</textPath></text><path d="M 100.0 79.0 l 0.0 -5.876382884342771 a26.87638288434277,26.87638288434277 0 0,0 0.4613688512064012,0.00396029669858341 l -0.10087592635754643 5.8755169858386225" fill="#ff4906" stroke="none" /><path d="M 100.36049292484886 79.00309439819443 l 0.07368467108715909 -4.291762685123017 a25.292395179403634,25.292395179403634 0 0,0 0.43404964180563965,0.011179579092837203 l -0.1473476269635401 4.289865388680135" fill="#ff3304" stroke="none" /><path d="M 100.72087961077811 79.0123766808444 l 0.23136769292808718 -6.73601793530458 a27.739990254746356,27.739990254746356 0 0,0 0.47577285194968966,0.02043173338730506 l -0.3469663054786131 6.731053633491444" fill="#ff5507" stroke="none" /><path d="M 101.08105385017728 79.02784411241856 l 0.2780637778602097 -5.394363005152646 a26.4015249417102,26.4015249417102 0 0,0 0.45241608869476563,0.02721622844762364 l -0.37062421868743767 5.388794798880331" fill="#ff4306" stroke="none" /><path d="M 101.44090949804482 79.04949213459386 l 0.6783148072002478 -9.862548427054818 a30.88584707820572,30.88584707820572 0 0,0 0.5286348125018048,0.04091967780785624 l -0.847518614477286 9.84945098225191" fill="#ff800b" stroke="none" /><path d="M 101.80034050326958 79.07731436759882 l 1.1081504624495773 -12.878388125538233 a33.9259768744738,33.9259768744738 0 0,0 0.5798118053732667,0.05490878079690948 l -1.329061831207857 12.85746758923614" fill="#ffa80f" stroke="none" /><path d="M 102.15924093988457 79.11130261209362 l 3.4582988813367397 -33.455904561090875 a54.634169844868715,54.634169844868715 0 0,0 0.9320696000600397,0.1044403427978686 l -4.032104382997576 33.391608457786035" fill="#65ff29" stroke="none" /><path d="M 103.58742460773223 79.30868818359171 l 1.6143082978833632 -9.310901276454974 a30.449808138819854,30.449808138819854 0 0,0 0.5142613960416114,0.09371555730721344 l -1.7739044274760283 9.281817545216395" fill="#ff7a0b" stroke="none" /><path d="M 104.29559338865022 79.4440306129975 l 5.236253149060802 -25.057366863233618 a46.598632407996476,46.598632407996476 0 0,0 0.7816090318212371,0.1703480506154632 l -5.665624597501173 24.963787354484438" fill="#bcff1f" stroke="none" /><path d="M 104.64783097203109 79.52079915486377 l 3.54332523517845 -15.61254477357826 a37.00958175684919,37.00958175684919 0 0,0 0.6183558210482533,0.1459302900717781 l -3.810813209966588 15.549418339860255" fill="#ffcf13" stroke="none" /><path d="M 104.9986988182912 79.60360301121754 l 1.3971248593827188 -5.700746196308793 a26.869451854086066,26.869451854086066 0 0,0 0.44704972627394207,0.11363829224448053 l -1.4947798788820554 5.675922672229045" fill="#ff4906" stroke="none" /><path d="M 105.69591212413111 79.78721728523813 l 4.620263317155284 -16.395684568060414 a38.03423921327821,38.03423921327821 0 0,0 0.6269129090647245,0.1824852111021093 l -4.901036238601613 16.31395566265579" fill="#ffdc14" stroke="none" /><path d="M 106.72888874123014 80.10723608172694 l 11.967741472430186 -35.380501134940225 a58.34978843996887,58.34978843996887 0 0,0 0.9460841031525579,0.3290971620057645 l -12.573331347627763 35.16984554036587" fill="#3fff2d" stroke="none" /><path d="M 107.06938296918511 80.22567764915836 l 4.350628409197949 -12.169481971370177 a33.9237865583746,33.9237865583746 0 0,0 0.5466751137297119,0.20074667400088306 l -4.558892674581785 12.09300444836057" fill="#ffa80f" stroke="none" /><path d="M 109.06512990194946 81.05736502329252 l 3.229845078674486 -6.749133991283314 a28.48215937176786,28.48215937176786 0 0,0 0.4392216853062564,0.21484533596262068 l -3.3452270132428095 6.692694905223472" fill="#ff6008" stroke="none" /><path d="M 109.3889696526874 81.21577127319529 l 3.1093362091318717 -6.220755280016413 a27.95455015908798,27.95455015908798 0 0,0 0.4274021469202616,0.2182345815783519 l -3.215665577765712 6.166462746765227" fill="#ff5808" stroke="none" /><path d="M 110.02825361518725 81.54914285379988 l 9.18403690409525 -16.897593483900664 a40.23213975102473,40.23213975102473 0 0,0 0.6039721847345968,0.33501318972132993 l -9.472753276985946 16.73744737874619" fill="#fff717" stroke="none" /><line stroke="#e1ed5e" stroke-width="0.3" x1="143.13028292997686" x2="145.6673583964461" y1="26.7553504044142" y2="22.446841604673864" /><path d="M 143.63769802327073 25.89364864446614 a86.0,86.0 0 0,1 29.32050498858742,28.57503671076993" fill="none" id="id74" stroke="none" /><text fill="#e1ed5e" style="font-size:6.75px; font-family:Arial;" text-anchor="middle"><textPath startOffset="20.669276256404974" xlink:href="#id74">February</textPath></text><path d="M 110.65571695917076 81.90426304109057 l 0.8645790222958569 -1.468244194886578 a22.703889052025453,22.703889052025453 0 0,0 0.3341442097493026,0.2006439972115097 l -0.8896559886025938 1.4531861971391473" fill="#ff0e01" stroke="none" /><path d="M 110.96478420261332 82.08984904055464 l 12.358528127311132 -20.18672691651692 a44.669329544276685,44.669329544276685 0 0,0 0.6505468246453948,0.4059893328138469 l -12.703239080746238 19.971601786861527" fill="#d2ff1c" stroke="none" /><path d="M 111.8722381534696 82.67804972795209 l 6.334686614117827 -9.242497084400956 a32.20499919028305,32.20499919028305 0 0,0 0.4533312309234633,0.31646040666221925 l -6.492412936215051 9.132391861933609" fill="#ff920d" stroke="none" /><path d="M 112.45986205192187 83.09580414077388 l 0.4880784476653296 -0.6621721524380091 a21.82261323265541,21.82261323265541 0 0,0 0.2996421571329784,0.22485706090110277 l -0.49937359370907436 0.6536960642728914" fill="#ff0200" stroke="none" /><path d="M 112.7482090630111 83.31218511350987 l 6.166012316002257 -8.071508053301391 a31.157211730371714,31.157211730371714 0 0,0 0.4222396481599272,0.32833610430283905 l -6.30366190879741 7.964470897377763" fill="#ff840c" stroke="none" /><path d="M 113.31354834802062 83.75963576809568 l 1.0608655206691182 -1.294083440895514 a22.673346229847407,22.673346229847407 0 0,0 0.2988840079454975,0.2493396696062377 l -1.0829238627765083 1.275681587377406" fill="#ff0e01" stroke="none" /><path d="M 113.59037401385872 83.9905735841838 l 4.3918016816559104 -5.173531337962412 a27.786261748258376,27.786261748258376 0 0,0 0.3609839231240565,0.31180931513562826 l -4.479965084542828 5.097377890362064" fill="#ff5608" stroke="none" /><path d="M 114.13192950727249 84.46653392183569 l 4.380231780093133 -4.814642029990278 a27.50900978062614,27.50900978062614 0 0,0 0.3465745242184111,0.3207842055593463 l -4.462236075625509 4.738740078298557" fill="#ff5207" stroke="none" /><path d="M 114.39649973595853 84.71141617570332 l 5.045098924999493 -5.35772022584546 a28.359224767695615,28.359224767695615 0 0,0 0.351556499360051,0.33678317385718276 l -5.136327910224857 5.270324921682698" fill="#ff5e08" stroke="none" /><path d="M 114.65682725009322 84.96080404539774 l 2.057623979047049 -2.111303469281197 a23.948121228604453,23.948121228604453 0 0,0 0.29194821582047187,0.28945294691843837 l -2.0935641149974837 2.0756705121340993" fill="#ff2003" stroke="none" /><path d="M 114.91283532996326 85.21462403516908 l 7.6901159855341685 -7.62438889342709 a31.829089983428087,31.829089983428087 0 0,0 0.38136281653280935,0.3913118459930982 l -7.81986560321779 7.49125435536625" fill="#ff8d0d" stroke="none" /><path d="M 115.16444852881244 85.47280134310134 l 25.328648218711034 -24.264272036322634 a56.075565826368106,56.075565826368106 0 0,0 0.6599404268535818,0.7008338637892834 l -25.741444479300874 23.825896712588857" fill="#56ff2a" stroke="none" /><path d="M 115.41159269507618 85.73525988315684 l 3.7986730664830612 -3.515995079440729 a26.176112292510204,26.176112292510204 0 0,0 0.3023992869135318,0.33238978887597154 l -3.8584700542384702 3.4502677150070857" fill="#ff4006" stroke="none" /><path d="M 115.6541949942343 86.00192230759917 l 4.935390631643465 -4.413256735944449 a27.62079418984408,27.62079418984408 0 0,0 0.3130211153266546,0.3561605687481342 l -5.010422810928709 4.327883889385017" fill="#ff5407" stroke="none" /><path d="M 115.8921839302757 86.27271002978787 l 4.67533696574458 -4.038444717151855 a27.178010316983087,27.178010316983087 0 0,0 0.3019417885719975,0.3556866677159873 l -4.74397331782369 3.9575912669863165" fill="#ff4e07" stroke="none" /><path d="M 116.35404254752997 86.82634096563983 l 8.172740634467273 -6.583381337172405 a31.494503290242108,31.494503290242108 0 0,0 0.33554179220462005,0.42394609316499954 l -8.284548857313451 6.442115300092727" fill="#ff880c" stroke="none" /><path d="M 116.57777611688842 87.10902102172516 l 0.6933165900297734 -0.5391271738950564 a21.878263060616,21.878263060616 0 0,0 0.22800069570181544,0.2984602295943342 l -0.7024692630858956 0.5271460310598403" fill="#ff0200" stroke="none" /><path d="M 116.7966241395341 87.39550010848427 l 17.87048073552105 -13.410341900908717 a43.342590530596425,43.342590530596425 0 0,0 0.441471075261894,0.5989403005676993 l -18.09805383036677 13.101595291072144" fill="#e1ff1b" stroke="none" /><path d="M 117.01052211995028 87.68569379921539 l 1.0599021744323276 -0.7672874369640602 a22.3084810393312,22.3084810393312 0 0,0 0.22190023161175898,0.3121304650892733 l -1.0729175045740473 0.7489797451652829" fill="#ff0901" stroke="none" /><path d="M 117.42321728460499 88.27688183743584 l 10.938265118015384 -7.359752930662903 a34.18376300577317,34.18376300577317 0 0,0 0.3234037283320462,0.48967446410597476 l -11.062993285268155 7.170898588217869" fill="#ffab0f" stroke="none" /><path d="M 117.62189284568427 88.57770195909679 l 1.2939095116566433 -0.8386965128846136 a22.541951252498063,22.541951252498063 0 0,0 0.20768898874238031,0.3265215865271378 l -1.3081161920249136 0.8163612516788038" fill="#ff0c01" stroke="none" /><path d="M 117.81537515405839 88.88188828441811 l 6.8644985003713 -4.283954760345676 a29.091576363743236,29.091576363743236 0 0,0 0.26076031600707117,0.42593237929901123 l -6.937026780833774 4.16548526492211" fill="#ff6809" stroke="none" /><line stroke="#e1ed5e" stroke-width="0.3" x1="172.87174338648825" x2="177.1583165268699" y1="56.24261187166439" y2="53.66864786411523" /><path d="M 173.72905801456457 55.72781907015455 a86.0,86.0 0 0,1 12.242430191666344,42.057860355516425" fill="none" id="id75" stroke="none" /><text fill="#e1ed5e" style="font-size:6.75px; font-family:Arial;" text-anchor="middle"><textPath startOffset="22.145653131862474" xlink:href="#id75">March</textPath></text><path d="M 118.00360718960297 89.18935116829356 l 7.667992826584118 -4.604409373034819 a29.944199218657666,29.944199218657666 0 0,0 0.26083720315257886,0.4429585954124287 l -7.745903739866465 4.472099609328834" fill="#ff730a" stroke="none" /><path d="M 118.18653347947321 89.5 l 6.772094204122619 -3.9098704117276997 a28.819740823455398,28.819740823455398 0 0,0 0.24368687614176446,0.4305713605170095 l -6.838214445285759 3.793042281111572" fill="#ff6409" stroke="none" /><path d="M 118.36410011445183 89.81374322990088 l 21.459741543035502 -11.903356887348778 a45.539975800344166,45.539975800344166 0 0,0 0.3733294577349556,0.686884153259169 l -21.6609163503858 11.533217900615005" fill="#c8ff1d" stroke="none" /><path d="M 119.0197475246899 91.09779779509293 l 7.680460145026368 -3.594843157039721 a29.480115881463753,29.480115881463753 0 0,0 0.21059406476632775,0.460186037691985 l -7.741038674647747 3.4624681371330515" fill="#ff6d0a" stroke="none" /><path d="M 119.16976305983485 91.42560881287824 l 0.6517579624389409 -0.29152304657233646 a21.71398468350895,21.71398468350895 0 0,0 0.14927446070005487,0.3415691789175836 l -0.6566663051559661 0.2802917978789035" fill="#ff0000" stroke="none" /><path d="M 119.83427380445688 93.10060997987247 l 0.7250748659800713 -0.2522186767969341 a21.767689925817198,21.767689925817198 0 0,0 0.11973740595829768,0.3539823647729635 l -0.729297693510734 0.23973463754980898" fill="#ff0100" stroke="none" /><path d="M 119.94978838288452 93.4421083053983 l 7.102928837110296 -2.3348737908515824 a28.47684650666701,28.47684650666701 0 0,0 0.14866986478694566,0.4657062339622238 l -7.141963417674498 2.2125985231979715" fill="#ff5f08" stroke="none" /><path d="M 120.16314734710363 94.1308016681162 l 14.75687247415295 -4.295510508262084 a36.36934272325928,36.36934272325928 0 0,0 0.16934519874936282,0.6009463684679324 l -14.828436164976894 4.041556215891139" fill="#ffc712" stroke="none" /><path d="M 120.35273937422433 94.82641323984039 l 8.642672245012253 -2.1969334877752025 a29.917527700232462,29.917527700232462 0 0,0 0.12225224059401531,0.49883086030297014 l -8.67911201212256 2.048246802864137" fill="#ff730a" stroke="none" /><path d="M 120.43855184770803 95.1765574152323 l 1.4172640536935708 -0.33447045766173833 a22.45619637581625,22.45619637581625 0 0,0 0.08532193150086823,0.3759441731457078 l -1.4227968467521053 0.3100919505770042" fill="#ff0b01" stroke="none" /><path d="M 120.51834098615036 95.52812308129327 l 7.092933053986505 -1.545871746232508 a28.25943653213762,28.25943653213762 0 0,0 0.09923407336634978,0.4748709641969337 l -7.118424838177222 1.4238843307501698" fill="#ff5c08" stroke="none" /><path d="M 120.592083275326 95.88100663000786 l 13.63100690574587 -2.7265831397622593 a34.90102891452742,34.90102891452742 0 0,0 0.11247057284827235,0.5884935626824896 l -13.6758037708763 2.492187012046455" fill="#ffb510" stroke="none" /><path d="M 120.7213421655516 96.59031103205396 l 8.52159128999811 -1.4022246039233903 a29.63618850845787,29.63618850845787 0 0,0 0.0782938817694445,0.502702885200967 l -8.54440666390582 1.255733536790982" fill="#ff6f0a" stroke="none" /><path d="M 120.77682067341334 96.94652285012252 l 39.780605255715386 -5.846379052212679 a61.20791840587127,61.20791840587127 0 0,0 0.14385459064623243,1.0408601568319908 l -39.87510436291683 5.162630587180603" fill="#31ff3e" stroke="none" /><path d="M 120.9064616781168 98.02013634271609 l 4.706388965607452 -0.4456999282571843 a25.72744598294259,25.72744598294259 0 0,0 0.03786391202725317,0.4400360524691691 l -4.713346500332446 0.36484282841235316" fill="#ff3905" stroke="none" /><path d="M 120.93736805541906 98.37931529534042 l 17.94703109323274 -1.3892137115736436 a39.000717757853074,39.000717757853074 0 0,0 0.04593920328802621,0.6679459335386996 l -17.968234257685832 1.0809243538806097" fill="#ffe815" stroke="none" /><line stroke="#e1ed5e" stroke-width="0.3" x1="184.99686870605535" x2="189.99668451229388" y1="99.2704041080226" y2="99.22748670261217" /><path d="M 185.99683186730306 99.26182062694052 a86.0,86.0 0 0,1 -10.086455211305974,41.156179273409016" fill="none" id="id76" stroke="none" /><text fill="#e1ed5e" style="font-size:6.75px; font-family:Arial;" text-anchor="middle"><textPath startOffset="21.40746469413373" xlink:href="#id76">April</textPath></text><path d="M 120.99922638620191 99.81974689727618 l 6.918166608459189 -0.05938413984405349 a27.918421474474126,27.918421474474126 0 0,0 0.0,0.4792744851357599 l -6.918166608459189 -0.05938413984405265" fill="#ff5808" stroke="none" /><path d="M 120.99303781780057 100.54070618675476 l 8.992150773871812 0.23160590658019603 a29.99513295265869,29.99513295265869 0 0,0 -0.01767615042192267,0.5146218331623588 l -8.986849936453043 -0.3859340043066655" fill="#ff740a" stroke="none" /><path d="M 120.98066250479742 100.90099992219065 l 6.366360775272698 0.27339892445468095 a27.372228534258934,27.372228534258934 0 0,0 -0.024189764506061587,0.4692749690700726 l -6.360729421310063 -0.3826456869014842" fill="#ff5007" stroke="none" /><path d="M 119.58574465831526 107.57618678355244 l 5.467240091643703 2.1148459171417606 a26.86202076701605,26.86202076701605 0 0,0 -0.17005107780259981,0.42863980164834253 l -5.430130338874978 -2.2083867360036673" fill="#ff4906" stroke="none" /><path d="M 118.70294669586154 109.54985784667822 l 7.22552321380512 3.689403636860116 a29.11294551373996,29.11294551373996 0 0,0 -0.23109014788154295,0.4431458289409946 l -7.161124996948628 -3.812895708905614" fill="#ff6809" stroke="none" /><path d="M 118.5362547648365 109.86951160357373 l 6.27110363441071 3.3390094640067804 a28.104627013027923,28.104627013027923 0 0,0 -0.2303972494104344,0.4239049887321758 l -6.212861035384937 -3.44616928621356" fill="#ff5a08" stroke="none" /><line stroke="#e1ed5e" stroke-width="0.3" x1="174.33088141563837" x2="178.70328620479359" y1="141.23008692659167" y2="143.65538615756765" /><path d="M 175.20536237346943 141.71514677278685 a86.0,86.0 0 0,1 -30.301960400862466,31.631185727798858" fill="none" id="id77" stroke="none" /><text fill="#e1ed5e" style="font-size:6.75px; font-family:Arial;" text-anchor="middle"><textPath startOffset="22.145653131862474" xlink:href="#id77">May</textPath></text><path d="M 118.36410011445183 110.18625677009912 l 15.557501275081012 8.629483704698808 a38.79055465503562,38.79055465503562 0 0,0 -0.32799563138328497,0.5795368527198755 l -15.407072278676349 -8.895277327517807" fill="#ffe615" stroke="none" /><path d="M 118.18653347947321 110.5 l 6.943796219895615 4.009002616754637 a29.018005233509278,29.018005233509278 0 0,0 -0.25276933508575733,0.4292575916305392 l -6.873953174680093 -4.127611376678726" fill="#ff6709" stroke="none" /><path d="M 116.79662413953412 112.60449989151573 l 6.430674470094016 4.82569800855955 a29.039958669678256,29.039958669678256 0 0,0 -0.30263512059865766,0.39615908758152835 l -6.346887372141054 -4.935378009381955" fill="#ff6709" stroke="none" /><path d="M 116.1254893667686 113.45245675266167 l 30.245545968249175 25.231910166832172 a60.38835286711749,60.38835286711749 0 0,0 -0.6709014773690114,0.7903202533829257 l -29.80794992737305 -25.747397202664654" fill="#30ff34" stroke="none" /><path d="M 115.6541949942343 113.99807769240083 l 6.334758169412541 5.664579817146001 a29.49803657145324,29.49803657145324 0 0,0 -0.34077578537546993,0.3745722832586755 l -6.236584683195191 -5.7724896759623485" fill="#ff6d0a" stroke="none" /><path d="M 115.41159269507618 114.26474011684316 l 5.900601417405786 5.461508581086585 a29.0402222026741,29.0402222026741 0 0,0 -0.3417676906854116,0.3629454439143449 l -5.805977892984115 -5.561995484945427" fill="#ff6709" stroke="none" /><path d="M 114.91283532996324 114.78537596483092 l 1.6280885198699346 1.6141733169906467 a23.292646445882326,23.292646445882326 0 0,0 -0.2839574138905682,0.28153044203053573 l -1.6001391858494016 -1.6418837692498442" fill="#ff1702" stroke="none" /><path d="M 114.65682725009322 115.03919595460226 l 7.740831061517611 7.942774599113515 a32.09090320286309,32.09090320286309 0 0,0 -0.39781643129229727,0.38109914220627905 l -7.603342144360002 -8.074485871625374" fill="#ff900d" stroke="none" /><path d="M 114.39649973595853 115.28858382429668 l 17.806600137117993 18.909992276948106 a46.97427220072677,46.97427220072677 0 0,0 -0.5918092351669635,0.5477697928716704 l -17.479361130637063 -19.212879815952157" fill="#b8ff1f" stroke="none" /><path d="M 113.86319453409587 115.77377054828091 l 1.1797034574798266 1.3422859794352624 a22.787017598732128,22.787017598732128 0 0,0 -0.2960364759970983,0.25570925717956977 l -1.1564875017198728 -1.36233936907955" fill="#ff1001" stroke="none" /><path d="M 112.45986205192187 116.90419585922612 l 9.780743112295395 13.269456477932351 a37.48458100918718,37.48458100918718 0 0,0 -0.5212480701360949,0.37734340527359883 l -9.551514031785333 -13.435400654579027" fill="#ffd513" stroke="none" /><line stroke="#e1ed5e" stroke-width="0.3" x1="143.1302829299769" x2="145.66735839644613" y1="173.24464959558577" y2="177.55315839532614" /><path d="M 143.63769802327073 174.10635135553383 a86.0,86.0 0 0,1 -40.68552437913181,11.842963189579606" fill="none" id="id78" stroke="none" /><text fill="#e1ed5e" style="font-size:6.75px; font-family:Arial;" text-anchor="middle"><textPath startOffset="21.407464694133747" xlink:href="#id78">June</textPath></text><path d="M 109.06512990194946 118.94263497670748 l 6.692852123136799 13.985486815185949 a36.50445455344743,36.50445455344743 0 0,0 -0.5675769716983463,0.26565468139619197 l -6.4517864375669465 -14.098317728152674" fill="#ffc912" stroke="none" /><path d="M 106.72888874123015 119.89276391827305 l 1.2975831265959326 3.8360739483691595 a25.04959075806223,25.04959075806223 0 0,0 -0.4085197745650367,0.1342885641332924 l -1.2315406143831618 -3.857783433904471" fill="#ff3004" stroke="none" /><path d="M 106.0420521117495 120.11202640906438 l 4.9717541251287845 16.549352507158666 a38.28002915179641,38.28002915179641 0 0,0 -0.6309642293635496,0.1836644913965196 l -4.686929883383629 -16.632260692857702" fill="#ffdf14" stroke="none" /><path d="M 104.29559338865022 120.5559693870025 l 3.5550602550821573 17.012250266867326 a38.379732810368296,38.379732810368296 0 0,0 -0.6460652587070461,0.12923114585425302 l -3.2624985108441527 -17.07077080938444" fill="#ffe115" stroke="none" /><path d="M 103.2317021107853 120.74984581791261 l 1.6800068155246815 10.786848911240938 a31.916892063868232,31.916892063868232 0 0,0 -0.5420930526767191,0.07966901074397097 l -1.494588657240277 -10.814098995283791" fill="#ff8e0d" stroke="none" /><path d="M 102.51750503828377 120.84855314841334 l 1.0915625678905905 9.03970393918249 a30.105369632677814,30.105369632677814 0 0,0 -0.5136034813536188,0.05755034136001833 l -0.9362231849361724 -9.057110041049478" fill="#ff760a" stroke="none" /><path d="M 101.80034050326958 120.92268563240118 l 1.3529968375466475 15.723874146146805 a36.78197765193815,36.78197765193815 0 0,0 -0.62955158102814,0.04873127393404537 l -1.0828762617432717 -15.744783187075905" fill="#ffcd13" stroke="none" /><path d="M 101.08105385017728 120.97215588758144 l 0.6871292642322344 13.330124158046685 a34.347822170478004,34.347822170478004 0 0,0 -0.5891047964414228,0.025298694721123626 l -0.45819870718998207 -13.339955421193638" fill="#ffae10" stroke="none" /><path d="M 100.72087961077811 120.9876233191556 l 0.3110663582689168 9.056357617831196 a30.061698272470554,30.061698272470554 0 0,0 -0.5158969435152814,0.013287675252511075 l -0.15555610068289166 -9.060363010433752" fill="#ff750a" stroke="none" /><line stroke="#e1ed5e" stroke-width="0.3" x1="101.45913802915013" x2="101.54496967792366" y1="184.9874750549273" y2="189.98673829345242" /><path d="M 101.47630435890484 185.9873277026323 a86.0,86.0 0 0,1 -42.54439059252881,-10.42667462771756" fill="none" id="id79" stroke="none" /><text fill="#e1ed5e" style="font-size:6.75px; font-family:Arial;" text-anchor="middle"><textPath startOffset="22.145653131862474" xlink:href="#id79">July</textPath></text><path d="M 100.0 121.0 l 2.2619985199039155e-15 18.470619622562253 a39.47061962256225,39.47061962256225 0 0,0 -0.677565672063522,-0.005816086385394466 l 0.31707274721466766 -18.467897934371294" fill="#ffee16" stroke="none" /><path d="M 97.84075906011543 120.88869738790638 l -0.2492953812680967 2.4117066712297515 a23.424557125574832,23.424557125574832 0 0,0 -0.3996275161426019,-0.0447790967270104 l 0.2906587990114979 -2.40707181399577" fill="#ff1902" stroke="none" /><path d="M 97.12497278360702 120.80226474461374 l -1.1036909670871613 7.985758034802439 a29.061666399773777,29.061666399773777 0 0,0 -0.4935984187620954,-0.07254196956295587 l 1.2406144914569417 -7.9656349919406" fill="#ff6709" stroke="none" /><path d="M 96.05791012581884 120.62667999033965 l -3.297806020343629 17.255514618619117 a38.56782027746165,38.56782027746165 0 0,0 -0.6492314292139558,-0.12986446862941137 l 3.593533935088543 -17.196360753326843" fill="#ffe315" stroke="none" /><path d="M 95.70440661134978 120.55596938700252 l -0.9058687091544343 4.3349097014681 a25.428548321753684,25.428548321753684 0 0,0 -0.42651859093990624,-0.09295774173510968 l 0.980149716713477 -4.318720501599271" fill="#ff3505" stroke="none" /><path d="M 95.00130118170881 120.39639698878247 l -2.4031197889020732 9.805548805359239 a31.095730389332648,31.095730389332648 0 0,0 -0.5173658857773125,-0.13151238502103552 l 2.5710909679047647 -9.76285118850294" fill="#ff830c" stroke="none" /><path d="M 94.30408787586889 120.21278271476187 l -1.5174897132220728 5.385035649566493 a26.59476397865333,26.59476397865333 0 0,0 -0.43835767972786444,-0.1275995318755063 l 1.609707405331544 -5.358192423388472" fill="#ff4506" stroke="none" /><path d="M 93.61358852112213 120.00534299687104 l -1.6950222426872108 5.309633033266642 a26.57362569169842,26.57362569169842 0 0,0 -0.4333744084603077,-0.14245877597042741 l 1.785919388795262 -5.279753335894193" fill="#ff4506" stroke="none" /><path d="M 92.25597844496254 119.51999308798841 l -6.34689140894929 15.998312446885205 a38.21130534576493,38.21130534576493 0 0,0 -0.607642616776574,-0.24712296231879652 l 6.620588486916304 -15.887002227987116" fill="#ffdf14" stroke="none" /><line stroke="#e1ed5e" stroke-width="0.3" x1="58.13341422392154" x2="55.67067388415222" y1="173.97424548756322" y2="178.32567169271397" /><path d="M 57.64086615596768 174.84453072859336 a86.0,86.0 0 0,1 -31.369924170532247,-30.572349798747897" fill="none" id="id80" stroke="none" /><text fill="#e1ed5e" style="font-size:6.75px; font-family:Arial;" text-anchor="middle"><textPath startOffset="22.145653131862474" xlink:href="#id80">August</textPath></text><path d="M 89.03521579738668 117.91015095944536 l -6.100582989156604 9.964843836176714 a32.683973018069494,32.683973018069494 0 0,0 -0.4759967315521339,-0.29705716505458046 l 6.27074384949845 -9.858650874280585" fill="#ff980e" stroke="none" /><path d="M 88.72937992617639 117.7192867562869 l -8.829505470222307 13.881449141067145 a37.45158950085734,37.45158950085734 0 0,0 -0.539506853277232,-0.3497018241574223 l 9.066497955756548 -13.727833475205829" fill="#ffd513" stroke="none" /><path d="M 88.1277618465304 117.32195027204791 l -7.1721126647602995 10.46432671906906 a33.686265556082205,33.686265556082205 0 0,0 -0.4741821646858098,-0.33101597779346104 l 7.3506899206198755 -10.33966592547047" fill="#ffa50f" stroke="none" /><path d="M 87.54013794807813 116.9041958592261 l -10.417815826998748 14.133767968784946 a38.55831095523476,38.55831095523476 0 0,0 -0.5294368436471999,-0.3972992776928709 l 10.658905659556712 -13.952849663828061" fill="#ffe315" stroke="none" /><path d="M 86.68645165197938 116.24036423190432 l -5.932589717659223 7.236794829949345 a30.35771447356979,30.35771447356979 0 0,0 -0.4001806915461478,-0.333844965807296 l 6.055944743367264 -7.133887680230179" fill="#ff790b" stroke="none" /><path d="M 86.13680546590413 115.77377054828092 l -8.848436651771374 10.067896624603165 a34.40363285173489,34.40363285173489 0 0,0 -0.4402599691233129,-0.3936831791677531 l 9.019961647718059 -9.914517915552029" fill="#ffae10" stroke="none" /><path d="M 85.08716467003676 114.78537596483092 l -30.90057720807394 30.636471297560064 a64.51366504166663,64.51366504166663 0 0,0 -0.7729756966961399,-0.7931411602524387 l 31.421939705920888 -30.10150744523989" fill="#35ff64" stroke="none" /><path d="M 84.3458050057657 113.99807769240083 l -9.85288404781005 8.810509671449765 a34.21757938240961,34.21757938240961 0 0,0 -0.38778120529200305,-0.4412238276082722 l 10.002676317060647 -8.64007356603019" fill="#ffac0f" stroke="none" /><path d="M 84.1078160697243 113.72728997021213 l -10.562738528470396 9.123841965081592 a34.957647990425066,34.957647990425066 0 0,0 -0.3883718725319449,-0.4575010892954472 l 10.717804964509453 -8.94117409333659" fill="#ffb510" stroke="none" /><path d="M 83.8745106332314 113.45245675266167 l -9.482418839985957 7.910571050229011 a33.34882186273824,33.34882186273824 0 0,0 -0.36295139577967356,-0.4427416877797505 l 9.616817055004262 -7.746627080750765" fill="#ffa10e" stroke="none" /><path d="M 83.4222238831116 112.89097897827486 l -25.823945374407188 20.08085611787624 a53.71264185490396,53.71264185490396 0 0,0 -0.5597574029058409,-0.7327404088577663 l 26.164854754667324 -19.634594795777605" fill="#6eff28" stroke="none" /><path d="M 82.98947788004972 112.3143062007846 l -11.685062463889945 8.459084097534799 a35.42556025096342,35.42556025096342 0 0,0 -0.35237450774016366,-0.49565887420512533 l 11.828552070160068 -8.25724799662017" fill="#ffbb11" stroke="none" /><path d="M 82.78059297857968 112.02048342749411 l -2.586899856426147 1.8058570085529282 a24.154864561675723,24.154864561675723 0 0,0 -0.23442901445263373,-0.3420389380823684 l 2.6175186076941057 -1.7611833354005089" fill="#ff2303" stroke="none" /><path d="M 82.576782715395 111.72311816256416 l -2.889311725396816 1.9440578747323425 a24.482453627376014,24.482453627376014 0 0,0 -0.23162215290553426,-0.3507054608926452 l 2.922258317223077 -1.8941725355006362" fill="#ff2803" stroke="none" /><path d="M 82.37810715431573 111.42229804090323 l -3.368256095889003 2.183262907239597 a25.013948934605637,25.013948934605637 0 0,0 -0.23046459911521952,-0.3623286289615732 l 3.4052383866301126 -2.1251206035993517" fill="#ff2f04" stroke="none" /><path d="M 82.18462484594161 111.11811171558189 l -3.2245099704725626 2.012332705301174 a24.800914030401334,24.800914030401334 0 0,0 -0.2223012633956646,-0.36311240716829185 l 3.258579198323632 -1.9566831820083255" fill="#ff2c04" stroke="none" /><path d="M 81.99639281039703 110.81064883170644 l -18.394266046454298 11.04522825070502 a42.455677348849036,42.455677348849036 0 0,0 -0.36982188292154833,-0.628038407986932 l 18.581161639505616 -10.727838674424527" fill="#ecff1a" stroke="none" /><line stroke="#e1ed5e" stroke-width="0.3" x1="26.387840678322732" x2="22.057713659400548" y1="142.50000000000003" y2="145.00000000000006" /><path d="M 25.521815274538298 143.00000000000003 a86.0,86.0 0 0,1 -11.493303480769221,-40.785679425670985" fill="none" id="id81" stroke="none" /><text fill="#e1ed5e" style="font-size:6.75px; font-family:Arial;" text-anchor="middle"><textPath startOffset="21.40746469413373" xlink:href="#id81">September</textPath></text><path d="M 81.63589988554817 110.18625677009913 l -3.5416177664651016 1.9644756740553948 a25.049965565001344,25.049965565001344 0 0,0 -0.20535562209480182,-0.3778312149686768 l 3.5748187381752334 -1.903389625612131" fill="#ff3004" stroke="none" /><path d="M 81.1358732173502 109.22738970284198 l -14.409870685203398 7.048589839961456 a37.04141489695632,37.04141489695632 0 0,0 -0.2744958320228149,-0.5735907157290278 l 14.528745775186126 -6.800186622167323" fill="#ffd013" stroke="none" /><path d="M 80.83023694016515 108.57439118712176 l -8.118647206652598 3.631367630512202 a29.89377666315159,29.89377666315159 0 0,0 -0.20550707089099768,-0.4702403956899292 l 8.179788159560564 -3.4914651650464235" fill="#ff730a" stroke="none" /><path d="M 80.16572619554312 106.89939002012753 l -15.05197653803678 5.2358587833142165 a36.93663122809894,36.93663122809894 0 0,0 -0.20317711356432294,-0.6006570340457704 l 15.13963907317347 -4.976700074794285" fill="#ffcf13" stroke="none" /><path d="M 80.05021161711548 106.5578916946017 l -17.08902701030231 5.617502609492928 a38.9886402967679,38.9886402967679 0 0,0 -0.20354907906640587,-0.6376145910560831 l 17.18294080514597 -5.323318984745454" fill="#ffe815" stroke="none" /><path d="M 79.94057633289273 106.21446072829308 l -16.497221636166277 5.110881433349112 a38.27076809926372,38.27076809926372 0 0,0 -0.1890278525496823,-0.6292122431607373 l 16.582525808719588 -4.826931586597651" fill="#ffdf14" stroke="none" /><path d="M 79.83685265289637 105.86919833188381 l -6.955832229167765 2.0247413865256236 a28.244527567939727,28.244527567939727 0 0,0 -0.13151392839211343,-0.4666965361513561 l 6.989564649634453 -1.9050369264712717" fill="#ff5c08" stroke="none" /><path d="M 79.48165901384964 104.47187691870673 l -16.43759481040519 3.58249728286126 a37.823460105839345,37.823460105839345 0 0,0 -0.13281850155942052,-0.6355846108006354 l 16.49667102278898 -3.299796220775215" fill="#ffda14" stroke="none" /><path d="M 79.2786578344484 103.40968896794605 l -1.9683550255253195 0.323892070403258 a22.994825200307258,22.994825200307258 0 0,0 -0.06074850431687667,-0.3900489757509504 l 1.9736250219804636 -0.29005491272085765" fill="#ff1302" stroke="none" /><path d="M 79.17382384314188 102.69636545807758 l -2.0076328192070694 0.2599282626556597 a23.024389349528523,23.024389349528523 0 0,0 -0.04738409870628077,-0.3924083111035143 l 2.0117990041730116 -0.22542627462874615" fill="#ff1302" stroke="none" /><path d="M 79.0935383218832 101.97986365728391 l -16.350312608578108 1.5483916033882716 a37.42346610663144,37.42346610663144 0 0,0 -0.05507732206904097,-0.6400819695120139 l 16.37448355334489 -1.2674885865005958" fill="#ffd513" stroke="none" /><line stroke="#e1ed5e" stroke-width="0.3" x1="15.003131293944662" x2="10.003315487706104" y1="100.72959589197737" y2="100.7725132973878" /><path d="M 14.003168132696942 100.73817937305945 a86.0,86.0 0 0,1 10.791469493833604,-42.45332614584628" fill="none" id="id82" stroke="none" /><text fill="#e1ed5e" style="font-size:6.75px; font-family:Arial;" text-anchor="middle"><textPath startOffset="22.145653131862435" xlink:href="#id82">October</textPath></text><path d="M 79.00077361379809 100.18025310272382 l -2.304779874379704 0.0197837632592665 a23.304864782722497,23.304864782722497 0 0,0 0.0,-0.40007373196616725 l 2.304779874379704 0.019783763259265653" fill="#ff1702" stroke="none" /><path d="M 79.00077361379809 99.81974689727619 l -1.2957139663163113 -0.011122146043654186 a22.295761700560625,22.295761700560625 0 0,0 0.006570421254464841,-0.3826940983707697 l 1.2953321134631803 0.03336316038347621" fill="#ff0801" stroke="none" /><path d="M 79.00696218219943 99.45929381324524 l -1.8683623568330758 -0.04812238677447363 a22.868981985076292,22.868981985076292 0 0,0 0.013476705244224148,-0.3923595688104076 l 1.8672609645920013 0.08018822014901976" fill="#ff1101" stroke="none" /><path d="M 79.01933749520258 99.09900007780938 l -1.3908946979918535 -0.05973100298331642 a22.39217666034855,22.39217666034855 0 0,0 0.019788724163035815,-0.3838959621627207 l 1.3896643843722474 0.08359875852274912" fill="#ff0a01" stroke="none" /><path d="M 79.03789590574601 98.7389718711861 l -4.5825754166757395 -0.27567635752859715 a25.590859930734226,25.590859930734226 0 0,0 0.030143643098383605,-0.4382819550301981 l 4.577167812412291 0.35430173671312026" fill="#ff3705" stroke="none" /><path d="M 79.17382384314186 97.30363454192245 l -7.384366295365846 -0.956054057098708 a28.445999257603376,28.445999257603376 0 0,0 0.06685552597281964,-0.4837332818963038 l 7.366866252837819 1.082675647195079" fill="#ff5f08" stroke="none" /><path d="M 79.22317932658666 96.9465228501225 l -17.590515297253592 -2.585199986033768 a38.77946814138999,38.77946814138999 0 0,0 0.10244890610266232,-0.6577954690655211 l 17.543544899012662 2.886783637030739" fill="#ffe615" stroke="none" /><path d="M 79.2786578344484 96.59031103205396 l -20.368024950320937 -3.3515507546328007 a41.641931422175006,41.641931422175006 0 0,0 0.12212028317192905,-0.7043573411333074 l 20.307489849656772 3.7007011286867004" fill="#f6ff19" stroke="none" /><path d="M 79.34024301695615 96.23510406497455 l -18.20451670330597 -3.31746936770026 a39.50432466767095,39.50432466767095 0 0,0 0.12730495815003098,-0.6661133349958782 l 18.14488545287378 3.6294852677294527" fill="#ffee16" stroke="none" /><path d="M 79.407916724674 95.88100663000787 l -24.09513964708759 -4.819702753159981 a45.572449801382646,45.572449801382646 0 0,0 0.16002937008074222,-0.7657984671204505 l 24.00885256618248 5.232617671565841" fill="#c8ff1d" stroke="none" /><path d="M 79.64726062577567 94.8264132398404 l -2.132110152008293 -0.5419740630886137 a23.199915813243226,23.199915813243226 0 0,0 0.10142839600478652,-0.3851401404479387 l 2.122492275198781 0.578494707909337" fill="#ff1502" stroke="none" /><path d="M 79.94057633289273 93.78553927170692 l -4.199245240502804 -1.3009369096863763 a25.396145747455353,25.396145747455353 0 0,0 0.13258636462783185,-0.41532489878870693 l 4.176294160097715 1.372830842166475" fill="#ff3505" stroke="none" /><path d="M 80.05021161711548 93.44210830539832 l -10.525733584307954 -3.460017696796373 a32.07983709040762,32.07983709040762 0 0,0 0.1764613741678879,-0.5216766975959946 l 10.464786788567702 3.6401960688665294" fill="#ff900d" stroke="none" /><path d="M 80.28708602549916 92.7611449362534 l -9.837266011726495 -3.6123803398382077 a31.479556016602942,31.479556016602942 0 0,0 0.19063017202174068,-0.5056691795145439 l 9.773805155890319 3.780717799546897" fill="#ff880c" stroke="none" /><path d="M 80.5471966667186 92.08871423366112 l -16.298671346978765 -6.628527746280232 a38.59500121511884,38.59500121511884 0 0,0 0.25486329517239,-0.6115791286888795 l 16.182482207269896 6.907339384410375" fill="#ffe315" stroke="none" /><path d="M 80.68587082218212 91.75594674310238 l -9.623690834403828 -4.107781357176686 a31.463713153300628,31.463713153300628 0 0,0 0.21629972025111338,-0.4949360895346268 l 9.551757232135737 4.272379516487179" fill="#ff880c" stroke="none" /><path d="M 80.83023694016515 91.42560881287825 l -6.565037661007112 -2.9364578418606007 a28.19183593719061,28.19183593719061 0 0,0 0.20139111213506544,-0.4400759253241647 l 6.513662084017 3.0487227493994364" fill="#ff5c08" stroke="none" /><path d="M 80.9802524753101 91.09779779509293 l -17.647216231609296 -8.259788256577579 a40.484566784218515,40.484566784218515 0 0,0 0.3000113487681842,-0.6269083322637571 l 17.502825624881204 8.561509090906423" fill="#fffa17" stroke="none" /><path d="M 81.1358732173502 90.77261029715801 l -12.875831351613186 -6.298214330211178 a35.33368538598718,35.33368538598718 0 0,0 0.27119459414582603,-0.5425708543482192 l 12.765816844255616 6.518317040723168" fill="#ffba11" stroke="none" /><path d="M 81.46374523516351 90.13048839642627 l -11.358609176280964 -6.04781961016346 a33.8683380611706,33.8683380611706 0 0,0 0.2776472332395209,-0.5108396371011124 l 11.253116593426093 6.241914080739192" fill="#ffa70f" stroke="none" /><line stroke="#e1ed5e" stroke-width="0.3" x1="26.387840678322718" x2="22.05771365940052" y1="57.49999999999999" y2="54.99999999999999" /><path d="M 25.521815274538284 56.99999999999999 a86.0,86.0 0 0,1 29.574782752854787,-30.34633250058573" fill="none" id="id83" stroke="none" /><text fill="#e1ed5e" style="font-size:6.75px; font-family:Arial;" text-anchor="middle"><textPath startOffset="21.40746469413373" xlink:href="#id83">November</textPath></text><path d="M 81.99639281039701 89.18935116829357 l -21.960875271278127 -13.186874613205156 a46.61588774071728,46.61588774071728 0 0,0 0.4178382589597192,-0.682507394246452 l 21.731269047863012 13.561919123576152" fill="#bcff1f" stroke="none" /><path d="M 82.18462484594161 88.88188828441811 l -18.993571727383777 -11.853393516378736 a43.38880757917674,43.38880757917674 0 0,0 0.3997603165723428,-0.6284896160754267 l 18.787293719185545 12.177696807132836" fill="#e1ff1b" stroke="none" /><path d="M 82.78059297857968 87.97951657250589 l -11.7768012918212 -8.221121934171661 a35.36244737235127,35.36244737235127 0 0,0 0.3517467302434588,-0.49477582653728025 l 11.633939463047769 8.422074987418462" fill="#ffbb11" stroke="none" /><path d="M 82.98947788004972 87.6856937992154 l -13.83227296143267 -10.013498909603914 a38.07635604255838,38.07635604255838 0 0,0 0.38783122186241414,-0.5261675375991826 l 13.658339719986438 10.249472756471961" fill="#ffdd14" stroke="none" /><path d="M 83.42222388311158 87.10902102172516 l -49.73332835066524 -38.672936934824556 a84.0,84.0 0 0,0 0.8949342774337534,-1.1307202243412684 l 49.06212764258992 39.520977103080504" fill="#4dd2ff" stroke="none" /><line stroke="#e1ed5e" stroke-width="0.3" x1="56.869717070023135" x2="54.33264160355391" y1="26.7553504044142" y2="22.446841604673864" /><path d="M 56.362301976729285 25.89364864446614 a86.0,86.0 0 0,1 42.16139366436587,-11.88097634709845" fill="none" id="id84" stroke="none" /><text fill="#e1ed5e" style="font-size:6.75px; font-family:Arial;" text-anchor="middle"><textPath startOffset="22.145653131862474" xlink:href="#id84">December</textPath></text></svg>