<?xml version="1.0" encoding="utf-8" ?>
<svg baseProfile="full" height="200mm" version="1.1" viewBox="0,0,200,200" width="200mm" xmlns="http://www.w3.org/2000/svg" xmlns:ev="http://www.w3.org/2001/xml-events" xmlns:xlink="http://www.w3.org/1999/xlink"><defs /><rect fill="#1a1a1a" height="200" width="200" x="0" y="0" /><text alignment-baseline="middle" fill="#e1ed5e" style="dominant-baseline: central; font-size:9.0px; font-family:Arial;" text-anchor="middle" x="100.0" y="100.0">2023</text><line stroke="#e1ed5e" stroke-width="0.3" x1="100.0" x2="100.0" y1="15.0" y2="10.0" /><path d="M 100.0 14.0 a86.0,86.0 0 0,1 42.46469731375804,11.215312516191453" fill="none" id="id61" stroke="none" /><text fill="#e1ed5e" style="font-size:6.75px; font-family:Arial;" text-anchor="middle"><textPath startOffset="22.20632615414155" xlink:href="#id61">January</textPath></text><path d="M 100.36148047927253 79.00311137660856 l 0.026708032173652384 -1.5513578438003157 a22.55158772826526,22.55158772826526 0 0,0 0.38807348281244497,0.010022793132748153 l -0.05340815018096517 1.5506682585252078" fill="#ff0000" stroke="none" /><path d="M 100.72285384407766 79.0124445844662 l 0.3506099654124479 -10.179714943234883 a31.185751011749996,31.185751011749996 0 0,0 0.5363342798436758,0.02309568229919551 l -0.5257850776454551 10.172171534411492" fill="#ff7a0b" stroke="none" /><path d="M 101.44485096284872 79.0497635885617 l 0.7089836888511223 -10.280213167453066 a31.304631999219204,31.304631999219204 0 0,0 0.5372617376628661,0.041701851069750516 l -0.8858356158763295 10.266486054194852" fill="#ff7c0b" stroke="none" /><path d="M 102.16513564639614 79.11191278185805 l 0.5865877826635393 -5.659089667553676 a26.68940955567297,26.68940955567297 0 0,0 0.4565583131458781,0.05129964614987499 l -0.6839127993191426 5.6481540679332" fill="#ff3c05" stroke="none" /><path d="M 102.52436894288641 79.15227682838746 l 0.7189669228604074 -5.93765163352129 a26.981021681721728,26.981021681721728 0 0,0 0.46058566108131926,0.05979723770533874 l -0.8210673124495728 5.924396072651815" fill="#ff4006" stroke="none" /><path d="M 105.71112130821622 79.79150937346287 l 0.7793910360950378 -2.7578325861638904 a23.865849081939366,23.865849081939366 0 0,0 0.39436586160806314,0.11512620922735638 l -0.8267471154265281 2.7440080480178306" fill="#ff1302" stroke="none" /><path d="M 106.74666289553966 80.11325718540242 l 7.340152293173354 -21.636136729289056 a43.847324750514424,43.847324750514424 0 0,0 0.7126610005253525,0.24863342961773374 l -7.71149529776198 21.506582446499117" fill="#e2ff1b" stroke="none" /><path d="M 107.76421540070413 80.48803036053334 l 12.105857502856344 -30.422793787253877 a53.74291018985998,53.74291018985998 0 0,0 0.8566009017051787,0.34942901577328417 l -12.62774227414991 30.209903885297013" fill="#72ff27" stroke="none" /><path d="M 108.43124777332544 80.76684994638697 l 1.0759982862415374 -2.4545401882492115 a23.680026090866505,23.680026090866505 0 0,0 0.3719093352352839,0.16686487782315915 l -1.1180897399436016 2.4356549799095215" fill="#ff1101" stroke="none" /><path d="M 109.08828744355905 81.06846463323043 l 6.557834021894861 -13.66042474843743 a36.152966421346136,36.152966421346136 0 0,0 0.5586988755492317,0.2741511118294315 l -6.792004164454524 13.545518476473166" fill="#ffbc11" stroke="none" /><path d="M 109.73455568895987 81.39251694778311 l 16.582109997785707 -31.696498598670246 a56.771977795394115,56.771977795394115 0 0,0 0.8620012542117211,0.46045121700598396 l -17.125256298525738 31.406368655162506" fill="#53ff2b" stroke="none" /><line stroke="#e1ed5e" stroke-width="0.3" x1="143.23703022742887" x2="145.7803849466894" y1="26.81831364943548" y2="22.513508569990506" /><path d="M 143.74570117128098 25.957352633546492 a86.0,86.0 0 0,1 28.547481713284135,27.462654790039103" fill="none" id="id62" stroke="none" /><text fill="#e1ed5e" style="font-size:6.75px; font-family:Arial;" text-anchor="middle"><textPath startOffset="19.985693538727396" xlink:href="#id62">February</textPath></text><path d="M 111.2981086023043 82.29822771554956 l 4.413202619636663 -6.914565133673363 a29.2028999963293,29.2028999963293 0 0,0 0.4214019829339001,0.27409157175896287 l -4.531571628354843 6.837574637754872" fill="#ff5f08" stroke="none" /><path d="M 111.60114157652 82.49532879139004 l 4.90820211976054 -7.4058629286707705 a29.884663964758705,29.884663964758705 0 0,0 0.4263478587180805,0.2878719773822801 l -5.034954672885163 7.3202790389898205" fill="#ff6909" stroke="none" /><path d="M 112.19680574252982 82.90503203632743 l 4.727915636060341 -6.626617496380165 a29.140346780391827,29.140346780391827 0 0,0 0.40582051900001825,0.2948458657907191 l -4.841281471414148 6.54425239577277" fill="#ff5e08" stroke="none" /><path d="M 112.48926042617603 83.11751280151076 l 12.365506809561733 -16.71520196485934 a41.791915144674746,41.791915144674746 0 0,0 0.5746464876108628,0.43281182079743297 l -12.65139945093098 16.49987355455606" fill="#fbff18" stroke="none" /><path d="M 113.06298171725822 83.55741782278167 l 3.21944862326772 -4.052371020582167 a26.175573429709463,26.175573429709463 0 0,0 0.3503745110341398,0.2833118210089531 l -3.288726532866351 3.996353102309084" fill="#ff3505" stroke="none" /><path d="M 113.34407831869373 83.78471172551755 l 6.737560552283176 -8.187263594594047 a31.603113097720282,31.603113097720282 0 0,0 0.4170745049362751,0.3492879034634812 l -6.877492594178568 8.070074533736745" fill="#ff800b" stroke="none" /><path d="M 113.6212207817346 84.01681056812373 l 5.860673837696258 -6.876935749543866 a30.035471384228487,30.035471384228487 0 0,0 0.3906130236000218,0.3387357649012871 l -5.978180659943045 6.775034991222908" fill="#ff6b09" stroke="none" /><path d="M 113.89432698308785 84.25364557470407 l 8.25119279745537 -9.351025521302857 a33.470920610798416,33.470920610798416 0 0,0 0.4287290418738899,0.38491716690057 l -8.41093282692525 9.207609345632989" fill="#ff990e" stroke="none" /><path d="M 114.42810811169701 84.74124197986012 l 9.735812495554914 -10.296319229732584 a35.170399945984734,35.170399945984734 0 0,0 0.43630850070390115,0.41972843199038085 l -9.911604239871233 10.127207710979901" fill="#ffb010" stroke="none" /><path d="M 114.68862486808459 84.99185889309783 l 1.8585014929264128 -1.898928790388885 a23.657058213546986,23.657058213546986 0 0,0 0.28857578036515874,0.28733654425518973 l -1.890913073458894 1.8666563954835764" fill="#ff1001" stroke="none" /><path d="M 114.94478906791727 85.2469230424477 l 1.824741083782368 -1.8013332616677982 a23.564075182679712,23.564075182679712 0 0,0 0.2824723722031987,0.2911126095779094 l -1.8554777196886758 1.7696564565397743" fill="#ff0f01" stroke="none" /><path d="M 115.19652480421416 85.50635884689758 l 9.450223677524386 -9.013123234636351 a34.05921582630382,34.05921582630382 0 0,0 0.40097862572967075,0.42773604050225195 l -9.603969625224519 8.849117777256044" fill="#ffa10e" stroke="none" /><path d="M 115.4437574822437 85.77008943001954 l 12.164714871189268 -11.208593823449892 a37.541247334962755,37.541247334962755 0 0,0 0.43379154309690554,0.47900345646798764 l -12.35585005490221 10.997537579712356" fill="#ffce13" stroke="none" /><path d="M 115.68641384162765 86.03803664274999 l 13.27929678436735 -11.819467278197656 a38.777500663133,38.777500663133 0 0,0 0.43949336514004955,0.5024168904651602 l -13.480782013085248 11.589134831529549" fill="#ffde14" stroke="none" /><path d="M 115.9244219780498 86.31012108654704 l 13.152334709482055 -11.306775834639383 a38.344367618481556,38.344367618481556 0 0,0 0.425968285616191,0.5042120928559605 l -13.345013608585363 11.078704792154317" fill="#ffd814" stroke="none" /><path d="M 116.60985879189232 87.15038557335679 l 6.83110191007095 -5.284634069036383 a29.63662610915831,29.63662610915831 0 0,0 0.30867824669786387,0.4061843897970196 l -6.921056096992927 5.166264903358329" fill="#ff6509" stroke="none" /><path d="M 117.04232023915458 87.72973835380427 l 13.256220844012862 -9.544316496417418 a37.33466768713177,37.33466768713177 0 0,0 0.37101304714857886,0.5247716438171525 l -13.418546510965324 9.314718352268473" fill="#ffcc13" stroke="none" /><path d="M 117.2510076193507 88.02491185347247 l 4.947975175175629 -3.434723360917994 a27.023270116821102,27.023270116821102 0 0,0 0.26196555492428597,0.3844021269997407 l -5.006365195768648 3.349043210647847" fill="#ff4106" stroke="none" /><path d="M 117.45458315368197 88.32363383020206 l 13.011644882726028 -8.704231363442098 a36.65460143799578,36.65460143799578 0 0,0 0.34630458356726695,0.5274456393647762 l -13.15954610165122 8.478967660099649" fill="#ffc312" stroke="none" /><line stroke="#e1ed5e" stroke-width="0.3" x1="172.23445277983987" x2="176.4835382374775" y1="55.19839476539836" y2="52.563006222186495" /><path d="M 173.08426987136738 54.67131705675599 a86.0,86.0 0 0,1 12.851231095245387,41.99856678651699" fill="none" id="id63" stroke="none" /><text fill="#e1ed5e" style="font-size:6.75px; font-family:Arial;" text-anchor="middle"><textPath startOffset="22.20632615414155" xlink:href="#id63">March</textPath></text><path d="M 117.84615892207809 88.93136811851018 l 21.64203348171259 -13.422927747191668 a46.466695948432275,46.466695948432275 0 0,0 0.41573133688323577,0.6833530086411346 l -21.869880616882053 13.048406965343451" fill="#c3ff1e" stroke="none" /><path d="M 118.03404312379186 89.2402003453031 l 24.719720266109903 -14.748730262965465 a49.78523257513196,49.78523257513196 0 0,0 0.43275297908738347,0.7397151201995555 l -24.969932919667613 14.321035730412014" fill="#9dff22" stroke="none" /><path d="M 118.21658344932153 89.55222093294921 l 16.57071727903335 -9.503823458198992 a40.10265247200681,40.10265247200681 0 0,0 0.338279926158149,0.6017622423468355 l -16.73185484648393 9.217177705917363" fill="#ffee16" stroke="none" /><path d="M 118.3937258080291 89.86733742301442 l 11.314358477495885 -6.232808835145207 a33.917531255342375,33.917531255342375 0 0,0 0.2773031148117553,0.5138005567019102 l -11.419969691526106 6.037127295110838" fill="#ff9f0e" stroke="none" /><path d="M 118.56541770881063 90.18545643968196 l 18.040645461936155 -9.537124535495819 a41.40641156815264,41.40641156815264 0 0,0 0.32768357187222874,0.6329803612710385 l -18.2021384669685 9.225171451964435" fill="#ffff18" stroke="none" /><path d="M 118.73160827565052 90.50648371742162 l 15.19546202909709 -7.7013337067302645 a38.03562758280866,38.03562758280866 0 0,0 0.29095441534339883,0.5865463470532118 l -15.325776457393898 7.438627771178103" fill="#ffd513" stroke="none" /><path d="M 118.89224826269711 90.83032412892265 l 32.454341619210396 -15.75226987912179 a57.07517562370417,57.07517562370417 0 0,0 0.42138277692847925,0.8875395942175595 l -32.720682589980626 15.19128786926369" fill="#50ff2b" stroke="none" /><path d="M 119.04729006885535 91.15688171328212 l 6.505398718244062 -3.0202727085970333 a28.172325962867802,28.172325962867802 0 0,0 0.20042286783837115,0.4416052222239725 l -6.55642390304578 2.907845477530998" fill="#ff5107" stroke="none" /><path d="M 119.47837535516314 92.15188598940014 l 49.82557390726604 -20.075431217323825 a74.71788113607917,74.71788113607917 0 0,0 0.47038980120771845,1.1970907362053493 l -50.16375725835546 19.214791476222693" fill="#41ffd2" stroke="none" /><path d="M 119.61058180528143 92.48833698450437 l 21.12459655219722 -8.09159321299031 a43.62128334594688,43.62128334594688 0 0,0 0.26254905040943605,0.703500923921899 l -21.260750191108283 7.726769152039077" fill="#e5ff1a" stroke="none" /><path d="M 119.7369772167798 92.82701384747503 l 19.272485184481553 -7.004176365745616 a41.50578386086546,41.50578386086546 0 0,0 0.2382568749048219,0.6735842693717554 l -19.390195140196187 6.671394469947247" fill="#feff18" stroke="none" /><path d="M 119.97218684219823 93.5106431181261 l 13.849294978616813 -4.49990871749209 a35.5620105023483,35.5620105023483 0 0,0 0.18415112515751605,0.5838093905822148 l -13.924701587542536 4.260849160483456" fill="#ffb510" stroke="none" /><path d="M 120.18372546131832 94.20196356495316 l 9.847101991723223 -2.828707526618551 a31.245340594950854,31.245340594950854 0 0,0 0.14404582513100506,0.5182094738117307 l -9.894334587420591 2.6587867493878687" fill="#ff7b0b" stroke="none" /><path d="M 120.28053869075195 94.5502522615342 l 7.654310894366184 -2.0568518480777875 a28.92585104531708,28.92585104531708 0 0,0 0.12507492279466811,0.4819646987999033 l -7.688582149031156 1.924790723729034" fill="#ff5b08" stroke="none" /><path d="M 120.37134235888165 94.90015583598534 l 54.781049053888125 -13.71410918310288 a77.47158689226436,77.47158689226436 0 0,0 0.3127166419146598,1.2964123695582508 l -55.008998496063604 12.769111581885221" fill="#45ffee" stroke="none" /><path d="M 120.53481517161879 95.60439243477599 l 9.47474978799953 -2.0281303483216244 a30.68938575220227,30.68938575220227 0 0,0 0.10612784767910434,0.5175170758212652 l -9.508256931593632 1.8647376163369473" fill="#ff740a" stroke="none" /><path d="M 120.6074358757038 95.95851677861258 l 10.250238850897414 -2.010253414397712 a31.44550215597816,31.44550215597816 0 0,0 0.09959880058075458,0.5320607752960613 l -10.28332337538803 1.8335145616390884" fill="#ff7e0b" stroke="none" /><path d="M 120.83666639777658 97.38593545837742 l 18.930201058642236 -2.3748888813837903 a40.078590338899254,40.078590338899254 0 0,0 0.07998474158176379,0.68526042001404 l -18.96827615322759 2.048684723044898" fill="#ffee16" stroke="none" /><path d="M 120.94382443527127 98.46500227214037 l 6.61060241315463 -0.48449888965297455 a27.628333383202808,27.628333383202808 0 0,0 0.030679828858536515,0.47460337322788976 l -6.6179628330175815 0.37063645217204955" fill="#ff4906" stroke="none" /><line stroke="#e1ed5e" stroke-width="0.3" x1="184.98032266829074" x2="189.97916517819016" y1="98.17113171792111" y2="98.06355123074" /><path d="M 185.9800911702706 98.14961562048488 a86.0,86.0 0 0,1 -9.607161424134198,41.387399972396054" fill="none" id="id64" stroke="none" /><text fill="#e1ed5e" style="font-size:6.75px; font-family:Arial;" text-anchor="middle"><textPath startOffset="21.466115282336823" xlink:href="#id64">April</textPath></text><path d="M 120.99513854157772 99.54816195383933 l 46.34875599602579 -0.9974752636068142 a67.35948812574017,67.35948812574017 0 0,0 0.014969821506531105,1.1594291730029462 l -46.359058824650035 0.19950983254340518" fill="#38ff82" stroke="none" /><path d="M 120.99980553446 99.90962569577887 l 44.52783421767323 -0.1916290143398 a65.52824656098338,65.52824656098338 0 0,0 -0.004854403370906509,1.127992382939404 l -44.52453551701282 -0.5748728468032887" fill="#36ff6d" stroke="none" /><path d="M 120.9764740272857 100.99374915477107 l 18.965506535903216 0.898480653390233 a39.98677712640837,39.98677712640837 0 0,0 -0.03848946104627563,0.6872551827386917 l -18.947230723969408 -1.224807552464348" fill="#ffed16" stroke="none" /><path d="M 120.92983693683757 101.71520430193887 l 13.038224351184635 1.068485080141051 a34.08193237248641,34.08193237248641 0 0,0 -0.052949371586180224,0.5842919032535276 l -13.017900383321379 -1.2927583719431492" fill="#ffa10e" stroke="none" /><path d="M 120.89721153311464 102.0752229133903 l 20.908063927310405 2.0763006235462456 a42.01090577456948,42.01090577456948 0 0,0 -0.0776555559059503,0.7189940026824632 l -20.8692260699034 -2.4358909481135003" fill="#f8ff18" stroke="none" /><path d="M 120.8583938346157 102.4346265915055 l 21.84053649913633 2.5492639248808975 a42.988810361836435,42.988810361836435 0 0,0 -0.09211578978838554,0.7342534781474667 l -21.793419200101095 -2.9248351573157594" fill="#ecff1a" stroke="none" /><path d="M 120.81339534386255 102.79330883721812 l 19.638155492494224 2.6355831125853917 a40.81422341376836,40.81422341376836 0 0,0 -0.09944278442790033,0.6955026026771526 l -19.58987865704972 -2.9732311872429533" fill="#fff717" stroke="none" /><path d="M 120.70491114924044 103.5080841355445 l 25.99849556393366 4.4049891921031294 a47.36902920796334,47.36902920796334 0 0,0 -0.14313016315162647,0.8027499662421267 l -25.918818958442845 -4.851857909078475" fill="#b9ff1f" stroke="none" /><path d="M 120.64145759157962 103.86396538481128 l 11.856977406191316 2.2195598379012833 a33.06293327035161,33.06293327035161 0 0,0 -0.10953288017330981,0.5585057962155129 l -11.817014593042343 -2.4233293611847415" fill="#ff940d" stroke="none" /><path d="M 120.49622156327973 104.57218783832717 l 36.48620308223918 8.139147670916127 a58.38300068436694,58.38300068436694 0 0,0 -0.22724730643887145,0.978975448524085 l -36.34069520986976 -8.765991776788779" fill="#43ff2d" stroke="none" /><path d="M 120.32669344350535 105.2749913415812 l 18.419171385442336 4.779969248188414 a40.029292696785255,40.029292696785255 0 0,0 -0.17882023574111774,0.6654566199532163 l -18.33416307335944 -5.096316801317179" fill="#ffee16" stroke="none" /><path d="M 119.9155931802556 106.66101706037122 l 18.50223016339838 6.188300275961447 a40.50967917021788,40.50967917021788 0 0,0 -0.22687189076026842,0.6593959109273929 l -18.392967441694882 -6.5058688899781405" fill="#fff417" stroke="none" /><path d="M 119.67450827220406 107.3425965602758 l 30.631340385013484 11.431725328830327 a53.69500508910159,53.69500508910159 0 0,0 -0.3306224435846001,0.8631508712788145 l -30.430023661835378 -11.957299766942285" fill="#73ff27" stroke="none" /><path d="M 119.54520255179757 107.68017299344265 l 16.84720256114137 6.6200096817741 a39.101181241093386,39.101181241093386 0 0,0 -0.2515460650056954,0.6243167042014921 l -16.73075388187828 -6.909025753818406" fill="#ffe215" stroke="none" /><path d="M 119.41010516605496 108.01547362559984 l 16.923851937313305 6.9887662991298685 a39.31009608876908,39.31009608876908 0 0,0 -0.2636565934923419,0.6232063041172446 l -16.801044362628655 -7.279047128913277" fill="#ffe515" stroke="none" /><path d="M 119.26925614724726 108.34839909993367 l 8.198009529813932 3.5517850225745944 a29.934345924437068,29.934345924437068 0 0,0 -0.20891167942687328,0.4710406860349316 l -8.135656765655785 -3.6923740451022136" fill="#ff6909" stroke="none" /><path d="M 119.12269723197855 108.67885076344098 l 8.254357211905809 3.7462463334128318 a30.06469936469768,30.06469936469768 0 0,0 -0.21793382763744684,0.4694100764275838 l -8.188648767428532 -3.8877764771192465" fill="#ff6b09" stroke="none" /><path d="M 118.81262510543309 109.33194174019688 l 30.784593135194147 15.270597698262216 a55.36396846351733,55.36396846351733 0 0,0 -0.4308406367723358,0.8500894502136199 l -30.517173828635542 -15.798241360178531" fill="#61ff29" stroke="none" /><path d="M 118.64920377521936 109.65438752849418 l 21.609722477571953 11.186999600428631 a45.333702258753576,45.333702258753576 0 0,0 -0.3647150137855198,0.68990335964064 l -21.41395495556154 -11.557317975155406" fill="#d0ff1d" stroke="none" /><line stroke="#e1ed5e" stroke-width="0.3" x1="174.80103733775053" x2="179.2010983576182" y1="140.37084112569926" y2="142.7455964860345" /><path d="M 175.68104954172406 140.8457921977663 a86.0,86.0 0 0,1 -30.038265399797805,32.042727171017184" fill="none" id="id65" stroke="none" /><text fill="#e1ed5e" style="font-size:6.75px; font-family:Arial;" text-anchor="middle"><textPath startOffset="22.206326154141568" xlink:href="#id65">May</textPath></text><path d="M 118.12598468904814 110.60418214915192 l 19.591310505424595 11.461436644909018 a43.69766457777591,43.69766457777591 0 0,0 -0.3854115793870595,0.6459719758853386 l -19.391118050339305 -11.79697071468046" fill="#e4ff1a" stroke="none" /><path d="M 117.55443506779139 111.5257021239791 l 22.75586832332333 14.940803213219834 a48.22236477245484,48.22236477245484 0 0,0 -0.46154978900070776,0.6899543106583321 l -22.4953154289119 -15.330294438083973" fill="#afff20" stroke="none" /><path d="M 117.35343817320211 111.8261652097733 l 16.889176592209417 11.509776370710346 a41.4381808893697,41.4381808893697 0 0,0 -0.40676328654218924,0.5859728521034854 l -16.68855239850509 -11.79879048500085" fill="#ffff18" stroke="none" /><path d="M 117.14729908036423 112.12312394758627 l 7.1613545043214275 5.06307074260524 a29.770386746386386,29.770386746386386 0 0,0 -0.2994336795062064,0.41588719162441923 l -7.073141032439618 -5.18559153968079" fill="#ff6709" stroke="none" /><path d="M 116.498646956653 112.99209946851258 l 14.829916022607183 11.678033027896685 a39.87598645470554,39.87598645470554 0 0,0 -0.42929744174058054,0.5356145660706256 l -14.626700668811747 -11.93157542754556" fill="#ffec16" stroke="none" /><path d="M 116.0416608686014 113.55231037782055 l 19.75872201454171 16.69255668746046 a46.86597271343214,46.86597271343214 0 0,0 -0.5259198817224656,0.6117636376582235 l -19.468459623248467 -17.03019742428021" fill="#bfff1e" stroke="none" /><path d="M 115.80600337817218 113.82643327865902 l 18.435674268032887 16.12675982127524 a45.493804687106234,45.493804687106234 0 0,0 -0.5206682548749015,0.5849763039182247 l -18.15534716350965 -16.44171029493433" fill="#ceff1d" stroke="none" /><path d="M 115.56566222782051 114.09645910891815 l 15.526557412815178 14.061045297567471 a41.947242776883314,41.947242776883314 0 0,0 -0.48929179966062253,0.5310296122275334 l -15.282219205158833 -14.326226164596338" fill="#f9ff18" stroke="none" /><path d="M 115.32070863581623 114.36230785411682 l 12.993217309614657 12.18041485234362 a38.809722121079346,38.809722121079346 0 0,0 -0.46108435295296074,0.4834451006802287 l -12.781626405282733 -12.402267069606356" fill="#ffde14" stroke="none" /><path d="M 115.07121518719521 114.62390073753431 l 13.37669343653803 12.979672480462028 a39.63887939215185,39.63887939215185 0 0,0 -0.4793650016157093,0.48559421578976175 l -13.151287809866785 -13.208007190232454" fill="#ffe915" stroke="none" /><path d="M 114.81725581225074 114.88116024355365 l 6.791263897954164 6.820553522343854 a30.62503068477253,30.62503068477253 0 0,0 -0.3767608636144641,0.3687398026970385 l -6.672853081963906 -6.936443427963464" fill="#ff730a" stroke="none" /><path d="M 114.29624159901734 115.38237550388516 l 14.696246260998306 15.812769875110586 a42.587573862921964,42.587573862921964 0 0,0 -0.5412686976727181,0.494436121967074 l -14.421878013858723 -16.063398763664242" fill="#f1ff19" stroke="none" /><path d="M 114.0293411484842 115.62618273729858 l 10.603899710094488 11.810852187868187 a36.87258386228949,36.87258386228949 0 0,0 -0.4759331344746054,0.41995565537715257 l -10.399024222713294 -11.991630985017629" fill="#ffc612" stroke="none" /><path d="M 113.75828350139079 115.86535959552629 l 11.868841783424243 13.686550568419236 a39.11604459427758,39.11604459427758 0 0,0 -0.5124844898875014,0.4367504003956972 l -11.631491816959693 -13.88882535903788" fill="#ffe215" stroke="none" /><path d="M 113.48314897796784 116.09983520530334 l 22.531154282225216 26.903794619627757 a56.092265219340675,56.092265219340675 0 0,0 -0.7455727038243646,0.6135555769162037 l -22.06471144985616 -27.28764531540114" fill="#5aff2a" stroke="none" /><path d="M 113.20401910651253 116.32954008644616 l 18.214286457661895 22.525786918144004 a49.96845365985891,49.96845365985891 0 0,0 -0.6734855432820628,0.5350576475099386 l -17.823843421662485 -22.835978479659065" fill="#9bff22" stroke="none" /><path d="M 112.92097659922987 116.55440617244103 l 11.240993382853706 14.40200505065333 a39.26958351228634,39.26958351228634 0 0,0 -0.5364435882714531,0.41132206835845264 l -10.991421066088758 -14.593366460839153" fill="#ffe415" stroke="none" /><path d="M 112.63410532772338 116.77436683061366 l 16.193630866020953 21.500367253557776 a47.91652787160346,47.91652787160346 0 0,0 -0.6631077697545585,0.4905512753965864 l -15.82113812584783 -21.775928477694134" fill="#b3ff20" stroke="none" /><path d="M 112.04921762599082 117.19931262002967 l 17.258235395480114 24.634776717506192 a51.078545724273106,51.078545724273106 0 0,0 -0.7244472946404765,0.49828145511683497 l -16.831631216216756 -24.928198961988123" fill="#8fff24" stroke="none" /><line stroke="#e1ed5e" stroke-width="0.3" x1="143.8653032363475" x2="146.44561519142675" y1="172.8068346515853" y2="177.08958963109032" /><path d="M 144.38136562736335 173.6633856474863 a86.0,86.0 0 0,1 -40.68145358897372,12.25698825130547" fill="none" id="id66" stroke="none" /><text fill="#e1ed5e" style="font-size:6.75px; font-family:Arial;" text-anchor="middle"><textPath startOffset="21.466115282336833" xlink:href="#id66">June</textPath></text><path d="M 110.8373102113329 117.98757091392108 l 4.632084642145083 7.6882500689829065 a29.97582292913647,29.97582292913647 0 0,0 -0.44425900894816106,0.26247605318473205 l -4.4990577621685395 -7.766844694461388" fill="#ff6a09" stroke="none" /><path d="M 110.5260780823613 118.17145234162733 l 14.15852918567597 24.442250600076793 a49.24690360196304,49.24690360196304 0 0,0 -0.7371821367899964,0.4185912565413101 l -13.735698281964774 -24.682345022412733" fill="#a3ff21" stroke="none" /><path d="M 110.21172684928248 118.3499491758327 l 16.6000949813274 29.829518916553877 a55.13741865141734,55.13741865141734 0 0,0 -0.8333028044003791,0.45438313026014093 l -16.08416936505837 -30.110842698573787" fill="#64ff29" stroke="none" /><path d="M 109.89434966115114 118.52300852407294 l 4.025194345315238 7.5354835560410045 a29.54316697372363,29.54316697372363 0 0,0 -0.4506164357077361,0.23574122171429152 l -3.894887007081006 -7.603654196700012" fill="#ff6409" stroke="none" /><path d="M 109.57404056367764 118.69057910512821 l 8.48262991264837 16.55991160131244 a39.60606574422006,39.60606574422006 0 0,0 -0.6094545417763997,0.30559315931543357 l -8.196321463189209 -16.703472601537175" fill="#ffe815" stroke="none" /><path d="M 108.92500713936063 119.00905698771935 l 2.4745154809006937 5.270382987817394 a26.8223847093345,26.8223847093345 0 0,0 -0.41961960985023744,0.19262678184006016 l -2.383427875283037 -5.312196839991528" fill="#ff3e05" stroke="none" /><path d="M 108.2653958097858 119.30500536409082 l 8.16872041779423 19.079206260947657 a41.75437555822561,41.75437555822561 0 0,0 -0.66315599712047,0.2771992605799003 l -7.8390929611762985 -19.21699056454753" fill="#fbff18" stroke="none" /><path d="M 107.59598834532513 119.57807347666477 l 11.691002191213267 30.13265548995853 a53.321145696145756,53.321145696145756 0 0,0 -0.8585460582403328,0.32462865636054866 l -11.17058591221266 -30.32943239642571" fill="#77ff27" stroke="none" /><path d="M 107.2578585660854 119.70592522655815 l 6.256218585589076 16.986356860783584 a39.1018394201407,39.1018394201407 0 0,0 -0.6335995760986206,0.22718626559580887 l -5.962899448860721 -17.091530667419352" fill="#ffe215" stroke="none" /><path d="M 106.91757812671514 119.82793768551818 l 3.038831925764586 8.710240630044806 a30.22511741422999,30.22511741422999 0 0,0 -0.49271297697223926,0.16715499319724753 l -2.8884492158551196 -8.761258610140176" fill="#ff6d0a" stroke="none" /><path d="M 106.57524785965236 119.94407469862006 l 6.3956012483312845 19.399169698532198 a41.426245379905396,41.426245379905396 0 0,0 -0.6791510493964988,0.21744271913349783 l -6.060728853843845 -19.506385264325402" fill="#ffff18" stroke="none" /><path d="M 106.2309692047433 120.05430185196036 l 8.95270268907742 28.814169388117232 a51.17295548941347,51.17295548941347 0 0,0 -0.8434400250829237,0.254121560713458 l -8.45538768955425 -28.964006317936416" fill="#8eff24" stroke="none" /><path d="M 105.88484417918355 120.15858648285463 l 2.85045522689126 9.764259928928908 a31.171817288970466,31.171817288970466 0 0,0 -0.516366841350991,0.14593042721475719 l -2.6819572174356634 -9.811879149482184" fill="#ff7a0b" stroke="none" /><path d="M 105.53697534728816 120.25689768951611 l 4.960725873587422 18.148702167549338 a39.81446761296449,39.81446761296449 0 0,0 -0.6626446164334856,0.17501046588328134 l -4.647590814342439 -18.231403982736204" fill="#ffeb16" stroke="none" /><path d="M 105.18746579009965 120.34920634021253 l 7.12660771642973 27.95600333483711 a49.85007209698616,49.85007209698616 0 0,0 -0.8333192411886237,0.20480959492775488 l -6.644335190497895 -28.074534188078896" fill="#9dff22" stroke="none" /><path d="M 104.83641907484287 120.43548508189849 l 4.069347008226901 17.194349536881468 a38.669330521268236,38.669330521268236 0 0,0 -0.649055230724508,0.1477228573704896 l -3.7727716281095316 -17.26184912782964" fill="#ffdd14" stroke="none" /><path d="M 104.48393922423573 120.51570834832081 l 1.7593040050299353 8.049477492500777 a29.23949261085845,29.23949261085845 0 0,0 -0.49262772139020605,0.1032349287469355 l -1.6204848222103514 -8.078568401974254" fill="#ff6008" stroke="none" /><path d="M 104.13013068566511 120.58985236759428 l 3.4617367226348827 17.25772220765786 a38.60149416764174,38.60149416764174 0 0,0 -0.6526085978778232,0.12507399100483862 l -3.164160510185355 -17.314753397011167" fill="#ffdc14" stroke="none" /><path d="M 103.7750983002368 120.6578951692458 l 9.122809785468572 49.92136183191778 a71.74808395925011,71.74808395925011 0 0,0 -1.2168168522379352,0.21155920700718867 l -8.262143961758587 -50.07099961744597" fill="#3effb2" stroke="none" /><path d="M 102.70371172650421 120.8252237178851 l 1.9158643439228054 14.756863013239393 a35.88071040561665,35.88071040561665 0 0,0 -0.6131715717148,0.07424653807785099 l -1.6615653491566251 -14.787655080042594" fill="#ffb911" stroke="none" /><path d="M 102.34483914955558 120.86867818915974 l 1.9821016199175958 17.64037454428894 a38.75138137989484,38.75138137989484 0 0,0 -0.6635111228911802,0.06877564082097357 l -1.678157900420813 -17.67187955356567" fill="#ffde14" stroke="none" /><path d="M 101.98527174616119 120.90594882070398 l 1.5692481430840408 16.525002901862702 a37.59934518711938,37.59934518711938 0 0,0 -0.6448389437303934,0.055639417405827285 l -1.2845648816121056 -16.549566571547192" fill="#ffcf13" stroke="none" /><path d="M 101.62511606390274 120.93702456842531 l 1.5566907262917211 20.055473394028528 a41.11579725180955,41.11579725180955 0 0,0 -0.7060898861555162,0.04869609258025127 l -1.2112380793572746 -20.079297831125064" fill="#fffb17" stroke="none" /><path d="M 101.26447882468166 120.96189622390904 l 1.4319639581124173 23.73838082570289 a44.7815315949884,44.7815315949884 0 0,0 -0.7698412962147407,0.0397920015736688 l -1.023134593484197 -23.75951263403876" fill="#d7ff1c" stroke="none" /><path d="M 100.90346689309514 120.98055641714683 l 0.10097067134593755 2.3447686714819627 a23.346941669329542,23.346941669329542 0 0,0 -0.40165594646513253,0.013833842920271332 l -0.06059437320615272 -2.346159312828328" fill="#ff0c01" stroke="none" /><line stroke="#e1ed5e" stroke-width="0.3" x1="102.19456741930631" x2="102.32365962044197" y1="184.97166512339345" y2="189.96999836594603" /><path d="M 102.22038585953345 185.97133177190398 a86.0,86.0 0 0,1 -42.740103519485714,-10.115201625700543" fill="none" id="id67" stroke="none" /><text fill="#e1ed5e" style="font-size:6.75px; font-family:Arial;" text-anchor="middle"><textPath startOffset="22.20632615414155" xlink:href="#id67">July</textPath></text><path d="M 100.54218724476979 120.99299961872073 l 0.041429235182960475 1.604102506633209 a22.604637414905557,22.604637414905557 0 0,0 -0.38905843605272694,0.0066979938052670225 l -0.013811109237565606 -1.6045779777176359" fill="#ff0100" stroke="none" /><path d="M 100.18074693466247 120.99922214144158 l 0.16014724194310226 18.605944909564275 a39.60663411573525,39.60663411573525 0 0,0 -0.6817883532111025,0.0 l 0.16014724194308944 -18.605944909564275" fill="#ffe815" stroke="none" /><path d="M 99.45781275523022 120.99299961872073 l -0.2580554664207372 9.99167420561437 a30.99500605577051,30.99500605577051 0 0,0 -0.5332316613176704,-0.018365576577923634 l 0.4300074794130507 -9.985751830610353" fill="#ff780b" stroke="none" /><path d="M 99.09653310690486 120.98055641714683 l -0.8368780358373558 19.434211678753513 a40.45222219751426,40.45222219751426 0 0,0 -0.6954159463091125,-0.03594506110018867 l 1.1712820505599573 -19.416926810891123" fill="#fff316" stroke="none" /><path d="M 98.37488393609728 120.93702456842531 l -0.442656107777165 5.702916862219152 a26.720070381309654,26.720070381309654 0 0,0 -0.45825643705593344,-0.03954029363171127 l 0.5407568625746402 -5.6944523163087775" fill="#ff3c05" stroke="none" /><path d="M 98.01472825383883 120.90594882070398 l -2.170761054832235 22.85924816189658 a43.96208679724795,43.96208679724795 0 0,0 -0.7527301617850464,-0.07802355899695684 l 2.5639238132228743 -22.818495234443862" fill="#e1ff1b" stroke="none" /><path d="M 97.65516085044442 120.86867818915974 l -4.76129318664029 42.374716958759045 a63.641371344553264,63.641371344553264 0 0,0 -1.0875782349982521,-0.1316905782367292 l 5.489998844689931 -42.286480851796966" fill="#33ff57" stroke="none" /><path d="M 97.2962882734958 120.8252237178851 l -3.4119717413094066 26.28056613259658 a47.50112653102272,47.50112653102272 0 0,0 -0.8099426331988525,-0.11225066874727407 l 3.86384296569509 -26.2179408983567" fill="#b7ff1f" stroke="none" /><path d="M 96.58105272829116 120.7198165907248 l -1.664262161891402 10.085913590599988 a31.22230020594939,31.22230020594939 0 0,0 -0.5295168729217763,-0.09206329574267942 l 1.8376280062852284 -10.055771716336302" fill="#ff7b0b" stroke="none" /><path d="M 95.86986931433489 120.58985236759428 l -5.082819048617108 25.339269332434956 a46.844024837139116,46.844024837139116 0 0,0 -0.7892293318282714,-0.16539068001767743 l 5.518239841874767 -25.248022671690737" fill="#bfff1e" stroke="none" /><path d="M 95.51606077576429 120.51570834832081 l -6.1062980144466374 27.93860997829889 a49.5981258644817,49.5981258644817 0 0,0 -0.8324923807193574,-0.18947255548922579 l 6.586310544558858 -27.82936068923198" fill="#a0ff22" stroke="none" /><path d="M 95.16358092515715 120.4354850818985 l -2.8921634167517234 12.220355896136411 a33.557934044158415,33.557934044158415 0 0,0 -0.5609715484288477,-0.1378731582338459 l 3.1020882499237814 -12.168761479588534" fill="#ff9a0e" stroke="none" /><path d="M 94.81253420990036 120.34920634021253 l -2.5570111221966045 10.03055230534786 a31.35134220424368,31.35134220424368 0 0,0 -0.5217901776700322,-0.13780952839978136 l 2.729291742678126 -9.985051427644496" fill="#ff7d0b" stroke="none" /><path d="M 94.11515582081647 120.15858648285463 l -6.3210093408627035 21.65267415362413 a43.55645045414495,43.55645045414495 0 0,0 -0.7179036917491947,-0.21629849327025036 l 6.692788007052144 -21.54066029124815" fill="#e5ff1a" stroke="none" /><path d="M 93.76903079525671 120.05430185196036 l -9.307053146761525 29.954642211248544 a52.36720944363009,52.36720944363009 0 0,0 -0.8585196394568557,-0.2748708773974417 l 9.821294131309322 -29.789998487191394" fill="#81ff25" stroke="none" /><path d="M 93.08242187328487 119.8279376855182 l -5.830814424133004 16.71293376666636 a38.700863028046236,38.700863028046236 0 0,0 -0.6271022226282067,-0.22485654580608125 l 6.117636207390938 -16.610089679820323" fill="#ffdd14" stroke="none" /><path d="M 92.7421414339146 119.70592522655815 l -3.3324079584189685 9.047872930432467 a30.642040622533525,30.642040622533525 0 0,0 -0.49338030624531914,-0.1865542149473591 l 3.4876584854245705 -8.989170465378475" fill="#ff730a" stroke="none" /><path d="M 92.06813273071674 119.44442032107085 l -4.893874151965168 11.996991726997672 a33.95676713971982,33.95676713971982 0 0,0 -0.5393119516331087,-0.22543243952213463 l 5.099657563095739 -11.910974244455565" fill="#ffa00e" stroke="none" /><path d="M 91.7346041902142 119.30500536409082 l -13.800802062174517 32.2337325362691 a56.063879573986874,56.063879573986874 0 0,0 -0.8838853059726238,-0.3874693431436486 l 14.353608042804884 -31.991398639831004" fill="#5aff2a" stroke="none" /><path d="M 91.07499286063937 119.00905698771935 l -2.9472357908028477 6.2772132535942005 a27.93466690171114,27.93466690171114 0 0,0 -0.4335025746143137,-0.2081075797229489 l 3.0548510334174033 -6.22555139737169" fill="#ff4d07" stroke="none" /><path d="M 90.42595943632237 118.69057910512821 l -3.282220672453295 6.407598203804836 a28.199325474242897,28.199325474242897 0 0,0 -0.4301190710483973,-0.2250179692898063 l 3.392030646028188 -6.350150815570313" fill="#ff5107" stroke="none" /><line stroke="#e1ed5e" stroke-width="0.3" x1="58.666819895761336" x2="56.23545636021788" y1="174.27360380694188" y2="178.64263932499728" /><path d="M 58.180547188652646 175.14741091055294 a86.0,86.0 0 0,1 -31.652253787137756,-30.449443065178592" fill="none" id="id68" stroke="none" /><text fill="#e1ed5e" style="font-size:6.75px; font-family:Arial;" text-anchor="middle"><textPath startOffset="22.20632615414155" xlink:href="#id68">August</textPath></text><path d="M 89.4739219176387 118.17145234162733 l -4.698149933817411 8.11054287724145 a30.373020781167646,30.373020781167646 0 0,0 -0.45014571052485713,-0.26595402023774867 l 4.83706351537065 -8.028470284709952" fill="#ff6f0a" stroke="none" /><path d="M 89.1626897886671 117.98757091392108 l -2.972366987507176 4.93348081095553 a26.75970471643199,26.75970471643199 0 0,0 -0.39250217411097876,-0.24110689317218942 l 3.056848361550464 -4.881585450954962" fill="#ff3d05" stroke="none" /><path d="M 88.8546689885994 117.79835938074946 l -7.632193186176039 12.188109716249492 a35.380556014509565,35.380556014509565 0 0,0 -0.5133856795866304,-0.3276670307149182 l 7.840860667809593 -12.05492825671077" fill="#ffb210" stroke="none" /><path d="M 88.54995079064634 117.60387380957326 l -25.31522862028755 38.92088863059087 a67.42947740274796,67.42947740274796 0 0,0 -0.967533694866189,-0.641228574957476 l 25.9814370138937 -38.47936203454208" fill="#38ff83" stroke="none" /><path d="M 87.95078237400918 117.19931262002967 l -7.280906733842306 10.392923006263283 a33.68954102720137,33.68954102720137 0 0,0 -0.4720910124580525,-0.33682440259502494 l 7.458725074149246 -10.266054341824038" fill="#ff9c0e" stroke="none" /><path d="M 87.65650970185807 116.9893568818739 l -27.62294186760759 38.01971777680133 a67.99495565748362,67.99495565748362 0 0,0 -0.940969335704191,-0.6961066191542711 l 28.273296173730344 -37.538601208907295" fill="#39ff89" stroke="none" /><path d="M 87.36589467227662 116.77436683061367 l -4.424746542126031 5.87475881392593 a28.35467015466069,28.35467015466069 0 0,0 -0.38734001335310925,-0.2969958052136707 l 4.525215283972627 -5.797723666884893" fill="#ff5307" stroke="none" /><path d="M 87.07902340077011 116.55440617244103 l -9.131817166662028 11.699720164991477 a35.841615030193026,35.841615030193026 0 0,0 -0.4830809801526218,-0.3837887470273518 l 9.331855639532009 -11.540797503958995" fill="#ffb811" stroke="none" /><path d="M 86.24171649860922 115.8653595955263 l -12.13489823681674 13.99335347049317 a39.522140712349135,39.522140712349135 0 0,0 -0.510132308075434,-0.4501324498101515 l 12.373972897798762 -13.78239787891073" fill="#ffe715" stroke="none" /><path d="M 85.97065885151581 115.62618273729859 l -24.544926738983264 27.33866875412028 a57.740389734862205,57.740389734862205 0 0,0 -0.7338540968663869,-0.6703583179747439 l 25.011880385316505 -26.91211766955896" fill="#49ff2c" stroke="none" /><path d="M 85.44109423537348 115.13401014063109 l -4.358194239224559 4.53035117319866 a27.28632951564843,27.28632951564843 0 0,0 -0.3356868823741687,-0.3285402671263121 l 4.435531073974523 -4.454660803149778" fill="#ff4406" stroke="none" /><path d="M 84.9287848128048 114.62390073753433 l -1.8989198160885714 1.8425597773038123 a23.645925736084013,23.645925736084013 0 0,0 -0.28092874084441255,-0.2945526616370612 l 1.9303551083119415 -1.8095999990842508" fill="#ff1001" stroke="none" /><path d="M 84.43433777217949 114.09645910891817 l -14.210054064710087 12.868803339486934 a40.17111723172058,40.17111723172058 0 0,0 -0.4597510726849135,-0.5165352039491633 l 14.42946398704334 -12.622293965796908" fill="#ffef16" stroke="none" /><path d="M 84.19399662182784 113.82643327865904 l -9.236488515322813 8.079695361989707 a33.27168273857535,33.27168273857535 0 0,0 -0.3733676788823765,-0.43431096133692926 l 9.374198703775967 -7.919507301491247" fill="#ff970d" stroke="none" /><path d="M 83.95833913139862 113.55231037782056 l -2.026239386347019 1.7118068564389015 a23.652532519034438,23.652532519034438 0 0,0 -0.2600697319663458,-0.3132707457581011 l 2.0554051182069015 -1.6766748535670393" fill="#ff1001" stroke="none" /><path d="M 83.72743513129214 113.27417163493432 l -2.114770423751473 1.7251014698575253 a23.72914437626128,23.72914437626128 0 0,0 -0.2554635478922288,-0.3187300553117275 l 2.1441518836985627 -1.6884435809675382" fill="#ff1101" stroke="none" /><path d="M 83.50135304334701 112.99209946851258 l -7.331578725029964 5.773358282474786 a30.33186543297385,30.33186543297385 0 0,0 -0.31948580261108267,-0.4129784669944179 l 7.429871344859115 -5.646301821367116" fill="#ff6f0a" stroke="none" /><path d="M 83.06392112726016 112.41649034213515 l -10.493664211498007 7.693308546489769 a34.011686476977786,34.011686476977786 0 0,0 -0.3420931180629996,-0.4751374206798692 l 10.624537121936614 -7.511537520358762" fill="#ffa00e" stroke="none" /><path d="M 82.6465618267979 111.8261652097733 l -23.628726242326618 16.10270065500789 a49.59394467749433,49.59394467749433 0 0,0 -0.4746775652670665,-0.7095785549764644 l 23.902406913004416 -15.693585185825606" fill="#a0ff22" stroke="none" /><path d="M 82.24976979558568 111.22182372390057 l -5.8756451185766565 3.71462527671706 a27.95137730999253,27.95137730999253 0 0,0 -0.25360598797792133,-0.4088936025249247 l 5.938715746222534 -3.6129353428268716" fill="#ff4e07" stroke="none" /><line stroke="#e1ed5e" stroke-width="0.3" x1="26.63291911575756" x2="22.317208475507996" y1="142.92168965132927" y2="145.44649492493687" /><path d="M 25.769776987707644 143.4266507060508 a86.0,86.0 0 0,1 -11.730757126820373,-40.83630448921669" fill="none" id="id69" stroke="none" /><text fill="#e1ed5e" style="font-size:6.75px; font-family:Arial;" text-anchor="middle"><textPath startOffset="21.46611528233685" xlink:href="#id69">September</textPath></text><path d="M 81.51974371655577 109.97397251340807 l -11.89592541551178 6.42034565408926 a34.51790959466004,34.51790959466004 0 0,0 -0.27770067844466445,-0.5253050293841852 l 12.00467860218133 -6.214625609618949" fill="#ffa70f" stroke="none" /><path d="M 81.35079622478065 109.6543875284942 l -7.090744906388857 3.6707625707290625 a28.984557669535924,28.984557669535924 0 0,0 -0.2255569033339155,-0.4450451688667857 l 7.152880479509039 -3.548163190159592" fill="#ff5c08" stroke="none" /><path d="M 81.02952815118164 109.00673069616217 l -5.6401056364053295 2.677788563713205 a27.243504078781754,27.243504078781754 0 0,0 -0.19748346890563317,-0.42536182306856957 l 5.68536372215079 -2.5803066733658087" fill="#ff4406" stroke="none" /><path d="M 80.73074385275274 108.34839909993369 l -11.58141127950094 5.0176427550141725 a33.62164117862245,33.62164117862245 0 0,0 -0.22550357955777678,-0.5330238493940517 l 11.666065840251024 -4.8175443799539615" fill="#ff9b0e" stroke="none" /><path d="M 80.58989483394504 108.01547362559985 l -19.144605686163324 7.905834648351877 a41.712753278252464,41.712753278252464 0 0,0 -0.2683468533342136,-0.6660148830102449 l 19.277855153754928 -7.575120397498826" fill="#fcff18" stroke="none" /><path d="M 80.45479744820244 107.68017299344265 l -30.681999306263474 12.056312122235791 a53.96573589984489,53.96573589984489 0 0,0 -0.3322894456093272,-0.8675028875377829 l 30.88498303146631 -11.52638566786485" fill="#70ff27" stroke="none" /><path d="M 80.32549172779594 107.34259656027581 l -11.729434364880746 4.377466680741906 a33.51965834442182,33.51965834442182 0 0,0 -0.19708878975856575,-0.5423037031485525 l 11.803047415644535 -4.174915180587235" fill="#ff9a0e" stroke="none" /><path d="M 80.20201598880116 107.00284435728193 l -17.773096490437066 6.286611222591237 a39.85217333684359,39.85217333684359 0 0,0 -0.22318957101202863,-0.6486933660833353 l 17.878676892392324 -5.979745153418604" fill="#ffeb16" stroke="none" /><path d="M 80.0844068197444 106.66101706037122 l -38.22142685176669 12.783630094621222 a61.30258886202047,61.30258886202047 0 0,0 -0.32609400993584065,-1.0036141659510045 l 38.435813112718776 -12.123817028692415" fill="#31ff3b" stroke="none" /><path d="M 79.97269907076064 106.31721596034903 l -27.408281004556354 8.645400137515713 a49.73946435065346,49.73946435065346 0 0,0 -0.2505287465802327,-0.8187424393204702 l 27.553036523642717 -8.172330725643196" fill="#9eff22" stroke="none" /><path d="M 79.76711848015287 105.62410040840567 l -18.91141389112833 5.256774250582731 a40.6284296591233,40.6284296591233 0 0,0 -0.18149672102548778,-0.6754168173733235 l 18.999098688495593 -4.9304665000338685" fill="#fff517" stroke="none" /><path d="M 79.67330655649465 105.27499134158121 l -11.563308440468454 3.0008005027002165 a32.94633440626935,32.94633440626935 0 0,0 -0.13772930458675617,-0.5501601081039296 l 11.613249059350268 -2.801312555198895" fill="#ff920d" stroke="none" /><path d="M 79.50377843672027 104.57218783832718 l -12.646924706887342 2.821208541220365 a33.957774584192,33.957774584192 0 0,0 -0.12235465031864962,-0.5716001923282332 l 12.693613395930432 -2.603094529475968" fill="#ffa00e" stroke="none" /><path d="M 79.4281124754447 104.21870165774334 l -10.245278111103854 2.10101147499297 a31.45848807390035,31.45848807390035 0 0,0 -0.10421757732311643,-0.5314031814958382 l 10.279925621402636 -1.9243445664291772" fill="#ff7e0b" stroke="none" /><path d="M 79.29508885075956 103.50808413554451 l -9.585808303919311 1.6241471308406845 a30.722426381418707,30.722426381418707 0 0,0 -0.08385502771177708,-0.522165337607119 l 9.612345085992379 -1.4589025635403519" fill="#ff740a" stroke="none" /><path d="M 79.23777060512086 103.15116336523772 l -19.443169320558702 2.9509645472932724 a40.66583395097439,40.66583395097439 0 0,0 -0.0990812373953815,-0.6929739435737782 l 19.49108460897068 -2.6158451317390936" fill="#fff517" stroke="none" /><path d="M 79.18660465613746 102.79330883721812 l -11.007841873173158 1.4773323369414277 a32.10653382196971,32.10653382196971 0 0,0 -0.06879740787160296,-0.548383031110065 l 11.031640790291608 -1.287631551543954" fill="#ff870c" stroke="none" /><path d="M 79.10278846688536 102.07522291339032 l -34.99094974752784 3.474818664791301 a56.163061996748816,56.163061996748816 0 0,0 -0.0872544081885513,-0.9628451235681096 l 35.04557875199347 -2.8719921526746255" fill="#59ff2a" stroke="none" /><path d="M 79.0235259727143 100.99374915477108 l -11.397374110410757 0.5399444574954638 a32.41015673116901,32.41015673116901 0 0,0 -0.021603479437841043,-0.557489811387653 l 11.4049797226998 -0.343677399093814" fill="#ff8b0c" stroke="none" /><line stroke="#e1ed5e" stroke-width="0.3" x1="15.007084014347285" x2="10.007500721073583" y1="101.09737516637583" y2="101.16192664675087" /><path d="M 14.007167355692545 101.11028546245083 a86.0,86.0 0 0,1 10.666146001902534,-42.60595125391555" fill="none" id="id70" stroke="none" /><text fill="#e1ed5e" style="font-size:6.75px; font-family:Arial;" text-anchor="middle"><textPath startOffset="22.20632615414155" xlink:href="#id70">October</textPath></text><path d="M 79.00019446554 99.90962569577889 l -5.545534345868822 -0.023865640432708304 a26.54558569945538,26.54558569945538 0 0,0 0.005899431405496672,-0.45691746375721737 l 5.54430190734561 0.11931936225039766" fill="#ff3a05" stroke="none" /><path d="M 79.03285615573316 98.82574320788736 l -24.018689166355802 -1.3451574091693792 a45.05632718694732,45.05632718694732 0 0,0 0.05003271054816202,-0.7739838871781829 l 23.991975864803226 1.758400360600574" fill="#d4ff1c" stroke="none" /><path d="M 79.05617556472873 98.46500227214037 l -11.513561491848801 -0.8438425744152381 a32.54444318782761,32.54444318782761 0 0,0 0.04575673732988867,-0.5583480929903053 l 11.497330270699415 1.0419045846133217" fill="#ff8d0d" stroke="none" /><path d="M 79.12142395522702 97.74499172005258 l -9.98241759557987 -1.0781594627743312 a31.040472542650193,31.040472542650193 0 0,0 0.06194739270782193,-0.5307274300854167 l 9.962379849868459 1.2498306311846095" fill="#ff780b" stroke="none" /><path d="M 79.16333360222342 97.38593545837743 l -8.681225553597752 -1.0891033845946259 a29.749275586857124,29.749275586857124 0 0,0 0.06811734263558086,-0.5075533228397392 l 8.661192211904337 1.2383750494990244" fill="#ff6709" stroke="none" /><path d="M 79.21141760316559 97.0276538004421 l -27.44420682750645 -3.923965680124562 a48.723311401233204,48.723311401233204 0 0,0 0.1258548807446931,-0.8292264162855832 l 27.37259605332245 4.395791208802237" fill="#a9ff21" stroke="none" /><path d="M 79.26566170972629 96.67025291283419 l -7.082164706369526 -1.1373315594510411 a28.17290596650127,28.17290596650127 0 0,0 0.0810147308039435,-0.4781535271858503 l 7.0615381140453595 1.2590708749527195" fill="#ff5107" stroke="none" /><path d="M 79.54389044137918 95.25157060432595 l -9.970598623111314 -2.314451995809558 a31.235698556722745,31.235698556722745 0 0,0 0.12608393802622364,-0.5226993224889351 l 9.929281884824277 2.48573654995789" fill="#ff7b0b" stroke="none" /><path d="M 79.71946130924805 94.55025226153421 l -18.018461755094297 -4.841886731797485 a39.65767485897834,39.65767485897834 0 0,0 0.18282797975842555,-0.6577295183842351 l 17.93244700476951 5.151327553600663" fill="#ffe915" stroke="none" /><path d="M 79.91906864156998 93.8553929516997 l -25.875232688507047 -7.917617679991979 a48.05949623350193,48.05949623350193 0 0,0 0.2488669842026665,-0.7889763489585786 l 25.73511022053618 8.361844195376973" fill="#b1ff20" stroke="none" /><path d="M 80.02781315780177 93.51064311812611 l -6.801739718911785 -2.210019203324109 a28.15177237353675,28.15177237353675 0 0,0 0.153712305022418,-0.459580227145557 l 6.762690120117594 2.3267725333919884" fill="#ff5107" stroke="none" /><path d="M 80.14247586403 93.16781622104843 l -1.9130966864853496 -0.6582204336992351 a23.023164123639116,23.023164123639116 0 0,0 0.1321605478626103,-0.37363566573837637 l 1.9014830578129298 0.6910537258642225" fill="#ff0701" stroke="none" /><path d="M 80.2630227832202 92.82701384747504 l -46.02769643130269 -16.727790963535565 a69.97313374996433,69.97313374996433 0 0,0 0.4211563349598758,-1.1284895919363922 l 45.73293550784118 17.517603692501297" fill="#3bff9f" stroke="none" /><path d="M 80.65960295795068 91.81776055985345 l -6.520089995094722 -2.7584199742734965 a28.07958009338162,28.07958009338162 0 0,0 0.192156977292165,-0.44352479698208486 l 6.471642307959876 2.8702439158421806" fill="#ff5007" stroke="none" /><path d="M 80.95270993114464 91.15688171328213 l -9.307241026057563 -4.321088880302149 a31.26141046000012,31.26141046000012 0 0,0 0.23080121622727523,-0.48612622302321135 l 9.231481615988535 4.480657518965892" fill="#ff7b0b" stroke="none" /><path d="M 81.10775173730289 90.83032412892265 l -12.813109995387341 -6.219062121375579 a35.242630425010105,35.242630425010105 0 0,0 0.26958931880768017,-0.5434756161530615 l 12.704160663626249 6.438697326027603" fill="#ffb110" stroke="none" /><path d="M 81.26839172434947 90.50648371742162 l -11.091638868988865 -5.621442251710132 a33.434832760812526,33.434832760812526 0 0,0 0.26459780041505826,-0.5111187306135522 l 10.993231635413693 5.811533704584019" fill="#ff990e" stroke="none" /><line stroke="#e1ed5e" stroke-width="0.3" x1="26.266209847984243" x2="21.928928074336255" y1="57.711370442889674" y2="55.22380399835377" /><path d="M 25.398753493254645 57.213857153982495 a86.0,86.0 0 0,1 29.58750427330803,-30.492523968695096" fill="none" id="id71" stroke="none" /><text fill="#e1ed5e" style="font-size:6.75px; font-family:Arial;" text-anchor="middle"><textPath startOffset="21.46611528233685" xlink:href="#id71">November</textPath></text><path d="M 81.96595687620814 89.24020034530311 l -31.583425600752417 -18.843879297637358 a57.77777263051949,57.77777263051949 0 0,0 0.5169300327374104,-0.8496970562199373 l 31.25437976972879 19.38474412706437" fill="#49ff2c" stroke="none" /><path d="M 82.15384107792192 88.93136811851018 l -22.77797714289243 -14.127468274854268 a47.80338789368135,47.80338789368135 0 0,0 0.4397283498575749,-0.6955446484830538 l 22.53142119678889 14.517460571051537" fill="#b4ff20" stroke="none" /><path d="M 82.34701348167596 88.62581576622439 l -14.43065986840458 -9.297972543501874 a38.16671889608778,38.16671889608778 0 0,0 0.3605907355396314,-0.5492044289352365 l 14.268472497507029 9.544995036414777" fill="#ffd614" stroke="none" /><path d="M 82.7489923806493 88.02491185347247 l -6.610910369977632 -4.589078861716639 a29.047594716369126,29.047594716369126 0 0,0 0.288660306778942,-0.4082895328273615 l 6.530937443394811 4.702194894875787" fill="#ff5d08" stroke="none" /><path d="M 82.95767976084542 87.72973835380427 l -6.9085705317477 -4.974086088992953 a29.51292424568937,29.51292424568937 0 0,0 0.3003816821598425,-0.40972027689030466 l 6.821926237074225 5.092268809554759" fill="#ff6309" stroke="none" /><path d="M 83.17141714833178 87.43820079747576 l -5.575787257828725 -4.162080701994132 a27.95789618451419,27.95789618451419 0 0,0 0.29119355029856386,-0.3831765788686164 l 5.5033177673060525 4.257442056743775" fill="#ff4e07" stroke="none" /><path d="M 83.39014120810768 87.1503855733568 l -19.52050217790915 -15.101328045185925 a45.67995368727573,45.67995368727573 0 0,0 0.4864826305150287,-0.6177835376694681 l 19.25766546680015 15.43510397680844" fill="#ccff1d" stroke="none" /><path d="M 83.84228863543731 86.58626213691792 l -29.714430383264315 -24.66819532288982 a59.61951881484419,59.61951881484419 0 0,0 0.6623143318337075,-0.7839712641970363 l 29.28540543794348 25.176025536715972" fill="#36ff2e" stroke="none" /><path d="M 84.07557802195018 86.31012108654704 l -34.25269864670523 -29.446299374554407 a66.17003333447835,66.17003333447835 0 0,0 0.749952681949103,-0.8573255578973454 l 33.740754101178275 30.031540488654695" fill="#37ff75" stroke="none" /><path d="M 84.5562425177563 85.77008943001954 l -15.344276319810728 -14.138248418043249 a41.864728229934045,41.864728229934045 0 0,0 0.4928728035840785,-0.5257623423010696 l 15.098636194256194 14.400280177222369" fill="#faff18" stroke="none" /><path d="M 84.80347519578584 85.50635884689758 l -11.706800950524483 -11.165327218802528 a37.17756843280638,37.17756843280638 0 0,0 0.4456629791981056,-0.45929487494549776 l 11.512873707623259 11.36518628929815" fill="#ffca12" stroke="none" /><path d="M 85.05521093208273 85.24692304244772 l -11.44277714642191 -11.295988928454609 a37.07907070369568,37.07907070369568 0 0,0 0.4523014513024677,-0.4503591251296471 l 11.246639894952128 11.491283904234365" fill="#ffc812" stroke="none" /><path d="M 85.57189188830299 84.74124197986013 l -5.890327873214403 -6.229443734469785 a29.573326757734794,29.573326757734794 0 0,0 0.372894465495562,-0.34656476617116416 l 5.782225523923985 6.329913086715598" fill="#ff6409" stroke="none" /><path d="M 85.83668400450813 84.49514656593479 l -14.209636295227126 -15.55556115382842 a42.068679276431446,42.068679276431446 0 0,0 0.5388577377004343,-0.4837917973821664 l 13.939767569930721 15.797851959979864" fill="#f7ff18" stroke="none" /><path d="M 86.37877921826538 84.01681056812374 l -6.898029635380034 -8.094172771710635 a31.634775301287895,31.634775301287895 0 0,0 0.4174923592735252,-0.3496378444540824 l 6.757679739147399 8.21171177355853" fill="#ff810b" stroke="none" /><path d="M 86.65592168130627 83.78471172551755 l -1.9329012853000342 -2.348798530607385 a24.041868162182237,24.041868162182237 0 0,0 0.32181368726427456,-0.2602176211258836 l 1.8921841994712594 2.381722248997403" fill="#ff1602" stroke="none" /><path d="M 86.93701828274178 83.55741782278169 l -6.374478044351471 -8.023656570126622 a31.24758679364342,31.24758679364342 0 0,0 0.4240259507627924,-0.3309589803585406 l 6.235419538429253 8.132193939708385" fill="#ff7b0b" stroke="none" /><path d="M 87.80319425747018 82.90503203632743 l -24.751490384329077 -34.69153679293507 a63.61618238769285,63.61618238769285 0 0,0 0.8968938392172497,-0.628331451081001 l 24.150665405528166 35.112453086780015" fill="#33ff57" stroke="none" /><path d="M 88.39885842347998 82.49532879139004 l -6.200509476657197 -9.355793048369328 a32.22395569013133,32.22395569013133 0 0,0 0.4649962444655163,-0.30244649211239805 l 6.038546206407394 9.46113846464126" fill="#ff880c" stroke="none" /><path d="M 88.70189139769569 82.29822771554957 l -6.213785472407539 -9.735701729274435 a32.54967610188702,32.54967610188702 0 0,0 0.4748855882907198,-0.29737331182156246 l 6.045280731744577 9.841219382418927" fill="#ff8d0d" stroke="none" /><line stroke="#e1ed5e" stroke-width="0.3" x1="56.762969772571076" x2="54.21961505331055" y1="26.818313649435495" y2="22.513508569990535" /><path d="M 56.25429882871897 25.957352633546506 a86.0,86.0 0 0,1 42.265352541879196,-11.944610805530505" fill="none" id="id72" stroke="none" /><text fill="#e1ed5e" style="font-size:6.75px; font-family:Arial;" text-anchor="middle"><textPath startOffset="22.20632615414155" xlink:href="#id72">December</textPath></text><path d="M 89.63071344664047 81.73862282372117 l -31.107859660078574 -54.78413152883649 a84.0,84.0 0 0,0 1.2635036437118177,-0.7031384097592617 l 30.16023192729471 55.31148533615593" fill="#4dd2ff" stroke="none" /><path d="M 89.94658935756843 81.56283822128135 l -15.414619717073174 -28.26919615534234 a53.19872594204937,53.19872594204937 0 0,0 0.8077465373812185,-0.4314702262349651 l 14.92572813316365 28.530345108079054" fill="#78ff26" stroke="none" /><path d="M 90.26544431104013 81.39251694778311 l -9.048057947007491 -17.29525109146584 a40.51904359668413,40.51904359668413 0 0,0 0.6207893966746084,-0.3179924405677151 l 8.74900806274412 17.448436057346058" fill="#fff417" stroke="none" /><path d="M 90.58718382345135 81.22770947309562 l -8.321795125580378 -16.596431171361928 a39.565931211169755,39.565931211169755 0 0,0 0.6114419774054077,-0.30003192284947966 l 8.034881881164544 16.73721825434624" fill="#ffe815" stroke="none" /><path d="M 90.91171255644093 81.06846463323043 l -14.025982664799523 -29.21709821805145 a53.40936620788074,53.40936620788074 0 0,0 0.8322242068522373,-0.39074042402542614 l 13.520980246647678 29.454203624716882" fill="#76ff27" stroke="none" /><path d="M 91.23893434514133 80.91482961587045 l -6.923290571607706 -15.081747516033447 a37.59491067997334,37.59491067997334 0 0,0 0.5904511331856974,-0.2649182122230034 l 6.662657319955234 15.198686058772978" fill="#ffcf13" stroke="none" /><path d="M 91.56875222667455 80.76684994638697 l -13.196671214609296 -30.103913976029105 a53.86940473788137,53.86940473788137 0 0,0 0.8524608644078905,-0.3649792540223564 l 12.676526592411097 30.326612758014246" fill="#71ff27" stroke="none" /><path d="M 92.23578459929587 80.48803036053334 l -10.710576824679068 -26.916364247874984 a49.96907178771241,49.96907178771241 0 0,0 0.8019246867523239,-0.3111343198123906 l 10.245668972927067 27.096741271577926" fill="#9bff22" stroke="none" /><path d="M 92.57280143429618 80.3572730644239 l -11.032567258920215 -29.177852745991775 a52.19398389416424,52.19398389416424 0 0,0 0.8431010392972553,-0.3105212279955391 l 10.52868389385039 29.363437241793637" fill="#83ff25" stroke="none" /><path d="M 93.94186890950719 79.89281104454417 l -2.7426480313477577 -9.10296284132278 a30.50715786733128,30.50715786733128 0 0,0 0.5041086766390401,-0.1471631462810344 l 2.5855491369852963 9.148824316522514" fill="#ff710a" stroke="none" /><path d="M 94.28887869178378 79.79150937346287 l -1.0284961059346502 -3.6392772617715505 a24.78181745037623,24.78181745037623 0 0,0 0.41149866922945616,-0.11247813075269625 l 0.9656995474814717 3.6564419333505427" fill="#ff2103" stroke="none" /><path d="M 94.63758080256005 79.69619591428918 l -0.9042026493038229 -3.423595353009717 a24.54098680767915,24.54098680767915 0 0,0 0.4093566448394618,-0.10435412347548587 l 0.8451371157793617 3.438652472654066" fill="#ff1d02" stroke="none" /><path d="M 97.83486435360386 79.11191278185805 l -1.1720372335921314 -11.307197310677394 a32.367778248167774,32.367778248167774 0 0,0 0.5546833373062281,-0.05267386651831033 l 0.977228769195667 11.325696721710885" fill="#ff8a0c" stroke="none" /><path d="M 99.27714615592234 79.0124445844662 l -0.443414400056581 -12.8742267464975 a33.88186052751733,33.88186052751733 0 0,0 0.58304771165175,-0.015058402233661878 l 0.221740053209952 12.879951940873521" fill="#ff9f0e" stroke="none" /><path d="M 99.63851952072746 79.00311137660856 l -0.4344126062276852 -25.23321073358107 a46.23694986003183,46.23694986003183 0 0,0 0.7958930855002148,-0.0068505030593148716 l 6.181269973266045e-15 25.236949860031828" fill="#c6ff1e" stroke="none" /></svg>