<?xml version="1.0" encoding="utf-8" ?>
<svg baseProfile="full" height="200mm" version="1.1" viewBox="0,0,200,200" width="200mm" xmlns="http://www.w3.org/2000/svg" xmlns:ev="http://www.w3.org/2001/xml-events" xmlns:xlink="http://www.w3.org/1999/xlink"><defs /><rect fill="#1a1a1a" height="200" width="200" x="0" y="0" /><text alignment-baseline="middle" fill="#e1ed5e" style="dominant-baseline: central; font-size:9.0px; font-family:Arial;" text-anchor="middle" x="100.0" y="100.0">2025</text><line stroke="#e1ed5e" stroke-width="0.3" x1="100.0" x2="100.0" y1="15.0" y2="10.0" /><path d="M 100.0 14.0 a86.0,86.0 0 0,1 42.46469731375804,11.215312516191453" fill="none" id="id85" stroke="none" /><text fill="#e1ed5e" style="font-size:6.75px; font-family:Arial;" text-anchor="middle"><textPath startOffset="22.20632615414155" xlink:href="#id85">January</textPath></text><path d="M 101.08401301168833 79.027996857942 l 0.3518538930957285 -6.807188541082345 a27.81627588907091,27.81627588907091 0 0,0 0.47796038098687854,0.028831875434311857 l -0.4689763229222189 6.800123396267729" fill="#ff4206" stroke="none" /><path d="M 102.52436894288641 79.15227682838746 l 2.098260036490318 -17.328665251597577 a38.455238027098275,38.455238027098275 0 0,0 0.6564588783066536,0.08522720290016235 l -2.3962336433048175 17.28997972553328" fill="#ffd213" stroke="none" /><path d="M 102.88285421437855 79.19881850522331 l 0.32032707757739326 -2.3113141292908246 a23.33340576001875,23.33340576001875 0 0,0 0.3973690329536848,0.05856186604110507 l -0.3600650909597339 2.305457779088751" fill="#ff0000" stroke="none" /><path d="M 103.59715602781102 79.31037775812273 l 6.162467672664234 -35.44442532919275 a56.976148970301864,56.976148970301864 0 0,0 0.9648093597432035,0.17631274358684196 l -6.771672153510338 35.33309710425516" fill="#54ff2b" stroke="none" /><path d="M 103.95276090670814 79.375362276772 l 4.650593692748175 -24.26577583989012 a45.707405748212906,45.707405748212906 0 0,0 0.7714399968229549,0.15474360603199072 l -5.0676000990382555 24.182128277780922" fill="#d2ff1c" stroke="none" /><path d="M 104.66035177308747 79.52364482259891 l 5.864619384844038 -25.76758909012167 a47.426547410633226,47.426547410633226 0 0,0 0.7944540946766492,0.18802161642762463 l -6.3072971664832105 25.662821561553177" fill="#beff1f" stroke="none" /><path d="M 105.01212808612495 79.60689891045804 l 5.2895116173485155 -21.521705605550977 a43.162191798693314,43.162191798693314 0 0,0 0.7199681967597323,0.1835359241146656 l -5.659188702793273 21.427466685267444" fill="#f0ff19" stroke="none" /><path d="M 105.36241919743992 79.69619591428918 l 6.783153944049839 -25.68315226623002 a47.56380032598941,47.56380032598941 0 0,0 0.7897903604864027,0.21587954002464352 l -7.224242193759952 25.562586185379082" fill="#bcff1f" stroke="none" /><path d="M 106.40334571778207 80.00007090966166 l 16.18621473602241 -50.555312992465744 a74.08326684791362,74.08326684791362 0 0,0 1.2111456234898847,0.39929566996307314 l -17.054043181754714 50.269203598243436" fill="#40ffca" stroke="none" /><path d="M 106.74666289553966 80.11325718540242 l 12.145980939038898 -35.80199617285759 a58.80618709857959,58.80618709857959 0 0,0 0.9557909490079695,0.33345669466163796 l -12.76045389211014 35.58761862502375" fill="#42ff2d" stroke="none" /><path d="M 107.4271985657038 80.35727306442388 l 1.7787685089599854 -4.704312641436961 a26.029371216847224,26.029371216847224 0 0,0 0.41773030021669605,0.1620728666544843 l -1.8594819741763484 4.67299707089193" fill="#ff2803" stroke="none" /><path d="M 107.76421540070413 80.48803036053334 l 6.5389429089390445 -16.432781540534478 a38.68598551184793,38.68598551184793 0 0,0 0.616610636746926,0.2515309609001241 l -6.820837415274358 16.317789693450777" fill="#ffd513" stroke="none" /><path d="M 108.43124777332544 80.76684994638697 l 1.7986003356190308 -4.102921782334904 a25.47983597012738,25.47983597012738 0 0,0 0.40017645340387353,0.179547509778688 l -1.8689589074896844 4.071353942039685" fill="#ff2003" stroke="none" /><path d="M 109.73455568895987 81.39251694778311 l 5.08729181000038 -9.724295505712849 a31.97462805941614,31.97462805941614 0 0,0 0.4854889781980805,0.2593313986053573 l -5.253925834726772 9.635285380605739" fill="#ff7c0b" stroke="none" /><path d="M 110.05341064243156 81.56283822128135 l 5.20754231896757 -9.550221672941321 a31.877740160812643,31.877740160812643 0 0,0 0.47949572436293636,0.2668388514689684 l -5.371162132402541 9.459167423912172" fill="#ff7b0b" stroke="none" /><path d="M 110.36928655335952 81.73862282372117 l 5.944037154489291 -10.468059096387538 a33.03793333340117,33.03793333340117 0 0,0 0.4921130237752635,0.2850636270684283 l -6.123346910729883 10.36419131192906" fill="#ff8b0c" stroke="none" /><line stroke="#e1ed5e" stroke-width="0.3" x1="143.23703022742887" x2="145.7803849466894" y1="26.81831364943548" y2="22.513508569990506" /><path d="M 143.74570117128098 25.957352633546492 a86.0,86.0 0 0,1 28.547481713284135,27.462654790039103" fill="none" id="id86" stroke="none" /><text fill="#e1ed5e" style="font-size:6.75px; font-family:Arial;" text-anchor="middle"><textPath startOffset="19.985693538727396" xlink:href="#id86">February</textPath></text><path d="M 110.68208982089419 81.91981866633111 l 8.182059678319803 -13.848706119055933 a37.08517210823571,37.08517210823571 0 0,0 0.5468083840741621,0.3294459331239138 l -8.419230128611602 13.705813576473405" fill="#ffc111" stroke="none" /><path d="M 111.2981086023043 82.29822771554956 l 7.051348282455465 -11.04798740993865 a34.10646933428872,34.10646933428872 0 0,0 0.49216118296984535,0.32011532375754154 l -7.240476491209591 10.92497316202158" fill="#ff990e" stroke="none" /><path d="M 111.60114157652 82.49532879139004 l 4.188105019876023 -6.31932649700926 a28.58116818394857,28.58116818394857 0 0,0 0.4077516102994331,0.27531570743814515 l -4.296261324581997 6.246298877272444" fill="#ff4d07" stroke="none" /><path d="M 111.90073688211348 82.69761687909136 l 2.964286090820376 -4.309751079400908 a26.2307691972241,26.2307691972241 0 0,0 0.3698149497174481,0.25907900559357866 l -3.0380321801214754 4.258087231043394" fill="#ff2b04" stroke="none" /><path d="M 112.19680574252982 82.90503203632743 l 15.145229401926894 -21.22746044282825 a47.07648462674425,47.07648462674425 0 0,0 0.6556065913662009,0.4763260702681743 l -15.508381309646884 20.9636151377434" fill="#c2ff1e" stroke="none" /><path d="M 112.48926042617603 83.11751280151076 l 4.955882317332913 -6.699165276771279 a29.333041758490776,29.333041758490776 0 0,0 0.403334696653818,0.3037833315144748 l -5.070463167745113 6.612865355750957" fill="#ff5708" stroke="none" /><path d="M 113.06298171725822 83.55741782278167 l 14.79039608418617 -18.61690602586885 a44.776984802601476,44.776984802601476 0 0,0 0.5993646785971763,0.4846445537394307 l -15.108664161347837 18.35955537486529" fill="#ddff1b" stroke="none" /><path d="M 113.6212207817346 84.01681056812373 l 15.769964693879428 -18.504533262853215 a45.31274434781571,45.31274434781571 0 0,0 0.5892948324629645,0.5110306717041756 l -16.086153324989155 18.230337597729367" fill="#d6ff1c" stroke="none" /><path d="M 114.16331599549186 84.49514656593476 l 14.978748470322007 -16.397522990519594 a43.20904468818487,43.20904468818487 0 0,0 0.5448292562946431,0.5063594160884862 l -15.258785610411497 16.137258988356468" fill="#f0ff19" stroke="none" /><path d="M 115.19652480421416 85.50635884689758 l 7.369575323302426 -7.028710942983751 a31.18397849398002,31.18397849398002 0 0,0 0.367128500699151,0.3916270872514071 l -7.48947114597204 6.9008144388542885" fill="#ff710a" stroke="none" /><path d="M 115.4437574822437 85.77008943001954 l 19.69597105477982 -18.14790908369809 a47.78204398287958,47.78204398287958 0 0,0 0.5521246112766676,0.6096697858941142 l -20.005439306672525 17.806186510534427" fill="#b9ff1f" stroke="none" /><path d="M 115.9244219780498 86.31012108654704 l 43.49173253670667 -37.388895683905524 a78.3538169567327,78.3538169567327 0 0,0 0.8704339947037564,1.030319300714328 l -44.128877144897544 36.634717433562095" fill="#46fff6" stroke="none" /><path d="M 116.38621287248628 86.86637796730983 l 49.158638617458855 -39.400866098070516 a84.0,84.0 0 0,0 0.8945836776241438,1.1360304241878465 l -49.829576375676965 38.54884327992963" fill="#4dd2ff" stroke="none" /><line stroke="#e1ed5e" stroke-width="0.3" x1="172.23445277983987" x2="176.4835382374775" y1="55.19839476539836" y2="52.563006222186495" /><path d="M 173.08426987136738 54.67131705675599 a86.0,86.0 0 0,1 12.851231095245387,41.99856678651699" fill="none" id="id87" stroke="none" /><text fill="#e1ed5e" style="font-size:6.75px; font-family:Arial;" text-anchor="middle"><textPath startOffset="22.20632615414155" xlink:href="#id87">March</textPath></text><line stroke="#e1ed5e" stroke-width="0.3" x1="184.98032266829074" x2="189.97916517819016" y1="98.17113171792111" y2="98.06355123074" /><path d="M 185.9800911702706 98.14961562048488 a86.0,86.0 0 0,1 -9.607161424134198,41.387399972396054" fill="none" id="id88" stroke="none" /><text fill="#e1ed5e" style="font-size:6.75px; font-family:Arial;" text-anchor="middle"><textPath startOffset="21.466115282336823" xlink:href="#id88">April</textPath></text><line stroke="#e1ed5e" stroke-width="0.3" x1="174.80103733775053" x2="179.2010983576182" y1="140.37084112569926" y2="142.7455964860345" /><path d="M 175.68104954172406 140.8457921977663 a86.0,86.0 0 0,1 -30.038265399797805,32.042727171017184" fill="none" id="id89" stroke="none" /><text fill="#e1ed5e" style="font-size:6.75px; font-family:Arial;" text-anchor="middle"><textPath startOffset="22.206326154141568" xlink:href="#id89">May</textPath></text><line stroke="#e1ed5e" stroke-width="0.3" x1="143.8653032363475" x2="146.44561519142675" y1="172.8068346515853" y2="177.08958963109032" /><path d="M 144.38136562736335 173.6633856474863 a86.0,86.0 0 0,1 -40.68145358897372,12.25698825130547" fill="none" id="id90" stroke="none" /><text fill="#e1ed5e" style="font-size:6.75px; font-family:Arial;" text-anchor="middle"><textPath startOffset="21.466115282336833" xlink:href="#id90">June</textPath></text><line stroke="#e1ed5e" stroke-width="0.3" x1="102.19456741930631" x2="102.32365962044197" y1="184.97166512339345" y2="189.96999836594603" /><path d="M 102.22038585953345 185.97133177190398 a86.0,86.0 0 0,1 -42.740103519485714,-10.115201625700543" fill="none" id="id91" stroke="none" /><text fill="#e1ed5e" style="font-size:6.75px; font-family:Arial;" text-anchor="middle"><textPath startOffset="22.20632615414155" xlink:href="#id91">July</textPath></text><line stroke="#e1ed5e" stroke-width="0.3" x1="58.666819895761336" x2="56.23545636021788" y1="174.27360380694188" y2="178.64263932499728" /><path d="M 58.180547188652646 175.14741091055294 a86.0,86.0 0 0,1 -31.652253787137756,-30.449443065178592" fill="none" id="id92" stroke="none" /><text fill="#e1ed5e" style="font-size:6.75px; font-family:Arial;" text-anchor="middle"><textPath startOffset="22.20632615414155" xlink:href="#id92">August</textPath></text><line stroke="#e1ed5e" stroke-width="0.3" x1="26.63291911575756" x2="22.317208475507996" y1="142.92168965132927" y2="145.44649492493687" /><path d="M 25.769776987707644 143.4266507060508 a86.0,86.0 0 0,1 -11.730757126820373,-40.83630448921669" fill="none" id="id93" stroke="none" /><text fill="#e1ed5e" style="font-size:6.75px; font-family:Arial;" text-anchor="middle"><textPath startOffset="21.46611528233685" xlink:href="#id93">September</textPath></text><line stroke="#e1ed5e" stroke-width="0.3" x1="15.007084014347285" x2="10.007500721073583" y1="101.09737516637583" y2="101.16192664675087" /><path d="M 14.007167355692545 101.11028546245083 a86.0,86.0 0 0,1 10.666146001902534,-42.60595125391555" fill="none" id="id94" stroke="none" /><text fill="#e1ed5e" style="font-size:6.75px; font-family:Arial;" text-anchor="middle"><textPath startOffset="22.20632615414155" xlink:href="#id94">October</textPath></text><line stroke="#e1ed5e" stroke-width="0.3" x1="26.266209847984243" x2="21.928928074336255" y1="57.711370442889674" y2="55.22380399835377" /><path d="M 25.398753493254645 57.213857153982495 a86.0,86.0 0 0,1 29.58750427330803,-30.492523968695096" fill="none" id="id95" stroke="none" /><text fill="#e1ed5e" style="font-size:6.75px; font-family:Arial;" text-anchor="middle"><textPath startOffset="21.46611528233685" xlink:href="#id95">November</textPath></text><line stroke="#e1ed5e" stroke-width="0.3" x1="56.762969772571076" x2="54.21961505331055" y1="26.818313649435495" y2="22.513508569990535" /><path d="M 56.25429882871897 25.957352633546506 a86.0,86.0 0 0,1 42.265352541879196,-11.944610805530505" fill="none" id="id96" stroke="none" /><text fill="#e1ed5e" style="font-size:6.75px; font-family:Arial;" text-anchor="middle"><textPath startOffset="22.20632615414155" xlink:href="#id96">December</textPath></text></svg>