<?xml version="1.0" encoding="utf-8" ?>
<svg baseProfile="full" height="200mm" version="1.1" viewBox="0,0,200,200" width="200mm" xmlns="http://www.w3.org/2000/svg" xmlns:ev="http://www.w3.org/2001/xml-events" xmlns:xlink="http://www.w3.org/1999/xlink"><defs /><rect fill="#1a1a1a" height="200" width="200" x="0" y="0" /><text alignment-baseline="middle" fill="#e1ed5e" style="dominant-baseline: central; font-size:9.0px; font-family:Arial;" text-anchor="middle" x="100.0" y="100.0">2020</text><line stroke="#e1ed5e" stroke-width="0.3" x1="100.0" x2="100.0" y1="15.0" y2="10.0" /><path d="M 100.0 14.0 a86.0,86.0 0 0,1 42.35913384403234,11.155469271406648" fill="none" id="id25" stroke="none" /><text fill="#e1ed5e" style="font-size:6.75px; font-family:Arial;" text-anchor="middle"><textPath startOffset="22.145653131862478" xlink:href="#id25">January</textPath></text><line stroke="#e1ed5e" stroke-width="0.3" x1="143.13028292997686" x2="145.6673583964461" y1="26.7553504044142" y2="22.446841604673864" /><path d="M 143.63769802327073 25.89364864446614 a86.0,86.0 0 0,1 29.32050498858742,28.57503671076993" fill="none" id="id26" stroke="none" /><text fill="#e1ed5e" style="font-size:6.75px; font-family:Arial;" text-anchor="middle"><textPath startOffset="20.669276256404974" xlink:href="#id26">February</textPath></text><line stroke="#e1ed5e" stroke-width="0.3" x1="172.87174338648825" x2="177.1583165268699" y1="56.24261187166439" y2="53.66864786411523" /><path d="M 173.72905801456457 55.72781907015455 a86.0,86.0 0 0,1 12.242430191666344,42.057860355516425" fill="none" id="id27" stroke="none" /><text fill="#e1ed5e" style="font-size:6.75px; font-family:Arial;" text-anchor="middle"><textPath startOffset="22.145653131862474" xlink:href="#id27">March</textPath></text><line stroke="#e1ed5e" stroke-width="0.3" x1="184.99686870605535" x2="189.99668451229388" y1="99.2704041080226" y2="99.22748670261217" /><path d="M 185.99683186730306 99.26182062694052 a86.0,86.0 0 0,1 -10.086455211305974,41.156179273409016" fill="none" id="id28" stroke="none" /><text fill="#e1ed5e" style="font-size:6.75px; font-family:Arial;" text-anchor="middle"><textPath startOffset="21.40746469413373" xlink:href="#id28">April</textPath></text><line stroke="#e1ed5e" stroke-width="0.3" x1="174.33088141563837" x2="178.70328620479359" y1="141.23008692659167" y2="143.65538615756765" /><path d="M 175.20536237346943 141.71514677278685 a86.0,86.0 0 0,1 -30.301960400862466,31.631185727798858" fill="none" id="id29" stroke="none" /><text fill="#e1ed5e" style="font-size:6.75px; font-family:Arial;" text-anchor="middle"><textPath startOffset="22.145653131862474" xlink:href="#id29">May</textPath></text><line stroke="#e1ed5e" stroke-width="0.3" x1="143.1302829299769" x2="145.66735839644613" y1="173.24464959558577" y2="177.55315839532614" /><path d="M 143.63769802327073 174.10635135553383 a86.0,86.0 0 0,1 -40.68552437913181,11.842963189579606" fill="none" id="id30" stroke="none" /><text fill="#e1ed5e" style="font-size:6.75px; font-family:Arial;" text-anchor="middle"><textPath startOffset="21.407464694133747" xlink:href="#id30">June</textPath></text><line stroke="#e1ed5e" stroke-width="0.3" x1="101.45913802915013" x2="101.54496967792366" y1="184.9874750549273" y2="189.98673829345242" /><path d="M 101.47630435890484 185.9873277026323 a86.0,86.0 0 0,1 -42.54439059252881,-10.42667462771756" fill="none" id="id31" stroke="none" /><text fill="#e1ed5e" style="font-size:6.75px; font-family:Arial;" text-anchor="middle"><textPath startOffset="22.145653131862474" xlink:href="#id31">July</textPath></text><line stroke="#e1ed5e" stroke-width="0.3" x1="58.13341422392154" x2="55.67067388415222" y1="173.97424548756322" y2="178.32567169271397" /><path d="M 57.64086615596768 174.84453072859336 a86.0,86.0 0 0,1 -31.369924170532247,-30.572349798747897" fill="none" id="id32" stroke="none" /><text fill="#e1ed5e" style="font-size:6.75px; font-family:Arial;" text-anchor="middle"><textPath startOffset="22.145653131862474" xlink:href="#id32">August</textPath></text><line stroke="#e1ed5e" stroke-width="0.3" x1="26.387840678322732" x2="22.057713659400548" y1="142.50000000000003" y2="145.00000000000006" /><path d="M 25.521815274538298 143.00000000000003 a86.0,86.0 0 0,1 -11.493303480769221,-40.785679425670985" fill="none" id="id33" stroke="none" /><text fill="#e1ed5e" style="font-size:6.75px; font-family:Arial;" text-anchor="middle"><textPath startOffset="21.40746469413373" xlink:href="#id33">September</textPath></text><line stroke="#e1ed5e" stroke-width="0.3" x1="15.003131293944662" x2="10.003315487706104" y1="100.72959589197737" y2="100.7725132973878" /><path d="M 14.003168132696942 100.73817937305945 a86.0,86.0 0 0,1 10.791469493833604,-42.45332614584628" fill="none" id="id34" stroke="none" /><text fill="#e1ed5e" style="font-size:6.75px; font-family:Arial;" text-anchor="middle"><textPath startOffset="22.145653131862435" xlink:href="#id34">October</textPath></text><path d="M 79.83685265289637 94.1308016681162 l -21.772813507421787 -6.33774869162643 a43.67647385523554,43.67647385523554 0 0,0 0.2157278379776327,-0.7180878109507494 l 21.660809349440523 6.710574106167903" fill="#eeff19" stroke="none" /><path d="M 80.5471966667186 92.08871423366112 l -58.3584099998442 -23.73385729901662 a84.0,84.0 0 0,0 0.5546966218540859,-1.3310699622349447 l 57.94238753345363 24.732159770692828" fill="#4dd2ff" stroke="none" /><line stroke="#e1ed5e" stroke-width="0.3" x1="26.387840678322718" x2="22.05771365940052" y1="57.49999999999999" y2="54.99999999999999" /><path d="M 25.521815274538284 56.99999999999999 a86.0,86.0 0 0,1 29.574782752854787,-30.34633250058573" fill="none" id="id35" stroke="none" /><text fill="#e1ed5e" style="font-size:6.75px; font-family:Arial;" text-anchor="middle"><textPath startOffset="21.40746469413373" xlink:href="#id35">November</textPath></text><path d="M 82.576782715395 88.27688183743585 l -27.214877771780404 -18.31138432625908 a53.80177385564558,53.80177385564558 0 0,0 0.5221596994915294,-0.7618466064898156 l 26.896528335473562 18.77586566781893" fill="#78ff26" stroke="none" /><path d="M 82.78059297857968 87.97951657250589 l -45.25592783013302 -31.592152377911155 a76.1920564541254,76.1920564541254 0 0,0 0.7578747716770844,-1.0660457776217105 l 44.706937959925966 32.364375382242386" fill="#43ffdf" stroke="none" /><path d="M 82.98947788004972 87.6856937992154 l -29.38466464359418 -21.272231121242342 a57.27625026228655,57.27625026228655 0 0,0 0.5833940122340412,-0.7914860216596747 l 29.01516861177632 21.77352345217088" fill="#53ff2b" stroke="none" /><path d="M 83.2033758604659 87.39550010848427 l -32.44558192039974 -24.347769551696768 a61.56512872278236,61.56512872278236 0 0,0 0.6415907945194521,-0.8398629453671473 l 32.02283914852598 24.901153410304797" fill="#30ff39" stroke="none" /><path d="M 83.42222388311158 87.10902102172516 l -13.126974855754 -10.2076150456319 a37.628676248679824,37.628676248679824 0 0,0 0.4008951451119157,-0.5065179196377644 l 12.949813280000523 10.431452909184348" fill="#ffc312" stroke="none" /><path d="M 83.64595745247003 86.82634096563983 l -4.55904180271048 -3.6724413586274793 a26.854202566654084,26.854202566654084 0 0,0 0.2922673054009019,-0.35651859058998264 l 4.495327678070948 3.750162230915955" fill="#ff2e04" stroke="none" /><path d="M 84.10781606972428 86.27271002978789 l -8.288285190005924 -7.159223342631677 a31.952175594855746,31.952175594855746 0 0,0 0.36210782257275925,-0.41201223087163585 l 8.164166303474572 7.300447851314613" fill="#ff760a" stroke="none" /><path d="M 84.58840730492382 85.73525988315684 l -6.091456427153356 -5.638161128809088 a29.300283267354295,29.300283267354295 0 0,0 0.3448282894953023,-0.36619569378867034 l 5.993772303921783 5.7418982825422695" fill="#ff5107" stroke="none" /><path d="M 84.83555147118756 85.47280134310135 l -21.541034354259654 -20.63582363347008 a50.83041029022358,50.83041029022358 0 0,0 0.6090286729495392,-0.6249170709439363 l 21.18361888015931 21.002563396481747" fill="#99ff23" stroke="none" /><path d="M 86.40962598614128 83.9905735841838 l -22.026775434855537 -25.947486076720818 a55.03602311903046,55.03602311903046 0 0,0 0.7254944640479132,-0.6052332850135274 l 21.578106636645714 26.321781545646225" fill="#6bff28" stroke="none" /><path d="M 86.68645165197937 83.75963576809568 l -24.678435047942447 -30.103678101079996 a59.926296916467116,59.926296916467116 0 0,0 0.8011553187981413,-0.6453540140144007 l 24.15802895878906 30.522880408887794" fill="#38ff2e" stroke="none" /><path d="M 88.12776184653039 82.6780497279521 l -10.591507854025506 -15.453326490070255 a39.73460269743106,39.73460269743106 0 0,0 0.5659412932282385,-0.38079055924139316 l 10.324670272700278 15.632866723368759" fill="#ffdf14" stroke="none" /><path d="M 88.4268655584334 82.4767994020092 l -14.573198340347362 -22.065679713787667 a47.443757885341554,47.443757885341554 0 0,0 0.6834484961921352,-0.4430030580412679 l 14.192264211898202 22.31259661353284" fill="#c0ff1e" stroke="none" /><path d="M 88.72937992617638 82.28071324371311 l -19.018824448526313 -29.900750975858994 a56.43685358950756,56.43685358950756 0 0,0 0.821924489805489,-0.5129416709110599 l 18.502735829931126 30.22282844361159" fill="#5cff2a" stroke="none" /><line stroke="#e1ed5e" stroke-width="0.3" x1="56.869717070023135" x2="54.33264160355391" y1="26.7553504044142" y2="22.446841604673864" /><path d="M 56.362301976729285 25.89364864446614 a86.0,86.0 0 0,1 42.16139366436587,-11.88097634709845" fill="none" id="id36" stroke="none" /><text fill="#e1ed5e" style="font-size:6.75px; font-family:Arial;" text-anchor="middle"><textPath startOffset="22.145653131862474" xlink:href="#id36">December</textPath></text><path d="M 90.93487009805054 81.0573650232925 l -18.42970190829141 -38.510988783869294 a63.69367833227522,63.69367833227522 0 0,0 0.9903192776440343,-0.4635194260891409 l 17.765893916775855 38.82168444152898" fill="#33ff53" stroke="none" /><path d="M 91.26138138417902 80.90454125486306 l -7.700992827059828 -16.828059135053696 a39.50645467871389,39.50645467871389 0 0,0 0.6190973683550796,-0.27691437826461257 l 7.4109820558491295 16.957777264228156" fill="#ffdc14" stroke="none" /><path d="M 91.92203290615298 80.6158196554323 l -1.0671141222366778 -2.560685424112045 a23.774138134833382,23.774138134833382 0 0,0 0.3780603509128486,-0.15375385345498155 l 1.0229993101333883 2.5786265341463177" fill="#ff0000" stroke="none" /><path d="M 92.93061703081487 80.22567764915836 l -14.138830123430397 -39.548824238719966 a63.00019066533373,63.00019066533373 0 0,0 1.021485775314778,-0.3553257776609561 l 13.457838576070614 39.785708448949514" fill="#32ff4a" stroke="none" /><path d="M 93.27111125876988 80.10723608172694 l -6.454866031032991 -19.082664466219924 a41.1448102152618,41.1448102152618 0 0,0 0.6710077125012046,-0.220573563005837 l 6.126335580884025 19.19065895062779" fill="#fff116" stroke="none" /><path d="M 94.6519064749342 79.69241777938228 l -1.4895940201739084 -5.656231122033327 a26.84908889065607,26.84908889065607 0 0,0 0.4467109304817398,-0.11355217167895401 l 1.3922777964667905 5.680968525547543" fill="#ff2e04" stroke="none" /><path d="M 95.35216902796891 79.52079915486377 l -8.189013022077482 -36.08230234957841 a57.9998983393488,57.9998983393488 0 0,0 0.972844953685192,-0.21202702970974402 l 7.568405651773173 36.21756083742187" fill="#4cff2c" stroke="none" /><path d="M 95.70440661134978 79.44403061299748 l -4.676175809819435 -22.377194044684597 a43.86056503058943,43.86056503058943 0 0,0 0.738326851662405,-0.14768604838193206 l 4.291352472626054 22.454169489729395" fill="#ecff1a" stroke="none" /><path d="M 96.05791012581881 79.37332000966035 l -1.133725659032398 -5.932131714920756 a27.03949671356125,27.03949671356125 0 0,0 0.4566652526933819,-0.0832196213606866 l 1.0317256727879776 5.950719510212805" fill="#ff3004" stroke="none" /><path d="M 97.84075906011542 79.11130261209362 l -4.280440803435854 -41.4093818703706 a62.630026187331374,62.630026187331374 0 0,0 1.0703782735162448,-0.1013659353700841 l 3.568962966534594 41.47675956124587" fill="#32ff46" stroke="none" /><path d="M 98.1996594967304 79.07731436759882 l -1.6755373732612864 -19.47228408316022 a40.544238867361656,40.544238867361656 0 0,0 0.6939455491509291,-0.05371577432266372 l 1.34102282933514 19.498177624477936" fill="#ffe915" stroke="none" /><path d="M 99.63950707515114 79.00309439819443 l -0.21117204407332787 -12.299712891749543 a33.30152554977097,33.30152554977097 0 0,0 0.571664968922177,-0.004907056215863778 l 3.013004777831281e-15 12.301525549770972" fill="#ff890c" stroke="none" /></svg>