<?xml version="1.0" encoding="utf-8" ?>
<svg baseProfile="full" height="200mm" version="1.1" viewBox="0,0,200,200" width="200mm" xmlns="http://www.w3.org/2000/svg" xmlns:ev="http://www.w3.org/2001/xml-events" xmlns:xlink="http://www.w3.org/1999/xlink"><defs /><rect fill="#1a1a1a" height="200" width="200" x="0" y="0" /><text alignment-baseline="middle" fill="#e1ed5e" style="dominant-baseline: central; font-size:9.0px; font-family:Arial;" text-anchor="middle" x="100.0" y="100.0">2024</text><line stroke="#e1ed5e" stroke-width="0.3" x1="100.0" x2="100.0" y1="15.0" y2="10.0" /><path d="M 100.0 14.0 a86.0,86.0 0 0,1 42.35913384403234,11.155469271406648" fill="none" id="id73" stroke="none" /><text fill="#e1ed5e" style="font-size:6.75px; font-family:Arial;" text-anchor="middle"><textPath startOffset="22.145653131862478" xlink:href="#id73">January</textPath></text><path d="M 100.0 79.0 l 0.0 -9.207443120446023 a30.207443120446023,30.207443120446023 0 0,0 0.518550929652143,0.004451136069066831 l -0.15805800480328824 9.20608638257139" fill="#ff720a" stroke="none" /><path d="M 100.36049292484886 79.00309439819443 l 0.1154532356445781 -6.724572170920156 a27.72556319809238,27.72556319809238 0 0,0 0.4758058969753681,0.012255072106375284 l -0.23087244669068757 6.721599381463735" fill="#ff5007" stroke="none" /><path d="M 100.72087961077811 79.0123766808444 l 0.3625197531325332 -10.554367068707068 a31.5605911194601,31.5605911194601 0 0,0 0.5413005667352163,0.02324577540859892 l -0.5436460804685858 10.546588724872638" fill="#ff840c" stroke="none" /><path d="M 101.08105385017728 79.02784411241856 l 0.4356857728460564 -8.452187598823604 a29.463409318848285,29.463409318848285 0 0,0 0.5048844880390759,0.030372597061648174 l -0.5807146130175947 8.443463023937264" fill="#ff6809" stroke="none" /><path d="M 101.44090949804482 79.04949213459386 l 1.0628213184837623 -15.45318871353768 a36.489694334338296,36.489694334338296 0 0,0 0.6245489292826515,0.04834403704996337 l -1.3279392425416472 15.432666909492664" fill="#ffc512" stroke="none" /><path d="M 101.80034050326958 79.07731436759882 l 1.7363116993425112 -20.178573874902085 a41.25313857016128,41.25313857016128 0 0,0 0.7050366402175927,0.06676770285243706 l -2.0824479029451166 20.145794416544465" fill="#feff18" stroke="none" /><path d="M 102.15924093988457 79.11130261209362 l 5.418654786476093 -52.420569651796484 a73.69988560057647,73.69988560057647 0 0,0 1.2573344317530932,0.14088694562659007 l -6.317725119829983 52.319826945662925" fill="#40ffc8" stroke="none" /><path d="M 103.58742460773223 79.30868818359171 l 2.529387911606017 -14.588837315462925 a35.80648430331867,35.80648430331867 0 0,0 0.6047293474303109,0.11020183169625558 l -2.779451992587382 14.543267309835304" fill="#ffbc11" stroke="none" /><path d="M 104.29559338865022 79.4440306129975 l 8.204452293721825 -39.26127427062239 a61.10935919200147,61.10935919200147 0 0,0 1.0250006192259,0.22339411426441824 l -8.877215329566859 39.11464869822425" fill="#31ff3b" stroke="none" /><path d="M 104.64783097203109 79.52079915486377 l 5.551878800660465 -24.462602386096275 a46.08470198582128,46.08470198582128 0 0,0 0.7699828633954456,0.18171385920668384 l -5.9709938177957955 24.363692383243365" fill="#c5ff1e" stroke="none" /><path d="M 104.9986988182912 79.60360301121754 l 2.18909283620757 -8.932245801488952 a30.19658319723974,30.19658319723974 0 0,0 0.502406015799741,0.12770964457285233 l -2.3421041452327054 8.893350925080831" fill="#ff720a" stroke="none" /><path d="M 105.69591212413111 79.78721728523813 l 7.239285208514527 -25.68966931739931 a47.690192205518954,47.690192205518954 0 0,0 0.7860705971208207,0.22881369450623998 l -7.679215818016953 25.561611928590555" fill="#b2ff20" stroke="none" /><path d="M 106.72888874123014 80.10723608172694 l 18.751722114841076 -55.43613446986487 a79.52172320799482,79.52172320799482 0 0,0 1.2893660833026641,0.44850845436198117 l -19.70059397018876 55.1060675829343" fill="#47fcff" stroke="none" /><path d="M 107.06938296918511 80.22567764915836 l 6.816806257233339 -19.06782033472215 a41.2497066612309,41.2497066612309 0 0,0 0.6647308678688406,0.24409838216335397 l -7.143126276756305 18.947991103550077" fill="#feff18" stroke="none" /><path d="M 109.06512990194946 81.05736502329252 l 5.060700678470833 -10.574918033776168 a32.72346291750691,32.72346291750691 0 0,0 0.5046265749755918,0.24683814498071027 l -5.241487502708492 10.486486138698236" fill="#ff940d" stroke="none" /><path d="M 109.3889696526874 81.21577127319529 l 4.871880687728012 -9.747024918947472 a31.89677549580793,31.89677549580793 0 0,0 0.48767553937225194,0.2490106052292624 l -5.038483448813843 9.661956362045377" fill="#ff890c" stroke="none" /><path d="M 110.02825361518725 81.54914285379988 l 14.39005916987517 -26.476088086427605 a51.13398485552122,51.13398485552122 0 0,0 0.767632662306715,0.4257928978081266 l -14.842436020337987 26.22516227318633" fill="#8cff24" stroke="none" /><line stroke="#e1ed5e" stroke-width="0.3" x1="143.13028292997686" x2="145.6673583964461" y1="26.7553504044142" y2="22.446841604673864" /><path d="M 143.63769802327073 25.89364864446614 a86.0,86.0 0 0,1 29.32050498858742,28.57503671076993" fill="none" id="id74" stroke="none" /><text fill="#e1ed5e" style="font-size:6.75px; font-family:Arial;" text-anchor="middle"><textPath startOffset="20.669276256404974" xlink:href="#id74">February</textPath></text><path d="M 110.65571695917076 81.90426304109057 l 1.3546704371715332 -2.3005265615627435 a23.6697480131657,23.6697480131657 0 0,0 0.34835922720996526,0.20917970676601208 l -1.3939624209389327 2.2769328542608105" fill="#ff1702" stroke="none" /><path d="M 110.96478420261332 82.08984904055464 l 19.364028352855737 -31.629685051162948 a58.08642029754236,58.08642029754236 0 0,0 0.845948140818371,0.5279342059246432 l -19.90414062246382 31.292615048396762" fill="#44ff2d" stroke="none" /><path d="M 111.8722381534696 82.67804972795209 l 9.925538861796626 -14.481657827683875 a38.55661513889146,38.55661513889146 0 0,0 0.5427392715609717,0.3788741628055613 l -10.172673224531358 14.309138849073188" fill="#ffdf14" stroke="none" /><path d="M 112.45986205192187 83.09580414077388 l 0.7647484232465441 -1.0375281103212484 a22.288916106876183,22.288916106876183 0 0,0 0.3060448733255441,0.2296617784969826 l -0.7824462854828546 1.024247304560251" fill="#ff0200" stroke="none" /><path d="M 112.7482090630111 83.31218511350987 l 9.661250602105737 -12.646887168467153 a36.91488354492824,36.91488354492824 0 0,0 0.5002670834207291,0.3890107099063615 l -9.876927630161692 12.479175406940001" fill="#ffca12" stroke="none" /><path d="M 113.31354834802062 83.75963576809568 l 1.6622230260095987 -2.0276418180482696 a23.621891822805548,23.621891822805548 0 0,0 0.3113879015335185,0.2597708623537507 l -1.6967852617050099 1.9988087717826486" fill="#ff1602" stroke="none" /><path d="M 113.59037401385872 83.9905735841838 l 6.881318827584976 -8.106176276065026 a31.633091865751698,31.633091865751698 0 0,0 0.41095983712017203,0.3549773193546155 l -7.0194581444680075 7.986854824245692" fill="#ff850c" stroke="none" /><path d="M 114.13192950727249 84.46653392183569 l 6.863190463139513 -7.543848572998883 a31.198678082264703,31.198678082264703 0 0,0 0.3930591140441316,0.3638096479274026 l -6.99167934849761 7.424921178939106" fill="#ff800b" stroke="none" /><path d="M 114.39649973595853 84.71141617570332 l 7.904941237359758 -8.394773656797318 a32.53084215116004,32.53084215116004 0 0,0 0.4032701557104484,0.38632368683063045 l -8.047883878935519 8.257837839661107" fill="#ff910d" stroke="none" /><path d="M 114.65682725009322 84.96080404539774 l 3.223999545846551 -3.308107552896662 a25.619280101179264,25.619280101179264 0 0,0 0.31232108125502683,0.3096516863443062 l -3.2803125472315404 3.2522758563236964" fill="#ff3204" stroke="none" /><path d="M 114.91283532996326 85.21462403516908 l 12.049300891386308 -11.946316032509822 a37.967619712846115,37.967619712846115 0 0,0 0.4549121070780337,0.46677989743134957 l -12.252599799615155 11.73771344301073" fill="#ffd814" stroke="none" /><path d="M 115.16444852881244 85.47280134310134 l 39.68633296733377 -38.018609241534584 a75.95834489005816,75.95834489005816 0 0,0 0.8939362770774781,0.9493293478512955 l -40.3331250781475 37.33173843373879" fill="#43ffdf" stroke="none" /><path d="M 115.41159269507618 85.73525988315684 l 5.951971966633496 -5.509056394533985 a29.110220259015584,29.110220259015584 0 0,0 0.33629554113507315,0.36964771001520363 l -6.045665208610447 5.40607110896111" fill="#ff6309" stroke="none" /><path d="M 115.6541949942343 86.00192230759917 l 7.733044189329021 -6.914935798414792 a31.373828103950526,31.373828103950526 0 0,0 0.3555535223812032,0.4045546404099358 l -7.850608775668815 6.781168880193558" fill="#ff820c" stroke="none" /><path d="M 115.8921839302757 86.27271002978787 l 7.32557766031723 -6.327659507571412 a30.680049736499175,30.680049736499175 0 0,0 0.34084868549511654,0.401518894461421 l -7.433120909319459 6.2009738306604385" fill="#ff790b" stroke="none" /><path d="M 116.35404254752997 86.82634096563983 l 12.805503999835357 -10.315207568201247 a37.44337069657178,37.44337069657178 0 0,0 0.3989209035597737,0.5040235299300193 l -12.98069133403669 10.09386409435655" fill="#ffd113" stroke="none" /><path d="M 116.57777611688842 87.10902102172516 l 1.086326945129731 -0.8447344031226648 a22.37611134852304,22.37611134852304 0 0,0 0.23318893919638686,0.3052518068735818 l -1.1006678616804246 0.825961683008201" fill="#ff0400" stroke="none" /><path d="M 116.7966241395341 87.39550010848427 l 28.00046187353553 -21.012068598753466 a56.00761191412574,56.00761191412574 0 0,0 0.5704721464935407,0.7739550290665084 l -28.357036039612897 20.52830726041808" fill="#59ff2a" stroke="none" /><path d="M 117.01052211995028 87.68569379921539 l 1.660713601614504 -1.2022285769878884 a23.050200775025154,23.050200775025154 0 0,0 0.22927804370265495,0.32250828174383955 l -1.6811067438471197 1.173543068534545" fill="#ff0e01" stroke="none" /><path d="M 117.42321728460499 88.27688183743584 l 17.13868137810247 -11.531669706235215 a41.65705220000713,41.65705220000713 0 0,0 0.3941065818450043,0.5967275957543965 l -17.334112398868196 11.235762232141761" fill="#f9ff18" stroke="none" /><path d="M 117.62189284568427 88.57770195909679 l 2.027369296055508 -1.3141162837222415 a23.416014873657147,23.416014873657147 0 0,0 0.21574212431798476,0.33918245324225377 l -2.0496291119993826 1.2791201558013157" fill="#ff1302" stroke="none" /><path d="M 117.81537515405839 88.88188828441811 l 10.755677554803295 -6.7123382806698 a33.67833131200808,33.67833131200808 0 0,0 0.3018733741240306,0.4930874699667959 l -10.869318893382728 6.52671369457845" fill="#ffa10e" stroke="none" /><line stroke="#e1ed5e" stroke-width="0.3" x1="172.87174338648825" x2="177.1583165268699" y1="56.24261187166439" y2="53.66864786411523" /><path d="M 173.72905801456457 55.72781907015455 a86.0,86.0 0 0,1 12.242430191666344,42.057860355516425" fill="none" id="id75" stroke="none" /><text fill="#e1ed5e" style="font-size:6.75px; font-family:Arial;" text-anchor="middle"><textPath startOffset="22.145653131862474" xlink:href="#id75">March</textPath></text><path d="M 118.00360718960297 89.18935116829356 l 12.014637097061417 -7.214444368222646 a35.01426816199347,35.01426816199347 0 0,0 0.3050014365426125,0.517959118932352 l -12.136712243733797 7.007134080996737" fill="#ffb210" stroke="none" /><path d="M 118.18653347947321 89.5 l 10.610893370630833 -6.12620214387613 a33.252404287752256,33.252404287752256 0 0,0 0.2811675016345208,0.4967960344385394 l -10.714494237286731 5.943149339338472" fill="#ff9b0e" stroke="none" /><path d="M 118.36410011445183 89.81374322990088 l 33.62431508052949 -18.65084077054506 a59.45059721360578,59.45059721360578 0 0,0 0.4873665132603557,0.8966994911646594 l -33.93952694340519 18.0708864459058" fill="#36ff2e" stroke="none" /><path d="M 119.0197475246899 91.09779779509293 l 12.03417158412273 -5.632599942314645 a34.28711661069737,34.28711661069737 0 0,0 0.24493334033004863,0.5352235520512625 l -12.129089389307829 5.425187408048698" fill="#ffa90f" stroke="none" /><path d="M 119.16976305983485 91.42560881287824 l 1.0212105789504762 -0.45677450269037967 a22.11871086204989,22.11871086204989 0 0,0 0.15205678199729594,0.34793567454266666 l -1.0289012429647426 0.43917675837186365" fill="#ff0000" stroke="none" /><path d="M 119.83427380445688 93.10060997987247 l 1.1360875759754365 -0.39519023287429267 a22.202859218880157,22.202859218880157 0 0,0 0.12213113916938434,0.3610590116730237 l -1.1427041367171857 0.3756295467271074" fill="#ff0100" stroke="none" /><path d="M 119.94978838288452 93.4421083053983 l 11.129263450569617 -3.6584099514629465 a32.715138425351526,32.715138425351526 0 0,0 0.17079683331665665,0.5350186477304052 l -11.19042499966353 3.4668222700411544" fill="#ff940d" stroke="none" /><path d="M 120.16314734710363 94.1308016681162 l 23.12188749706279 -6.730444468395933 a45.081539904436966,45.081539904436966 0 0,0 0.20991147387884518,0.7449017678614163 l -23.234017463016215 6.332534776631503" fill="#d0ff1d" stroke="none" /><path d="M 120.35273937422433 94.82641323984039 l 13.541818950673761 -3.4422774223901924 a34.972477745393775,34.972477745393775 0 0,0 0.14290832472315235,0.5831147324558407 l -13.598914801913205 3.209306865326257" fill="#ffb110" stroke="none" /><path d="M 120.43855184770803 95.1765574152323 l 2.220648044531871 -0.5240668919983831 a23.281649369419426,23.281649369419426 0 0,0 0.0884582259382131,0.38976326512180903 l -2.2293171320277505 0.48586929293754777" fill="#ff1101" stroke="none" /><path d="M 120.51834098615036 95.52812308129327 l 11.113601502332406 -2.4221577210131535 a32.37448840071978,32.37448840071978 0 0,0 0.11368423264566954,0.5440202073650241 l -11.153543445802443 2.231021062362725" fill="#ff8f0d" stroke="none" /><path d="M 120.592083275326 95.88100663000786 l 21.357818785679594 -4.272161917736564 a42.780904268034575,42.780904268034575 0 0,0 0.13786392434952371,0.7213623079460176 l -21.428009002311274 3.904897044757232" fill="#ebff1a" stroke="none" /><path d="M 120.7213421655516 96.59031103205396 l 13.352102584636345 -2.1970833992309817 a34.53165987208624,34.53165987208624 0 0,0 0.09122690303296613,0.585742159236235 l -13.387850979807576 1.9675530580633056" fill="#ffac0f" stroke="none" /><path d="M 120.77682067341334 96.94652285012252 l 62.330462020240034 -9.160431449632455 a84.0,84.0 0 0,0 0.19742193377914985,1.4284467671996575 l -62.478528470574396 8.089096374232712" fill="#4dd2ff" stroke="none" /><path d="M 120.9064616781168 98.02013634271609 l 7.374231658557419 -0.6983474050251361 a28.40722496297877,28.40722496297877 0 0,0 0.04180782918171324,0.4858703480555554 l -7.385133110436873 0.5716560095939188" fill="#ff5a08" stroke="none" /><path d="M 120.93736805541906 98.37931529534042 l 28.12040522616461 -2.176697210377336 a49.20452447444151,49.20452447444151 0 0,0 0.057958334678773406,0.8427014661234236 l -28.15362752200845 1.6936523200995783" fill="#a1ff22" stroke="none" /><line stroke="#e1ed5e" stroke-width="0.3" x1="184.99686870605535" x2="189.99668451229388" y1="99.2704041080226" y2="99.22748670261217" /><path d="M 185.99683186730306 99.26182062694052 a86.0,86.0 0 0,1 -10.086455211305974,41.156179273409016" fill="none" id="id76" stroke="none" /><text fill="#e1ed5e" style="font-size:6.75px; font-family:Arial;" text-anchor="middle"><textPath startOffset="21.40746469413373" xlink:href="#id76">April</textPath></text><path d="M 120.99922638620191 99.81974689727618 l 10.839767727674404 -0.09304636893684778 a31.840167065903728,31.840167065903728 0 0,0 0.0,0.546598943321348 l -10.839767727674404 -0.09304636893684647" fill="#ff880c" stroke="none" /><path d="M 120.99303781780057 100.54070618675476 l 14.089401322282866 0.3628929995147849 a35.094073965658154,35.094073965658154 0 0,0 -0.020680959518136408,0.6021035714643033 l -14.081095675767884 -0.6047028355431989" fill="#ffb310" stroke="none" /><path d="M 120.98066250479742 100.90099992219065 l 9.975167696908505 0.4283766214102192 a30.984361627626363,30.984361627626363 0 0,0 -0.027381928738643153,0.5312021023886268 l -9.966344178713289 -0.5995505171755767" fill="#ff7d0b" stroke="none" /><path d="M 119.58574465831526 107.57618678355244 l 8.56637546606386 3.313658056978038 a30.18493975724154,30.18493975724154 0 0,0 -0.1910869470188286,0.48166393372007077 l -8.508229844078906 -3.460223007911673" fill="#ff720a" stroke="none" /><path d="M 118.70294669586154 109.54985784667822 l 11.321351129762835 5.780762554677462 a33.711813683221735,33.711813683221735 0 0,0 -0.26759463434347425,0.5131479950287073 l -11.220448426444412 -5.974256792810672" fill="#ffa10e" stroke="none" /><path d="M 118.5362547648365 109.86951160357373 l 9.825913517328072 5.23174550119735 a32.13192424692646,32.13192424692646 0 0,0 -0.26341238975790654,0.48464912839876917 l -9.734655777954826 -5.399649463070722" fill="#ff8c0c" stroke="none" /><line stroke="#e1ed5e" stroke-width="0.3" x1="174.33088141563837" x2="178.70328620479359" y1="141.23008692659167" y2="143.65538615756765" /><path d="M 175.20536237346943 141.71514677278685 a86.0,86.0 0 0,1 -30.301960400862466,31.631185727798858" fill="none" id="id77" stroke="none" /><text fill="#e1ed5e" style="font-size:6.75px; font-family:Arial;" text-anchor="middle"><textPath startOffset="22.145653131862474" xlink:href="#id77">May</textPath></text><path d="M 118.36410011445183 110.18625677009912 l 24.376357175132547 13.521154413122733 a48.87522925095226,48.87522925095226 0 0,0 -0.41326714247144253,0.7302034422542665 l -24.14065666763973 -13.937614625476124" fill="#a5ff21" stroke="none" /><path d="M 118.18653347947321 110.5 l 10.879925626528948 6.281527989239593 a33.56305597847919,33.56305597847919 0 0,0 -0.29236025270715216,0.4964916251529886 l -10.770491663692031 -6.467370782686131" fill="#ff9f0e" stroke="none" /><path d="M 116.79662413953412 112.60449989151573 l 10.075937966407249 7.561171694351082 a33.59745384172306,33.59745384172306 0 0,0 -0.35013030186624383,0.45833180447660005 l -9.944655687186701 -7.733024412068559" fill="#ffa00e" stroke="none" /><path d="M 116.1254893667686 113.45245675266167 l 47.390401481750324 39.53475841411147 a82.71585918922008,82.71585918922008 0 0,0 -0.9189552206202403,1.0825269392106076 l -46.70475169762297 -40.34245213577164" fill="#4bdeff" stroke="none" /><path d="M 115.6541949942343 113.99807769240083 l 9.92565097860709 8.87557830967164 a34.31519574321901,34.31519574321901 0 0,0 -0.39642597063646995,0.4357415853380877 l -9.77182730712874 -9.0446574705674" fill="#ffa90f" stroke="none" /><path d="M 115.41159269507618 114.26474011684316 l 9.24539006332351 8.557395016952986 a33.5978667598595,33.5978667598595 0 0,0 -0.39540556040979524,0.4199070027986682 l -9.097128669177454 -8.714843479696151" fill="#ffa00e" stroke="none" /><path d="M 114.91283532996324 114.78537596483092 l 2.550979528868832 2.5291764160454853 a24.592245801749726,24.592245801749726 0 0,0 -0.2998006489237086,0.297238265612112 l -2.507186959815159 -2.5725946918862586" fill="#ff2403" stroke="none" /><path d="M 114.65682725009322 115.03919595460226 l 12.128764089523184 12.445180441648596 a38.37784320807677,38.37784320807677 0 0,0 -0.47575278667664006,0.4557604076727964 l -11.913338816981232 -12.651552979626972" fill="#ffdd14" stroke="none" /><path d="M 114.39649973595853 115.28858382429668 l 27.90037020356226 29.629226298712577 a61.69793248503105,61.69793248503105 0 0,0 -0.7773064812866702,0.7194632745669847 l -27.387633950961625 -30.103807319411942" fill="#31ff42" stroke="none" /><path d="M 113.86319453409587 115.77377054828091 l 1.8484249065322518 2.103168232953666 a23.799998437712816,23.799998437712816 0 0,0 -0.30919656930571593,0.2670766323417894 l -1.8120488574636802 -2.134588997760173" fill="#ff1802" stroke="none" /><path d="M 112.45986205192187 116.90419585922612 l 15.325011602307487 20.791321492227926 a46.82895719931484,46.82895719931484 0 0,0 -0.6511878460278392,0.47140978234944514 l -14.96584274590568 -21.05133204595045" fill="#bcff1f" stroke="none" /><line stroke="#e1ed5e" stroke-width="0.3" x1="143.1302829299769" x2="145.66735839644613" y1="173.24464959558577" y2="177.55315839532614" /><path d="M 143.63769802327073 174.10635135553383 a86.0,86.0 0 0,1 -40.68552437913181,11.842963189579606" fill="none" id="id78" stroke="none" /><text fill="#e1ed5e" style="font-size:6.75px; font-family:Arial;" text-anchor="middle"><textPath startOffset="21.407464694133747" xlink:href="#id78">June</textPath></text><path d="M 109.06512990194946 118.94263497670748 l 10.486732476457867 21.913237598195483 a45.29324062507438,45.29324062507438 0 0,0 -0.7042263928295419,0.32961351031935565 l -10.109017369756819 -22.090027340085374" fill="#ceff1d" stroke="none" /><path d="M 106.72888874123015 119.89276391827305 l 2.0331253200018113 6.010573745890992 a27.345123743602368,27.345123743602368 0 0,0 -0.44595633897108955,0.1465947064382153 l -1.9296462433829875 -6.044589373731226" fill="#ff4b07" stroke="none" /><path d="M 106.0420521117495 120.11202640906438 l 7.790020530816045 25.930444780219 a48.07530953415902,48.07530953415902 0 0,0 -0.792418430804963,0.23066145637737068 l -7.343742087629475 -26.060349930898887" fill="#aeff20" stroke="none" /><path d="M 104.29559338865022 120.5559693870025 l 5.5702658816943735 26.655738702855572 a48.231530764679405,48.231530764679405 0 0,0 -0.8119055063588504,0.1624038400116304 l -5.111863889804564 -26.747431939530063" fill="#acff20" stroke="none" /><path d="M 103.2317021107853 120.74984581791261 l 2.632327998422316 16.901434054565385 a38.105192889649054,38.105192889649054 0 0,0 -0.6471983642721119,0.09511587204830765 l -2.341804528542519 -16.944130999912574" fill="#ffd914" stroke="none" /><path d="M 102.51750503828377 120.84855314841334 l 1.7103208647345798 14.16391026314201 a35.266798919263074,35.266798919263074 0 0,0 -0.6016584722969377,0.0674170867603523 l -1.466926490836843 -14.191183110409334" fill="#ffb510" stroke="none" /><path d="M 101.80034050326958 120.92268563240118 l 2.1199506004019346 24.637039431083757 a45.72807923145104,45.72807923145104 0 0,0 -0.7826709278646719,0.060583679773622806 l -1.6967106777620269 -24.66980087785243" fill="#c9ff1d" stroke="none" /><path d="M 101.08105385017728 120.97215588758144 l 1.0766322993808493 20.88637898335745 a41.914109212311814,41.914109212311814 0 0,0 -0.7188753526494367,0.030871600773032512 l -0.717931186130583 -20.901783152556316" fill="#f6ff19" stroke="none" /><path d="M 100.72087961077811 120.9876233191556 l 0.4873960490349614 14.190004171915849 a35.19837220626379,35.19837220626379 0 0,0 -0.6040487956914213,0.015558154268421767 l -0.24373393927279624 -14.196280043534315" fill="#ffb410" stroke="none" /><line stroke="#e1ed5e" stroke-width="0.3" x1="101.45913802915013" x2="101.54496967792366" y1="184.9874750549273" y2="189.98673829345242" /><path d="M 101.47630435890484 185.9873277026323 a86.0,86.0 0 0,1 -42.54439059252881,-10.42667462771756" fill="none" id="id79" stroke="none" /><text fill="#e1ed5e" style="font-size:6.75px; font-family:Arial;" text-anchor="middle"><textPath startOffset="22.145653131862474" xlink:href="#id79">July</textPath></text><path d="M 100.0 121.0 l 3.5442249289169272e-15 28.940792817852092 a49.94079281785209,49.94079281785209 0 0,0 -0.8573001177227643,-0.007358890434486166 l 0.4968071928739086 -28.93652832561204" fill="#99ff23" stroke="none" /><path d="M 97.84075906011543 120.88869738790638 l -0.3906098510585099 3.778795976299237 a24.798930781975272,24.798930781975272 0 0,0 -0.42307459894612176,-0.04740639126107942 l 0.455420351605431 -3.7715338245311867" fill="#ff2703" stroke="none" /><path d="M 97.12497278360702 120.80226474461374 l -1.7293243142957089 12.51252927630019 a33.63146671904271,33.63146671904271 0 0,0 -0.5712142781082485,-0.08394882803793216 l 1.9438636980116424 -12.480999374963375" fill="#ffa00e" stroke="none" /><path d="M 96.05791012581884 120.62667999033965 l -5.167185656925493 27.036898801860456 a48.52623665587397,48.52623665587397 0 0,0 -0.8168664381813284,-0.16339616531512458 l 5.630548580637779 -26.944213239882473" fill="#a9ff21" stroke="none" /><path d="M 95.70440661134978 120.55596938700252 l -1.4193654120725598 6.792177312830289 a27.938895504467148,27.938895504467148 0 0,0 -0.4686251921344753,-0.10213467948725442 l 1.5357530208261716 -6.766811175209316" fill="#ff5307" stroke="none" /><path d="M 95.00130118170881 120.39639698878247 l -3.765341572090022 15.363878540089424 a36.818551164665166,36.818551164665166 0 0,0 -0.6125812803830751,-0.15571576599291637 l 4.028528145698476 -15.296977542261246" fill="#ffc912" stroke="none" /><path d="M 94.30408787586889 120.21278271476187 l -2.377687175146837 8.437572979981718 a29.766186975839343,29.766186975839343 0 0,0 -0.4906317900601813,-0.14281576354219702 l 2.522178977588625 -8.395513522137007" fill="#ff6c0a" stroke="none" /><path d="M 93.61358852112213 120.00534299687104 l -2.6558550037671447 8.319427972350661 a29.73306633366343,29.73306633366343 0 0,0 -0.4848999599662426,-0.15939624817792392 l 2.7982777013811306 -8.272610802770718" fill="#ff6c09" stroke="none" /><path d="M 92.25597844496254 119.51999308798841 l -9.944662012282071 25.067044604989853 a47.96762925744636,47.96762925744636 0 0,0 -0.7627893237045285,-0.3102197773733925 l 10.37350579717704 -24.89263757103717" fill="#afff20" stroke="none" /><line stroke="#e1ed5e" stroke-width="0.3" x1="58.13341422392154" x2="55.67067388415222" y1="173.97424548756322" y2="178.32567169271397" /><path d="M 57.64086615596768 174.84453072859336 a86.0,86.0 0 0,1 -31.369924170532247,-30.572349798747897" fill="none" id="id80" stroke="none" /><text fill="#e1ed5e" style="font-size:6.75px; font-family:Arial;" text-anchor="middle"><textPath startOffset="22.145653131862474" xlink:href="#id80">August</textPath></text><path d="M 89.03521579738668 117.91015095944536 l -9.558732298380912 15.61347084278459 a39.30709793797463,39.30709793797463 0 0,0 -0.5724533591718364,-0.3572532345906082 l 9.82534978634246 -15.447081811352435" fill="#ffe815" stroke="none" /><path d="M 88.72937992617639 117.7192867562869 l -13.834559626015826 21.750225591373283 a46.777264271474124,46.777264271474124 0 0,0 -0.6738473583729413,-0.4367797165045251 l 14.205892616645777 -21.509532033164863" fill="#bdff1f" stroke="none" /><path d="M 88.1277618465304 117.32195027204791 l -11.237664514707125 16.396088368630522 a40.877545561186594,40.877545561186594 0 0,0 -0.5754096727930863,-0.40168064017680427 l 11.517469278673977 -16.20076291264859" fill="#fffc17" stroke="none" /><path d="M 87.54013794807813 116.9041958592261 l -16.32321251937984 22.145572746273505 a48.51133692159163,48.51133692159163 0 0,0 -0.6660999526325586,-0.4998538224674812 l 16.700965460923165 -21.86209989654201" fill="#a9ff21" stroke="none" /><line stroke="#e1ed5e" stroke-width="0.3" x1="26.387840678322732" x2="22.057713659400548" y1="142.50000000000003" y2="145.00000000000006" /><path d="M 25.521815274538298 143.00000000000003 a86.0,86.0 0 0,1 -11.493303480769221,-40.785679425670985" fill="none" id="id81" stroke="none" /><text fill="#e1ed5e" style="font-size:6.75px; font-family:Arial;" text-anchor="middle"><textPath startOffset="21.40746469413373" xlink:href="#id81">September</textPath></text><line stroke="#e1ed5e" stroke-width="0.3" x1="15.003131293944662" x2="10.003315487706104" y1="100.72959589197737" y2="100.7725132973878" /><path d="M 14.003168132696942 100.73817937305945 a86.0,86.0 0 0,1 10.791469493833604,-42.45332614584628" fill="none" id="id82" stroke="none" /><text fill="#e1ed5e" style="font-size:6.75px; font-family:Arial;" text-anchor="middle"><textPath startOffset="22.145653131862435" xlink:href="#id82">October</textPath></text><line stroke="#e1ed5e" stroke-width="0.3" x1="26.387840678322718" x2="22.05771365940052" y1="57.49999999999999" y2="54.99999999999999" /><path d="M 25.521815274538284 56.99999999999999 a86.0,86.0 0 0,1 29.574782752854787,-30.34633250058573" fill="none" id="id83" stroke="none" /><text fill="#e1ed5e" style="font-size:6.75px; font-family:Arial;" text-anchor="middle"><textPath startOffset="21.40746469413373" xlink:href="#id83">November</textPath></text><line stroke="#e1ed5e" stroke-width="0.3" x1="56.869717070023135" x2="54.33264160355391" y1="26.7553504044142" y2="22.446841604673864" /><path d="M 56.362301976729285 25.89364864446614 a86.0,86.0 0 0,1 42.16139366436587,-11.88097634709845" fill="none" id="id84" stroke="none" /><text fill="#e1ed5e" style="font-size:6.75px; font-family:Arial;" text-anchor="middle"><textPath startOffset="22.145653131862474" xlink:href="#id84">December</textPath></text></svg>