<?xml version="1.0" encoding="utf-8" ?>
<svg baseProfile="full" height="200mm" version="1.1" viewBox="0,0,200,200" width="200mm" xmlns="http://www.w3.org/2000/svg" xmlns:ev="http://www.w3.org/2001/xml-events" xmlns:xlink="http://www.w3.org/1999/xlink"><defs /><rect fill="#1a1a1a" height="200" width="200" x="0" y="0" /><text alignment-baseline="middle" fill="#e1ed5e" style="dominant-baseline: central; font-size:9.0px; font-family:Arial;" text-anchor="middle" x="100.0" y="100.0">2025</text><line stroke="#e1ed5e" stroke-width="0.3" x1="100.0" x2="100.0" y1="15.0" y2="10.0" /><path d="M 100.0 14.0 a86.0,86.0 0 0,1 42.46469731375804,11.215312516191453" fill="none" id="id85" stroke="none" /><text fill="#e1ed5e" style="font-size:6.75px; font-family:Arial;" text-anchor="middle"><textPath startOffset="22.20632615414155" xlink:href="#id85">January</textPath></text><path d="M 101.08401301168833 79.027996857942 l 0.26796612860983166 -5.184242652602295 a26.1911634271272,26.1911634271272 0 0,0 0.4500364642643556,0.027147428520700453 l -0.35716464171379914 5.178861954701291" fill="#ff3a05" stroke="none" /><path d="M 102.52436894288641 79.15227682838746 l 1.5980002774676145 -13.197225986591446 a34.29362172727775,34.29362172727775 0 0,0 0.5854170616834473,0.07600393618868101 l -1.8249320676589078 13.167763727238627" fill="#ffa80f" stroke="none" /><path d="M 102.88285421437855 79.19881850522331 l 0.24395582527762955 -1.7602587647332333 a22.77708338676244,22.77708338676244 0 0,0 0.38789483592711316,0.057165615676568506 l -0.2742196416333985 1.7557986648956958" fill="#ff0901" stroke="none" /><path d="M 103.59715602781102 79.31037775812273 l 4.693233860219922 -26.9938904262172 a48.398842391775155,48.398842391775155 0 0,0 0.8195649755946186,0.14977026076242758 l -5.157193956917442 26.909104684104033" fill="#aaff21" stroke="none" /><path d="M 103.95276090670814 79.375362276772 l 3.5418155434306264 -18.480415130038757 a39.81675319289309,39.81675319289309 0 0,0 0.6720187998818284,0.13480064923166107 l -3.8594007527795804 18.41671052472989" fill="#ffef16" stroke="none" /><path d="M 104.66035177308747 79.52364482259891 l 4.466397510910209 -19.62417136083881 a41.12602316219056,41.12602316219056 0 0,0 0.6889124189471074,0.16304331169722305 l -4.8035336168198395 19.544382137000717" fill="#ffff18" stroke="none" /><path d="M 105.01212808612495 79.60689891045804 l 4.028404909397941 -16.39057644483974 a37.87836017829329,37.87836017829329 0 0,0 0.6318310896020595,0.16106781304562187 l -4.309944887685026 16.31880563562525" fill="#ffd614" stroke="none" /><path d="M 105.36241919743992 79.69619591428918 l 5.165938299443565 -19.559865666758576 a41.23055272144829,41.23055272144829 0 0,0 0.6846276553543853,0.18713460016786237 l -5.501863844021662 19.46804452576442" fill="#feff18" stroke="none" /><path d="M 106.40334571778207 80.00007090966166 l 12.327154494434634 -38.50209353677272 a61.42734154806689,61.42734154806689 0 0,0 1.0042410255920675,0.3310824770705512 l -12.98807834226912 38.28419733544293" fill="#31ff3e" stroke="none" /><path d="M 106.74666289553966 80.11325718540242 l 9.25017899266942 -27.26621049020055 a49.79256928258305,49.79256928258305 0 0,0 0.8092904742891356,0.2823455556444638 l -9.71815147102183 27.10294408138388" fill="#9bff22" stroke="none" /><path d="M 107.4271985657038 80.35727306442388 l 1.3546807933411384 -3.5827270097966024 a24.83028626587798,24.83028626587798 0 0,0 0.39848688045135394,0.15460671874999504 l -1.4161508387921595 3.5588775871560605" fill="#ff2703" stroke="none" /><path d="M 107.76421540070413 80.48803036053334 l 4.979951198187774 -12.514935710857952 a34.46935521037438,34.46935521037438 0 0,0 0.5494023425618985,0.22411501020228292 l -5.194637410338061 12.42735981447209" fill="#ffab0f" stroke="none" /><path d="M 108.43124777332544 80.76684994638697 l 1.369784385819054 -3.1247176386992823 a24.411769274911787,24.411769274911787 0 0,0 0.3834018107966262,0.1720212166099116 l -1.4233683150824603 3.1006760915728395" fill="#ff2103" stroke="none" /><path d="M 109.73455568895987 81.39251694778311 l 3.87439763545096 -7.405863261018134 a29.358095936185833,29.358095936185833 0 0,0 0.44576068160713866,0.2381099184445166 l -4.00130336358641 7.3380746160718635" fill="#ff6609" stroke="none" /><path d="M 110.05341064243156 81.56283822128135 l 3.965978442097121 -7.273291497637438 a29.284307708721602,29.284307708721602 0 0,0 0.4404860653993934,0.24513001849061836 l -4.09058859656855 7.203946081586641" fill="#ff6509" stroke="none" /><path d="M 110.36928655335952 81.73862282372117 l 4.526880775959306 -7.97230135906077 a30.167891716170743,30.167891716170743 0 0,0 0.4493626239738268,0.26029983615606206 l -4.663440132398462 7.893197365514658" fill="#ff710a" stroke="none" /><line stroke="#e1ed5e" stroke-width="0.3" x1="143.23703022742887" x2="145.7803849466894" y1="26.81831364943548" y2="22.513508569990506" /><path d="M 143.74570117128098 25.957352633546492 a86.0,86.0 0 0,1 28.547481713284135,27.462654790039103" fill="none" id="id86" stroke="none" /><text fill="#e1ed5e" style="font-size:6.75px; font-family:Arial;" text-anchor="middle"><textPath startOffset="19.985693538727396" xlink:href="#id86">February</textPath></text><path d="M 110.68208982089419 81.91981866633111 l 6.231321861365467 -10.546946439410462 a33.25020209366867,33.25020209366867 0 0,0 0.49026304162521667,0.29537799698857914 l -6.411946969208322 10.438121832963269" fill="#ff9b0e" stroke="none" /><path d="M 111.2981086023043 82.29822771554956 l 5.370190689392474 -8.41396520903625 a30.981671131594652,30.981671131594652 0 0,0 0.44706990234192545,0.2907867005415714 l -5.51422761751868 8.320279584335152" fill="#ff7c0b" stroke="none" /><path d="M 111.60114157652 82.49532879139004 l 3.189591789118687 -4.812694956779654 a26.773692798220708,26.773692798220708 0 0,0 0.3819653655118239,0.257904719850235 l -3.2719618490370523 4.757078324630749" fill="#ff4306" stroke="none" /><path d="M 111.90073688211348 82.69761687909136 l 2.2575514537023933 -3.2822354240795666 a24.98366764994227,24.98366764994227 0 0,0 0.35223266714948637,0.24676149304506437 l -2.3137152604355307 3.2428890882705668" fill="#ff2904" stroke="none" /><path d="M 112.19680574252982 82.90503203632743 l 11.534357212975264 -16.166484176247078 a40.859421112846206,40.859421112846206 0 0,0 0.5690251940726078,0.4134210030002511 l -11.81092772340166 15.965543938430152" fill="#fffb17" stroke="none" /><path d="M 112.48926042617603 83.11751280151076 l 3.7743183306495665 -5.101973914057008 a27.346307326374568,27.346307326374568 0 0,0 0.3760167343331413,0.283208008655294 l -3.8615812187410907 5.0362493158958666" fill="#ff4b06" stroke="none" /><path d="M 113.06298171725822 83.55741782278167 l 11.264122003638262 -14.178328938051141 a39.10815992828719,39.10815992828719 0 0,0 0.5234843259160897,0.42328791899614154 l -11.506509728118841 13.982334921790871" fill="#ffe615" stroke="none" /><path d="M 113.6212207817346 84.01681056812373 l 12.010145319559918 -14.09274769294525 a39.51618557192492,39.51618557192492 0 0,0 0.5139102539770457,0.4456579080931586 l -12.250949372183728 13.88392479143242" fill="#ffeb16" stroke="none" /><path d="M 114.16331599549186 84.49514656593476 l 11.40756807803913 -12.488083380009037 a37.91404256708476,37.91404256708476 0 0,0 0.4780637888205064,0.4443081904347821 l -11.620839750654484 12.289870603499615" fill="#ffd714" stroke="none" /><path d="M 115.19652480421416 85.50635884689758 l 5.612547161291797 -5.352950464573897 a28.755950252155213,28.755950252155213 0 0,0 0.3385433614344988,0.3611344537250734 l -5.703857844696759 5.255546593970768" fill="#ff5e08" stroke="none" /><path d="M 115.4437574822437 85.77008943001954 l 15.000127087764552 -13.821148593057334 a41.39676349523273,41.39676349523273 0 0,0 0.4783422819062938,0.5281974949813949 l -15.235813010286881 13.56089831080639" fill="#fcff18" stroke="none" /><path d="M 115.9244219780498 86.31012108654704 l 33.12258702570263 -28.474767015544032 a64.67972215874042,64.67972215874042 0 0,0 0.7185282239160125,0.8505107816481966 l -33.60782586310576 27.900397284266727" fill="#35ff65" stroke="none" /><path d="M 116.38621287248628 86.86637796730983 l 37.43840934130659 -30.00705053816695 a68.97976215038314,68.97976215038314 0 0,0 0.734621063168196,0.9328941482866252 l -37.94938448506875 29.358163995927285" fill="#3aff95" stroke="none" /><path d="M 117.04232023915458 87.72973835380427 l 10.368696351284784 -7.465334260526178 a33.776583254005445,33.776583254005445 0 0,0 0.3356546033930684,0.47475963266282556 l -10.495663574481737 7.285748127531559" fill="#ffa20e" stroke="none" /><path d="M 117.45458315368197 88.32363383020206 l 16.523523978766562 -11.05352758600919 a40.87982184959261,40.87982184959261 0 0,0 0.38622353337751386,0.5882449386075085 l -16.711344147502 10.767464583424008" fill="#fffc17" stroke="none" /><line stroke="#e1ed5e" stroke-width="0.3" x1="172.23445277983987" x2="176.4835382374775" y1="55.19839476539836" y2="52.563006222186495" /><path d="M 173.08426987136738 54.67131705675599 a86.0,86.0 0 0,1 12.851231095245387,41.99856678651699" fill="none" id="id87" stroke="none" /><text fill="#e1ed5e" style="font-size:6.75px; font-family:Arial;" text-anchor="middle"><textPath startOffset="22.20632615414155" xlink:href="#id87">March</textPath></text><path d="M 117.84615892207809 88.93136811851018 l 53.538476766234254 -33.20589564446945 a84.0,84.0 0 0,0 0.7515368068551043,1.2353289071716742 l -54.10212937137558 32.279398964090696" fill="#4dd2ff" stroke="none" /><path d="M 118.73160827565052 90.50648371742162 l 10.071915751751513 -5.104628218726195 a32.29162150276903,32.29162150276903 0 0,0 0.24701550761515548,0.49796819026156586 l -10.158291272320076 4.930500439965679" fill="#ff8e0d" stroke="none" /><path d="M 119.04729006885535 91.15688171328212 l 11.693167442854872 -5.428807062304488 a33.89193976740383,33.89193976740383 0 0,0 0.24111320356513963,0.5312609832895142 l -11.784882963383359 5.226724070172911" fill="#ffa30f" stroke="none" /><path d="M 119.47837535516314 92.15188598940014 l 7.885592423885369 -3.1772171577631303 a29.501604362896614,29.501604362896614 0 0,0 0.18572868502919523,0.47265924500321116 l -7.939114658796265 3.0410089078641347" fill="#ff6809" stroke="none" /><path d="M 119.61058180528143 92.48833698450437 l 9.71157829258643 -3.719935706490113 a31.39964781102976,31.39964781102976 0 0,0 0.18898911457043563,0.5063968675725391 l -9.774171995658492 3.5522157018882408" fill="#ff820c" stroke="none" /><path d="M 119.7369772167798 92.82701384747503 l 21.86423384705176 -7.946092499267624 a44.2633855602636,44.2633855602636 0 0,0 0.2540864172484447,0.7183365172062738 l -21.997773345110012 7.568558355634735" fill="#daff1c" stroke="none" /><path d="M 119.97218684219823 93.5106431181261 l 6.424221110510248 -2.0873559717600143 a27.754825817855536,27.754825817855536 0 0,0 0.14372310031716198,0.45564150388425817 l -6.459199694595616 1.9764643014493368" fill="#ff5007" stroke="none" /><path d="M 120.94382443527127 98.46500227214037 l 3.2452910577482186 -0.23785122985930818 a24.253995583439863,24.253995583439863 0 0,0 0.026932802037492095,0.41663852677965935 l -3.248904450790126 0.18195363882661356" fill="#ff1f03" stroke="none" /><path d="M 120.96714384426684 98.82574320788733 l 3.4743446544391268 -0.19457933035219002 a24.4797890587836,24.4797890587836 0 0,0 0.019940993428615182,0.4209228543494556 l -3.4771792561012385 0.13474536937973466" fill="#ff2203" stroke="none" /><path d="M 120.98425023603335 99.18683210126433 l 8.760273971795469 -0.33947238990513745 a29.766849010016372,29.766849010016372 0 0,0 0.015433835576844645,0.5121738649719775 l -8.764819501827958 0.1886283775081609" fill="#ff6c09" stroke="none" /><line stroke="#e1ed5e" stroke-width="0.3" x1="184.98032266829074" x2="189.97916517819016" y1="98.17113171792111" y2="98.06355123074" /><path d="M 185.9800911702706 98.14961562048488 a86.0,86.0 0 0,1 -9.607161424134198,41.387399972396054" fill="none" id="id88" stroke="none" /><text fill="#e1ed5e" style="font-size:6.75px; font-family:Arial;" text-anchor="middle"><textPath startOffset="21.466115282336823" xlink:href="#id88">April</textPath></text><path d="M 120.99513854157772 99.54816195383933 l 22.333122392084224 -0.480632903008607 a43.33829366283979,43.33829366283979 0 0,0 0.00963140514546793,0.7459629426973622 l -22.33808680434741 0.09613370225078213" fill="#e5ff1a" stroke="none" /><path d="M 120.99980553446 99.90962569577887 l 17.600271224066685 -0.07574414264780029 a38.600434208730626,38.600434208730626 0 0,0 -0.002859561910708707,0.6644614811275416 l -17.59896736486647 -0.22722681668342595" fill="#ffe014" stroke="none" /><path d="M 120.99824983174949 100.27111621757518 l 9.295463660675187 0.12001719040790518 a30.29623842169113,30.29623842169113 0 0,0 -0.011221059205903917,0.5213985289928568 l -9.292020538784277 -0.28000553519087673" fill="#ff730a" stroke="none" /><path d="M 120.9904718944345 100.63252640178507 l 18.246318139785505 0.5498341350698401 a39.2546006046244,39.2546006046244 0 0,0 -0.026165746868695768,0.6752216617984802 l -18.234150260065604 -0.8638330438823264" fill="#ffe815" stroke="none" /><path d="M 120.95626037817324 101.35467743843564 l 3.7346860343962884 0.24142164771472202 a24.74248102032595,24.74248102032595 0 0,0 -0.031132452178062917,0.4247775751212527 l -3.729977023553888 -0.30567235933274495" fill="#ff2603" stroke="none" /><path d="M 120.8583938346157 102.4346265915055 l 10.469739078340483 1.2220454445514475 a31.54081739890597,31.54081739890597 0 0,0 -0.06758519905102486,0.5387205341071809 l -10.44715237004261 -1.4020837329460234" fill="#ff840c" stroke="none" /><path d="M 120.70491114924044 103.5080841355445 l 4.643332382048327 0.7867312517359611 a25.709509706183503,25.709509706183503 0 0,0 -0.07768380269392869,0.4356920205844302 l -4.62910213701521 -0.8665420230536097" fill="#ff3404" stroke="none" /><path d="M 120.64145759157962 103.86396538481128 l 18.08514728370425 3.385438396169931 a39.399286546155444,39.399286546155444 0 0,0 -0.13052433360604995,0.6655407650269163 l -18.024193017122535 -3.696242888264792" fill="#ffe915" stroke="none" /><path d="M 120.32669344350535 105.2749913415812 l 1.5776593151986582 0.40941923243777223 a22.62991810307237,22.62991810307237 0 0,0 -0.10109314997510756,0.37620521863225537 l -1.5703780888817733 -0.43651538424557584" fill="#ff0701" stroke="none" /><path d="M 119.54520255179757 107.68017299344265 l 16.48887812425684 6.479208190678884 a38.716185835973725,38.716185835973725 0 0,0 -0.2490693091602391,0.6181695993103381 l -16.374906200839206 -6.762077157832036" fill="#ffe115" stroke="none" /><path d="M 119.26925614724726 108.34839909993367 l 19.90203474911095 8.622550228025386 a42.689614094991185,42.689614094991185 0 0,0 -0.2979306445239272,0.6717549520083355 l -19.75066301985575 -8.963853516526408" fill="#ecff1a" stroke="none" /><path d="M 119.12269723197855 108.67885076344098 l 26.373652361851217 11.96970229453855 a49.962791853059706,49.962791853059706 0 0,0 -0.3621716730277984,0.780085563397286 l -26.163706071983587 -12.421907925214665" fill="#99ff23" stroke="none" /><path d="M 118.81262510543309 109.33194174019688 l 16.591823145670666 8.230320122327463 a39.52098173999427,39.52098173999427 0 0,0 -0.30755101939535406,0.6068273386398036 l -16.447693456489045 -8.514701672669961" fill="#ffeb16" stroke="none" /><line stroke="#e1ed5e" stroke-width="0.3" x1="174.80103733775053" x2="179.2010983576182" y1="140.37084112569926" y2="142.7455964860345" /><path d="M 175.68104954172406 140.8457921977663 a86.0,86.0 0 0,1 -30.038265399797805,32.042727171017184" fill="none" id="id89" stroke="none" /><text fill="#e1ed5e" style="font-size:6.75px; font-family:Arial;" text-anchor="middle"><textPath startOffset="22.206326154141568" xlink:href="#id89">May</textPath></text><path d="M 118.30583269289576 110.29060199501025 l 9.005810192785333 5.062605448837425 a31.331243446898082,31.331243446898082 0 0,0 -0.2683267424756409,0.46785029283471213 l -8.917331454157312 -5.216875587530452" fill="#ff810b" stroke="none" /><path d="M 118.12598468904814 110.60418214915192 l 5.248732679788629 3.070647931326691 a27.080959912879052,27.080959912879052 0 0,0 -0.238852937157851,0.4003312614718345 l -5.195098866932551 -3.1605412866846296" fill="#ff4706" stroke="none" /><path d="M 116.71984013943494 112.70617746262583 l 9.297715786066867 7.065762937301375 a32.67786473310163,32.67786473310163 0 0,0 -0.3441962336586754,0.4449200301230579 l -9.174712735190123 -7.224760961537685" fill="#ff930d" stroke="none" /><path d="M 116.498646956653 112.99209946851258 l 17.99008658536011 14.166555292578229 a43.89835156089691,43.89835156089691 0 0,0 -0.4726014751541731,0.5896430060536091 l -17.743567198151084 -14.474126132210088" fill="#deff1b" stroke="none" /><path d="M 115.56566222782051 114.09645910891815 l 15.305546877102033 13.860895382085419 a41.649072279409665,41.649072279409665 0 0,0 -0.4858138027851048,0.5272549335318842 l -15.064686666321206 -14.122301570418639" fill="#f9ff18" stroke="none" /><path d="M 115.07121518719521 114.62390073753431 l 7.098540185855601 6.887855144391296 a30.890996980098848,30.890996980098848 0 0,0 -0.3735742040227258,0.37842869635928617 l -6.97892535677734 -7.009024334731247" fill="#ff7b0b" stroke="none" /><path d="M 114.29624159901734 115.38237550388516 l 11.898473477921495 12.802440815842628 a38.4778763569249,38.4778763569249 0 0,0 -0.48903631120102664,0.44672307534311384 l -11.676337617253605 -13.005356657772325" fill="#ffde14" stroke="none" /><path d="M 114.0293411484842 115.62618273729858 l 10.367189928548962 11.547199728141948 a36.51826177689397,36.51826177689397 0 0,0 -0.4713597196755321,0.4159201485587911 l -10.166887855966841 -11.723943018473028" fill="#ffc512" stroke="none" /><path d="M 113.75828350139079 115.86535959552629 l 11.051997231069397 12.744606571157785 a37.869251300788775,37.869251300788775 0 0,0 -0.4961494480488835,0.4228293233596625 l -10.830982306443467 -12.932960284740394" fill="#ffd614" stroke="none" /><path d="M 113.48314897796784 116.09983520530334 l 8.889755768643452 10.61499825629945 a34.84579162082724,34.84579162082724 0 0,0 -0.4631667302799994,0.3811546867899834 l -8.705718909818762 -10.76644806194661" fill="#ffb010" stroke="none" /><path d="M 113.20401910651253 116.32954008644616 l 2.361228117366264 2.920153998925874 a24.755355855266423,24.755355855266423 0 0,0 -0.333657999521372,0.265078094218288 l -2.310612625127541 -2.960366007149288" fill="#ff2603" stroke="none" /><path d="M 112.63410532772338 116.77436683061366 l 8.535869548258683 11.333118040939821 a35.18804544237033,35.18804544237033 0 0,0 -0.486960707959398,0.36024189016202546 l -8.33952386988072 -11.478369879841615" fill="#ffb410" stroke="none" /><path d="M 112.34349029814194 116.9893568818739 l 9.754472619912551 13.425879757778715 a37.5953000383529,37.5953000383529 0 0,0 -0.5268223525051924,0.3758737605114493 l -9.521922939558475 -13.591797780134382" fill="#ffd313" stroke="none" /><path d="M 111.7513745106137 117.40417183066458 l 1.663886360803833 2.4642703799435575 a23.97340651898394,23.97340651898394 0 0,0 -0.3439901876934354,0.2279779391915895 l -1.6212214743704334 -2.492546340226465" fill="#ff1b02" stroke="none" /><path d="M 111.45004920935366 117.60387380957326 l 22.865283234192393 35.154221026932625 a62.936147097584815,62.936147097584815 0 0,0 -0.9132280633183502,0.5828653579001223 l -22.256773368827112 -35.542600813656556" fill="#33ff50" stroke="none" /><path d="M 111.1453310114006 117.79835938074945 l 8.778972735089194 14.019441107050872 a37.54131467681778,37.54131467681778 0 0,0 -0.5506431324926844,0.33824998606090484 l -8.536350402664201 -14.168479559940154" fill="#ffd213" stroke="none" /><line stroke="#e1ed5e" stroke-width="0.3" x1="143.8653032363475" x2="146.44561519142675" y1="172.8068346515853" y2="177.08958963109032" /><path d="M 144.38136562736335 173.6633856474863 a86.0,86.0 0 0,1 -40.68145358897372,12.25698825130547" fill="none" id="id90" stroke="none" /><text fill="#e1ed5e" style="font-size:6.75px; font-family:Arial;" text-anchor="middle"><textPath startOffset="21.466115282336833" xlink:href="#id90">June</textPath></text><path d="M 110.8373102113329 117.98757091392108 l 4.647684223592531 7.714141971313066 a30.006051021163756,30.006051021163756 0 0,0 -0.4447070067308469,0.26274073817134225 l -4.514209345833302 -7.7930012817781575" fill="#ff6f0a" stroke="none" /><path d="M 110.5260780823613 118.17145234162733 l 8.431484272556176 14.55549858447992 a37.82119098283945,37.82119098283945 0 0,0 -0.5661494296173527,0.32147442172921836 l -8.179686076017624 -14.698476172003767" fill="#ffd614" stroke="none" /><path d="M 109.89434966115114 118.52300852407294 l 10.173984213870142 19.046506619554304 a42.593502939375185,42.593502939375185 0 0,0 -0.6496707849879201,0.3398770493681435 l -9.844622526355726 -19.21881308786716" fill="#eeff19" stroke="none" /><path d="M 109.57404056367764 118.69057910512821 l 9.151446964595912 17.86558582873418 a41.07306998318093,41.07306998318093 0 0,0 -0.6320286697398773,0.31691229570753054 l -8.842564387173274 -18.02046596535101" fill="#fffe18" stroke="none" /><path d="M 108.59647513512805 119.15986991738527 l 0.6227765335370002 1.3880476803113926 a22.521356951389844,22.521356951389844 0 0,0 -0.3550645554884789,0.1556498667407146 l -0.5987913033907676 -1.3985621003465618" fill="#ff0600" stroke="none" /><path d="M 107.59598834532513 119.57807347666477 l 3.1123292674980423 8.021788385200955 a29.60439901249761,29.60439901249761 0 0,0 -0.4766728048866931,0.180236867537588 l -2.9737862418510743 -8.074173502845174" fill="#ff6a09" stroke="none" /><path d="M 106.91757812671514 119.82793768551818 l 0.9304793524413213 2.6670441995613143 a23.824697609963458,23.824697609963458 0 0,0 -0.38837690930993335,0.1317585342131706 l -0.8844327101941609 -2.682665720672608" fill="#ff1902" stroke="none" /><path d="M 106.57524785965236 119.94407469862006 l 0.6526911640311467 1.9797461036327684 a23.084562397831608,23.084562397831608 0 0,0 -0.378453432928082,0.12116883805806458 l -0.6185163860121243 -1.9906877883505396" fill="#ff0e01" stroke="none" /><path d="M 106.2309692047433 120.05430185196036 l 7.063786082210963 22.734713277430004 a44.80681124430967,44.80681124430967 0 0,0 -0.7385123184375126,0.22250770343629803 l -6.671398789333204 -22.852936349972026" fill="#d3ff1c" stroke="none" /><path d="M 104.13013068566511 120.58985236759428 l 1.5429123550960249 7.69184803711567 a28.845068818155017,28.845068818155017 0 0,0 -0.4876635043025202,0.09346187124850042 l -1.4102812362218002 -7.717267106712638" fill="#ff5f08" stroke="none" /><path d="M 103.7750983002368 120.6578951692458 l 3.9805201888959374 21.781994067842042 a43.14271452522735,43.14271452522735 0 0,0 -0.7316820072213072,0.12721229570783388 l -3.6049892102025805 -21.847284942070885" fill="#e7ff1a" stroke="none" /><path d="M 102.34483914955558 120.86867818915974 l 2.2816557113486344 20.30635610447624 a41.43413935126531,41.43413935126531 0 0,0 -0.7094459951626708,0.0735369781482748 l -1.931777119580361 -20.342622451080274" fill="#fcff18" stroke="none" /><path d="M 101.62511606390274 120.93702456842531 l 0.28508062591503247 3.6728084850943588 a24.683855742486834,24.683855742486834 0 0,0 -0.42390083753817137,0.029234683620802317 l -0.2218170275979308 -3.677171513231446" fill="#ff2503" stroke="none" /><path d="M 101.26447882468166 120.96189622390904 l 1.3217055941431752 21.910572927122143 a42.950401173380115,42.950401173380115 0 0,0 -0.7383622519056147,0.03816489454934398 l -0.944355273824081 -21.93007762843369" fill="#e9ff1a" stroke="none" /><line stroke="#e1ed5e" stroke-width="0.3" x1="102.19456741930631" x2="102.32365962044197" y1="184.97166512339345" y2="189.96999836594603" /><path d="M 102.22038585953345 185.97133177190398 a86.0,86.0 0 0,1 -42.740103519485714,-10.115201625700543" fill="none" id="id91" stroke="none" /><text fill="#e1ed5e" style="font-size:6.75px; font-family:Arial;" text-anchor="middle"><textPath startOffset="22.20632615414155" xlink:href="#id91">July</textPath></text><path d="M 99.81925306533755 120.99922214144158 l -0.19551099135996525 22.714513783200253 a43.715355180030464,43.715355180030464 0 0,0 -0.7524043587010655,-0.012953323374159286 l 0.5864750399536987 -22.707782982546934" fill="#e0ff1b" stroke="none" /><path d="M 96.58105272829116 120.7198165907248 l -6.223625439920506 37.71698344445931 a59.22701078774069,59.22701078774069 0 0,0 -1.004464800413802,-0.1746390808537431 l 6.8719392118063585 -37.60426578508456" fill="#39ff2e" stroke="none" /><path d="M 96.22490169976321 120.6578951692458 l -2.5303891128251403 13.846662754944374 a35.075970251157386,35.075970251157386 0 0,0 -0.5930050185466985,-0.11365082316831117 l 2.768361745943534 -13.801054733427595" fill="#ffb310" stroke="none" /><path d="M 92.40401165467489 119.57807347666478 l -1.8202308979328805 4.691504600077183 a26.032241641091463,26.032241641091463 0 0,0 -0.4163657766965778,-0.16568053535788907 l 1.9007177506713164 -4.659477220313227" fill="#ff3805" stroke="none" /><path d="M 91.7346041902142 119.30500536409082 l -6.299025793113474 14.71226902172438 a37.00401779897472,37.00401779897472 0 0,0 -0.5833935832303528,-0.25574260253115416 l 6.551340051001571 -14.601661865898775" fill="#ffcb13" stroke="none" /><path d="M 90.10565033884886 118.52300852407294 l -5.026018612924691 9.409106085555713 a31.667339894589794,31.667339894589794 0 0,0 -0.47859482339737763,-0.26096805726950834 l 5.187236248190709 -9.32119737652644" fill="#ff860c" stroke="none" /><line stroke="#e1ed5e" stroke-width="0.3" x1="58.666819895761336" x2="56.23545636021788" y1="174.27360380694188" y2="178.64263932499728" /><path d="M 58.180547188652646 175.14741091055294 a86.0,86.0 0 0,1 -31.652253787137756,-30.449443065178592" fill="none" id="id92" stroke="none" /><text fill="#e1ed5e" style="font-size:6.75px; font-family:Arial;" text-anchor="middle"><textPath startOffset="22.20632615414155" xlink:href="#id92">August</textPath></text><path d="M 89.4739219176387 118.17145234162733 l -5.571530658646498 9.618283565952689 a32.11545467514998,32.11545467514998 0 0,0 -0.47596958721135363,-0.2812112217667597 l 5.736268116886234 -9.520953771892179" fill="#ff8c0c" stroke="none" /><path d="M 88.24862548938628 117.40417183066458 l -10.50292750603383 15.555180789696385 a39.768993995340864,39.768993995340864 0 0,0 -0.5640438603326615,-0.3879545103633125 l 10.76912825098938 -15.372085489967972" fill="#ffee16" stroke="none" /><path d="M 87.95078237400918 117.19931262002967 l -5.790111047237819 8.264929151193883 a31.091305159076295,31.091305159076295 0 0,0 -0.43568197380128904,-0.310847520233357 l 5.931520348887995 -8.164037369116306" fill="#ff7e0b" stroke="none" /><path d="M 87.36589467227662 116.77436683061367 l -2.5769063530892238 3.4213718608159414 a25.28325014008927,25.28325014008927 0 0,0 -0.34538276740498275,-0.2648247781693979 l 2.6354178489876934 -3.376507740819177" fill="#ff2d04" stroke="none" /><path d="M 87.07902340077011 116.55440617244103 l -2.3910390735129075 3.0634086899800548 a24.88607007822952,24.88607007822952 0 0,0 -0.3354197938739817,-0.2664777702040716 l 2.443416360104247 -3.0217970057708525" fill="#ff2803" stroke="none" /><path d="M 85.97065885151581 115.62618273729859 l -9.046811911245898 10.076534216317917 a34.54183693485069,34.54183693485069 0 0,0 -0.43901104000733765,-0.4010261761954083 l 9.21892250072009 -9.919315273535933" fill="#ffac0f" stroke="none" /><path d="M 85.70375840098266 115.38237550388516 l -13.739834830339277 14.783696628082055 a41.18268433970489,41.18268433970489 0 0,0 -0.5151054961730931,-0.4870643978956416 l 13.992276160903188 -14.544997593440483" fill="#ffff18" stroke="none" /><path d="M 85.18274418774928 114.88116024355367 l -20.23094756501869 20.318200374529685 a49.672643858529575,49.672643858529575 0 0,0 -0.6007063612452989,-0.6085123724628424 l 20.577694551319517 -19.966947508086175" fill="#9cff22" stroke="none" /><path d="M 84.43433777217949 114.09645910891817 l -9.047157825509393 8.19321969554772 a33.205732821063506,33.205732821063506 0 0,0 -0.3800335249754444,-0.4269716940176529 l 9.186850200133176 -8.036273831789204" fill="#ff9a0e" stroke="none" /><path d="M 84.19399662182784 113.82643327865904 l -4.04254042507273 3.536245952012044 a26.370956015596178,26.370956015596178 0 0,0 -0.2959292054692748,-0.3442325219466151 l 4.102812140112783 -3.4661363309038986" fill="#ff3d05" stroke="none" /><path d="M 83.50135304334701 112.99209946851258 l -7.133299273978727 5.617220245374662 a30.07948907247497,30.07948907247497 0 0,0 -0.316827520209289,-0.40954227865002574 l 7.2289336114060845 -5.493599972611383" fill="#ff700a" stroke="none" /><path d="M 82.85270091963577 112.12312394758628 l -20.09896064623395 14.209945834033787 a45.61484876380587,45.61484876380587 0 0,0 -0.44776207352892383,-0.6450346625919096 l 20.340583626925007 -13.861869909254866" fill="#caff1d" stroke="none" /><path d="M 82.6465618267979 111.8261652097733 l -24.770115044268895 16.880543777830617 a50.975179024345664,50.975179024345664 0 0,0 -0.4878977469059787,-0.7293409327888386 l 25.057015896585604 -16.451665930835958" fill="#8eff24" stroke="none" /><line stroke="#e1ed5e" stroke-width="0.3" x1="26.63291911575756" x2="22.317208475507996" y1="142.92168965132927" y2="145.44649492493687" /><path d="M 25.769776987707644 143.4266507060508 a86.0,86.0 0 0,1 -11.730757126820373,-40.83630448921669" fill="none" id="id93" stroke="none" /><text fill="#e1ed5e" style="font-size:6.75px; font-family:Arial;" text-anchor="middle"><textPath startOffset="21.46611528233685" xlink:href="#id93">September</textPath></text><path d="M 81.35079622478065 109.6543875284942 l -28.427496341932443 14.716449530920462 a53.01087994833493,53.01087994833493 0 0,0 -0.41252897699797214,-0.8139588082511994 l 28.676603988716682 -14.224936510966577" fill="#78ff26" stroke="none" /><path d="M 80.32549172779594 107.34259656027581 l -20.31639377731591 7.582150516934734 a42.68512998753787,42.68512998753787 0 0,0 -0.25097990329996644,-0.690588902302202 l 20.4438979416211 -7.231313817626414" fill="#edff1a" stroke="none" /><path d="M 80.0844068197444 106.66101706037122 l -23.60936320261173 7.896444241139042 a45.894896314029,45.894896314029 0 0,0 -0.24413407414680077,-0.7513674208651345 l 23.741789527774777 -7.488877920296104" fill="#c7ff1e" stroke="none" /><path d="M 79.76711848015287 105.62410040840567 l -1.6601678734447152 0.46147410124966465 a22.723112217512874,22.723112217512874 0 0,0 -0.1015094699346,-0.3777545000763538 l 1.66786541972109 -0.4328286679977719" fill="#ff0901" stroke="none" /><line stroke="#e1ed5e" stroke-width="0.3" x1="15.007084014347285" x2="10.007500721073583" y1="101.09737516637583" y2="101.16192664675087" /><path d="M 14.007167355692545 101.11028546245083 a86.0,86.0 0 0,1 10.666146001902534,-42.60595125391555" fill="none" id="id94" stroke="none" /><text fill="#e1ed5e" style="font-size:6.75px; font-family:Arial;" text-anchor="middle"><textPath startOffset="22.20632615414155" xlink:href="#id94">October</textPath></text><path d="M 79.21141760316559 97.0276538004421 l -1.124185701763418 -0.1607357844055135 a22.135618547064887,22.135618547064887 0 0,0 0.05717746910733076,-0.3767280817367171 l 1.121252339216785 0.1800629785343227" fill="#ff0000" stroke="none" /><path d="M 79.26566170972629 96.67025291283419 l -20.78762080523138 -3.33830377687027 a42.05396520489086,42.05396520489086 0 0,0 0.12093146068650817,-0.713744326509275 l 20.72707748302465 3.695633891695373" fill="#f4ff19" stroke="none" /><path d="M 79.32604984820605 96.31383870115002 l -26.696709597614618 -4.7600181389053375 a48.11774467064096,48.11774467064096 0 0,0 0.1524055692313237,-0.8141566449779616 l 26.61081830447343 5.218852861345872" fill="#adff20" stroke="none" /><path d="M 79.46518482838121 95.60439243477599 l -31.251430218911977 -6.68956705703286 a52.95938356943175,52.95938356943175 0 0,0 0.19848574989649262,-0.8897726976415583 l 31.131650082013447 7.226517924224377" fill="#79ff26" stroke="none" /><path d="M 79.62865764111835 94.90015583598534 l -14.789862327385997 -3.702553898909605 a36.24627603834334,36.24627603834334 0 0,0 0.1567283247772838,-0.6039381688742335 l 14.723937670738406 3.9565884933327022" fill="#ffc212" stroke="none" /><path d="M 79.71946130924805 94.55025226153421 l -16.104848746959494 -4.327664288182764 a37.676175561370634,37.676175561370634 0 0,0 0.1736929632764308,-0.624866003734708 l 16.027969013116703 4.604241595336415" fill="#ffd413" stroke="none" /><line stroke="#e1ed5e" stroke-width="0.3" x1="26.266209847984243" x2="21.928928074336255" y1="57.711370442889674" y2="55.22380399835377" /><path d="M 25.398753493254645 57.213857153982495 a86.0,86.0 0 0,1 29.58750427330803,-30.492523968695096" fill="none" id="id95" stroke="none" /><text fill="#e1ed5e" style="font-size:6.75px; font-family:Arial;" text-anchor="middle"><textPath startOffset="21.46611528233685" xlink:href="#id95">November</textPath></text><line stroke="#e1ed5e" stroke-width="0.3" x1="56.762969772571076" x2="54.21961505331055" y1="26.818313649435495" y2="22.513508569990535" /><path d="M 56.25429882871897 25.957352633546506 a86.0,86.0 0 0,1 42.265352541879196,-11.944610805530505" fill="none" id="id96" stroke="none" /><text fill="#e1ed5e" style="font-size:6.75px; font-family:Arial;" text-anchor="middle"><textPath startOffset="22.20632615414155" xlink:href="#id96">December</textPath></text></svg>