<?xml version="1.0" encoding="utf-8" ?>
<svg baseProfile="full" height="200mm" version="1.1" viewBox="0,0,200,200" width="200mm" xmlns="http://www.w3.org/2000/svg" xmlns:ev="http://www.w3.org/2001/xml-events" xmlns:xlink="http://www.w3.org/1999/xlink"><defs /><rect fill="#1a1a1a" height="200" width="200" x="0" y="0" /><text alignment-baseline="middle" fill="#e1ed5e" style="dominant-baseline: central; font-size:9.0px; font-family:Arial;" text-anchor="middle" x="100.0" y="100.0">2022</text><line stroke="#e1ed5e" stroke-width="0.3" x1="100.0" x2="100.0" y1="15.0" y2="10.0" /><path d="M 100.0 14.0 a86.0,86.0 0 0,1 42.46469731375804,11.215312516191453" fill="none" id="id49" stroke="none" /><text fill="#e1ed5e" style="font-size:6.75px; font-family:Arial;" text-anchor="middle"><textPath startOffset="22.20632615414155" xlink:href="#id49">January</textPath></text><path d="M 100.0 79.0 l 0.0 -6.739338454718133 a27.739338454718133,27.739338454718133 0 0,0 0.47748711234830415,0.0041098823240432155 l -0.11600663307577579 6.738339949002649" fill="#ff5207" stroke="none" /><path d="M 100.36148047927253 79.00311137660856 l 0.14848118542309166 -8.624650822838282 a29.625928847278402,29.625928847278402 0 0,0 0.5098105520484966,0.013166902471776806 l -0.29691837266645604 8.620817128224147" fill="#ff6c0a" stroke="none" /><path d="M 100.72285384407766 79.0124445844662 l 0.22851605259213656 -6.634803641718256 a27.63873775279986,27.63873775279986 0 0,0 0.4753325486005121,0.02046881943131457 l -0.34268943358198023 6.629887095762746" fill="#ff5107" stroke="none" /><path d="M 101.80526077348638 79.07773832637324 l 0.4608793751850662 -5.34141052041883 a26.361256955799817,26.361256955799817 0 0,0 0.45175019031951785,0.04289912392190141 l -0.5527546925948283 5.33268585198175" fill="#ff3f05" stroke="none" /><path d="M 102.52436894288641 79.15227682838746 l 2.357527520129786 -19.46984859230842 a40.612061090451036,40.612061090451036 0 0,0 0.6932774164698228,0.09000730585286239 l -2.692319665107455 19.42638296329142" fill="#fffa17" stroke="none" /><path d="M 102.88285421437855 79.19881850522331 l 2.9369764473532305 -21.19169947011987 a42.394250561405194,42.394250561405194 0 0,0 0.7219761453446844,0.10640051640228534 l -3.301321573126571 21.138004469556616" fill="#efff19" stroke="none" /><path d="M 103.2404852339499 79.25152402106235 l 6.217003002439038 -39.80679686660895 a61.28935595305296,61.28935595305296 0 0,0 1.0409582496672598,0.17176703046955852 l -6.901290458245174 39.69388357319976" fill="#31ff3e" stroke="none" /><path d="M 104.307194497241 79.44645832069477 l 2.3250115796408535 -11.094744488001625 a32.33574144463019,32.33574144463019 0 0,0 0.5437905886219744,0.11885156040892313 l -2.515644892416356 11.053079429496831" fill="#ff910d" stroke="none" /><path d="M 105.36241919743992 79.69619591428918 l 1.4320244592335318 -5.422094580018023 a26.60801245420371,26.60801245420371 0 0,0 0.4418223860163154,0.12076674803558171 l -1.5251447344735583 5.396641291156148" fill="#ff4306" stroke="none" /><line stroke="#e1ed5e" stroke-width="0.3" x1="143.23703022742887" x2="145.7803849466894" y1="26.81831364943548" y2="22.513508569990506" /><path d="M 143.74570117128098 25.957352633546492 a86.0,86.0 0 0,1 28.547481713284135,27.462654790039103" fill="none" id="id50" stroke="none" /><text fill="#e1ed5e" style="font-size:6.75px; font-family:Arial;" text-anchor="middle"><textPath startOffset="19.985693538727396" xlink:href="#id50">February</textPath></text><path d="M 110.68208982089419 81.91981866633111 l 4.652199581030785 -7.874171949100307 a30.145793832453318,30.145793832453318 0 0,0 0.44448958640523484,0.26780000238122625 l -4.787051233653657 7.792925337260467" fill="#ff730a" stroke="none" /><path d="M 110.99172775467656 82.1063720568725 l 4.55827237169095 -7.420492183112239 a29.708705486704144,29.708705486704144 0 0,0 0.4334370651875814,0.2714182504568707 l -4.685328589250794 7.340929591332423" fill="#ff6d0a" stroke="none" /><path d="M 111.2981086023043 82.29822771554956 l 4.828708609718017 -7.565576084103167 a29.97520853918831,29.97520853918831 0 0,0 0.4325465045888893,0.2813402786484056 l -4.958222140091187 7.481336881295234" fill="#ff710a" stroke="none" /><path d="M 111.60114157652 82.49532879139004 l 5.020254484727064 -7.57493592842245 a30.087497422895233,30.087497422895233 0 0,0 0.4292415707121277,0.28982582463791273 l -5.149900749845734 7.487398191485868" fill="#ff730a" stroke="none" /><path d="M 111.90073688211348 82.69761687909136 l 4.9412557041071326 -7.184050881700823 a29.719323081767165,29.719323081767165 0 0,0 0.41899838653162397,0.29353514618829213 l -5.0641852302224075 7.097930892748595" fill="#ff6e0a" stroke="none" /><path d="M 112.19680574252982 82.90503203632743 l 5.018975621367413 -7.0345653828486245 a29.641482882784217,29.641482882784217 0 0,0 0.41279954758520215,0.29991642686202025 l -5.1393204853064045 6.947129721169929" fill="#ff6c0a" stroke="none" /><path d="M 112.48926042617603 83.11751280151076 l 6.073797904575222 -8.210319255997613 a31.212754930528174,31.212754930528174 0 0,0 0.4291810970470003,0.323250304438545 l -6.214225155380605 8.10455236205322" fill="#ff820b" stroke="none" /><path d="M 112.77801427241765 83.33499621200491 l 5.4631947627356325 -7.125063368576 a29.97847565134559,29.97847565134559 0 0,0 0.40680426697996125,0.3175171830002211 l -5.585031584875025 7.029967796352555" fill="#ff710a" stroke="none" /><path d="M 113.06298171725822 83.55741782278167 l 5.7600299844277805 -7.250241056149463 a30.259802416562806,30.259802416562806 0 0,0 0.4050441723526573,0.32751755177508957 l -5.883977555344929 7.150017407110243" fill="#ff750a" stroke="none" /><path d="M 114.16331599549186 84.49514656593476 l 4.887386711409657 -5.350315890722542 a28.246546004641235,28.246546004641235 0 0,0 0.3561648900978651,0.33101644909399497 l -4.978759485302369 5.2653948555539065" fill="#ff5908" stroke="none" /><path d="M 114.42810811169701 84.74124197986012 l 3.299763308791838 -3.4897361083516754 a25.802780028273453,25.802780028273453 0 0,0 0.320097931368956,0.307933956363677 l -3.359344483773212 3.4324190652256963" fill="#ff3705" stroke="none" /><path d="M 115.4437574822437 85.77008943001954 l 31.137194364279257 -28.689876263158094 a63.33950723466472,63.33950723466472 0 0,0 0.7318921062256196,0.8081735437737451 l -31.62643011112091 28.1496499321148" fill="#33ff56" stroke="none" /><line stroke="#e1ed5e" stroke-width="0.3" x1="172.23445277983987" x2="176.4835382374775" y1="55.19839476539836" y2="52.563006222186495" /><path d="M 173.08426987136738 54.67131705675599 a86.0,86.0 0 0,1 12.851231095245387,41.99856678651699" fill="none" id="id51" stroke="none" /><text fill="#e1ed5e" style="font-size:6.75px; font-family:Arial;" text-anchor="middle"><textPath startOffset="22.20632615414155" xlink:href="#id51">March</textPath></text><path d="M 120.67395015179393 96.31383870115 l 5.358634668941911 -0.9554435212573785 a26.443145950413133,26.443145950413133 0 0,0 0.07604058854735724,0.4487958580174162 l -5.374287119009491 0.8630618749241245" fill="#ff4006" stroke="none" /><path d="M 120.73433829027371 96.67025291283417 l 4.845043579064892 -0.7780701519734808 a25.907121401028302,25.907121401028302 0 0,0 0.06691945971230351,0.4409156278139809 l -4.857718932216494 0.6945554117674178" fill="#ff3905" stroke="none" /><path d="M 120.78858239683441 97.02765380044208 l 4.536135298233066 -0.648575465945993 a25.5822672967542,25.5822672967542 0 0,0 0.058576084038086444,0.4364598638488577 l -4.546627381328988 0.570397260032471" fill="#ff3405" stroke="none" /><path d="M 120.87857604477298 97.74499172005257 l 13.683903344825223 -1.4779415645209397 a34.76348509712048,34.76348509712048 0 0,0 0.05913579090343578,0.5954893441631404 l -13.707316261410888 1.2421766896533644" fill="#ffb010" stroke="none" /><path d="M 120.91429891909075 98.10471618934814 l 5.45651841835718 -0.49447753715502885 a26.4788777395213,26.4788777395213 0 0,0 0.03722869205427888,0.4542843398812638 l -5.464221594230954 0.40047928006599626" fill="#ff4106" stroke="none" /><path d="M 120.96714384426684 98.82574320788733 l 5.474405291596244 -0.3065919537816383 a26.48298385213568,26.48298385213568 0 0,0 0.021572776043839028,0.4553672063089828 l -5.47887167587358 0.2123136408496557" fill="#ff4106" stroke="none" /><path d="M 120.98425023603335 99.18683210126433 l 4.43442280759481 -0.17183984350155282 a25.437751071019157,25.437751071019157 0 0,0 0.013189238382023745,0.4376866116348059 l -4.4367237404324795 0.09548308444174786" fill="#ff3204" stroke="none" /><line stroke="#e1ed5e" stroke-width="0.3" x1="184.98032266829074" x2="189.97916517819016" y1="98.17113171792111" y2="98.06355123074" /><path d="M 185.9800911702706 98.14961562048488 a86.0,86.0 0 0,1 -9.607161424134198,41.387399972396054" fill="none" id="id52" stroke="none" /><text fill="#e1ed5e" style="font-size:6.75px; font-family:Arial;" text-anchor="middle"><textPath startOffset="21.466115282336823" xlink:href="#id52">April</textPath></text><path d="M 120.99513854157772 99.54816195383933 l 7.286685395752904 -0.15681733586488872 a28.288372639588786,28.288372639588786 0 0,0 0.006286744464779572,0.4869152870326566 l -7.288305147335399 0.03136579077176942" fill="#ff5a08" stroke="none" /><path d="M 120.99980553446 99.90962569577887 l 26.34799233455402 -0.11339064406818183 a47.34823632617333,47.34823632617333 0 0,0 -0.003507608551899035,0.8150446978896975 l -26.34604042871262 -0.34016353202520033" fill="#b5ff20" stroke="none" /><path d="M 120.9904718944345 100.63252640178507 l 5.51013855147593 0.16604238955801554 a26.512639742590785,26.512639742590785 0 0,0 -0.017672400422890294,0.4560461293687864 l -5.506464018201837 -0.26086576594080807" fill="#ff4106" stroke="none" /><path d="M 120.9764740272857 100.99374915477107 l 12.505959354713754 0.5924630861307912 a33.519985299119966,33.519985299119966 0 0,0 -0.03226482005198034,0.5761100363082482 l -12.493908183774245 -0.8076448387744627" fill="#ffa00e" stroke="none" /><path d="M 120.95626037817324 101.35467743843564 l 4.472935236591858 0.28914435778369413 a25.482271086222163,25.482271086222163 0 0,0 -0.03206329976886836,0.43747825093593884 l -4.467295378158652 -0.36609574521640326" fill="#ff3304" stroke="none" /><path d="M 120.92983693683757 101.71520430193887 l 6.056669872407439 0.4963453013001088 a27.076973638370553,27.076973638370553 0 0,0 -0.04206653316889655,0.46420068817110127 l -6.047228742961468 -0.6005273780197805" fill="#ff4906" stroke="none" /><path d="M 120.89721153311464 102.0752229133903 l 6.06597097747771 0.6023885983292275 a27.095808061528754,27.095808061528754 0 0,0 -0.05008556704370433,0.4637301466103407 l -6.054703108932954 -0.7067150668243596" fill="#ff4906" stroke="none" /><path d="M 120.8583938346157 102.4346265915055 l 28.427587124132287 3.318115483556226 a49.620580009188274,49.620580009188274 0 0,0 -0.1063262481290234,0.8475248129170309 l -28.366259366756417 -3.806958050760652" fill="#9cff22" stroke="none" /><path d="M 120.81339534386255 102.79330883721812 l 13.398053574866742 1.798116109067849 a34.51817521475028,34.51817521475028 0 0,0 -0.08410262819228233,0.5882135856939045 l -13.365116895657858 -2.0284751667421625" fill="#ffad10" stroke="none" /><path d="M 120.70491114924044 103.5080841355445 l 5.265012234900158 0.8920640017032148 a26.34004981407319,26.34004981407319 0 0,0 -0.07958904141266356,0.4463776111229346 l -5.248876751148305 -0.9825603635593677" fill="#ff3f05" stroke="none" /><path d="M 120.64145759157962 103.86396538481128 l 6.469646520543586 1.2110816349298377 a27.582024371517175,27.582024371517175 0 0,0 -0.09137539448539599,0.46592116787967197 l -6.447841193082526 -1.3222665298774545" fill="#ff5007" stroke="none" /><path d="M 120.5718875245553 104.21870165774334 l 4.432269828184712 0.9089308917040088 a25.52450784016675,25.52450784016675 0 0,0 -0.09196840103865267,0.4296457517953616 l -4.415967388421616 -0.9850904629155394" fill="#ff3304" stroke="none" /><path d="M 120.49622156327973 104.57218783832717 l 4.438289064811151 0.9900698634847718 a25.54737816300811,25.54737816300811 0 0,0 -0.09943943966678265,0.42838250351257134 l -4.420589059213816 -1.066321024345908" fill="#ff3404" stroke="none" /><path d="M 120.32669344350535 105.2749913415812 l 5.802549805335151 1.5058228760770942 a26.99475493890385,26.99475493890385 0 0,0 -0.12059189950004191,0.44876731932740394 l -5.775769829493332 -1.6054811285800463" fill="#ff4806" stroke="none" /><path d="M 120.13307415673323 105.97154293290107 l 4.346813755843811 1.2892807507821789 a25.53398662132239,25.53398662132239 0 0,0 -0.12861010360583322,0.4203052599146562 l -4.323976879731845 -1.363912983248892" fill="#ff3304" stroke="none" /><path d="M 120.02730092923936 106.31721596034902 l 4.3008853479382605 1.3566292162694702 a25.50977356488615,25.50977356488615 0 0,0 -0.13569711342946097,0.417632772044058 l -4.276895983492553 -1.4304608882913235" fill="#ff3304" stroke="none" /><path d="M 119.9155931802556 106.66101706037122 l 4.274111500318171 1.4295295833705512 a25.506837466215487,25.506837466215487 0 0,0 -0.14284942665084152,0.41518730018176186 l -4.248871242724099 -1.5028895866416134" fill="#ff3304" stroke="none" /><path d="M 119.79798401119884 107.00284435728193 l 14.22403238795701 5.0312539342114775 a36.08763114356155,36.08763114356155 0 0,0 -0.2121879487629551,0.5838501038978662 l -14.135320178188827 -5.275351835115475" fill="#ffc112" stroke="none" /><path d="M 119.67450827220406 107.3425965602758 l 11.4150845280668 4.260150202048789 a33.18413043786574,33.18413043786574 0 0,0 -0.20432847106339377,0.5334371614742105 l -11.340061777409899 -4.456010930356143" fill="#ff9c0e" stroke="none" /><path d="M 119.41010516605496 108.01547362559984 l 5.209269760881677 2.151186921439455 a26.635964568076027,26.635964568076027 0 0,0 -0.17864997497190158,0.422275768484094 l -5.171468804717466 -2.2405372155897125" fill="#ff4306" stroke="none" /><path d="M 119.26925614724726 108.34839909993367 l 4.29135165713958 1.859226741198356 a25.676796245339503,25.676796245339503 0 0,0 -0.1791982573949087,0.40404476346717855 l -4.258712315013398 -1.9328198411582225" fill="#ff3505" stroke="none" /><path d="M 119.12269723197855 108.67885076344098 l 22.343405719212495 10.140571773514163 a45.53689008466904,45.53689008466904 0 0,0 -0.33008907338386806,0.7109824979663129 l -22.165542028988796 -10.523674338759305" fill="#caff1d" stroke="none" /><path d="M 118.97047184881838 109.00673069616215 l 4.113598523791989 1.9530391437381347 a25.553685838078536,25.553685838078536 0 0,0 -0.19207457576339962,0.39573051668270837 l -4.079370691413875 -2.0235586163861186" fill="#ff3404" stroke="none" /><path d="M 118.81262510543309 109.33194174019688 l 4.340704968212848 2.1531926378018853 a25.84540588150796,25.84540588150796 0 0,0 -0.20112812424141985,0.3968448701584122 l -4.302998174185159 -2.2275917196629917" fill="#ff3805" stroke="none" /><path d="M 118.64920377521936 109.65438752849418 l 21.142860470186196 10.945312781197135 a44.80799069094239,44.80799069094239 0 0,0 -0.3604856018436694,0.6819029061421646 l -20.951322360117633 -11.307630702425433" fill="#d2ff1c" stroke="none" /><line stroke="#e1ed5e" stroke-width="0.3" x1="174.80103733775053" x2="179.2010983576182" y1="140.37084112569926" y2="142.7455964860345" /><path d="M 175.68104954172406 140.8457921977663 a86.0,86.0 0 0,1 -30.038265399797805,32.042727171017184" fill="none" id="id53" stroke="none" /><text fill="#e1ed5e" style="font-size:6.75px; font-family:Arial;" text-anchor="middle"><textPath startOffset="22.206326154141568" xlink:href="#id53">May</textPath></text><path d="M 118.48025628344425 109.97397251340804 l 11.303362082658353 6.10053350951264 a33.844551509195064,33.844551509195064 0 0,0 -0.2811089616541492,0.5102944190197722 l -11.196676711552694 -6.294198446930217" fill="#ffa50f" stroke="none" /><path d="M 118.12598468904814 110.60418214915192 l 4.760429658069227 2.7849777029157377 a26.515232663738033,26.515232663738033 0 0,0 -0.23386324641120573,0.39196825277398156 l -4.711785535959794 -2.866508049575823" fill="#ff4106" stroke="none" /><path d="M 117.94076556474637 110.91462005526583 l 3.860118609215024 2.348379607090571 a25.51834067509379,25.51834067509379 0 0,0 -0.2315307731240321,0.3733013272790274 l -3.819123196423029 -2.414477265734872" fill="#ff3304" stroke="none" /><path d="M 117.75023020441432 111.22182372390056 l 3.762355899078822 2.378588570391613 a25.451180236581173,25.451180236581173 0 0,0 -0.2372960624588918,0.36828875859062016 l -3.72085497324288 -2.442998928903686" fill="#ff3204" stroke="none" /><path d="M 117.55443506779139 111.5257021239791 l 3.906103190301334 2.5646272103361913 a25.67278876702971,25.67278876702971 0 0,0 -0.24572146750569027,0.36732025399448787 l -3.8613786173849225 -2.631484378536486" fill="#ff3505" stroke="none" /><path d="M 117.35343817320211 111.8261652097733 l 18.164232402408466 12.378711996757117 a42.981170338891516,42.981170338891516 0 0,0 -0.4219094982270855,0.6077920996934256 l -17.948461997019244 -12.689545358637561" fill="#e8ff1a" stroke="none" /><path d="M 117.14729908036423 112.12312394758627 l 14.25701894934035 10.079698676502462 a38.460324015634285,38.460324015634285 0 0,0 -0.38683798208970777,0.5372841233165667 l -14.08140117487504 -10.32361640527016" fill="#ffdf14" stroke="none" /><path d="M 116.498646956653 112.99209946851258 l 3.632812074483622 2.8607106962230264 a25.623958180606614,25.623958180606614 0 0,0 -0.2758627603281262,0.34418120934781066 l -3.5830314021006417 -2.9228197391490873" fill="#ff3505" stroke="none" /><path d="M 116.27256486870786 113.27417163493432 l 3.5284240384511993 2.8782743633301906 a25.553486521965787,25.553486521965787 0 0,0 -0.2809715359327774,0.33844831512284634 l -3.478356502624879 -2.938583935566807" fill="#ff3404" stroke="none" /><path d="M 116.0416608686014 113.55231037782055 l 3.5244358317661284 2.9775126584490046 a25.613808574644278,25.613808574644278 0 0,0 -0.28743265947786373,0.3343491194287056 l -3.472660662717486 -3.037738877039238" fill="#ff3505" stroke="none" /><path d="M 115.56566222782051 114.09645910891815 l 7.220227139138295 6.538728332550691 a30.740977781909283,30.740977781909283 0 0,0 -0.3585768061620182,0.38916430330955376 l -7.106603924980555 -6.662043890661579" fill="#ff7b0b" stroke="none" /><path d="M 115.32070863581623 114.36230785411682 l 1.7304441568576234 1.6221946579576547 a23.371909038793234,23.371909038793234 0 0,0 -0.2776732469974131,0.29113928935377553 l -1.7022643584812458 -1.6517410638939374" fill="#ff1502" stroke="none" /><path d="M 115.07121518719521 114.62390073753431 l 3.4843712973989125 3.380954976289358 a25.855069504119705,25.855069504119705 0 0,0 -0.3126732043053297,0.3167363051774008 l -3.4256574680380476 -3.440431775447423" fill="#ff3805" stroke="none" /><path d="M 114.81725581225074 114.88116024355365 l 3.3265126642986034 3.3408593761815273 a25.714554897035246,25.714554897035246 0 0,0 -0.3163503086802052,0.30961535995748735 l -3.268512403242604 -3.397624839061587" fill="#ff3605" stroke="none" /><path d="M 114.55890576462653 115.13401014063108 l 3.9795382662828263 4.136737571534014 a26.740150045822013,26.740150045822013 0 0,0 -0.3344609142881165,0.31625367045710234 l -3.907741517603902 -4.204625878737038" fill="#ff4406" stroke="none" /><path d="M 114.29624159901734 115.38237550388516 l 1.708945073349616 1.8387794198711118 a23.510299388253813,23.510299388253813 0 0,0 -0.29880521423304074,0.27295147859863395 l -1.6770403096497115 -1.8679236650563287" fill="#ff1702" stroke="none" /><path d="M 114.0293411484842 115.62618273729858 l 6.557432794945677 7.303810068974392 a30.81557774070792,30.81557774070792 0 0,0 -0.39775228553430564,0.3509701461187767 l -6.430738156504784 -7.415603356865457" fill="#ff7c0b" stroke="none" /><path d="M 113.48314897796784 116.09983520530334 l 2.635743857736261 3.1472649172893763 a25.105170172257775,25.105170172257775 0 0,0 -0.3336953772879032,0.274608577642323 l -2.5811783519036666 -3.1921686137888776" fill="#ff2d04" stroke="none" /><path d="M 113.20401910651253 116.32954008644616 l 0.8812393758119419 1.0898373894338202 a22.401544994957117,22.401544994957117 0 0,0 -0.301932831541797,0.23987370205971745 l -0.8623490515527938 -1.1048450054986636" fill="#ff0701" stroke="none" /><path d="M 112.04921762599082 117.19931262002967 l 6.81622422648272 9.729625192146525 a32.879668307042174,32.879668307042174 0 0,0 -0.4663325162445567,0.32074775691991386 l -6.64773482561528 -9.845513738431533" fill="#ff980e" stroke="none" /><line stroke="#e1ed5e" stroke-width="0.3" x1="143.8653032363475" x2="146.44561519142675" y1="172.8068346515853" y2="177.08958963109032" /><path d="M 144.38136562736335 173.6633856474863 a86.0,86.0 0 0,1 -40.68145358897372,12.25698825130547" fill="none" id="id54" stroke="none" /><text fill="#e1ed5e" style="font-size:6.75px; font-family:Arial;" text-anchor="middle"><textPath startOffset="21.466115282336833" xlink:href="#id54">June</textPath></text><path d="M 110.21172684928248 118.3499491758327 l 19.670962628451104 35.347710509623006 a61.45253278846743,61.45253278846743 0 0,0 -0.9287443838073077,0.5064254891468336 l -19.059595432775147 -35.681076650529604" fill="#31ff40" stroke="none" /><path d="M 109.57404056367764 118.69057910512821 l 7.603224904069367 14.843124548973266 a37.67715129505616,37.67715129505616 0 0,0 -0.5797725814591819,0.29071000822499216 l -7.346598414927424 -14.97180239810756" fill="#ffd614" stroke="none" /><path d="M 107.93186726928326 119.44442032107085 l 1.3381049977631687 3.280271230835121 a24.542697324480788,24.542697324480788 0 0,0 -0.3925416556369893,0.15620042591445651 l -1.2814422660843132 -3.3028185011556466" fill="#ff2503" stroke="none" /><path d="M 107.2578585660854 119.70592522655815 l 5.003183234097543 13.584220994137159 a35.47628759356181,35.47628759356181 0 0,0 -0.5748517490268142,0.2061213849554301 l -4.768611924440995 -13.668329920132548" fill="#ffba11" stroke="none" /><path d="M 105.18746579009965 120.34920634021253 l 6.0359844030296035 23.67774498252534 a45.434989567649104,45.434989567649104 0 0,0 -0.7595144688309375,0.18667017754342577 l -5.627516649455456 -23.778136418382797" fill="#cbff1d" stroke="none" /><path d="M 104.83641907484287 120.43548508189849 l 1.8565998051666457 7.844753945928749 a29.061459378345184,29.061459378345184 0 0,0 -0.4877894695287866,0.11101929515858512 l -1.721290186244997 -7.875549974665019" fill="#ff6509" stroke="none" /><path d="M 103.7750983002368 120.6578951692458 l 3.4095319827600252 18.657462316048594 a39.96643900199078,39.96643900199078 0 0,0 -0.6778137312932664,0.1178466054503223 l -3.087869279994709 -18.713387500019923" fill="#fff216" stroke="none" /><path d="M 103.41894727170886 120.7198165907248 l 3.834579194346295 23.238667137955844 a44.5529116660005,44.5529116660005 0 0,0 -0.7577477247101472,0.11834461073068503 l -3.43399560602763 -23.301230056033635" fill="#d5ff1c" stroke="none" /><path d="M 103.06178313531738 120.77559828337769 l 2.5171292352701227 17.07987258016463 a38.26435596660678,38.26435596660678 0 0,0 -0.6524462784900714,0.0904231090946946 l -2.2227543655932207 -17.120670254751925" fill="#ffdd14" stroke="none" /><path d="M 102.70371172650421 120.8252237178851 l 1.5238223321108888 11.737176216470896 a32.835680801556364,32.835680801556364 0 0,0 -0.5611345421484215,0.0679455784845132 l -1.321560366911087 -11.76166732368076" fill="#ff970e" stroke="none" /><path d="M 102.34483914955558 120.86867818915974 l 3.3726032709509863 30.01560782304532 a51.20448916651445,51.20448916651445 0 0,0 -0.8767364386542928,0.09087731662553669 l -2.855434235691091 -30.069214508126613" fill="#8aff24" stroke="none" /><line stroke="#e1ed5e" stroke-width="0.3" x1="102.19456741930631" x2="102.32365962044197" y1="184.97166512339345" y2="189.96999836594603" /><path d="M 102.22038585953345 185.97133177190398 a86.0,86.0 0 0,1 -42.740103519485714,-10.115201625700543" fill="none" id="id55" stroke="none" /><text fill="#e1ed5e" style="font-size:6.75px; font-family:Arial;" text-anchor="middle"><textPath startOffset="22.20632615414155" xlink:href="#id55">July</textPath></text><path d="M 99.81925306533755 120.99922214144158 l -0.05630016601431206 6.540966766282889 a27.541209058447105,27.541209058447105 0 0,0 -0.47402395918171353,-0.008160752339314329 l 0.16888381508869352 -6.539028536664414" fill="#ff5007" stroke="none" /><path d="M 98.73552117531835 120.96189622390904 l -0.7114802580008864 11.7945631373696 a32.81600286725265,32.81600286725265 0 0,0 -0.5635558417293672,-0.03886611036509077 l 0.9143988605091837 -11.780568682488225" fill="#ff970d" stroke="none" /><path d="M 97.65516085044442 120.86867818915974 l -2.555449419321665 22.743074539081434 a43.88619149672845,43.88619149672845 0 0,0 -0.749978601661483,-0.09081196417849702 l 2.946555444034537 -22.695717046177588" fill="#ddff1b" stroke="none" /><path d="M 96.93821686468263 120.77559828337769 l -5.560435955213064 37.730099938636585 a59.13763088330908,59.13763088330908 0 0,0 -1.0058019458416845,-0.15708557857871683 l 6.209073764663266 -37.62879605271076" fill="#39ff2e" stroke="none" /><path d="M 95.16358092515715 120.4354850818985 l -3.9126235673237173 16.53214068173493 a37.98882864414884,37.98882864414884 0 0,0 -0.6350406434276897,-0.1560775396924332 l 4.196617495494618 -16.462341883728467" fill="#ffda14" stroke="none" /><path d="M 93.76903079525671 120.05430185196036 l -3.545374218845413 11.410745652339221 a32.94884072594627,32.94884072594627 0 0,0 -0.5401705983781726,-0.1729455675754183 l 3.7412661623145262 -11.348027238104097" fill="#ff990e" stroke="none" /><path d="M 93.08242187328487 119.8279376855182 l -1.2984158823550027 3.721665116552477 a24.94165892021561,24.94165892021561 0 0,0 -0.40415041219021264,-0.14491395882848465 l 1.362285855174942 -3.698763616684034" fill="#ff2b04" stroke="none" /><path d="M 92.7421414339146 119.70592522655815 l -1.130457623350829 3.0693231611923304 a24.270883535992024,24.270883535992024 0 0,0 -0.3907956424751365,-0.14776547293022313 l 1.1831234865862483 -3.049409438155474" fill="#ff2103" stroke="none" /><path d="M 92.40401165467489 119.57807347666478 l -5.116882628771477 13.18836990307018 a35.146221705347,35.146221705347 0 0,0 -0.5621369108374401,-0.22368587800588682 l 5.343140615650776 -13.098337180658227" fill="#ffb510" stroke="none" /><path d="M 91.40352486487194 119.15986991738527 l -4.09581412911609 9.128772512698482 a31.005507531797992,31.005507531797992 0 0,0 -0.4850619776985698,-0.2226681631737799 l 4.252344102582079 -9.056917279190628" fill="#ff7f0b" stroke="none" /><path d="M 90.42595943632237 118.69057910512821 l -15.414721409516067 30.09283990096269 a54.81113203425708,54.81113203425708 0 0,0 -0.8360240111139985,-0.43736824967991933 l 15.930436323156561 -29.823042232338054" fill="#64ff29" stroke="none" /><path d="M 90.10565033884886 118.52300852407294 l -7.8089798291777734 14.619030547111773 a37.573962112599766,37.573962112599766 0 0,0 -0.5678627829643403,-0.3096440663814175 l 8.059465424010755 -14.48244582897059" fill="#ffd413" stroke="none" /><line stroke="#e1ed5e" stroke-width="0.3" x1="58.666819895761336" x2="56.23545636021788" y1="174.27360380694188" y2="178.64263932499728" /><path d="M 58.180547188652646 175.14741091055294 a86.0,86.0 0 0,1 -31.652253787137756,-30.449443065178592" fill="none" id="id56" stroke="none" /><text fill="#e1ed5e" style="font-size:6.75px; font-family:Arial;" text-anchor="middle"><textPath startOffset="22.20632615414155" xlink:href="#id56">August</textPath></text><path d="M 89.1626897886671 117.98757091392108 l -6.282556722510699 10.427673690535956 a33.17402552847086,33.17402552847086 0 0,0 -0.4865852326069337,-0.2989003919864997 l 6.461121155049941 -10.317984831721077" fill="#ff9c0e" stroke="none" /><path d="M 88.24862548938628 117.40417183066458 l -8.226107502219874 12.183135541876007 a35.70025973477341,35.70025973477341 0 0,0 -0.5063369799608048,-0.3482631918441212 l 8.434601366803568 -12.039731560666784" fill="#ffbd11" stroke="none" /><path d="M 87.65650970185807 116.9893568818739 l -6.547737386772584 9.012187359146955 a32.139676201869946,32.139676201869946 0 0,0 -0.444774902387819,-0.32903383972034855 l 6.701897259578967 -8.898143570686841" fill="#ff8e0d" stroke="none" /><path d="M 87.36589467227662 116.77436683061367 l -0.5747834147078219 0.7631429053630616 a21.9553863447994,21.9553863447994 0 0,0 -0.2999223617690163,-0.2299676776588819 l 0.587834504970325 -0.7531358858768129" fill="#ff0000" stroke="none" /><path d="M 87.07902340077011 116.55440617244103 l -6.79800043944202 8.709624970736597 a32.04854637975206,32.04854637975206 0 0,0 -0.4319571867661457,-0.34317291363047076 l 6.946915118925523 -8.591318143100995" fill="#ff8d0d" stroke="none" /><path d="M 86.79598089348748 116.32954008644616 l -16.01052236744001 19.80037022781224 a46.46353250506949,46.46353250506949 0 0,0 -0.6175885645476057,-0.5082333434072622 l 16.348981060532306 -19.521841765547798" fill="#bfff1e" stroke="none" /><path d="M 85.97065885151581 115.62618273729859 l -1.77734053175884 1.979640215582884 a23.66043506761316,23.66043506761316 0 0,0 -0.3007133704455326,-0.27469453405679645 l 1.8111534516712273 -1.9487529149395117" fill="#ff1902" stroke="none" /><path d="M 85.18274418774928 114.88116024355367 l -1.8524781420374299 1.8604675810852558 a23.625455177106566,23.625455177106566 0 0,0 -0.28570980140745234,-0.2894225203973516 l 1.8842285685004156 -1.8283045667072395" fill="#ff1802" stroke="none" /><path d="M 84.9287848128048 114.62390073753433 l -11.540018299943265 11.197509957331237 a37.07968443743712,37.07968443743712 0 0,0 -0.44053039733696137,-0.4618943603904844 l 11.731055248659183 -10.997208480358251" fill="#ffce13" stroke="none" /><path d="M 84.43433777217949 114.09645910891817 l -11.397667058494722 10.321870362828177 a36.37685995784986,36.37685995784986 0 0,0 -0.4163264937357588,-0.46774722915898675 l 11.57365240187882 -10.124148963928326" fill="#ffc512" stroke="none" /><path d="M 83.95833913139862 113.55231037782056 l -20.61897933950826 17.419318982726285 a47.99212816405992,47.99212816405992 0 0,0 -0.5276940174620718,-0.6356414379041374 l 20.91576935686387 -17.061816287708385" fill="#aeff20" stroke="none" /><path d="M 83.50135304334701 112.99209946851258 l -31.937737088693435 25.14983550746184 a61.65136254049663,61.65136254049663 0 0,0 -0.6493743382464381,-0.8394038687252319 l 32.36591824415794 -24.596353644623356" fill="#31ff42" stroke="none" /><path d="M 83.28015986056508 112.70617746262583 l -7.728061251792139 5.872910080983104 a30.706389829940072,30.706389829940072 0 0,0 -0.3161862305330078,-0.4235831262142862 l 7.828008749020232 -5.73901407525951" fill="#ff7b0b" stroke="none" /><path d="M 82.85270091963577 112.12312394758628 l -2.3822101405481875 1.6842202767742926 a23.917451472506148,23.917451472506148 0 0,0 -0.23477722616838584,-0.33821410480851444 l 2.4108482738787074 -1.6429649097787657" fill="#ff1c02" stroke="none" /><path d="M 82.6465618267979 111.8261652097733 l -2.3514253545548236 1.6024688850626672 a23.8455417279733,23.8455417279733 0 0,0 -0.2282323731962609,-0.3411764309533676 l 2.3786608331618146 -1.5617555399034786" fill="#ff1b02" stroke="none" /><path d="M 82.05923443525364 110.91462005526583 l -48.05639682365942 29.236060783604668 a77.25090688882847,77.25090688882847 0 0,0 -0.681349777403154,-1.141981418093662 l 48.55252747676081 -28.404517271624893" fill="#45ffec" stroke="none" /><line stroke="#e1ed5e" stroke-width="0.3" x1="26.63291911575756" x2="22.317208475507996" y1="142.92168965132927" y2="145.44649492493687" /><path d="M 25.769776987707644 143.4266507060508 a86.0,86.0 0 0,1 -11.730757126820373,-40.83630448921669" fill="none" id="id57" stroke="none" /><text fill="#e1ed5e" style="font-size:6.75px; font-family:Arial;" text-anchor="middle"><textPath startOffset="21.46611528233685" xlink:href="#id57">September</textPath></text><path d="M 81.51974371655577 109.97397251340807 l -12.598308110799564 6.799428367512983 a35.3160606795158,35.3160606795158 0 0,0 -0.2841218986277105,-0.5374515580705005 l 12.713482517652162 -6.5815617943563565" fill="#ffb811" stroke="none" /><path d="M 81.35079622478065 109.6543875284942 l -14.15881936912337 7.329789023867262 a36.94358720808677,36.94358720808677 0 0,0 -0.28749381735298096,-0.5672525761829591 l 14.282891856262616 -7.0849822359816175" fill="#ffcc13" stroke="none" /><path d="M 80.58989483394504 108.01547362559985 l -2.8479278480005323 1.1760621778176186 a24.08120354301855,24.08120354301855 0 0,0 -0.15491941162845413,-0.3844972748133426 l 2.8677498738863743 -1.1268655351614707" fill="#ff1f03" stroke="none" /><path d="M 80.45479744820244 107.68017299344265 l -29.620763529469183 11.63930573250866 a52.82550973674327,52.82550973674327 0 0,0 -0.3252685996356995,-0.849173674150004 l 29.816726408698393 -11.127708491525498" fill="#79ff26" stroke="none" /><path d="M 80.32549172779594 107.34259656027581 l -25.693886418514275 9.589049923206312 a48.42490980326563,48.42490980326563 0 0,0 -0.2847286439863608,-0.7834509421637892 l 25.85513932350586 -9.145351184036405" fill="#a9ff21" stroke="none" /><path d="M 80.20201598880116 107.00284435728193 l -24.56336646824311 8.688431719648026 a47.054708173383865,47.054708173383865 0 0,0 -0.26352691088002633,-0.7659325572299893 l 24.709284210066365 -8.264326459328739" fill="#b8ff1f" stroke="none" /><path d="M 79.67330655649465 105.27499134158121 l -37.27243745100613 9.672590644422037 a59.50705913613405,59.50705913613405 0 0,0 -0.2487641196060685,-0.9936889999226334 l 37.433412884907256 -9.029573805102013" fill="#35ff2f" stroke="none" /><path d="M 79.35854240842038 103.8639653848113 l -20.50506151939789 3.838432803151489 a41.861234726127826,41.861234726127826 0 0,0 -0.12648782244986229,-0.7094108814373594 l 20.56809578418694 -3.4849031709809157" fill="#f5ff19" stroke="none" /><path d="M 79.18660465613746 102.79330883721812 l -25.758832003741976 3.4570223590975413 a46.989775485530885,46.989775485530885 0 0,0 -0.10068899893706401,-0.8025903903181282 l 25.814522511925887 -3.0131142144920045" fill="#b9ff1f" stroke="none" /><path d="M 79.1416061653843 102.43462659150553 l -16.603191819108176 1.9379523000272583 a37.715909717968735,37.715909717968735 0 0,0 -0.0697164196212218,-0.6454874607666407 l 16.63409054023045 -1.6518685173758356" fill="#ffd614" stroke="none" /><path d="M 79.10278846688536 102.07522291339032 l -4.281385103070519 0.4251681356079781 a25.302444229078457,25.302444229078457 0 0,0 -0.03930964086430809,-0.43377861131810336 l 4.2880693402119014 -0.3514081357413086" fill="#ff3004" stroke="none" /><path d="M 79.04373962182676 101.35467743843564 l -3.7430739838540155 0.24196387069153505 a24.750886476997778,24.750886476997778 0 0,0 -0.023824082593741497,-0.4253949988247255 l 3.7466844173352887 -0.17749715553137196" fill="#ff2803" stroke="none" /><path d="M 79.0095281055655 100.63252640178507 l -30.92986464478452 0.9320398364484717 a51.94390449186105,51.94390449186105 0 0,0 -0.019238877763507377,-0.8939550519515931 l 30.941325585233034 -0.39949496870674966" fill="#82ff25" stroke="none" /><line stroke="#e1ed5e" stroke-width="0.3" x1="15.007084014347285" x2="10.007500721073583" y1="101.09737516637583" y2="101.16192664675087" /><path d="M 14.007167355692545 101.11028546245083 a86.0,86.0 0 0,1 10.666146001902534,-42.60595125391555" fill="none" id="id58" stroke="none" /><text fill="#e1ed5e" style="font-size:6.75px; font-family:Arial;" text-anchor="middle"><textPath startOffset="22.20632615414155" xlink:href="#id58">October</textPath></text><path d="M 79.00175016825051 100.2711162175752 l -12.883646311817838 0.16634555187334693 a33.884720141727776,33.884720141727776 0 0,0 -0.0025102167128056067,-0.5832859602359811 l 12.884600825820147 0.0554498865663096" fill="#ffa50f" stroke="none" /><path d="M 79.00019446554 99.90962569577889 l -5.7286080411891644 -0.024653512387456417 a26.728661090102136,26.728661090102136 0 0,0 0.005940117669547617,-0.46006865974579914 l 5.727334916401901 0.12325843019372755" fill="#ff4406" stroke="none" /><path d="M 79.00486145842228 99.54816195383935 l -37.158661275036806 -0.7996945042876715 a58.16726542339519,58.16726542339519 0 0,0 0.030159188505215196,-1.000836640006029 l 37.139390392075946 1.4392012917186947" fill="#42ff2d" stroke="none" /><path d="M 79.01574976396665 99.18683210126434 l -3.9046536549673356 -0.1513105768462507 a24.90758429927178,24.90758429927178 0 0,0 0.020289471189547485,-0.4282786691103886 l 3.9014705755442893 0.21850035257964837" fill="#ff2b04" stroke="none" /><path d="M 79.03285615573316 98.82574320788736 l -39.23832302597163 -2.197527124656796 a60.2998106783493,60.2998106783493 0 0,0 0.06695980702689909,-1.035838577593998 l 39.19468262794032 2.872624766503806" fill="#30ff32" stroke="none" /><path d="M 79.08570108090925 98.10471618934814 l -4.46430026373024 -0.4045613026986692 a25.482593746078617,25.482593746078617 0 0,0 0.04334816636580914,-0.4365101195991778 l 4.456674971682202 0.4813469530022773" fill="#ff3304" stroke="none" /><path d="M 79.12142395522702 97.74499172005258 l -16.271948223043317 -1.7574655424369683 a37.36658132006363,37.36658132006363 0 0,0 0.07457239202793121,-0.6388907143029571 l 16.239285478011794 2.037299995064787" fill="#ffd213" stroke="none" /><path d="M 79.21141760316559 97.0276538004421 l -3.5988621796137177 -0.5145643949217241 a24.635462213305917,24.635462213305917 0 0,0 0.06363469702241,-0.41927314579364816 l 3.5894715891520055 0.5764366531074643" fill="#ff2703" stroke="none" /><path d="M 79.32604984820605 96.31383870115002 l -7.878398857769743 -1.4047169869902565 a29.0026494597506,29.0026494597506 0 0,0 0.09186143969101686,-0.4907274840341743 l 7.853051694168864 1.5401225484870036" fill="#ff6409" stroke="none" /><path d="M 79.46518482838121 95.60439243477599 l -3.6857916439963794 -0.7889671028829982 a24.769287616033715,24.769287616033715 0 0,0 0.09283247454013203,-0.4161497807444068 l 3.67166478245421 0.8522950531773642" fill="#ff2903" stroke="none" /><path d="M 79.54389044137918 95.25157060432595 l -17.85784085426649 -4.145299291278582 a39.332648095422115,39.332648095422115 0 0,0 0.1587675446369395,-0.6581939723178681 l 17.783840509368737 4.452078495255847" fill="#ffea16" stroke="none" /><path d="M 79.71946130924805 94.55025226153421 l -6.694653466604598 -1.7989745314840948 a27.93214933500782,27.93214933500782 0 0,0 0.12877150391165648,-0.46325961355225354 l 6.662695192126581 1.913945448455291" fill="#ff5507" stroke="none" /><path d="M 79.91906864156998 93.8553929516997 l -4.60716330118468 -1.409755732332884 a25.818025000830563,25.818025000830563 0 0,0 0.13369374470360657,-0.4238457058207146 l 4.58221407271287 1.488851604580013" fill="#ff3705" stroke="none" /><path d="M 80.14247586403 93.16781622104843 l -3.550303469270734 -1.2215181312140009 a24.754565390135102,24.754565390135102 0 0,0 0.1420993616034715,-0.4017340305588432 l 3.528751026857453 1.2824497881994552" fill="#ff2803" stroke="none" /><path d="M 80.2630227832202 92.82701384747504 l -27.083782716509216 -9.843026936179028 a49.81694753962378,49.81694753962378 0 0,0 0.2998396944696942,-0.8034213102616025 l 26.910338433537895 10.307771383469971" fill="#99ff23" stroke="none" /><path d="M 80.52162464483688 92.15188598940014 l -3.3702651826823335 -1.3579276976318737 a24.633545793518582,24.633545793518582 0 0,0 0.16185214736196402,-0.391937812834163 l 3.3463913484341696 1.415740080919348" fill="#ff2703" stroke="none" /><path d="M 80.803312248108 91.48605970444005 l -5.250107181487219 -2.328479770374302 a26.743295522445806,26.743295522445806 0 0,0 0.19025649465798933,-0.4192049665248357 l 5.209248369865878 2.4185067457412086" fill="#ff4406" stroke="none" /><path d="M 81.10775173730289 90.83032412892265 l -4.190553382997375 -2.03395676937006 a25.65808091336089,25.65808091336089 0 0,0 0.19627208502678953,-0.39567254672903485 l 4.154921285017172 2.1057889045980565" fill="#ff3505" stroke="none" /><path d="M 81.43458229118936 90.18545643968196 l -27.581347359364585 -14.580783441370174 a52.19823661558554,52.19823661558554 0 0,0 0.4267625934273259,-0.7907262716156662 l 27.326276666718787 15.053390696318314" fill="#80ff26" stroke="none" /><path d="M 81.6062741919709 89.86733742301443 l -3.170328810879181 -1.7464581365408924 a24.619544279571738,24.619544279571738 0 0,0 0.2076744830470849,-0.3694297323992285 l 3.1397966865396656 1.8007713788749056" fill="#ff2603" stroke="none" /><line stroke="#e1ed5e" stroke-width="0.3" x1="26.266209847984243" x2="21.928928074336255" y1="57.711370442889674" y2="55.22380399835377" /><path d="M 25.398753493254645 57.213857153982495 a86.0,86.0 0 0,1 29.58750427330803,-30.492523968695096" fill="none" id="id59" stroke="none" /><text fill="#e1ed5e" style="font-size:6.75px; font-family:Arial;" text-anchor="middle"><textPath startOffset="21.46611528233685" xlink:href="#id59">November</textPath></text><path d="M 81.96595687620814 89.24020034530311 l -3.433077881167195 -2.048305526762178 a24.99769674551784,24.99769674551784 0 0,0 0.22365106179594532,-0.36762354050535917 l 3.397311021085033 2.1070968404746115" fill="#ff2c04" stroke="none" /><path d="M 82.34701348167596 88.62581576622439 l -4.230229870865186 -2.7256245764702163 a26.032283188793983,26.032283188793983 0 0,0 0.24594726542724643,-0.37459455871768566 l 4.182685970080019 2.798037199165569" fill="#ff3a05" stroke="none" /><path d="M 82.7489923806493 88.02491185347247 l -22.515882573056114 -15.629793021873246 a48.40903861776712,48.40903861776712 0 0,0 0.48106454509308133,-0.6804316830657159 l 22.24350540815915 16.015051205270748" fill="#a9ff21" stroke="none" /><path d="M 82.95767976084542 87.72973835380427 l -1.2190195456364392 -0.8776791285977944 a22.502108286848806,22.502108286848806 0 0,0 0.2290258018174469,-0.3123909362946274 l 1.203731131305359 0.8985325085639225" fill="#ff0801" stroke="none" /><path d="M 83.39014120810768 87.1503855733568 l -3.153057538583815 -2.439248529650315 a24.98644017025484,24.98644017025484 0 0,0 0.2661007325981133,-0.3379209074471181 l 3.1106027253917308 2.4931618310504806" fill="#ff2c04" stroke="none" /><path d="M 83.6137871275137 86.86637796730984 l -18.065360881052143 -14.479466582194176 a44.15193763527206,44.15193763527206 0 0,0 0.48041830130517815,-0.5889360321007809 l 17.81344408767057 14.788286783903038" fill="#daff1c" stroke="none" /><path d="M 83.84228863543731 86.58626213691792 l -11.263429546074354 -9.350624476539167 a35.638955674522485,35.638955674522485 0 0,0 0.3959138145366154,-0.46863707876590566 l 11.100805118050614 9.543120504934189" fill="#ffbc11" stroke="none" /><path d="M 84.07557802195018 86.31012108654704 l -23.142598669204478 -19.895188281292096 a51.51882025753825,51.51882025753825 0 0,0 0.5838999238173677,-0.6674985502310877 l 22.796706881809264 20.290602387726125" fill="#87ff25" stroke="none" /><path d="M 84.31358615837235 86.03803664274999 l -11.681510378495446 -10.397329912913092 a36.638483111889535,36.638483111889535 0 0,0 0.42336004406103017,-0.46748473469058305 l 11.50080669381837 10.59686743487323" fill="#ffc812" stroke="none" /><path d="M 84.5562425177563 85.77008943001954 l -2.836289345723641 -2.6133629582463636 a24.85670885655109,24.85670885655109 0 0,0 0.29263765226694344,-0.31216544386813116 l 2.7908843714862415 2.661797818992545" fill="#ff2a04" stroke="none" /><path d="M 85.05521093208273 85.24692304244772 l -2.4392361088858117 -2.4079455299430235 a24.4275464212852,24.4275464212852 0 0,0 0.29797442299449217,-0.296694826126194 l 2.3974258857240063 2.449576206719327" fill="#ff2403" stroke="none" /><path d="M 85.57189188830299 84.74124197986013 l -2.475799539988006 -2.6183353905162288 a24.603507122156774,24.603507122156774 0 0,0 0.3102292722354391,-0.28832429853535857 l 2.4303623839577106 2.6605642751262346" fill="#ff2603" stroke="none" /><path d="M 85.83668400450813 84.49514656593479 l -9.530668433801019 -10.433405372145323 a35.13115665664216,35.13115665664216 0 0,0 0.44999500636578055,-0.40400995979337295 l 9.349662439839268 10.595914340707976" fill="#ffb510" stroke="none" /><path d="M 86.37877921826538 84.01681056812374 l -27.637180197301525 -32.42956659572745 a63.60857330215173,63.60857330215173 0 0,0 0.8394588893083479,-0.7030226782504887 l 27.074863771034067 32.90049043137175" fill="#34ff59" stroke="none" /><path d="M 87.51073957382395 83.11751280151077 l -12.649135838286426 -17.09860044348569 a42.26882165474597,42.26882165474597 0 0,0 0.5886530888160549,-0.42768150326658205 l 12.352937433116589 17.31380118156894" fill="#f0ff19" stroke="none" /><path d="M 87.80319425747018 82.90503203632743 l -10.037517051002105 -14.06852220523332 a38.28221819062301,38.28221819062301 0 0,0 0.5397225101860679,-0.37811010977872045 l 9.793863401232375 14.239217157775983" fill="#ffdd14" stroke="none" /><path d="M 88.09926311788651 82.69761687909137 l -22.262216145149797 -32.36685229490196 a60.28383121811528,60.28383121811528 0 0,0 0.8600358493398019,-0.5807000445915502 l 21.701775601403455 32.74526425179218" fill="#30ff32" stroke="none" /><line stroke="#e1ed5e" stroke-width="0.3" x1="56.762969772571076" x2="54.21961505331055" y1="26.818313649435495" y2="22.513508569990535" /><path d="M 56.25429882871897 25.957352633546506 a86.0,86.0 0 0,1 42.265352541879196,-11.944610805530505" fill="none" id="id60" stroke="none" /><text fill="#e1ed5e" style="font-size:6.75px; font-family:Arial;" text-anchor="middle"><textPath startOffset="22.20632615414155" xlink:href="#id60">December</textPath></text><path d="M 89.94658935756843 81.56283822128135 l -9.7540571116061 -17.8881710259123 a41.37469736680184,41.37469736680184 0 0,0 0.6282155811331928,-0.33557100695801917 l 9.444696483944602 18.053420759372067" fill="#fbff18" stroke="none" /><path d="M 92.23578459929587 80.48803036053334 l -23.29264620211241 -58.53590891839998 a84.0,84.0 0 0,0 1.3480673400012946,-0.5230291844377941 l 22.28159569711144 58.92818080672833" fill="#4dd2ff" stroke="none" /><path d="M 92.57280143429618 80.3572730644239 l -7.987415269898892 -21.124333176193637 a43.583982262494125,43.583982262494125 0 0,0 0.7040217665072782,-0.25929715808872494 l 7.622611177619044 21.258693602088687" fill="#e0ff1b" stroke="none" /><path d="M 94.28887869178378 79.79150937346287 l -5.8040260086603 -20.537228831657064 a42.341613950051936,42.341613950051936 0 0,0 0.7030766741932089,-0.1921774139322387 l 5.449651445243369 20.6340927864156" fill="#efff19" stroke="none" /><path d="M 94.98787191387505 79.60689891045804 l -7.340528991430984 -29.86678456749114 a51.75562040139925,51.75562040139925 0 0,0 0.8669714916081372,-0.20518414133818208 l 6.825333812860313 29.988714620970192" fill="#84ff25" stroke="none" /></svg>