<?xml version="1.0" encoding="utf-8" ?>
<svg baseProfile="full" height="200mm" version="1.1" viewBox="0,0,200,200" width="200mm" xmlns="http://www.w3.org/2000/svg" xmlns:ev="http://www.w3.org/2001/xml-events" xmlns:xlink="http://www.w3.org/1999/xlink"><defs /><rect fill="#1a1a1a" height="200" width="200" x="0" y="0" /><text alignment-baseline="middle" fill="#e1ed5e" style="dominant-baseline: central; font-size:9.0px; font-family:Arial;" text-anchor="middle" x="100.0" y="100.0">2024</text><line stroke="#e1ed5e" stroke-width="0.3" x1="100.0" x2="100.0" y1="15.0" y2="10.0" /><path d="M 100.0 14.0 a86.0,86.0 0 0,1 42.35913384403234,11.155469271406648" fill="none" id="id73" stroke="none" /><text fill="#e1ed5e" style="font-size:6.75px; font-family:Arial;" text-anchor="middle"><textPath startOffset="22.145653131862478" xlink:href="#id73">January</textPath></text><path d="M 100.36049292484886 79.00309439819443 l 0.1154532356445781 -6.724572170920156 a27.72556319809238,27.72556319809238 0 0,0 0.4758058969753681,0.012255072106375284 l -0.23087244669068757 6.721599381463735" fill="#ff5007" stroke="none" /><path d="M 101.44090949804482 79.04949213459386 l 1.0628213184837623 -15.45318871353768 a36.489694334338296,36.489694334338296 0 0,0 0.6245489292826515,0.04834403704996337 l -1.3279392425416472 15.432666909492664" fill="#ffc512" stroke="none" /><path d="M 102.15924093988457 79.11130261209362 l 4.615229985440671 -44.64816351000436 a65.88606523894242,65.88606523894242 0 0,0 1.1240291314238475,0.12594980867644986 l -5.380995018465315 44.56235794082094" fill="#36ff73" stroke="none" /><path d="M 103.58742460773223 79.30868818359171 l 2.529387911606017 -14.588837315462925 a35.80648430331867,35.80648430331867 0 0,0 0.6047293474303109,0.11020183169625558 l -2.779451992587382 14.543267309835304" fill="#ffbc11" stroke="none" /><path d="M 104.29559338865022 79.4440306129975 l 7.509426466718852 -35.93532408623156 a57.711564976742025,57.711564976742025 0 0,0 0.9680086752635918,0.21097298533741096 l -8.125197558601577 35.801119642760426" fill="#47ff2c" stroke="none" /><path d="M 104.64783097203109 79.52079915486377 l 5.551878800660465 -24.462602386096275 a46.08470198582128,46.08470198582128 0 0,0 0.7699828633954456,0.18171385920668384 l -5.9709938177957955 24.363692383243365" fill="#c5ff1e" stroke="none" /><path d="M 105.69591212413111 79.78721728523813 l 7.239285208514527 -25.68966931739931 a47.690192205518954,47.690192205518954 0 0,0 0.7860705971208207,0.22881369450623998 l -7.679215818016953 25.561611928590555" fill="#b2ff20" stroke="none" /><path d="M 106.72888874123014 80.10723608172694 l 18.751722114841076 -55.43613446986487 a79.52172320799482,79.52172320799482 0 0,0 1.2893660833026641,0.44850845436198117 l -19.70059397018876 55.1060675829343" fill="#47fcff" stroke="none" /><path d="M 107.06938296918511 80.22567764915836 l 6.816806257233339 -19.06782033472215 a41.2497066612309,41.2497066612309 0 0,0 0.6647308678688406,0.24409838216335397 l -7.143126276756305 18.947991103550077" fill="#feff18" stroke="none" /><path d="M 109.06512990194946 81.05736502329252 l 5.060700678470833 -10.574918033776168 a32.72346291750691,32.72346291750691 0 0,0 0.5046265749755918,0.24683814498071027 l -5.241487502708492 10.486486138698236" fill="#ff940d" stroke="none" /><path d="M 110.02825361518725 81.54914285379988 l 14.39005916987517 -26.476088086427605 a51.13398485552122,51.13398485552122 0 0,0 0.767632662306715,0.4257928978081266 l -14.842436020337987 26.22516227318633" fill="#8cff24" stroke="none" /><line stroke="#e1ed5e" stroke-width="0.3" x1="143.13028292997686" x2="145.6673583964461" y1="26.7553504044142" y2="22.446841604673864" /><path d="M 143.63769802327073 25.89364864446614 a86.0,86.0 0 0,1 29.32050498858742,28.57503671076993" fill="none" id="id74" stroke="none" /><text fill="#e1ed5e" style="font-size:6.75px; font-family:Arial;" text-anchor="middle"><textPath startOffset="20.669276256404974" xlink:href="#id74">February</textPath></text><path d="M 110.65571695917076 81.90426304109057 l 1.3546704371715332 -2.3005265615627435 a23.6697480131657,23.6697480131657 0 0,0 0.34835922720996526,0.20917970676601208 l -1.3939624209389327 2.2769328542608105" fill="#ff1702" stroke="none" /><path d="M 110.96478420261332 82.08984904055464 l 13.697570835852416 -22.37395254795279 a47.23389409563967,47.23389409563967 0 0,0 0.6878961500664005,0.42929807422071914 l -14.079631114708528 22.135518676890527" fill="#b7ff1f" stroke="none" /><path d="M 111.8722381534696 82.67804972795209 l 1.5513608014503268 -2.263481772295275 a23.74409731419816,23.74409731419816 0 0,0 0.3342319867488047,0.2333198845148742 l -1.5899878793728923 2.2365170719752743" fill="#ff1802" stroke="none" /><path d="M 112.45986205192187 83.09580414077388 l 0.7647484232465441 -1.0375281103212484 a22.288916106876183,22.288916106876183 0 0,0 0.3060448733255441,0.2296617784969826 l -0.7824462854828546 1.024247304560251" fill="#ff0200" stroke="none" /><path d="M 113.31354834802062 83.75963576809568 l 1.6622230260095987 -2.0276418180482696 a23.621891822805548,23.621891822805548 0 0,0 0.3113879015335185,0.2597708623537507 l -1.6967852617050099 1.9988087717826486" fill="#ff1602" stroke="none" /><path d="M 113.59037401385872 83.9905735841838 l 6.881318827584976 -8.106176276065026 a31.633091865751698,31.633091865751698 0 0,0 0.41095983712017203,0.3549773193546155 l -7.0194581444680075 7.986854824245692" fill="#ff850c" stroke="none" /><path d="M 114.39649973595853 84.71141617570332 l 7.904941237359758 -8.394773656797318 a32.53084215116004,32.53084215116004 0 0,0 0.4032701557104484,0.38632368683063045 l -8.047883878935519 8.257837839661107" fill="#ff910d" stroke="none" /><path d="M 114.65682725009322 84.96080404539774 l 3.223999545846551 -3.308107552896662 a25.619280101179264,25.619280101179264 0 0,0 0.31232108125502683,0.3096516863443062 l -3.2803125472315404 3.2522758563236964" fill="#ff3204" stroke="none" /><path d="M 114.91283532996326 85.21462403516908 l 12.049300891386308 -11.946316032509822 a37.967619712846115,37.967619712846115 0 0,0 0.4549121070780337,0.46677989743134957 l -12.252599799615155 11.73771344301073" fill="#ffd814" stroke="none" /><path d="M 115.16444852881244 85.47280134310134 l 39.68633296733377 -38.018609241534584 a75.95834489005816,75.95834489005816 0 0,0 0.8939362770774781,0.9493293478512955 l -40.3331250781475 37.33173843373879" fill="#43ffdf" stroke="none" /><path d="M 115.41159269507618 85.73525988315684 l 5.951971966633496 -5.509056394533985 a29.110220259015584,29.110220259015584 0 0,0 0.33629554113507315,0.36964771001520363 l -6.045665208610447 5.40607110896111" fill="#ff6309" stroke="none" /><path d="M 115.6541949942343 86.00192230759917 l 7.733044189329021 -6.914935798414792 a31.373828103950526,31.373828103950526 0 0,0 0.3555535223812032,0.4045546404099358 l -7.850608775668815 6.781168880193558" fill="#ff820c" stroke="none" /><path d="M 116.35404254752997 86.82634096563983 l 12.805503999835357 -10.315207568201247 a37.44337069657178,37.44337069657178 0 0,0 0.3989209035597737,0.5040235299300193 l -12.98069133403669 10.09386409435655" fill="#ffd113" stroke="none" /><path d="M 116.57777611688842 87.10902102172516 l 1.086326945129731 -0.8447344031226648 a22.37611134852304,22.37611134852304 0 0,0 0.23318893919638686,0.3052518068735818 l -1.1006678616804246 0.825961683008201" fill="#ff0400" stroke="none" /><path d="M 116.7966241395341 87.39550010848427 l 28.00046187353553 -21.012068598753466 a56.00761191412574,56.00761191412574 0 0,0 0.5704721464935407,0.7739550290665084 l -28.357036039612897 20.52830726041808" fill="#59ff2a" stroke="none" /><path d="M 117.01052211995028 87.68569379921539 l 1.660713601614504 -1.2022285769878884 a23.050200775025154,23.050200775025154 0 0,0 0.22927804370265495,0.32250828174383955 l -1.6811067438471197 1.173543068534545" fill="#ff0e01" stroke="none" /><path d="M 117.42321728460499 88.27688183743584 l 2.341237241150726 -1.5752889019444913 a23.821865862145213,23.821865862145213 0 0,0 0.22537250314842583,0.3412426946114832 l -2.367934183219876 1.5348663289939495" fill="#ff1902" stroke="none" /><path d="M 117.62189284568427 88.57770195909679 l 2.027369296055508 -1.3141162837222415 a23.416014873657147,23.416014873657147 0 0,0 0.21574212431798476,0.33918245324225377 l -2.0496291119993826 1.2791201558013157" fill="#ff1302" stroke="none" /><path d="M 117.81537515405839 88.88188828441811 l 2.534234985118076 -1.581550061922791 a23.98724748860291,23.98724748860291 0 0,0 0.21500802009008402,0.3511994423371373 l -2.5610109696635623 1.5378135034610987" fill="#ff1b02" stroke="none" /><line stroke="#e1ed5e" stroke-width="0.3" x1="172.87174338648825" x2="177.1583165268699" y1="56.24261187166439" y2="53.66864786411523" /><path d="M 173.72905801456457 55.72781907015455 a86.0,86.0 0 0,1 12.242430191666344,42.057860355516425" fill="none" id="id75" stroke="none" /><text fill="#e1ed5e" style="font-size:6.75px; font-family:Arial;" text-anchor="middle"><textPath startOffset="22.145653131862474" xlink:href="#id75">March</textPath></text><path d="M 118.00360718960297 89.18935116829356 l 2.9454547341096284 -1.7686609380444205 a24.43567534910576,24.43567534910576 0 0,0 0.2128536872421624,0.3614720951979832 l -2.9753821314815587 1.717837674552881" fill="#ff2203" stroke="none" /><path d="M 118.18653347947321 89.5 l 10.610893370630833 -6.12620214387613 a33.252404287752256,33.252404287752256 0 0,0 0.2811675016345208,0.4967960344385394 l -10.714494237286731 5.943149339338472" fill="#ff9b0e" stroke="none" /><path d="M 118.36410011445183 89.81374322990088 l 33.62431508052949 -18.65084077054506 a59.45059721360578,59.45059721360578 0 0,0 0.4873665132603557,0.8966994911646594 l -33.93952694340519 18.0708864459058" fill="#36ff2e" stroke="none" /><path d="M 119.16976305983485 91.42560881287824 l 1.0212105789504762 -0.45677450269037967 a22.11871086204989,22.11871086204989 0 0,0 0.15205678199729594,0.34793567454266666 l -1.0289012429647426 0.43917675837186365" fill="#ff0000" stroke="none" /><path d="M 119.83427380445688 93.10060997987247 l 1.1360875759754365 -0.39519023287429267 a22.202859218880157,22.202859218880157 0 0,0 0.12213113916938434,0.3610590116730237 l -1.1427041367171857 0.3756295467271074" fill="#ff0100" stroke="none" /><path d="M 120.16314734710363 94.1308016681162 l 11.452484682289604 -3.333651380714349 a32.92780939343921,32.92780939343921 0 0,0 0.15332051691291562,0.5440804258454922 l -11.508023691277101 3.136563030965844" fill="#ff970d" stroke="none" /><path d="M 120.43855184770803 95.1765574152323 l 2.220648044531871 -0.5240668919983831 a23.281649369419426,23.281649369419426 0 0,0 0.0884582259382131,0.38976326512180903 l -2.2293171320277505 0.48586929293754777" fill="#ff1101" stroke="none" /><path d="M 120.51834098615036 95.52812308129327 l 2.091572905665008 -0.45584857990950917 a23.14067165803574,23.14067165803574 0 0,0 0.08125933814882146,0.38885534925366266 l -2.0990899546381963 0.41987677937044204" fill="#ff0f01" stroke="none" /><path d="M 120.592083275326 95.88100663000786 l 21.357818785679594 -4.272161917736564 a42.780904268034575,42.780904268034575 0 0,0 0.13786392434952371,0.7213623079460176 l -21.428009002311274 3.904897044757232" fill="#ebff1a" stroke="none" /><path d="M 120.7213421655516 96.59031103205396 l 13.352102584636345 -2.1970833992309817 a34.53165987208624,34.53165987208624 0 0,0 0.09122690303296613,0.585742159236235 l -13.387850979807576 1.9675530580633056" fill="#ffac0f" stroke="none" /><path d="M 120.77682067341334 96.94652285012252 l 62.330462020240034 -9.160431449632455 a84.0,84.0 0 0,0 0.19742193377914985,1.4284467671996575 l -62.478528470574396 8.089096374232712" fill="#4dd2ff" stroke="none" /><path d="M 120.93736805541906 98.37931529534042 l 17.495451610140375 -1.35425860359404 a38.54778742201341,38.54778742201341 0 0,0 0.04540569365103337,0.6601888205060937 l -17.516121264956475 1.053726358933612" fill="#ffdf14" stroke="none" /><line stroke="#e1ed5e" stroke-width="0.3" x1="184.99686870605535" x2="189.99668451229388" y1="99.2704041080226" y2="99.22748670261217" /><path d="M 185.99683186730306 99.26182062694052 a86.0,86.0 0 0,1 -10.086455211305974,41.156179273409016" fill="none" id="id76" stroke="none" /><text fill="#e1ed5e" style="font-size:6.75px; font-family:Arial;" text-anchor="middle"><textPath startOffset="21.40746469413373" xlink:href="#id76">April</textPath></text><path d="M 120.99303781780057 100.54070618675476 l 14.089401322282866 0.3628929995147849 a35.094073965658154,35.094073965658154 0 0,0 -0.020680959518136408,0.6021035714643033 l -14.081095675767884 -0.6047028355431989" fill="#ffb310" stroke="none" /><line stroke="#e1ed5e" stroke-width="0.3" x1="174.33088141563837" x2="178.70328620479359" y1="141.23008692659167" y2="143.65538615756765" /><path d="M 175.20536237346943 141.71514677278685 a86.0,86.0 0 0,1 -30.301960400862466,31.631185727798858" fill="none" id="id77" stroke="none" /><text fill="#e1ed5e" style="font-size:6.75px; font-family:Arial;" text-anchor="middle"><textPath startOffset="22.145653131862474" xlink:href="#id77">May</textPath></text><line stroke="#e1ed5e" stroke-width="0.3" x1="143.1302829299769" x2="145.66735839644613" y1="173.24464959558577" y2="177.55315839532614" /><path d="M 143.63769802327073 174.10635135553383 a86.0,86.0 0 0,1 -40.68552437913181,11.842963189579606" fill="none" id="id78" stroke="none" /><text fill="#e1ed5e" style="font-size:6.75px; font-family:Arial;" text-anchor="middle"><textPath startOffset="21.407464694133747" xlink:href="#id78">June</textPath></text><line stroke="#e1ed5e" stroke-width="0.3" x1="101.45913802915013" x2="101.54496967792366" y1="184.9874750549273" y2="189.98673829345242" /><path d="M 101.47630435890484 185.9873277026323 a86.0,86.0 0 0,1 -42.54439059252881,-10.42667462771756" fill="none" id="id79" stroke="none" /><text fill="#e1ed5e" style="font-size:6.75px; font-family:Arial;" text-anchor="middle"><textPath startOffset="22.145653131862474" xlink:href="#id79">July</textPath></text><line stroke="#e1ed5e" stroke-width="0.3" x1="58.13341422392154" x2="55.67067388415222" y1="173.97424548756322" y2="178.32567169271397" /><path d="M 57.64086615596768 174.84453072859336 a86.0,86.0 0 0,1 -31.369924170532247,-30.572349798747897" fill="none" id="id80" stroke="none" /><text fill="#e1ed5e" style="font-size:6.75px; font-family:Arial;" text-anchor="middle"><textPath startOffset="22.145653131862474" xlink:href="#id80">August</textPath></text><line stroke="#e1ed5e" stroke-width="0.3" x1="26.387840678322732" x2="22.057713659400548" y1="142.50000000000003" y2="145.00000000000006" /><path d="M 25.521815274538298 143.00000000000003 a86.0,86.0 0 0,1 -11.493303480769221,-40.785679425670985" fill="none" id="id81" stroke="none" /><text fill="#e1ed5e" style="font-size:6.75px; font-family:Arial;" text-anchor="middle"><textPath startOffset="21.40746469413373" xlink:href="#id81">September</textPath></text><line stroke="#e1ed5e" stroke-width="0.3" x1="15.003131293944662" x2="10.003315487706104" y1="100.72959589197737" y2="100.7725132973878" /><path d="M 14.003168132696942 100.73817937305945 a86.0,86.0 0 0,1 10.791469493833604,-42.45332614584628" fill="none" id="id82" stroke="none" /><text fill="#e1ed5e" style="font-size:6.75px; font-family:Arial;" text-anchor="middle"><textPath startOffset="22.145653131862435" xlink:href="#id82">October</textPath></text><line stroke="#e1ed5e" stroke-width="0.3" x1="26.387840678322718" x2="22.05771365940052" y1="57.49999999999999" y2="54.99999999999999" /><path d="M 25.521815274538284 56.99999999999999 a86.0,86.0 0 0,1 29.574782752854787,-30.34633250058573" fill="none" id="id83" stroke="none" /><text fill="#e1ed5e" style="font-size:6.75px; font-family:Arial;" text-anchor="middle"><textPath startOffset="21.40746469413373" xlink:href="#id83">November</textPath></text><line stroke="#e1ed5e" stroke-width="0.3" x1="56.869717070023135" x2="54.33264160355391" y1="26.7553504044142" y2="22.446841604673864" /><path d="M 56.362301976729285 25.89364864446614 a86.0,86.0 0 0,1 42.16139366436587,-11.88097634709845" fill="none" id="id84" stroke="none" /><text fill="#e1ed5e" style="font-size:6.75px; font-family:Arial;" text-anchor="middle"><textPath startOffset="22.145653131862474" xlink:href="#id84">December</textPath></text></svg>