<?xml version="1.0" encoding="utf-8" ?>
<svg baseProfile="full" height="200mm" version="1.1" viewBox="0,0,200,200" width="200mm" xmlns="http://www.w3.org/2000/svg" xmlns:ev="http://www.w3.org/2001/xml-events" xmlns:xlink="http://www.w3.org/1999/xlink"><defs /><rect fill="#1a1a1a" height="200" width="200" x="0" y="0" /><text alignment-baseline="middle" fill="#e1ed5e" style="dominant-baseline: central; font-size:9.0px; font-family:Arial;" text-anchor="middle" x="100.0" y="100.0">2024</text><line stroke="#e1ed5e" stroke-width="0.3" x1="100.0" x2="100.0" y1="15.0" y2="10.0" /><path d="M 100.0 14.0 a86.0,86.0 0 0,1 42.35913384403234,11.155469271406648" fill="none" id="id73" stroke="none" /><text fill="#e1ed5e" style="font-size:6.75px; font-family:Arial;" text-anchor="middle"><textPath startOffset="22.145653131862478" xlink:href="#id73">January</textPath></text><path d="M 100.0 79.0 l 0.0 -8.507950809454844 a29.507950809454844,29.507950809454844 0 0,0 0.5065432139807862,0.00434806427172625 l -0.14605028913193135 8.506697143377552" fill="#ff6a09" stroke="none" /><path d="M 100.36049292484886 79.00309439819443 l 0.10668221750675187 -6.213704336415839 a27.214620074946268,27.214620074946268 0 0,0 0.4670374636968456,0.012029228368894668 l -0.21333299527433883 6.210957390696899" fill="#ff4a06" stroke="none" /><path d="M 100.72087961077811 79.0123766808444 l 0.3349790149947619 -9.752548527407027 a30.758299735092987,30.758299735092987 0 0,0 0.5275403434427912,0.022654852213825412 l -0.5023451190383894 9.74536110676737" fill="#ff7b0b" stroke="none" /><path d="M 101.08105385017728 79.02784411241856 l 0.40258658948674575 -7.810072284170896 a28.820441486643126,28.820441486643126 0 0,0 0.4938666020478296,0.02970978840023926 l -0.5365975436670377 7.8020105179459645" fill="#ff6008" stroke="none" /><path d="M 101.44090949804482 79.04949213459386 l 0.9820784531180198 -14.279205171742884 a35.31293744920334,35.31293744920334 0 0,0 0.604407838324117,0.046784989228611004 l -1.2270552862173703 14.260242415519219" fill="#ffb711" stroke="none" /><path d="M 101.80034050326958 79.07731436759882 l 1.6044035607543814 -18.645601356079972 a39.714501348302406,39.714501348302406 0 0,0 0.6787405654215346,0.06427743722932447 l -1.924243689560929 18.61531216334546" fill="#ffee16" stroke="none" /><path d="M 102.15924093988457 79.11130261209362 l 5.006997900902851 -48.43816270889777 a69.69625893837534,69.69625893837534 0 0,0 1.1890317795406884,0.1332334909804911 l -5.837765582044336 48.34507345741031" fill="#3bff9d" stroke="none" /><path d="M 103.58742460773223 79.30868818359171 l 2.3372295270754 -13.480518817593866 a34.6816310962449,34.6816310962449 0 0,0 0.5857319016016076,0.10673986422804906 l -2.5682961622280613 13.43841077943445" fill="#ffaf10" stroke="none" /><path d="M 104.29559338865022 79.4440306129975 l 7.581157507071611 -36.27858308124842 a58.06223872798394,58.06223872798394 0 0,0 0.973890602629904,0.21225492403044052 l -8.202810526320649 36.14309669908426" fill="#44ff2d" stroke="none" /><path d="M 104.64783097203109 79.52079915486377 l 5.130100845389336 -22.60417089191616 a44.17900939200841,44.17900939200841 0 0,0 0.7381425654894945,0.17419963559751578 l -5.517375564618715 22.512775112672415" fill="#daff1c" stroke="none" /><path d="M 104.9986988182912 79.60360301121754 l 2.0227867741508017 -8.253660316214503 a29.49791591798445,29.49791591798445 0 0,0 0.49078169917267367,0.12475478874278839 l -2.1641737665488696 8.217720295636447" fill="#ff6a09" stroke="none" /><path d="M 105.69591212413111 79.78721728523813 l 6.689314464825284 -23.73801716768107 a45.66253002152135,45.66253002152135 0 0,0 0.7526489322035245,0.2190851349413785 l -7.0958234094104125 23.61968833843717" fill="#c9ff1d" stroke="none" /><path d="M 106.72888874123014 80.10723608172694 l 17.32714796699239 -51.22463413198764 a75.07580973620314,75.07580973620314 0 0,0 1.217279994010647,0.4234331705399132 l -18.203933733048054 50.919642528879145" fill="#42ffd6" stroke="none" /><path d="M 107.06938296918511 80.22567764915836 l 6.298931370570959 -17.61923210702172 a39.711330162558404,39.711330162558404 0 0,0 0.6399402347264065,0.23499491828740318 l -6.60046075695149 17.508506339725592" fill="#ffee16" stroke="none" /><path d="M 109.06512990194946 81.05736502329252 l 4.6762376775582934 -9.771538229282728 a31.832827801795318,31.832827801795318 0 0,0 0.4908921438389018,0.24011994647063406 l -4.843290070659262 9.689824532714871" fill="#ff890c" stroke="none" /><path d="M 109.3889696526874 81.21577127319529 l 4.501762400104303 -9.00654041128831 a31.06894408004942,31.06894408004942 0 0,0 0.47501867591461544,0.2425479205640706 l -4.655708297732497 8.927934539051405" fill="#ff7f0b" stroke="none" /><path d="M 110.02825361518725 81.54914285379988 l 13.296841909408597 -24.46469145879531 a48.844696675271166,48.844696675271166 0 0,0 0.7332654526015068,0.4067299859122368 l -13.714851550166205 24.232828557449928" fill="#a5ff21" stroke="none" /><line stroke="#e1ed5e" stroke-width="0.3" x1="143.13028292997686" x2="145.6673583964461" y1="26.7553504044142" y2="22.446841604673864" /><path d="M 143.63769802327073 25.89364864446614 a86.0,86.0 0 0,1 29.32050498858742,28.57503671076993" fill="none" id="id74" stroke="none" /><text fill="#e1ed5e" style="font-size:6.75px; font-family:Arial;" text-anchor="middle"><textPath startOffset="20.669276256404974" xlink:href="#id74">February</textPath></text><path d="M 110.65571695917076 81.90426304109057 l 1.2517557036963565 -2.125754844812114 a23.46692642816492,23.46692642816492 0 0,0 0.3453742030105918,0.20738728550099977 l -1.2880626632643826 2.1039535587751934" fill="#ff1502" stroke="none" /><path d="M 110.96478420261332 82.08984904055464 l 17.892937110102377 -29.22676806292426 a55.268953439374954,55.268953439374954 0 0,0 0.804915644095812,0.5023268932194301 l -18.392016882987903 28.915305372863283" fill="#60ff29" stroke="none" /><path d="M 111.8722381534696 82.67804972795209 l 9.171492594505148 -13.381481788759896 a37.22283363885531,37.22283363885531 0 0,0 0.523964397336576,0.36576784246671973 l -9.399852083015485 13.22206913048805" fill="#ffcf13" stroke="none" /><path d="M 112.45986205192187 83.09580414077388 l 0.7066502482259761 -0.9587067778282617 a22.19099675027755,22.19099675027755 0 0,0 0.3047003612396871,0.22865283156219718 l -0.7230035983764296 0.9464349190020497" fill="#ff0200" stroke="none" /><path d="M 112.7482090630111 83.31218511350987 l 8.927282395913382 -11.68609922586542 a35.70582490352572,35.70582490352572 0 0,0 0.48388203267330054,0.37626959534106763 l -9.12657437322191 11.531128578903562" fill="#ffbc11" stroke="none" /><path d="M 113.31354834802062 83.75963576809568 l 1.5359434269247798 -1.873601239940389 a23.422705887436525,23.422705887436525 0 0,0 0.3087621977628463,0.2575804068818653 l -1.5678799588495187 1.8469586491466534" fill="#ff1402" stroke="none" /><path d="M 113.59037401385872 83.9905735841838 l 6.358542900934302 -7.490347548971903 a30.825292577191348,30.825292577191348 0 0,0 0.4004653503510184,0.34591243163365976 l -6.48618773104818 7.380090984873524" fill="#ff7c0b" stroke="none" /><path d="M 114.13192950727249 84.46653392183569 l 6.341791753961113 -6.970740056001723 a30.423881343637348,30.423881343637348 0 0,0 0.3832977735525204,0.3547746968967192 l -6.460519298827598 6.860847612972629" fill="#ff760a" stroke="none" /><path d="M 114.39649973595853 84.71141617570332 l 7.304400398601644 -7.757020097136272 a31.654840494839323,31.654840494839323 0 0,0 0.39241075887388455,0.37592063031069683 l -7.436483643340841 7.630487336519995" fill="#ff870c" stroke="none" /><path d="M 114.65682725009322 84.96080404539774 l 2.9790712999200673 -3.056789595575307 a25.26835195849931,25.26835195849931 0 0,0 0.30804296506551,0.30541013503071085 l -3.03110618511554 3.0051994503159367" fill="#ff2f04" stroke="none" /><path d="M 114.91283532996326 85.21462403516908 l 11.133911763689403 -11.038750696498651 a36.678584378095834,36.678584378095834 0 0,0 0.4394674259348836,0.4509322939763313 l -11.321765990775098 10.845995710454577" fill="#ffc812" stroke="none" /><path d="M 115.16444852881244 85.47280134310134 l 36.671349936872105 -35.13032370002766 a71.78314237482016,71.78314237482016 0 0,0 0.8447992797150607,0.8971475594424652 l -37.26900505032343 34.4956346806407" fill="#3effb4" stroke="none" /><path d="M 115.41159269507618 85.73525988315684 l 5.499798809391825 -5.090531670744364 a28.494084309282833,28.494084309282833 0 0,0 0.3291776364684475,0.3618238859132126 l -5.58637414670215 4.995370209273481" fill="#ff5c08" stroke="none" /><path d="M 115.6541949942343 86.00192230759917 l 7.145562422650601 -6.389605980058605 a30.58572516382548,30.58572516382548 0 0,0 0.34662210427589524,0.3943923261239034 l -7.254195590885086 6.266001376123404" fill="#ff780b" stroke="none" /><path d="M 115.8921839302757 86.27271002978787 l 6.7690512522874124 -5.846945251266341 a29.944653354233456,29.944653354233456 0 0,0 0.3326785914970311,0.39189454427508547 l -6.868424407291556 5.729883924541704" fill="#ff700a" stroke="none" /><path d="M 116.35404254752997 86.82634096563983 l 11.832665887334723 -9.531558048367419 a36.19416272226583,36.19416272226583 0 0,0 0.3856118674187024,0.4872079975376841 l -11.994544185394986 9.327030106915057" fill="#ffc212" stroke="none" /><path d="M 116.57777611688842 87.10902102172516 l 1.003798350013742 -0.7805596683907267 a22.27156774235923,22.27156774235923 0 0,0 0.23209945531594878,0.30382563750118596 l -1.0170497826839975 0.7632131176486587" fill="#ff0300" stroke="none" /><path d="M 116.7966241395341 87.39550010848427 l 25.87325809627331 -19.415775227121394 a53.34807277391457,53.34807277391457 0 0,0 0.5433830964493056,0.7372035300788055 l -26.20274321230644 18.968765387773715" fill="#74ff27" stroke="none" /><path d="M 117.01052211995028 87.68569379921539 l 1.5345486739693637 -1.1108948989345875 a22.894446385955543,22.894446385955543 0 0,0 0.22772877035911535,0.3203290347653348 l -1.5533925428584396 1.0843886374597487" fill="#ff0d01" stroke="none" /><path d="M 117.42321728460499 88.27688183743584 l 15.836650435561092 -10.655605180298645 a40.087729534351766,40.087729534351766 0 0,0 0.37925962655388507,0.5742474131254575 l -16.017234501035702 10.382177888834129" fill="#fff316" stroke="none" /><path d="M 117.62189284568427 88.57770195909679 l 1.8733494215279807 -1.2142824618688308 a23.232469473999913,23.232469473999913 0 0,0 0.21405103919335952,0.33652378654456955 l -1.8939181523472302 1.1819450006455894" fill="#ff1101" stroke="none" /><path d="M 117.81537515405839 88.88188828441811 l 9.93856539340654 -6.2023998586040605 a32.71515454806422,32.71515454806422 0 0,0 0.2932400063684871,0.47898551256089117 l -10.04357336423043 6.030877229918615" fill="#ff950d" stroke="none" /><line stroke="#e1ed5e" stroke-width="0.3" x1="172.87174338648825" x2="177.1583165268699" y1="56.24261187166439" y2="53.66864786411523" /><path d="M 173.72905801456457 55.72781907015455 a86.0,86.0 0 0,1 12.242430191666344,42.057860355516425" fill="none" id="id75" stroke="none" /><text fill="#e1ed5e" style="font-size:6.75px; font-family:Arial;" text-anchor="middle"><textPath startOffset="22.145653131862474" xlink:href="#id75">March</textPath></text><path d="M 118.00360718960297 89.18935116829356 l 11.101881388575787 -6.666360790878656 a33.94959986100612,33.94959986100612 0 0,0 0.29572734976918114,0.5022096920820376 l -11.214682448474736 6.474799930503062" fill="#ffa50f" stroke="none" /><path d="M 118.18653347947321 89.5 l 9.804780508633158 -5.660792666004551 a32.3215853320091,32.3215853320091 0 0,0 0.2732969116466337,0.48288945607530975 l -9.900510785301169 5.491646439830124" fill="#ff900d" stroke="none" /><path d="M 118.36410011445183 89.81374322990088 l 31.069865430012847 -17.233930609726695 a56.529493411811856,56.529493411811856 0 0,0 0.4634197702253494,0.8526401811581268 l -31.361130549853538 16.698035595093966" fill="#53ff2b" stroke="none" /><path d="M 119.0197475246899 91.09779779509293 l 11.11993183459337 -5.204689576863742 a33.27769023870195,33.27769023870195 0 0,0 0.23772240521650975,0.5194663574615883 l -11.20763870466493 5.01303423718747" fill="#ff9c0e" stroke="none" /><path d="M 119.16976305983485 91.42560881287824 l 0.9436288943791654 -0.42207320198082154 a22.03372205071653,22.03372205071653 0 0,0 0.15147251986566787,0.3465987684460918 l -0.9507352962618035 0.40581236375888047" fill="#ff0000" stroke="none" /><path d="M 119.83427380445688 93.10060997987247 l 1.0497786502930442 -0.36516750825267247 a22.111477630766608,22.111477630766608 0 0,0 0.12162847699667079,0.3595729802766109 l -1.05589254886208 0.34709285350189995" fill="#ff0100" stroke="none" /><path d="M 119.94978838288452 93.4421083053983 l 10.283769852745309 -3.3804794122213453 a31.82513572389213,31.82513572389213 0 0,0 0.1661503714531562,0.5204636721218587 l -10.34028493997572 3.2034467064080996" fill="#ff890c" stroke="none" /><path d="M 120.16314734710363 94.1308016681162 l 21.365310529035316 -6.21913051363017 a43.252057845234745,43.252057845234745 0 0,0 0.20139292557068844,0.7146724451040463 l -21.468921946680585 5.851450144623111" fill="#e5ff1a" stroke="none" /><path d="M 120.35273937422433 94.82641323984039 l 12.513042762874502 -3.1807665384496087 a33.910984275323344,33.910984275323344 0 0,0 0.13857073518726906,0.5654158869433786 l -12.565801024578061 2.965494826898135" fill="#ffa50f" stroke="none" /><path d="M 120.43855184770803 95.1765574152323 l 2.051944723506911 -0.48425336759182 a23.10831175881364,23.10831175881364 0 0,0 0.08779963267107557,0.38686138166818806 l -2.059955217735653 0.4489576519846057" fill="#ff1001" stroke="none" /><path d="M 120.51834098615036 95.52812308129327 l 10.26929774757568 -2.2381456473361183 a31.51036498733762,31.51036498733762 0 0,0 0.11064983080599991,0.5294994960963734 l -10.306205289206046 2.0615296999543404" fill="#ff850c" stroke="none" /><path d="M 120.592083275326 95.88100663000786 l 19.735258665058165 -3.947604451165834 a41.126202212032396,41.126202212032396 0 0,0 0.13253155181152346,0.6934610815810427 l -19.800116509151845 3.608240804551477" fill="#feff18" stroke="none" /><path d="M 120.7213421655516 96.59031103205396 l 12.337739208035197 -2.0301702916217983 a33.5036554726397,33.5036554726397 0 0,0 0.08851108635884267,0.5683046679929336 l -12.370771786532305 1.8180774416974232" fill="#ff9f0e" stroke="none" /><path d="M 120.77682067341334 96.94652285012252 l 57.59519747900508 -8.464510629861016 a79.21387045068059,79.21387045068059 0 0,0 0.18617327960124308,1.3470571090791328 l -57.73201527516153 7.474565212581796" fill="#47ffff" stroke="none" /><path d="M 120.9064616781168 98.02013634271609 l 6.814008991183637 -0.6452937359635278 a27.844495784030055,27.844495784030055 0 0,0 0.04097964249963803,0.4762455634314624 l -6.824082256381015 0.5282271251564034" fill="#ff5307" stroke="none" /><path d="M 120.93736805541906 98.37931529534042 l 25.984089315183937 -2.0113328478613344 a47.06181799806648,47.06181799806648 0 0,0 0.05543442655441735,0.8060043959169771 l -26.01478770290342 1.5649850277900232" fill="#b9ff1f" stroke="none" /><line stroke="#e1ed5e" stroke-width="0.3" x1="184.99686870605535" x2="189.99668451229388" y1="99.2704041080226" y2="99.22748670261217" /><path d="M 185.99683186730306 99.26182062694052 a86.0,86.0 0 0,1 -10.086455211305974,41.156179273409016" fill="none" id="id76" stroke="none" /><text fill="#e1ed5e" style="font-size:6.75px; font-family:Arial;" text-anchor="middle"><textPath startOffset="21.40746469413373" xlink:href="#id76">April</textPath></text><path d="M 120.99922638620191 99.81974689727618 l 10.016267209750886 -0.0859776074158077 a31.01663621013101,31.01663621013101 0 0,0 0.0,0.5324614202792679 l -10.016267209750886 -0.08597760741580648" fill="#ff7e0b" stroke="none" /><path d="M 120.99303781780057 100.54070618675476 l 13.019025131794006 0.335323905733533 a34.02334279300212,34.02334279300212 0 0,0 -0.0200499769750958,0.5837332031860227 l -13.011350467822064 -0.5587633734836664" fill="#ffa60f" stroke="none" /><path d="M 120.98066250479742 100.90099992219065 l 9.217351111613423 0.39583271655356744 a30.225846576561707,30.225846576561707 0 0,0 -0.026711603323356172,0.5181979684109332 l -9.209197918833494 -0.5540024783412313" fill="#ff730a" stroke="none" /><path d="M 119.58574465831526 107.57618678355244 l 7.915585263703653 3.0619184261392616 a29.487157033735947,29.487157033735947 0 0,0 -0.18666960607365812,0.47052934891756254 l -7.86185698266387 -3.1973487922703883" fill="#ff6909" stroke="none" /><path d="M 118.70294669586154 109.54985784667822 l 10.461264571344127 5.34159622958951 a32.74609325314697,32.74609325314697 0 0,0 -0.25992902466159307,0.49844817771517713 l -10.368027477707585 -5.5203906504091895" fill="#ff950d" stroke="none" /><path d="M 118.5362547648365 109.86951160357373 l 9.079435818370278 4.8342881720259285 a31.286228507577253,31.286228507577253 0 0,0 -0.256479510979837,0.47189341231353193 l -8.995110957775102 -4.989436417814064" fill="#ff820b" stroke="none" /><line stroke="#e1ed5e" stroke-width="0.3" x1="174.33088141563837" x2="178.70328620479359" y1="141.23008692659167" y2="143.65538615756765" /><path d="M 175.20536237346943 141.71514677278685 a86.0,86.0 0 0,1 -30.301960400862466,31.631185727798858" fill="none" id="id77" stroke="none" /><text fill="#e1ed5e" style="font-size:6.75px; font-family:Arial;" text-anchor="middle"><textPath startOffset="22.145653131862474" xlink:href="#id77">May</textPath></text><path d="M 118.36410011445183 110.18625677009912 l 22.524477756391814 12.49394811665357 a46.7575394348882,46.7575394348882 0 0,0 -0.3953609017777763,0.6985648306914031 l -22.306683489592658 -12.878769717444095" fill="#bcff1f" stroke="none" /><path d="M 118.18653347947321 110.5 l 10.05337430056819 5.804318358697107 a32.60863671739422,32.60863671739422 0 0,0 -0.2840465205923443,0.48237309046659904 l -9.95225406984608 -5.976042617457256" fill="#ff930d" stroke="none" /><path d="M 116.79662413953412 112.60449989151573 l 9.31046583246866 6.986747134449316 a32.640421364293566,32.640421364293566 0 0,0 -0.34015674637609356,0.4452761001845609 l -9.189157108738263 -7.145544147874754" fill="#ff940d" stroke="none" /><path d="M 116.1254893667686 113.45245675266167 l 43.790137975624674 36.53129054949269 a78.02728621577306,78.02728621577306 0 0,0 -0.8668661937583925,1.0211661965433458 l -43.15657721835917 -37.27762352848559" fill="#46fff4" stroke="none" /><path d="M 115.6541949942343 113.99807769240083 l 9.17159619376673 8.201297871334846 a33.303636190812774,33.303636190812774 0 0,0 -0.3847399385817504,0.4228965890184476 l -9.0294585543431 -8.357532035910966" fill="#ff9d0e" stroke="none" /><path d="M 115.41159269507618 114.26474011684316 l 8.54301491130673 7.907287062098419 a32.64080291291104,32.64080291291104 0 0,0 -0.3841420962900217,0.40794559422676363 l -8.40601698128045 -8.05277411626968" fill="#ff940d" stroke="none" /><path d="M 114.91283532996324 114.78537596483092 l 2.357180822474738 2.337034098898232 a24.319341773493015,24.319341773493015 0 0,0 -0.29647371386357535,0.2939397657235084 l -2.316715188481198 -2.377153874850402" fill="#ff2103" stroke="none" /><path d="M 114.65682725009322 115.03919595460226 l 11.207338118005865 11.499716221674207 a37.05764306709874,37.05764306709874 0 0,0 -0.45938686187373173,0.4400822219238067 l -11.008278770266822 -11.690410573903595" fill="#ffcd13" stroke="none" /><path d="M 114.39649973595853 115.28858382429668 l 25.78077042152702 27.378284782653214 a58.60609792530386,58.60609792530386 0 0,0 -0.7383537490711272,0.6834092071588038 l -25.306986901141926 -27.816811735944395" fill="#3eff2d" stroke="none" /><path d="M 113.86319453409587 115.77377054828091 l 1.7079994928044437 1.943389889669073 a23.58728168754162,23.58728168754162 0 0,0 -0.3064330695702464,0.2646895870893666 l -1.6743869434713416 -1.972423609223157" fill="#ff1702" stroke="none" /><path d="M 112.45986205192187 116.90419585922612 l 14.16076571542706 19.211798346777893 a44.866723305985516,44.866723305985516 0 0,0 -0.6239016765545066,0.4516566999001393 l -13.828883028498584 -19.452055818051107" fill="#d2ff1c" stroke="none" /><line stroke="#e1ed5e" stroke-width="0.3" x1="143.1302829299769" x2="145.66735839644613" y1="173.24464959558577" y2="177.55315839532614" /><path d="M 143.63769802327073 174.10635135553383 a86.0,86.0 0 0,1 -40.68552437913181,11.842963189579606" fill="none" id="id78" stroke="none" /><text fill="#e1ed5e" style="font-size:6.75px; font-family:Arial;" text-anchor="middle"><textPath startOffset="21.407464694133747" xlink:href="#id78">June</textPath></text><path d="M 109.06512990194946 118.94263497670748 l 9.69005215611846 20.248482138037062 a43.447675596433186,43.447675596433186 0 0,0 -0.6755312589659511,0.3161827387689469 l -9.341032183281003 -20.411841108376542" fill="#e3ff1b" stroke="none" /><path d="M 106.72888874123015 119.89276391827305 l 1.8786681585489517 5.5539485932946056 a26.863082723866757,26.863082723866757 0 0,0 -0.43809500141011115,0.1440105286359169 l -1.7830504194911065 -5.585380043332541" fill="#ff4506" stroke="none" /><path d="M 106.0420521117495 120.11202640906438 l 7.198210253794717 23.960500843876115 a46.018389867200156,46.018389867200156 0 0,0 -0.7585145189929073,0.22079252176978642 l -6.785835722420203 -24.08053705994842" fill="#c5ff1e" stroke="none" /><path d="M 104.29559338865022 120.5559693870025 l 5.147091054171467 24.630693962146466 a46.16274292236143,46.16274292236143 0 0,0 -0.7770805647897918,0.15543787636844753 l -4.723514003850716 -24.715421235177775" fill="#c3ff1e" stroke="none" /><path d="M 103.2317021107853 120.74984581791261 l 2.4323492235532704 15.617426864812547 a36.80570607796719,36.80570607796719 0 0,0 -0.6251272061139769,0.09187217186113524 l -2.1638969118316083 -15.656880109972565" fill="#ffca12" stroke="none" /><path d="M 102.51750503828377 120.84855314841334 l 1.5803872579167437 13.087873605295467 a34.18294577828398,34.18294577828398 0 0,0 -0.5831677261850321,0.0653451600905077 l -1.3554836301309123 -13.113074525892946" fill="#ffa80f" stroke="none" /><path d="M 101.80034050326958 120.92268563240118 l 1.9588972954546149 22.765355900466968 a43.84947937895009,43.84947937895009 0 0,0 -0.7505172596075523,0.05809478249651141 l -1.5678110410718267 -22.79562844995853" fill="#deff1b" stroke="none" /><path d="M 101.08105385017728 120.97215588758144 l 0.9948402095107162 19.299634290809337 a40.32525784566516,40.32525784566516 0 0,0 -0.6916247177684705,0.0297013412589786 l -0.6633897311414161 -19.31386820049415" fill="#fff617" stroke="none" /><path d="M 100.72087961077811 120.9876233191556 l 0.45036841994753674 13.111985151722642 a34.119717463904514,34.119717463904514 0 0,0 -0.5855377096028149,0.015081374354122096 l -0.225217396273978 -13.11778424342681" fill="#ffa70f" stroke="none" /><line stroke="#e1ed5e" stroke-width="0.3" x1="101.45913802915013" x2="101.54496967792366" y1="184.9874750549273" y2="189.98673829345242" /><path d="M 101.47630435890484 185.9873277026323 a86.0,86.0 0 0,1 -42.54439059252881,-10.42667462771756" fill="none" id="id79" stroke="none" /><text fill="#e1ed5e" style="font-size:6.75px; font-family:Arial;" text-anchor="middle"><textPath startOffset="22.145653131862474" xlink:href="#id79">July</textPath></text><path d="M 100.0 121.0 l 3.2749690612705175e-15 26.742151806959185 a47.742151806959185,47.742151806959185 0 0,0 -0.8195575211175538,-0.007034915635709139 l 0.45906459626869833 -26.73821128951791" fill="#b1ff20" stroke="none" /><path d="M 97.84075906011543 120.88869738790638 l -0.3609350994647578 3.4917196733942366 a24.5103248316351,24.5103248316351 0 0,0 -0.4181509251084424,-0.0468546833377666 l 0.4208219261739995 -3.485009229549499" fill="#ff2403" stroke="none" /><path d="M 97.12497278360702 120.80226474461374 l -1.5979470095178163 11.561948544458529 a32.67185027276882,32.67185027276882 0 0,0 -0.55491565455435,-0.08155349164943607 l 1.7961877696798512 -11.53281397951021" fill="#ff940d" stroke="none" /><path d="M 96.05791012581884 120.62667999033965 l -4.7746329591567545 24.98289721015343 a46.43505991555274,46.43505991555274 0 0,0 -0.7816646130823061,-0.15635481441071006 l 5.202794057770018 -24.897252999079857" fill="#c0ff1e" stroke="none" /><path d="M 95.70440661134978 120.55596938700252 l -1.3115357812788713 6.276173494716735 a27.41174545980731,27.41174545980731 0 0,0 -0.4597831893816136,-0.10020760614090772 l 1.4190813872796213 -6.252734430442109" fill="#ff4d07" stroke="none" /><path d="M 95.00130118170881 120.39639698878247 l -3.4792874044477853 14.196679919885035 a35.616810924083815,35.616810924083815 0 0,0 -0.5925869147174949,-0.15063327642808458 l 3.722479612390659 -14.134861411621687" fill="#ffbb11" stroke="none" /><path d="M 94.30408787586889 120.21278271476187 l -2.197053542638772 7.79656794245744 a29.10021703107865,29.10021703107865 0 0,0 -0.47965470299191043,-0.1396204934784044 l 2.3305682580122893 -7.75770375467652" fill="#ff6409" stroke="none" /><path d="M 93.61358852112213 120.00534299687104 l -2.4540888750014656 7.687398447717296 a29.069612574366396,29.069612574366396 0 0,0 -0.47408006343379683,-0.15583953327725605 l 2.5856916760830058 -7.644137993038019" fill="#ff6409" stroke="none" /><path d="M 92.25597844496254 119.51999308798841 l -9.189162953314177 23.16269344787796 a45.91889009452328,45.91889009452328 0 0,0 -0.7302099282929764,-0.29697002088434343 l 9.585427342797596 -23.001536170414326" fill="#c6ff1e" stroke="none" /><line stroke="#e1ed5e" stroke-width="0.3" x1="58.13341422392154" x2="55.67067388415222" y1="173.97424548756322" y2="178.32567169271397" /><path d="M 57.64086615596768 174.84453072859336 a86.0,86.0 0 0,1 -31.369924170532247,-30.572349798747897" fill="none" id="id80" stroke="none" /><text fill="#e1ed5e" style="font-size:6.75px; font-family:Arial;" text-anchor="middle"><textPath startOffset="22.145653131862474" xlink:href="#id80">August</textPath></text><path d="M 89.03521579738668 117.91015095944536 l -8.832552439534645 14.427310617894298 a37.91630202681233,37.91630202681233 0 0,0 -0.552198345878216,-0.34461260824108314 l 9.078914914202574 -14.273562212811667" fill="#ffd814" stroke="none" /><path d="M 88.72937992617639 117.7192867562869 l -12.783543838271454 20.09785420395686 a44.81895750591353,44.81895750591353 0 0,0 -0.6456370758476849,-0.418494152198618 l 13.12666654637615 -19.87544621005435" fill="#d3ff1c" stroke="none" /><path d="M 88.1277618465304 117.32195027204791 l -10.383935654402713 15.150472447450285 a39.36744225676853,39.36744225676853 0 0,0 -0.5541528180492435,-0.38684170467506745 l 10.64248356362572 -14.969985926970088" fill="#ffea16" stroke="none" /><path d="M 87.54013794807813 116.9041958592261 l -15.083132999081041 20.463166712820453 a46.42129211870731,46.42129211870731 0 0,0 -0.6374019444442597,-0.47831830210986703 l 15.432187932436067 -20.201229383446574" fill="#c0ff1e" stroke="none" /><path d="M 86.68645165197938 116.24036423190432 l -8.58932824561302 10.477583854410865 a34.5482959495686,34.5482959495686 0 0,0 -0.455421668086253,-0.3799289531504644 l 8.767924247861165 -10.32859271734853" fill="#ffad10" stroke="none" /><path d="M 86.13680546590413 115.77377054828092 l -12.810952801328217 14.576512613742038 a40.406061724534425,40.406061724534425 0 0,0 -0.5170724720817133,-0.4623693929625521 l 13.0592903002333 -14.354447690896103" fill="#fff717" stroke="none" /><path d="M 85.08716467003676 114.78537596483092 l -44.73850598988974 44.35612789449277 a84.0,84.0 0 0,0 -1.0064527953967621,-1.0327092317290507 l 45.493345586437314 -43.581595970695986" fill="#4dd2ff" stroke="none" /><path d="M 84.3458050057657 113.99807769240083 l -14.265212880083759 12.756041321038662 a40.13668959611754,40.13668959611754 0 0,0 -0.45486133586686867,-0.5175487024727408 l 14.482085279909219 -12.509280340754621" fill="#fff316" stroke="none" /><path d="M 84.1078160697243 113.72728997021213 l -15.292955136195243 13.20969040989163 a41.20817650167534,41.20817650167534 0 0,0 -0.4578138859904442,-0.5393036065401 l 15.517463585692798 -12.945220020901976" fill="#fdff18" stroke="none" /><path d="M 83.8745106332314 113.45245675266167 l -13.728845555691084 11.453091245869913 a38.878884175983714,38.878884175983714 0 0,0 -0.4231377448987608,-0.5161592475415591 l 13.923430119828474 -11.215729716629859" fill="#ffe415" stroke="none" /><path d="M 83.4222238831116 112.89097897827486 l -37.38845158250407 29.073486092582844 a68.36205132078697,68.36205132078697 0 0,0 -0.7124237978837347,-0.9325856205409433 l 37.882027357742096 -28.427379558801032" fill="#3aff8f" stroke="none" /><path d="M 82.98947788004972 112.3143062007846 l -16.917879349398756 12.247239979312042 a41.88562971977795,41.88562971977795 0 0,0 -0.4166321731917319,-0.5860453278706657 l 17.12562662112045 -11.955017424731873" fill="#f5ff19" stroke="none" /><path d="M 82.78059297857968 112.02048342749411 l -3.7453680538927334 2.614557781558842 a25.567679307069415,25.567679307069415 0 0,0 -0.2481407356473898,-0.36204474908527 l 3.789698526355448 -2.549878297403521" fill="#ff3304" stroke="none" /><path d="M 82.576782715395 111.72311816256416 l -4.18320632209903 2.8146479040747474 a26.04196965055936,26.04196965055936 0 0,0 -0.24637633009210894,-0.37304516564627366 l 4.230907091111867 -2.742422860089413" fill="#ff3a05" stroke="none" /><path d="M 82.37810715431573 111.42229804090323 l -4.876632061165486 3.160973984250408 a26.81147974177791,26.81147974177791 0 0,0 -0.24702604720785135,-0.38836597614660245 l 4.930175799999227 -3.0767943334251333" fill="#ff4406" stroke="none" /><path d="M 82.18462484594161 111.11811171558189 l -4.668513395625261 2.913497640628025 a26.503043324114174,26.503043324114174 0 0,0 -0.2375581806202195,-0.38803343485275954 l 4.7178395407008855 -2.8329270896507084" fill="#ff4006" stroke="none" /><path d="M 81.99639281039703 110.81064883170644 l -26.631605492595753 15.991513910126939 a52.06398120413801,52.06398120413801 0 0,0 -0.4535176627403026,-0.7701721397643613 l 26.902196865465825 -15.531990602069019" fill="#82ff25" stroke="none" /><line stroke="#e1ed5e" stroke-width="0.3" x1="26.387840678322732" x2="22.057713659400548" y1="142.50000000000003" y2="145.00000000000006" /><path d="M 25.521815274538298 143.00000000000003 a86.0,86.0 0 0,1 -11.493303480769221,-40.785679425670985" fill="none" id="id81" stroke="none" /><text fill="#e1ed5e" style="font-size:6.75px; font-family:Arial;" text-anchor="middle"><textPath startOffset="21.40746469413373" xlink:href="#id81">September</textPath></text><path d="M 81.63589988554817 110.18625677009913 l -5.127628736252174 2.844209223630813 a26.863625377241085,26.863625377241085 0 0,0 -0.22022371594684276,-0.40518683302812086 l 5.175697801814347 -2.755767557128105" fill="#ff4506" stroke="none" /><path d="M 81.1358732173502 109.22738970284198 l -20.862914036280944 10.205096709099537 a44.225098082189504,44.225098082189504 0 0,0 -0.32773059906409546,-0.6848309043463116 l 21.03502389330495 -9.845453302688123" fill="#d9ff1c" stroke="none" /><path d="M 80.83023694016515 108.57439118712176 l -11.75434828413901 5.257570478221117 a33.87659702399294,33.87659702399294 0 0,0 -0.23288727632520934,-0.5328916639973071 l 11.842869442481186 -5.055016744447961" fill="#ffa40f" stroke="none" /><path d="M 80.16572619554312 106.89939002012753 l -21.792568403242853 7.580586536044211 a44.073390081227195,44.073390081227195 0 0,0 -0.24243424167188415,-0.7167137577612467 l 21.919488066487105 -7.205371103808803" fill="#dbff1b" stroke="none" /><path d="M 80.05021161711548 106.5578916946017 l -24.741852947071596 8.133138499346678 a47.04433199573509,47.04433199573509 0 0,0 -0.24560565282960004,-0.7693562093637277 l 24.87782331567845 -7.707213256291559" fill="#b9ff1f" stroke="none" /><path d="M 79.94057633289273 106.21446072829308 l -23.88502467175005 7.399641698594587 a46.00498152044285,46.00498152044285 0 0,0 -0.2272288562602545,-0.7563709603101229 l 24.008529848013932 -6.988533134693741" fill="#c5ff1e" stroke="none" /><path d="M 79.83685265289637 105.86919833188381 l -10.070800288092322 2.931463190447646 a31.48877947521016,31.48877947521016 0 0,0 -0.1466200161817724,-0.5203027125649482 l 10.119638796348669 -2.758152553979702" fill="#ff840c" stroke="none" /><path d="M 79.48165901384964 104.47187691870673 l -23.79869569855621 5.186814960407088 a45.35735959388826,45.35735959388826 0 0,0 -0.15927407273408042,-0.7621840958959565 l 23.884227482114657 -4.777514413225723" fill="#ccff1d" stroke="none" /><path d="M 79.2786578344484 103.40968896794605 l -2.8498258303305977 0.468937755894986 a23.888149906449335,23.888149906449335 0 0,0 -0.0631085196374854,-0.40520196707001815 l 2.8574558421063507 -0.4199476068935179" fill="#ff1b02" stroke="none" /><path d="M 79.17382384314188 102.69636545807758 l -2.906693046631057 0.3763296089085157 a23.930953503874562,23.930953503874562 0 0,0 -0.049249804012119355,-0.4078590274423257 l 2.912724936902838 -0.3263769045427907" fill="#ff1c02" stroke="none" /><path d="M 79.0935383218832 101.97986365728391 l -23.67232668988178 2.2417939495570667 a44.77823986389152,44.77823986389152 0 0,0 -0.0659015798173569,-0.7658762521273302 l 23.707321892396877 -1.8350966500540744" fill="#d3ff1c" stroke="none" /><line stroke="#e1ed5e" stroke-width="0.3" x1="15.003131293944662" x2="10.003315487706104" y1="100.72959589197737" y2="100.7725132973878" /><path d="M 14.003168132696942 100.73817937305945 a86.0,86.0 0 0,1 10.791469493833604,-42.45332614584628" fill="none" id="id82" stroke="none" /><text fill="#e1ed5e" style="font-size:6.75px; font-family:Arial;" text-anchor="middle"><textPath startOffset="22.145653131862435" xlink:href="#id82">October</textPath></text><path d="M 79.00077361379809 100.18025310272382 l -3.3369088066216324 0.028643348799516587 a24.33703173870724,24.33703173870724 0 0,0 0.0,-0.41779290304666705 l 3.3369088066216324 0.02864334879951536" fill="#ff2103" stroke="none" /><path d="M 79.00077361379809 99.81974689727619 l -1.8759619489593122 -0.01610287710950712 a22.876031059602806,22.876031059602806 0 0,0 0.0067414229982567814,-0.39265409265817036 l 1.8754090943623896 0.048303885736729876" fill="#ff0c01" stroke="none" /><path d="M 79.00696218219943 99.45929381324524 l -2.705054340234805 -0.0696726043161112 a23.705951451045518,23.705951451045518 0 0,0 0.013969931868769294,-0.40671932382658904 l 2.703459721369185 0.11609819270683878" fill="#ff1802" stroke="none" /><path d="M 79.01933749520258 99.09900007780938 l -2.013766615374274 -0.086479803168628 a23.01562266745342,23.01562266745342 0 0,0 0.020339684494060296,-0.3945844453943596 l 2.0119853414236437 0.12103604193969958" fill="#ff0e01" stroke="none" /><path d="M 79.03789590574601 98.7389718711861 l -6.6347491293625565 -0.3991300320869598 a27.646743623165477,27.646743623165477 0 0,0 0.032565282091530826,-0.4734920545138546 l 6.626919886105962 0.5129655107551394" fill="#ff5007" stroke="none" /><line stroke="#e1ed5e" stroke-width="0.3" x1="26.387840678322718" x2="22.05771365940052" y1="57.49999999999999" y2="54.99999999999999" /><path d="M 25.521815274538284 56.99999999999999 a86.0,86.0 0 0,1 29.574782752854787,-30.34633250058573" fill="none" id="id83" stroke="none" /><text fill="#e1ed5e" style="font-size:6.75px; font-family:Arial;" text-anchor="middle"><textPath startOffset="21.40746469413373" xlink:href="#id83">November</textPath></text><line stroke="#e1ed5e" stroke-width="0.3" x1="56.869717070023135" x2="54.33264160355391" y1="26.7553504044142" y2="22.446841604673864" /><path d="M 56.362301976729285 25.89364864446614 a86.0,86.0 0 0,1 42.16139366436587,-11.88097634709845" fill="none" id="id84" stroke="none" /><text fill="#e1ed5e" style="font-size:6.75px; font-family:Arial;" text-anchor="middle"><textPath startOffset="22.145653131862474" xlink:href="#id84">December</textPath></text></svg>