<?xml version="1.0" encoding="utf-8" ?>
<svg baseProfile="full" height="200mm" version="1.1" viewBox="0,0,200,200" width="200mm" xmlns="http://www.w3.org/2000/svg" xmlns:ev="http://www.w3.org/2001/xml-events" xmlns:xlink="http://www.w3.org/1999/xlink"><defs /><rect fill="#1a1a1a" height="200" width="200" x="0" y="0" /><text alignment-baseline="middle" fill="#e1ed5e" style="dominant-baseline: central; font-size:9.0px; font-family:Arial;" text-anchor="middle" x="100.0" y="100.0">2024</text><line stroke="#e1ed5e" stroke-width="0.3" x1="100.0" x2="100.0" y1="15.0" y2="10.0" /><path d="M 100.0 14.0 a86.0,86.0 0 0,1 42.35913384403234,11.155469271406648" fill="none" id="id73" stroke="none" /><text fill="#e1ed5e" style="font-size:6.75px; font-family:Arial;" text-anchor="middle"><textPath startOffset="22.145653131862478" xlink:href="#id73">January</textPath></text><path d="M 100.36049292484886 79.00309439819443 l 0.12428810101433851 -7.23915878659728 a28.240225650463,28.240225650463 0 0,0 0.4846381586697525,0.012482559837433523 l -0.24853957375483238 7.2359585094098025" fill="#ff5407" stroke="none" /><path d="M 101.44090949804482 79.04949213459386 l 1.144151938699743 -16.635718081860485 a37.67501723411314,37.67501723411314 0 0,0 0.6448366341103662,0.0499144337120412 l -1.4295575675853427 16.61362588115339" fill="#ffd113" stroke="none" /><path d="M 102.15924093988457 79.11130261209362 l 4.968402725418051 -48.06478939680309 a69.32089615684892,69.32089615684892 0 0,0 1.1826280172313466,0.13251593605675935 l -5.792766644250195 47.97241770023936" fill="#3bff98" stroke="none" /><path d="M 103.58742460773223 79.30868818359171 l 2.722945082543462 -15.705223641613545 a36.93952570046062,36.93952570046062 0 0,0 0.6238650821453127,0.11368900000619087 l -2.9921448982398284 15.65616646767599" fill="#ffc812" stroke="none" /><path d="M 104.29559338865022 79.4440306129975 l 8.084072742045588 -38.68521453796335 a60.52085596171894,60.52085596171894 0 0,0 1.0151295260998738,0.22124275546097127 l -8.746964684764597 38.540740324368656" fill="#30ff32" stroke="none" /><path d="M 104.64783097203109 79.52079915486377 l 5.9767270214938994 -26.33456203684592 a48.0042667658639,48.0042667658639 0 0,0 0.8020549376873659,0.18928278141184623 l -6.42791411292115 26.228083111787846" fill="#b0ff20" stroke="none" /><path d="M 105.69591212413111 79.78721728523813 l 7.793259376786593 -27.6555282086269 a49.73261443398478,49.73261443398478 0 0,0 0.8197355497338062,0.23861307157360373 l -8.266854938902004 27.517671442750782" fill="#9dff22" stroke="none" /><path d="M 106.72888874123014 80.10723608172694 l 20.186666223690402 -59.67829175481916 a84.0,84.0 0 0,0 1.3619769118199267,0.4737662697256382 l -21.208148907555344 59.32296705252493" fill="#4dd2ff" stroke="none" /><path d="M 107.06938296918511 80.22567764915836 l 7.338450931790588 -20.52695333009925 a42.79928152702219,42.79928152702219 0 0,0 0.6897019604835014,0.2532681132571305 l -7.689742043928214 20.397954367833396" fill="#edff1a" stroke="none" /><path d="M 109.06512990194946 81.05736502329252 l 5.447962316668538 -11.384145913818276 a33.6205812699315,33.6205812699315 0 0,0 0.518460983719954,0.2536052475486407 l -5.642583549650559 11.288946916172414" fill="#ff9d0e" stroke="none" /><path d="M 110.02825361518725 81.54914285379988 l 15.491234331566748 -28.502126355996808 a53.43993754508045,53.43993754508045 0 0,0 0.802250042650554,0.44499457514014173 l -15.9782285623734 28.23199886542352" fill="#75ff27" stroke="none" /><line stroke="#e1ed5e" stroke-width="0.3" x1="143.13028292997686" x2="145.6673583964461" y1="26.7553504044142" y2="22.446841604673864" /><path d="M 143.63769802327073 25.89364864446614 a86.0,86.0 0 0,1 29.32050498858742,28.57503671076993" fill="none" id="id74" stroke="none" /><text fill="#e1ed5e" style="font-size:6.75px; font-family:Arial;" text-anchor="middle"><textPath startOffset="20.669276256404974" xlink:href="#id74">February</textPath></text><path d="M 110.65571695917076 81.90426304109057 l 1.4583343220855036 -2.476570501236593 a23.874046005645674,23.874046005645674 0 0,0 0.35136598041837647,0.2109851756766264 l -1.5006330590613144 2.4511713250240454" fill="#ff1602" stroke="none" /><path d="M 110.96478420261332 82.08984904055464 l 14.74575448832328 -24.086081770204302 a49.24139887595645,49.24139887595645 0 0,0 0.7171326726114957,0.44754382661271674 l -15.157051289724487 23.829402146750038" fill="#a2ff22" stroke="none" /><path d="M 111.8722381534696 82.67804972795209 l 1.670076086857583 -2.4366909215537493 a23.954084762337736,23.954084762337736 0 0,0 0.3371878591517549,0.23538331301675294 l -1.7116590371830989 2.4076627927318697" fill="#ff1702" stroke="none" /><path d="M 112.45986205192187 83.09580414077388 l 0.8232695146945083 -1.1169232101714495 a22.387548251861904,22.387548251861904 0 0,0 0.30739917257335136,0.23067806990055628 l -0.842321676178626 1.1026261130068782" fill="#ff0000" stroke="none" /><path d="M 113.31354834802062 83.75963576809568 l 1.7894218573573835 -2.1828037100518927 a23.822527700520343,23.822527700520343 0 0,0 0.3140327186973,0.26197726289795925 l -1.826628910216576 2.1517642632420633" fill="#ff1502" stroke="none" /><path d="M 113.59037401385872 83.9905735841838 l 7.40790021847184 -8.72648783045968 a32.44677140079228,32.44677140079228 0 0,0 0.42153071683712845,0.3641081934844103 l -7.556610415071829 8.59803550451055" fill="#ff8d0d" stroke="none" /><path d="M 114.39649973595853 84.71141617570332 l 8.509853617667053 -9.0371696420925 a33.41322052225285,33.41322052225285 0 0,0 0.41420860179962965,0.3968024707464052 l -8.663734705331995 8.889755041040514" fill="#ff9a0e" stroke="none" /><path d="M 114.65682725009322 84.96080404539774 l 3.470710707995438 -3.561254939328549 a25.972762769475956,25.972762769475956 0 0,0 0.3166303393111208,0.31392411335627823 l -3.531332967436521 3.5011508157436113" fill="#ff3404" stroke="none" /><path d="M 114.91283532996326 85.21462403516908 l 12.97135344869055 -12.860487846080742 a39.26603837535788,39.26603837535788 0 0,0 0.47046921532184655,0.48274286099593483 l -13.190209465163209 12.635922293017066" fill="#ffe615" stroke="none" /><path d="M 115.16444852881244 85.47280134310134 l 42.723263087380566 -40.92791959840081 a80.16394012814474,80.16394012814474 0 0,0 0.9434309593993669,1.0018909852918951 l -43.41954988051619 40.188487153164424" fill="#48f6ff" stroke="none" /><path d="M 115.41159269507618 85.73525988315684 l 6.407436646477352 -5.9306277025046095 a29.730841272428222,29.730841272428222 0 0,0 0.34346525945696604,0.37752848640074976 l -6.5082996067761965 5.819761640546188" fill="#ff6809" stroke="none" /><line stroke="#e1ed5e" stroke-width="0.3" x1="172.87174338648825" x2="177.1583165268699" y1="56.24261187166439" y2="53.66864786411523" /><path d="M 173.72905801456457 55.72781907015455 a86.0,86.0 0 0,1 12.242430191666344,42.057860355516425" fill="none" id="id75" stroke="none" /><text fill="#e1ed5e" style="font-size:6.75px; font-family:Arial;" text-anchor="middle"><textPath startOffset="22.145653131862474" xlink:href="#id75">March</textPath></text><line stroke="#e1ed5e" stroke-width="0.3" x1="184.99686870605535" x2="189.99668451229388" y1="99.2704041080226" y2="99.22748670261217" /><path d="M 185.99683186730306 99.26182062694052 a86.0,86.0 0 0,1 -10.086455211305974,41.156179273409016" fill="none" id="id76" stroke="none" /><text fill="#e1ed5e" style="font-size:6.75px; font-family:Arial;" text-anchor="middle"><textPath startOffset="21.40746469413373" xlink:href="#id76">April</textPath></text><line stroke="#e1ed5e" stroke-width="0.3" x1="174.33088141563837" x2="178.70328620479359" y1="141.23008692659167" y2="143.65538615756765" /><path d="M 175.20536237346943 141.71514677278685 a86.0,86.0 0 0,1 -30.301960400862466,31.631185727798858" fill="none" id="id77" stroke="none" /><text fill="#e1ed5e" style="font-size:6.75px; font-family:Arial;" text-anchor="middle"><textPath startOffset="22.145653131862474" xlink:href="#id77">May</textPath></text><line stroke="#e1ed5e" stroke-width="0.3" x1="143.1302829299769" x2="145.66735839644613" y1="173.24464959558577" y2="177.55315839532614" /><path d="M 143.63769802327073 174.10635135553383 a86.0,86.0 0 0,1 -40.68552437913181,11.842963189579606" fill="none" id="id78" stroke="none" /><text fill="#e1ed5e" style="font-size:6.75px; font-family:Arial;" text-anchor="middle"><textPath startOffset="21.407464694133747" xlink:href="#id78">June</textPath></text><line stroke="#e1ed5e" stroke-width="0.3" x1="101.45913802915013" x2="101.54496967792366" y1="184.9874750549273" y2="189.98673829345242" /><path d="M 101.47630435890484 185.9873277026323 a86.0,86.0 0 0,1 -42.54439059252881,-10.42667462771756" fill="none" id="id79" stroke="none" /><text fill="#e1ed5e" style="font-size:6.75px; font-family:Arial;" text-anchor="middle"><textPath startOffset="22.145653131862474" xlink:href="#id79">July</textPath></text><line stroke="#e1ed5e" stroke-width="0.3" x1="58.13341422392154" x2="55.67067388415222" y1="173.97424548756322" y2="178.32567169271397" /><path d="M 57.64086615596768 174.84453072859336 a86.0,86.0 0 0,1 -31.369924170532247,-30.572349798747897" fill="none" id="id80" stroke="none" /><text fill="#e1ed5e" style="font-size:6.75px; font-family:Arial;" text-anchor="middle"><textPath startOffset="22.145653131862474" xlink:href="#id80">August</textPath></text><line stroke="#e1ed5e" stroke-width="0.3" x1="26.387840678322732" x2="22.057713659400548" y1="142.50000000000003" y2="145.00000000000006" /><path d="M 25.521815274538298 143.00000000000003 a86.0,86.0 0 0,1 -11.493303480769221,-40.785679425670985" fill="none" id="id81" stroke="none" /><text fill="#e1ed5e" style="font-size:6.75px; font-family:Arial;" text-anchor="middle"><textPath startOffset="21.40746469413373" xlink:href="#id81">September</textPath></text><line stroke="#e1ed5e" stroke-width="0.3" x1="15.003131293944662" x2="10.003315487706104" y1="100.72959589197737" y2="100.7725132973878" /><path d="M 14.003168132696942 100.73817937305945 a86.0,86.0 0 0,1 10.791469493833604,-42.45332614584628" fill="none" id="id82" stroke="none" /><text fill="#e1ed5e" style="font-size:6.75px; font-family:Arial;" text-anchor="middle"><textPath startOffset="22.145653131862435" xlink:href="#id82">October</textPath></text><line stroke="#e1ed5e" stroke-width="0.3" x1="26.387840678322718" x2="22.05771365940052" y1="57.49999999999999" y2="54.99999999999999" /><path d="M 25.521815274538284 56.99999999999999 a86.0,86.0 0 0,1 29.574782752854787,-30.34633250058573" fill="none" id="id83" stroke="none" /><text fill="#e1ed5e" style="font-size:6.75px; font-family:Arial;" text-anchor="middle"><textPath startOffset="21.40746469413373" xlink:href="#id83">November</textPath></text><line stroke="#e1ed5e" stroke-width="0.3" x1="56.869717070023135" x2="54.33264160355391" y1="26.7553504044142" y2="22.446841604673864" /><path d="M 56.362301976729285 25.89364864446614 a86.0,86.0 0 0,1 42.16139366436587,-11.88097634709845" fill="none" id="id84" stroke="none" /><text fill="#e1ed5e" style="font-size:6.75px; font-family:Arial;" text-anchor="middle"><textPath startOffset="22.145653131862474" xlink:href="#id84">December</textPath></text></svg>