<?xml version="1.0" encoding="utf-8" ?>
<svg baseProfile="full" height="200mm" version="1.1" viewBox="0,0,200,200" width="200mm" xmlns="http://www.w3.org/2000/svg" xmlns:ev="http://www.w3.org/2001/xml-events" xmlns:xlink="http://www.w3.org/1999/xlink"><defs /><rect fill="#1a1a1a" height="200" width="200" x="0" y="0" /><text alignment-baseline="middle" fill="#e1ed5e" style="dominant-baseline: central; font-size:9.0px; font-family:Arial;" text-anchor="middle" x="100.0" y="100.0">2024</text><line stroke="#e1ed5e" stroke-width="0.3" x1="100.0" x2="100.0" y1="15.0" y2="10.0" /><path d="M 100.0 14.0 a86.0,86.0 0 0,1 42.35913384403234,11.155469271406648" fill="none" id="id73" stroke="none" /><text fill="#e1ed5e" style="font-size:6.75px; font-family:Arial;" text-anchor="middle"><textPath startOffset="22.145653131862478" xlink:href="#id73">January</textPath></text><path d="M 100.0 79.0 l 0.0 -5.425554742580424 a26.425554742580424,26.425554742580424 0 0,0 0.4536297866622068,0.0038938661372562742 l -0.09313686181335201 5.424755274637603" fill="#ff4406" stroke="none" /><path d="M 100.36049292484886 79.00309439819443 l 0.0680316828465352 -3.962504460412332 a24.96308843058776,24.96308843058776 0 0,0 0.4283983195265972,0.011034021077549267 l -0.13604331644387374 3.960752721984737" fill="#ff2f04" stroke="none" /><path d="M 100.72087961077811 79.0123766808444 l 0.21361747666077596 -6.219239755866596 a27.222907324336955,27.222907324336955 0 0,0 0.46690428284652313,0.02005087887091086 l -0.3203475201081354 6.214656308569854" fill="#ff4f07" stroke="none" /><path d="M 101.08105385017728 79.02784411241856 l 0.2567311011556085 -4.980514776153777 a25.987127258631634,25.987127258631634 0 0,0 0.4453149769462397,0.026789043198448347 l -0.34219043023431056 4.975373755130637" fill="#ff3e05" stroke="none" /><path d="M 101.44090949804482 79.04949213459386 l 0.6262754132263182 -9.105907059750935 a30.127418269918046,30.127418269918046 0 0,0 0.5156537254087448,0.03991485956872084 l -0.7824981334102965 9.09381443318716" fill="#ff770a" stroke="none" /><path d="M 101.80034050326958 79.07731436759882 l 1.0231346587465315 -11.89037561821844 a32.934313422742505,32.934313422742505 0 0,0 0.5628637841446245,0.053303785565765836 l -1.227098006276169 11.87106007714749" fill="#ff9c0e" stroke="none" /><path d="M 102.15924093988457 79.11130261209362 l 3.192982871638673 -30.889212842543696 a52.05380185501518,52.05380185501518 0 0,0 0.8880480185637044,0.0995076327709721 l -3.7227667918031737 30.82984944926575" fill="#80ff26" stroke="none" /><path d="M 103.58742460773223 79.30868818359171 l 1.4904607500822489 -8.596581531943242 a29.724831647824693,29.724831647824693 0 0,0 0.5020173969774199,0.09148429280864925 l -1.6378128806107224 8.569729065203227" fill="#ff710a" stroke="none" /><path d="M 104.29559338865022 79.4440306129975 l 4.8345348942346735 -23.134999590245346 a44.63473997496535,44.63473997496535 0 0,0 0.7486682354102441,0.16316875735517639 l -5.230965546264052 23.048599374756453" fill="#d2ff1c" stroke="none" /><path d="M 104.64783097203109 79.52079915486377 l 3.271486118688718 -14.414771468641392 a35.78134831190751,35.78134831190751 0 0,0 0.5978345056419995,0.14108731551254713 l -3.518452778070602 14.356488009482618" fill="#ffc011" stroke="none" /><path d="M 104.9986988182912 79.60360301121754 l 1.2899393310462806 -5.263392663544893 a26.41915545158453,26.41915545158453 0 0,0 0.439557765344719,0.11173386507335735 l -1.380102389616394 5.240473566636268" fill="#ff4406" stroke="none" /><path d="M 105.69591212413111 79.78721728523813 l 4.265802968549392 -15.137829837995984 a36.727395435055556,36.727395435055556 0 0,0 0.6053723905307641,0.1762150800917542 l -4.52503537146176 15.062371063601715" fill="#ffcc13" stroke="none" /><path d="M 106.72888874123014 80.10723608172694 l 11.049592543863344 -32.666156972005446 a55.48436322023506,55.48436322023506 0 0,0 0.8996240675356056,0.31293594989229956 l -11.608722383443967 32.47166258954456" fill="#5cff2a" stroke="none" /><path d="M 107.06938296918511 80.22567764915836 l 4.016854085805383 -11.235855784761211 a32.93229114473006,32.93229114473006 0 0,0 0.5306973611553074,0.19487942194062813 l -4.209140598614815 11.165245513811861" fill="#ff9c0e" stroke="none" /><path d="M 107.74402155503746 80.48000691201159 l 2.0939891722962893 -5.278220609155882 a26.678415575898967,26.678415575898967 0 0,0 0.4242446601942355,0.17253660997526393 l -2.184288293680965 5.241496742601325" fill="#ff4706" stroke="none" /><path d="M 109.06512990194946 81.05736502329252 l 2.9820557355262087 -6.231349565781973 a27.908138231155768,27.908138231155768 0 0,0 0.4303697394446314,0.21051540566503604 l -3.0885857242329076 6.179240410019715" fill="#ff5808" stroke="none" /><path d="M 109.3889696526874 81.21577127319529 l 2.870792143357629 -5.743507354133218 a27.42100648320388,27.42100648320388 0 0,0 0.4192447016653446,0.2140693319070926 l -2.9689640667365524 5.693380070553291" fill="#ff5207" stroke="none" /><path d="M 110.02825361518725 81.54914285379988 l 8.47945002253211 -15.601232981098866 a38.75667601819515,38.75667601819515 0 0,0 0.5818222553565291,0.3227269972763758 l -8.74601646604474 15.453373068389345" fill="#ffe615" stroke="none" /><line stroke="#e1ed5e" stroke-width="0.3" x1="143.13028292997686" x2="145.6673583964461" y1="26.7553504044142" y2="22.446841604673864" /><path d="M 143.63769802327073 25.89364864446614 a86.0,86.0 0 0,1 29.32050498858742,28.57503671076993" fill="none" id="id74" stroke="none" /><text fill="#e1ed5e" style="font-size:6.75px; font-family:Arial;" text-anchor="middle"><textPath startOffset="20.669276256404974" xlink:href="#id74">February</textPath></text><path d="M 110.65571695917076 81.90426304109057 l 0.7982496898306627 -1.3556024873835275 a22.573168990005573,22.573168990005573 0 0,0 0.3322203388335347,0.1994887680038923 l -0.8214027852216317 1.341699718843714" fill="#ff0d01" stroke="none" /><path d="M 110.96478420261332 82.08984904055464 l 11.410398575474334 -18.63802854829358 a42.85345061582251,42.85345061582251 0 0,0 0.6241010668312907,0.3894852240180548 l -11.728663771095338 18.43940752743398" fill="#e7ff1a" stroke="none" /><path d="M 111.8722381534696 82.67804972795209 l 5.848698030477578 -8.53342521692505 a31.345366817303514,31.345366817303514 0 0,0 0.44123068095971574,0.3080132830114541 l -5.994323802611055 8.43176711810847" fill="#ff870c" stroke="none" /><path d="M 112.45986205192187 83.09580414077388 l 0.4506337297281274 -0.6113712010898911 a21.75950345877473,21.75950345877473 0 0,0 0.29877560881540643,0.2242067868886528 l -0.46106232745430015 0.6035453869372235" fill="#ff0100" stroke="none" /><path d="M 112.7482090630111 83.31218511350987 l 5.692964196228841 -7.452272879469344 a30.377964193236068,30.377964193236068 0 0,0 0.41167935769629405,0.320124358564972 l -5.820053498560361 7.353447469283582" fill="#ff7a0b" stroke="none" /><path d="M 113.31354834802062 83.75963576809568 l 0.9794773537038046 -1.1948031107286692 a22.54496937180823,22.54496937180823 0 0,0 0.2971917217928833,0.2479279043094842 l -0.9998434096585807 1.177813022507315" fill="#ff0d01" stroke="none" /><path d="M 113.59037401385872 83.9905735841838 l 4.05486860052447 -4.776625015595757 a27.26562893149079,27.26562893149079 0 0,0 0.35422014617533937,0.30596692570216627 l -4.13626822646267 4.706313957428871" fill="#ff4f07" stroke="none" /><path d="M 114.13192950727249 84.46653392183569 l 4.044186326150828 -4.445269209608754 a27.009647359581173,27.009647359581173 0 0,0 0.34028326565016925,0.3149611105516184 l -4.119899363114962 4.37519035292476" fill="#ff4c07" stroke="none" /><path d="M 114.39649973595853 84.71141617570332 l 4.658045763534317 -4.9466831812825305 a27.79463500352767,27.79463500352767 0 0,0 0.34455753508330195,0.33007832440303425 l -4.742275784482931 4.865992726573917" fill="#ff5708" stroke="none" /><path d="M 114.65682725009322 84.96080404539774 l 1.8997658521726004 -1.9493271245660606 a23.721945357947156,23.721945357947156 0 0,0 0.2891909372319048,0.28671923467192606 l -1.9329487095344675 1.916427879665475" fill="#ff1e03" stroke="none" /><path d="M 114.91283532996326 85.21462403516908 l 7.10014069496339 -7.039456096407409 a30.998296856041165,30.998296856041165 0 0,0 0.3714086014678691,0.381097944417985 l -7.219936097582071 6.916535459921682" fill="#ff820c" stroke="none" /><path d="M 115.16444852881244 85.47280134310134 l 23.38546860728401 -22.40274992507668 a53.384615887606095,53.384615887606095 0 0,0 0.6282712564215437,0.6672023022516678 l -23.766595697441815 21.998006162880518" fill="#72ff27" stroke="none" /><path d="M 115.41159269507618 85.73525988315684 l 3.5072440099646034 -3.246252695510432 a25.779007962803718,25.779007962803718 0 0,0 0.29781174294246326,0.3273472744323488 l -3.5624534537489443 3.1855678455204117" fill="#ff3b05" stroke="none" /><path d="M 115.6541949942343 86.00192230759917 l 4.556754141964838 -4.074677652085363 a27.11285582021346,27.11285582021346 0 0,0 0.30726474808079746,0.3496108795041095 l -4.626029954004225 3.9958544947699552" fill="#ff4d07" stroke="none" /><path d="M 115.8921839302757 86.27271002978787 l 4.3166514413558525 -3.7286207041021755 a26.704041726812573,26.704041726812573 0 0,0 0.2966761005332522,0.34948370044672955 l -4.3800221053962165 3.6539702212058938" fill="#ff4806" stroke="none" /><path d="M 116.35404254752997 86.82634096563983 l 15.690287081610933 -12.638984615799915 a41.14768078022366,41.14768078022366 0 0,0 0.4383865472276737,0.5538870814635496 l -15.904940059480166 12.367777590421687" fill="#fbff18" stroke="none" /><path d="M 116.57777611688842 87.10902102172516 l 0.6401262795806454 -0.49776606677109786 a21.810883907250926,21.810883907250926 0 0,0 0.22729851501222081,0.2975410525313519 l -0.6485767719471729 0.486704100998864" fill="#ff0200" stroke="none" /><path d="M 116.7966241395341 87.39550010848427 l 16.499481639485154 -12.381518619891255 a41.62849722365693,41.62849722365693 0 0,0 0.42401197542383495,0.5752536785201616 l -16.709595634492818 12.096458632102218" fill="#f5ff19" stroke="none" /><path d="M 117.01052211995028 87.68569379921539 l 0.9785879140865036 -0.7084221832506297 a22.208096144898146,22.208096144898146 0 0,0 0.2209017130982957,0.31072592375218794 l -0.99060472571476 0.6915190327889377" fill="#ff0801" stroke="none" /><path d="M 117.42321728460499 88.27688183743584 l 10.099096222061073 -6.795122646546928 a33.172322550937565,33.172322550937565 0 0,0 0.31383475214810613,0.47518581454995357 l -10.214255413129905 6.620756953657915" fill="#ff9f0e" stroke="none" /><path d="M 117.62189284568427 88.57770195909679 l 1.194642525105609 -0.7743528515119402 a22.423654839290542,22.423654839290542 0 0,0 0.20659907145191514,0.32480805551607644 l -1.2077592881834143 0.7537311213171919" fill="#ff0b01" stroke="none" /><path d="M 117.81537515405839 88.88188828441811 l 6.337863465867603 -3.955295549056622 a28.470801576294637,28.470801576294637 0 0,0 0.2551960444901085,0.41684355994729155 l -6.404827474813113 3.8459148729847756" fill="#ff6008" stroke="none" /><line stroke="#e1ed5e" stroke-width="0.3" x1="172.87174338648825" x2="177.1583165268699" y1="56.24261187166439" y2="53.66864786411523" /><path d="M 173.72905801456457 55.72781907015455 a86.0,86.0 0 0,1 12.242430191666344,42.057860355516425" fill="none" id="id75" stroke="none" /><text fill="#e1ed5e" style="font-size:6.75px; font-family:Arial;" text-anchor="middle"><textPath startOffset="22.145653131862474" xlink:href="#id75">March</textPath></text><path d="M 118.00360718960297 89.18935116829356 l 7.079714794826401 -4.251165317565045 a29.258012359723843,29.258012359723843 0 0,0 0.2548599833305563,0.4328079694095665 l -7.1516484882867255 4.129006179861922" fill="#ff6b09" stroke="none" /><path d="M 118.18653347947321 89.5 l 6.252548302166709 -3.6099104453770883 a28.219820890754175,28.219820890754175 0 0,0 0.23861422072717595,0.4216084644518856 l -6.313595887915262 3.5020452108260844" fill="#ff5d08" stroke="none" /><path d="M 118.36410011445183 89.81374322990088 l 19.813379215569682 -10.990147457010979 a43.65730206946126,43.65730206946126 0 0,0 0.3578955987859781,0.658487591144812 l -19.999120163971 10.648405032391564" fill="#ddff1b" stroke="none" /><path d="M 119.0197475246899 91.09779779509293 l 7.0912256374710925 -3.319051655309393 a28.829532868066863,28.829532868066863 0 0,0 0.20594656196104452,0.4500304053217244 l -7.147156664287188 3.1968322677729843" fill="#ff6509" stroke="none" /><path d="M 119.16976305983485 91.42560881287824 l 0.6017559736529392 -0.26915779298797904 a21.659208744900397,21.659208744900397 0 0,0 0.14889789928977898,0.3407075327182486 l -0.6062877549596886 0.2587881904938811" fill="#ff0000" stroke="none" /><path d="M 119.83427380445688 93.10060997987247 l 0.6694481035818381 -0.2328688012670251 a21.708793793703684,21.708793793703684 0 0,0 0.11941343634534003,0.3530246061778819 l -0.6733469614995431 0.22134252061498155" fill="#ff0100" stroke="none" /><path d="M 119.94978838288452 93.4421083053983 l 6.001380217501885 -1.9727728800505695 a27.317309344276723,27.317309344276723 0 0,0 0.14261623686477937,0.44674333071696465 l -6.034361170143922 1.8694605156422177" fill="#ff5007" stroke="none" /><path d="M 120.16314734710363 94.1308016681162 l 13.624745189957045 -3.965964755632487 a35.19022755047207,35.19022755047207 0 0,0 0.16385492924398792,0.5814633388601756 l -13.690818611275613 3.731493492869298" fill="#ffb911" stroke="none" /><path d="M 120.35273937422433 94.82641323984039 l 7.979618127408469 -2.0283877239332777 a29.233387044094858,29.233387044094858 0 0,0 0.11945663097906602,0.48742381906985693 l -8.013262284903826 1.891108080255326" fill="#ff6a09" stroke="none" /><path d="M 120.43855184770803 95.1765574152323 l 1.3085334736260827 -0.3088103368238313 a22.3444789606867,22.3444789606867 0 0,0 0.08489746310552579,0.37407388707615397 l -1.313641798289275 0.28630211580865106" fill="#ff0a01" stroke="none" /><path d="M 120.51834098615036 95.52812308129327 l 6.548772829693853 -1.4272745580516935 a27.70250238634781,27.70250238634781 0 0,0 0.09727837818393946,0.4655122547794746 l -6.572308918702159 1.3146458519868145" fill="#ff5607" stroke="none" /><path d="M 120.592083275326 95.88100663000786 l 12.585254504206368 -2.5174033714502366 a33.834560789923266,33.834560789923266 0 0,0 0.1090338179837553,0.5705110089969628 l -12.626614614472281 2.3009897974199593" fill="#ffa70f" stroke="none" /><path d="M 120.7213421655516 96.59031103205396 l 7.867826339391476 -1.2946478300878095 a28.97363181434742,28.97363181434742 0 0,0 0.07654351716168015,0.49146428879227283 l -7.888891348691421 1.1593953593640953" fill="#ff6709" stroke="none" /><path d="M 120.77682067341334 96.94652285012252 l 36.72869105975651 -5.397852763844028 a58.12322132336007,58.12322132336007 0 0,0 0.13660474703727693,0.9884038999831415 l -36.815940323349 4.766560555660801" fill="#41ff2d" stroke="none" /><path d="M 120.9064616781168 98.02013634271609 l 4.345321173815168 -0.4115064329736872 a25.36476272527902,25.36476272527902 0 0,0 0.03733013937951209,0.4338328052014556 l -4.3517449358924205 0.3368525803965696" fill="#ff3505" stroke="none" /><path d="M 120.93736805541906 98.37931529534042 l 16.570159157356827 -1.282635115790132 a37.619727053727274,37.619727053727274 0 0,0 0.04431252520764819,0.6442943912567672 l -16.58973564372954 0.9979973003790306" fill="#ffd814" stroke="none" /><line stroke="#e1ed5e" stroke-width="0.3" x1="184.99686870605535" x2="189.99668451229388" y1="99.2704041080226" y2="99.22748670261217" /><path d="M 185.99683186730306 99.26182062694052 a86.0,86.0 0 0,1 -10.086455211305974,41.156179273409016" fill="none" id="id76" stroke="none" /><text fill="#e1ed5e" style="font-size:6.75px; font-family:Arial;" text-anchor="middle"><textPath startOffset="21.40746469413373" xlink:href="#id76">April</textPath></text><path d="M 120.99922638620191 99.81974689727618 l 6.387414229337662 -0.0548282690059939 a27.38764954237687,27.38764954237687 0 0,0 0.0,0.47016274345964076 l -6.387414229337662 -0.05482826900599312" fill="#ff5107" stroke="none" /><path d="M 120.99303781780057 100.54070618675476 l 8.302285136519822 0.21383741488389454 a29.305038526586266,29.305038526586266 0 0,0 -0.017269477349333227,0.5027819903731626 l -8.297390972173643 -0.35632566982116787" fill="#ff6b09" stroke="none" /><path d="M 120.98066250479742 100.90099992219065 l 5.877942192856608 0.25242412898991734 a26.883359785314873,26.883359785314873 0 0,0 -0.023757734651549418,0.46089370531023965 l -5.872742868748486 -0.35328962767688765" fill="#ff4a06" stroke="none" /><path d="M 119.58574465831526 107.57618678355244 l 5.047800831201435 1.9525978006211269 a26.41229446745725,26.41229446745725 0 0,0 -0.16720406779469846,0.42146347662384437 l -5.013538088440613 -2.0389622944585355" fill="#ff4406" stroke="none" /><path d="M 118.70294669586154 109.54985784667822 l 6.671190851899339 3.4063575830965687 a28.49053131402472,28.49053131402472 0 0,0 -0.22614960384116464,0.43367168430841935 l -6.611733179083225 -3.5203755105094907" fill="#ff6008" stroke="none" /><path d="M 118.5362547648365 109.86951160357373 l 5.789993050920083 3.0828451769594047 a27.559569644024272,27.559569644024272 0 0,0 -0.22592895603898647,0.41568383220308264 l -5.736218745265758 -3.1817838426370906" fill="#ff5407" stroke="none" /><line stroke="#e1ed5e" stroke-width="0.3" x1="174.33088141563837" x2="178.70328620479359" y1="141.23008692659167" y2="143.65538615756765" /><path d="M 175.20536237346943 141.71514677278685 a86.0,86.0 0 0,1 -30.301960400862466,31.631185727798858" fill="none" id="id77" stroke="none" /><text fill="#e1ed5e" style="font-size:6.75px; font-family:Arial;" text-anchor="middle"><textPath startOffset="22.145653131862474" xlink:href="#id77">May</textPath></text><path d="M 118.36410011445183 110.18625677009912 l 14.363950832852721 7.96744139405844 a37.425687379722234,37.425687379722234 0 0,0 -0.31645492237043554,0.5591455257035501 l -14.225062545460906 -8.212843689861113" fill="#ffd513" stroke="none" /><path d="M 118.18653347947321 110.5 l 6.411077571671924 3.7014373618003553 a28.402874723600714,28.402874723600714 0 0,0 -0.24741107118273067,0.42015808809482075 l -6.346592790359428 -3.8109466181887255" fill="#ff5f08" stroke="none" /><path d="M 117.21940702142032 112.02048342749411 l 5.1073320734628735 3.565314442675026 a27.228668235166303,27.228668235166303 0 0,0 -0.2708408419744335,0.38097156256492376 l -5.04537613295848 -3.652463231949454" fill="#ff4f07" stroke="none" /><path d="M 116.79662413953412 112.60449989151573 l 5.937321828053696 4.455476988465406 a28.423143921858692,28.423143921858692 0 0,0 -0.2962070878415617,0.3877445863598661 l -5.859962762857829 -4.55674248806615" fill="#ff5f08" stroke="none" /><path d="M 116.1254893667686 113.45245675266167 l 27.925148616030285 23.29615216781955 a57.36653174353559,57.36653174353559 0 0,0 -0.6373297013575496,0.7507727856564538 l -27.52112435116562 -23.77209173592556" fill="#49ff2c" stroke="none" /><path d="M 115.6541949942343 113.99807769240083 l 5.848764096146928 5.23000092004372 a28.846078706974303,28.846078706974303 0 0,0 -0.3332440483813362,0.36629358493599945 l -5.758122346923712 -5.329632080537391" fill="#ff6509" stroke="none" /><path d="M 115.41159269507618 114.26474011684316 l 5.447915262564325 5.0425090343772085 a28.423387236959762,28.423387236959762 0 0,0 -0.33450830195570713,0.3552362246497463 l -5.360551126872358 -5.135286718971452" fill="#ff5f08" stroke="none" /><path d="M 114.91283532996324 114.78537596483092 l 1.2769445098963859 1.266030519837528 a22.798171448587315,22.798171448587315 0 0,0 -0.277929337957176,0.27555388780407847 l -1.255023251809245 -1.287764417870268" fill="#ff1001" stroke="none" /><path d="M 114.65682725009322 115.03919595460226 l 7.1469649789554115 7.333415681658298 a31.240024119620372,31.240024119620372 0 0,0 -0.38726846764611733,0.3709944316378294 l -7.020024025443982 -7.455022243601708" fill="#ff850c" stroke="none" /><path d="M 114.39649973595853 115.28858382429668 l 16.44050187413528 17.459243262333775 a44.98156119119005,44.98156119119005 0 0,0 -0.566703901476568,0.5245326708087098 l -16.138368201344743 -17.738893679274863" fill="#ceff1d" stroke="none" /><path d="M 113.86319453409587 115.77377054828091 l 1.0891982048382216 1.2393076157491916 a22.64992002711548,22.64992002711548 0 0,0 -0.29425537929177914,0.2541707882664126 l -1.0677633457835867 -1.257822536480322" fill="#ff0e01" stroke="none" /><path d="M 112.45986205192187 116.90419585922612 l 9.030377738024155 12.25144173589064 a36.21990626447237,36.21990626447237 0 0,0 -0.5036619253190864,0.3646123926309007 l -8.8187348023311 -12.404654899894618" fill="#ffc612" stroke="none" /><line stroke="#e1ed5e" stroke-width="0.3" x1="143.1302829299769" x2="145.66735839644613" y1="173.24464959558577" y2="177.55315839532614" /><path d="M 143.63769802327073 174.10635135553383 a86.0,86.0 0 0,1 -40.68552437913181,11.842963189579606" fill="none" id="id78" stroke="none" /><text fill="#e1ed5e" style="font-size:6.75px; font-family:Arial;" text-anchor="middle"><textPath startOffset="21.407464694133747" xlink:href="#id78">June</textPath></text><path d="M 109.06512990194946 118.94263497670748 l 6.179385566387511 12.912539194748987 a35.31497378390918,35.31497378390918 0 0,0 -0.549082738560868,0.2569984464592769 l -5.956814113955137 -13.016713872778798" fill="#ffbb11" stroke="none" /><path d="M 106.72888874123015 119.89276391827305 l 1.1980343052786426 3.5417755468109298 a24.73891163583901,24.73891163583901 0 0,0 -0.40345308241032174,0.13262304178474385 l -1.1370584852205865 -3.561819509997693" fill="#ff2c04" stroke="none" /><path d="M 106.0420521117495 120.11202640906438 l 4.5903278774444916 15.279708580781538 a36.95432870214391,36.95432870214391 0 0,0 -0.6091128990193393,0.1773038875980207 l -4.327354966043545 -15.356256162682078" fill="#ffcf13" stroke="none" /><path d="M 104.29559338865022 120.5559693870025 l 3.2823208437476454 15.707093450853371 a37.04638323096956,37.04638323096956 0 0,0 -0.6236203176435571,0.12474152903431947 l -3.0122040405731294 -15.761124376550551" fill="#ffd013" stroke="none" /><path d="M 103.2317021107853 120.74984581791261 l 1.5511189663668103 9.959296461742946 a31.079362879701694,31.079362879701694 0 0,0 -0.5278680225189534,0.0775784211765961 l -1.3799258382401713 -9.984455956218426" fill="#ff830c" stroke="none" /><path d="M 102.51750503828377 120.84855314841334 l 1.0078193650079745 8.34619008734654 a29.406817997709165,29.406817997709165 0 0,0 -0.5016860541304126,0.056214968782283645 l -0.8643974092767627 -8.362260816635795" fill="#ff6d0a" stroke="none" /><path d="M 101.80034050326958 120.92268563240118 l 1.249196751322398 14.517559802420179 a35.57120568588477,35.57120568588477 0 0,0 -0.6088282960349719,0.04712716061235993 l -0.9997994605121904 -14.536864730027592" fill="#ffbe11" stroke="none" /><path d="M 101.08105385017728 120.97215588758144 l 0.6344136370443385 12.307455073694522 a33.323795318564684,33.323795318564684 0 0,0 -0.5715415539408415,0.024544453518167385 l -0.4230463225026674 -12.31653209563852" fill="#ffa10e" stroke="none" /><path d="M 100.72087961077811 120.9876233191556 l 0.28720176826120836 8.361566118308486 a29.36649704515198,29.36649704515198 0 0,0 -0.5039664070216008,0.012980386952960287 l -0.14362204716886373 -8.365264222611492" fill="#ff6c0a" stroke="none" /><line stroke="#e1ed5e" stroke-width="0.3" x1="101.45913802915013" x2="101.54496967792366" y1="184.9874750549273" y2="189.98673829345242" /><path d="M 101.47630435890484 185.9873277026323 a86.0,86.0 0 0,1 -42.54439059252881,-10.42667462771756" fill="none" id="id79" stroke="none" /><text fill="#e1ed5e" style="font-size:6.75px; font-family:Arial;" text-anchor="middle"><textPath startOffset="22.145653131862474" xlink:href="#id79">July</textPath></text><path d="M 100.0 121.0 l 2.0884610548564e-15 17.053578683343375 a38.053578683343375,38.053578683343375 0 0,0 -0.6532402800249707,-0.005607282150929741 l 0.2927473551761165 -17.05106579938688" fill="#ffdd14" stroke="none" /><path d="M 97.84075906011543 120.88869738790638 l -0.23016977701475858 2.226683799428241 a23.238548384307833,23.238548384307833 0 0,0 -0.39645417071477373,-0.0444235167528571 l 0.2683598493303316 -2.222404522168413" fill="#ff1702" stroke="none" /><path d="M 97.12497278360702 120.80226474461374 l -1.0190172898328174 7.373101486335148 a28.443186264280627,28.443186264280627 0 0,0 -0.48309383128539235,-0.07099815694921717 l 1.1454362267258946 -7.354522256087049" fill="#ff6008" stroke="none" /><path d="M 96.05791012581884 120.62667999033965 l -3.044802805729155 15.931694890773882 a37.22004088214597,37.22004088214597 0 0,0 -0.6265435838342867,-0.1253262641433097 l 3.3178428750944 -15.87707922996771" fill="#ffd313" stroke="none" /><path d="M 95.70440661134978 120.55596938700252 l -0.8363716877951083 4.002341296058793 a25.08879608812702,25.08879608812702 0 0,0 -0.420819852572244,-0.09171572823171295 l 0.9049539569864887 -3.9873941096933607" fill="#ff3104" stroke="none" /><path d="M 95.00130118170881 120.39639698878247 l -2.2187556910912125 9.053280371888281 a30.32119961747238,30.32119961747238 0 0,0 -0.5044793642572154,-0.12823668164297722 l 2.3738403485738067 -9.013858458410041" fill="#ff790b" stroke="none" /><path d="M 94.30408787586889 120.21278271476187 l -1.4010699562014421 4.9719030026645115 a26.16554125819112,26.16554125819112 0 0,0 -0.4312828631970872,-0.12554015589287792 l 1.4862128317801362 -4.947119152469117" fill="#ff4006" stroke="none" /><path d="M 93.61358852112213 120.00534299687104 l -1.5649824302793804 4.902285173036924 a26.14602467200273,26.14602467200273 0 0,0 -0.4264009024315262,-0.1401664460273371 l 1.64890607035865 -4.874697805607566" fill="#ff4006" stroke="none" /><path d="M 92.25597844496254 119.51999308798841 l -5.859966489967598 14.77094356815202 a36.890877293500026,36.890877293500026 0 0,0 -0.5866449473778665,-0.23858339297271275 l 6.112665898535905 -14.668172918600016" fill="#ffcf13" stroke="none" /><line stroke="#e1ed5e" stroke-width="0.3" x1="58.13341422392154" x2="55.67067388415222" y1="173.97424548756322" y2="178.32567169271397" /><path d="M 57.64086615596768 174.84453072859336 a86.0,86.0 0 0,1 -31.369924170532247,-30.572349798747897" fill="none" id="id80" stroke="none" /><text fill="#e1ed5e" style="font-size:6.75px; font-family:Arial;" text-anchor="middle"><textPath startOffset="22.145653131862474" xlink:href="#id80">August</textPath></text><path d="M 89.03521579738668 117.91015095944536 l -5.632554518786426 9.200354503532088 a31.787594421267634,31.787594421267634 0 0,0 -0.4629422206432219,-0.2889101847399672 l 5.789660868219361 -9.102308521950574" fill="#ff8d0d" stroke="none" /><path d="M 88.72937992617639 117.7192867562869 l -8.152117760441383 12.816483150183505 a36.18944582001073,36.18944582001073 0 0,0 -0.5213251105337977,-0.33791663817671197 l 8.370928503232191 -12.674652670302898" fill="#ffc612" stroke="none" /><path d="M 88.1277618465304 117.32195027204791 l -6.621877887891145 9.661517735651433 a32.71299243227148,32.71299243227148 0 0,0 -0.4604819593035672,-0.3214521704250858 l 6.786754938368477 -9.546420749421218" fill="#ff990e" stroke="none" /><path d="M 87.54013794807813 116.9041958592261 l -9.618575096272696 13.049444418928292 a37.211261102250376,37.211261102250376 0 0,0 -0.5109407579854742,-0.38341947019226963 l 9.841168843168937 -12.882405921472007" fill="#ffd313" stroke="none" /><path d="M 86.68645165197938 116.24036423190432 l -5.477449463715434 6.681597724908036 a29.63980328393261,29.63980328393261 0 0,0 -0.3907170609231031,-0.3259500685558655 l 5.5913408588004305 -6.5865854724403" fill="#ff700a" stroke="none" /><path d="M 86.13680546590413 115.77377054828092 l -8.169596567363557 9.295501221502596 a33.37532427988999,33.37532427988999 0 0,0 -0.4271008035770254,-0.38191617219282137 l 8.327962397763953 -9.153889519426391" fill="#ffa20e" stroke="none" /><path d="M 85.08716467003676 114.78537596483092 l -28.529926745658084 28.286082683156643 a61.175355551270364,61.175355551270364 0 0,0 -0.7329774714757963,-0.7520994575250468 l 29.011291018284687 -27.792160533563855" fill="#31ff3e" stroke="none" /><path d="M 84.3458050057657 113.99807769240083 l -9.096984118602009 8.134579293641664 a33.203544580925694,33.203544580925694 0 0,0 -0.3762893451246641,-0.4281482002695151 l 9.235284527685264 -7.977218815560849" fill="#ff9f0e" stroke="none" /><path d="M 84.1078160697243 113.72728997021213 l -9.752379524226507 8.423873157771467 a33.88683612694656,33.88683612694656 0 0,0 -0.3764753854266775,-0.4434870573987336 l 9.895549473160298 -8.25521931792318" fill="#ffa80f" stroke="none" /><path d="M 83.8745106332314 113.45245675266167 l -8.754940500132816 7.303682745459777 a32.401436962382974,32.401436962382974 0 0,0 -0.3526405466186502,-0.4301641283239245 l 8.879027865990096 -7.152316335437357" fill="#ff950d" stroke="none" /><path d="M 83.4222238831116 112.89097897827486 l -23.84276723553267 18.540280014038572 a51.202972245240176,51.202972245240176 0 0,0 -0.5336032966406534,-0.6985038441985462 l 24.157522509527617 -18.128255256599157" fill="#89ff24" stroke="none" /><path d="M 82.98947788004972 112.3143062007846 l -10.7886002862792 7.8101146141364195 a34.31885079213109,34.31885079213109 0 0,0 -0.3413661793466326,-0.4801742817088901 l 10.921081564155793 -7.623763105718025" fill="#ffae10" stroke="none" /><path d="M 82.78059297857968 112.02048342749411 l -2.388436400563654 1.667314102912178 a23.912827622312605,23.912827622312605 0 0,0 -0.23207998529491894,-0.33861163433967567 l 2.416706122673898 -1.6260677335024514" fill="#ff2003" stroke="none" /><path d="M 82.576782715395 111.72311816256416 l -2.667647640232549 1.7949123856800144 a24.215284498252963,24.215284498252963 0 0,0 -0.22909453497069698,-0.34687832518184314 l 2.698066614123973 -1.7488541821591104" fill="#ff2503" stroke="none" /><path d="M 82.37810715431573 111.42229804090323 l -3.109848046826155 2.0157659318345362 a24.706004204840195,24.706004204840195 0 0,0 -0.22762736782156906,-0.35786803011636276 l 3.143993106273614 -1.9620842270395014" fill="#ff2c04" stroke="none" /><path d="M 82.18462484594161 111.11811171558189 l -2.977129929604976 1.8579492636510835 a24.509313050163996,24.509313050163996 0 0,0 -0.21968751834438494,-0.35884305105759295 l 3.008585412404765 -1.8065690964689336" fill="#ff2904" stroke="none" /><path d="M 81.99639281039703 110.81064883170644 l -16.983082850257126 10.197853287975166 a40.8096268208607,40.8096268208607 0 0,0 -0.3554835059680322,-0.6036887092512487 l 17.155640066354927 -9.904813410430359" fill="#ffff18" stroke="none" /><line stroke="#e1ed5e" stroke-width="0.3" x1="26.387840678322732" x2="22.057713659400548" y1="142.50000000000003" y2="145.00000000000006" /><path d="M 25.521815274538298 143.00000000000003 a86.0,86.0 0 0,1 -11.493303480769221,-40.785679425670985" fill="none" id="id81" stroke="none" /><text fill="#e1ed5e" style="font-size:6.75px; font-family:Arial;" text-anchor="middle"><textPath startOffset="21.40746469413373" xlink:href="#id81">September</textPath></text><path d="M 81.63589988554817 110.18625677009913 l -3.2699096446641627 1.8137637590725488 a24.739257688097023,24.739257688097023 0 0,0 -0.20280848847955293,-0.37314477600625695 l 3.3005634827590455 -1.757364149591705" fill="#ff2c04" stroke="none" /><path d="M 81.1358732173502 109.22738970284198 l -13.304364908621844 6.507831567034494 a35.81073925658875,35.81073925658875 0 0,0 -0.26537589600545003,-0.5545335570499537 l 13.414120062587207 -6.278485507919436" fill="#ffc111" stroke="none" /><path d="M 80.83023694016515 108.57439118712176 l -7.495795580773801 3.3527740206094596 a29.21145815443407,29.21145815443407 0 0,0 -0.20081641973235387,-0.4595072678840542 l 7.552245882523123 -3.2236046829495564" fill="#ff6a09" stroke="none" /><path d="M 80.16572619554312 106.89939002012753 l -13.897209269454947 4.8341707836944305 a35.713994448991386,35.713994448991386 0 0,0 -0.19645176251152638,-0.580774728674745 l 13.97814645353884 -4.594894380545524" fill="#ffc011" stroke="none" /><path d="M 80.05021161711548 106.5578916946017 l -15.777979986442023 5.186535412047273 a37.608576159110854,37.608576159110854 0 0,0 -0.19634413982937504,-0.6150452215149681 l 15.864688842048654 -4.914921156840912" fill="#ffd814" stroke="none" /><path d="M 79.94057633289273 106.21446072829308 l -15.231577119657505 4.718781526873709 a36.94577814502756,36.94577814502756 0 0,0 -0.1824834318824634,-0.607427995217033 l 15.3103368715436 -4.456615928065953" fill="#ffcf13" stroke="none" /><path d="M 79.83685265289637 105.86919833188381 l -6.422190194602304 1.8694059676459618 a27.68873721770532,27.68873721770532 0 0,0 -0.12892602274752674,-0.4575129719845695 l 6.453334709424405 -1.7588850717583966" fill="#ff5507" stroke="none" /><path d="M 79.48165901384964 104.47187691870673 l -15.176524783269592 3.3076529398889383 a36.53278701546996,36.53278701546996 0 0,0 -0.12828625449936204,-0.6138961679263508 l 15.231068748593321 -3.046640320677178" fill="#ffca12" stroke="none" /><path d="M 79.2786578344484 103.40968896794605 l -1.8173454919480319 0.2990435091189823 a22.84178491074556,22.84178491074556 0 0,0 -0.060344197321276175,-0.3874530348089261 l 1.8222111814075757 -0.2678022923786062" fill="#ff1101" stroke="none" /><path d="M 79.17382384314188 102.69636545807758 l -1.8536099464572695 0.2399869181328593 a22.86908093845083,22.86908093845083 0 0,0 -0.04706447463422816,-0.38976136527724353 l 1.857456507351159 -0.20813187593221655" fill="#ff1101" stroke="none" /><path d="M 79.0935383218832 101.97986365728391 l -15.095938753838533 1.4296010951768543 a36.1634800145275,36.1634800145275 0 0,0 -0.05322295989960462,-0.618531470231865 l 15.118255336435878 -1.1702485775693272" fill="#ffc512" stroke="none" /><line stroke="#e1ed5e" stroke-width="0.3" x1="15.003131293944662" x2="10.003315487706104" y1="100.72959589197737" y2="100.7725132973878" /><path d="M 14.003168132696942 100.73817937305945 a86.0,86.0 0 0,1 10.791469493833604,-42.45332614584628" fill="none" id="id82" stroke="none" /><text fill="#e1ed5e" style="font-size:6.75px; font-family:Arial;" text-anchor="middle"><textPath startOffset="22.145653131862435" xlink:href="#id82">October</textPath></text><path d="M 79.00077361379809 100.18025310272382 l -2.127960281717292 0.01826597971745448 a23.12803867600694,23.12803867600694 0 0,0 0.0,-0.3970381648825433 l 2.127960281717292 0.018265979717453695" fill="#ff1502" stroke="none" /><path d="M 79.00077361379809 99.81974689727619 l -1.1963085444459445 -0.010268870051950185 a22.19635261658364,22.19635261658364 0 0,0 0.006541126020374101,-0.38098779785171266 l 1.1959559868269043 0.030803583872715246" fill="#ff0801" stroke="none" /><path d="M 79.00696218219943 99.45929381324524 l -1.7250241254673067 -0.044430502390202235 a22.72559621667031,22.72559621667031 0 0,0 0.01339220792211838,-0.3898995214719632 l 1.7240072305483378 0.07403628842630398" fill="#ff0f01" stroke="none" /><path d="M 79.01933749520258 99.09900007780938 l -1.2841871392053936 -0.05514852127465886 a22.2853707511451,22.2853707511451 0 0,0 0.019694336167251913,-0.3820648602604689 l 1.2830512135815715 0.07718517491183974" fill="#ff0901" stroke="none" /><path d="M 79.03789590574601 98.7389718711861 l -4.2310064327876535 -0.2545268404806914 a25.238655370139874,25.238655370139874 0 0,0 0.02972877901796915,-0.43224992235112214 l 4.226013692604621 0.32712018698613854" fill="#ff3304" stroke="none" /><path d="M 79.17382384314186 97.30363454192245 l -6.817847707221705 -0.8827068837661851 a27.874752272010713,27.874752272010713 0 0,0 0.06551294639470984,-0.47401904487437013 l 6.8016902442717875 0.9996142368406222" fill="#ff5808" stroke="none" /><path d="M 79.22317932658666 96.9465228501225 l -16.24099477073503 -2.386866941927165 a37.41545140839896,37.41545140839896 0 0,0 0.09884540071957766,-0.6346583795257754 l 16.197627877877185 2.6653135033843904" fill="#ffd513" stroke="none" /><path d="M 79.2786578344484 96.59031103205396 l -18.80541764231376 -3.0944243167420393 a40.058310380353504,40.058310380353504 0 0,0 0.11747611217746642,-0.6775709969776623 l 18.74952671264406 3.416788346640294" fill="#fff617" stroke="none" /><path d="M 79.34024301695615 96.23510406497455 l -16.807890819907477 -3.062957607689053 a38.084697923007894,38.084697923007894 0 0,0 0.12273012932209015,-0.6421758974294357 l 16.752834398303225 3.351036070151803" fill="#ffdd14" stroke="none" /><path d="M 79.407916724674 95.88100663000787 l -22.246593143839167 -4.449941680946085 a43.687284709090534,43.687284709090534 0 0,0 0.1534095420150463,-0.7341201934213596 l 22.166925890999757 4.8311783256528535" fill="#ddff1b" stroke="none" /><path d="M 79.64726062577567 94.8264132398404 l -1.9685375467541981 -0.5003945464787202 a23.03114124942769,23.03114124942769 0 0,0 0.1006905255128408,-0.38233832600450657 l 1.9596575404366319 0.5341133768560112" fill="#ff1402" stroke="none" /><path d="M 79.94057633289273 93.78553927170692 l -3.877084828929831 -1.2011307906694142 a25.05887939547506,25.05887939547506 0 0,0 0.1308255888012544,-0.40980929359042256 l 3.8558945243513194 1.2675091179512286" fill="#ff3104" stroke="none" /><path d="M 80.05021161711548 93.44210830539832 l -9.718213549297543 -3.1945698219024963 a31.229806984335553,31.229806984335553 0 0,0 0.17178561848437776,-0.5078536567450345 l 9.6619425092408 3.3609251531216926" fill="#ff850c" stroke="none" /><path d="M 80.28708602549916 92.7611449362534 l -9.082564277109258 -3.335243409178484 a30.67557866208992,30.67557866208992 0 0,0 0.18576154105021211,-0.4927545574344087 l 9.023972052244611 3.490666246807038" fill="#ff7e0b" stroke="none" /><path d="M 80.5471966667186 92.08871423366112 l -15.04825933993756 -6.119996068666463 a37.245136535052914,37.245136535052914 0 0,0 0.24594942162485767,-0.5901890771565267 l 14.940984073776225 6.377417655264254" fill="#ffd313" stroke="none" /><path d="M 80.68587082218212 91.75594674310238 l -8.88537429833713 -3.7926379309448377 a30.660951241818353,30.660951241818353 0 0,0 0.21078107164038354,-0.48230834152025426 l 8.818959344679769 3.944608342240959" fill="#ff7e0b" stroke="none" /><path d="M 80.83023694016515 91.42560881287825 l -6.061376856807717 -2.711176770449009 a27.640088017554174,27.640088017554174 0 0,0 0.1974496474003333,-0.43146311355764283 l 6.013942744552337 2.8148288662213234" fill="#ff5507" stroke="none" /><path d="M 80.9802524753101 91.09779779509293 l -16.293345686146274 -7.626108480369502 a38.98973719103826,38.98973719103826 0 0,0 0.2889338968389364,-0.6037607182044546 l 16.160032531347433 7.904681700639043" fill="#ffe915" stroke="none" /><path d="M 81.1358732173502 90.77261029715801 l -11.88801499652857 -5.815023850830487 a34.23402444245195,34.23402444245195 0 0,0 0.2627544300355087,-0.5256848722857904 l 11.786440653281316 6.0182405792800475" fill="#ffad10" stroke="none" /><path d="M 81.46374523516351 90.13048839642627 l -10.487192053072155 -5.583839074819428 a32.88109658118728,32.88109658118728 0 0,0 0.26955398505705647,-0.4959489720069181 l 10.389792718399747 5.763042880300966" fill="#ff9b0e" stroke="none" /><line stroke="#e1ed5e" stroke-width="0.3" x1="26.387840678322718" x2="22.05771365940052" y1="57.49999999999999" y2="54.99999999999999" /><path d="M 25.521815274538284 56.99999999999999 a86.0,86.0 0 0,1 29.574782752854787,-30.34633250058573" fill="none" id="id83" stroke="none" /><text fill="#e1ed5e" style="font-size:6.75px; font-family:Arial;" text-anchor="middle"><textPath startOffset="21.40746469413373" xlink:href="#id83">November</textPath></text><path d="M 81.99639281039701 89.18935116829357 l -20.276066642418296 -12.175195440058628 a44.650671501913266,44.650671501913266 0 0,0 0.4002231802494623,-0.6537344869978063 l 20.06407549771344 12.521467043180978" fill="#d2ff1c" stroke="none" /><path d="M 82.18462484594161 88.88188828441811 l -17.536410610448847 -10.944017208241096 a41.67116856282054,41.67116856282054 0 0,0 0.38393494696100783,-0.6036095065223822 l 17.34595797186195 11.243440389442151" fill="#f5ff19" stroke="none" /><path d="M 82.78059297857968 87.97951657250589 l -10.873301035491338 -7.590408585887383 a34.260579848148794,34.260579848148794 0 0,0 0.340786564089837,-0.479358980263 l 10.741399372871527 7.775944792859904" fill="#ffad10" stroke="none" /><path d="M 82.98947788004972 87.6856937992154 l -12.771079700495308 -9.245276825575962 a36.76628111819446,36.76628111819446 0 0,0 0.3744872989807321,-0.5080639434355882 l 12.610490381930758 9.463147078280414" fill="#ffcd13" stroke="none" /><path d="M 83.42222388311158 87.10902102172516 l -49.73332835066524 -38.672936934824556 a84.0,84.0 0 0,0 0.8949342774337534,-1.1307202243412684 l 49.06212764258992 39.520977103080504" fill="#4dd2ff" stroke="none" /><path d="M 83.8745106332314 86.54754324733833 l -2.1355576481444425 -1.7815581438218338 a23.781106953780476,23.781106953780476 0 0,0 0.2642029303874166,-0.3112303876675576 l 2.1046601542499115 1.817955313938948" fill="#ff1f03" stroke="none" /><path d="M 85.08716467003674 85.21462403516908 l -22.74867480315529 -22.55424285350543 a53.03429530978656,53.03429530978656 0 0,0 0.646533719500869,-0.6410078234790256 l 22.358149163524445 22.941430687213128" fill="#75ff27" stroke="none" /><path d="M 86.40962598614128 83.9905735841838 l -8.445904955264998 -9.94925480037624 a34.05070808792303,34.05070808792303 0 0,0 0.44886237803322676,-0.3744569600989983 l 8.273868243069863 10.09277394438712" fill="#ffaa0f" stroke="none" /><path d="M 86.68645165197937 83.75963576809568 l -4.501672902609157 -5.491308979407881 a28.100671322446292,28.100671322446292 0 0,0 0.3756781822036781,-0.3026197507201016 l 4.406743950050234 5.567777023921381" fill="#ff5b08" stroke="none" /><path d="M 86.96720088162412 83.53348406188908 l -3.864059734447735 -4.882113245602256 a27.226233803373056,27.226233803373056 0 0,0 0.3689673993083672,-0.28691128138155014 l 3.7796823905041235 4.9477255786046115" fill="#ff4f07" stroke="none" /><path d="M 87.25179093698888 83.31218511350988 l -2.638250418704354 -3.453554487060179 a25.3459640894613,25.3459640894613 0 0,0 0.3480206184938843,-0.26116116021949226 l 2.578576811299717 3.498334674543672" fill="#ff3505" stroke="none" /><path d="M 88.12776184653039 82.6780497279521 l -2.6549270482749905 -3.8736179068893075 a25.696121093012366,25.696121093012366 0 0,0 0.3659907238299641,-0.2462548926398439 l 2.588040036348037 3.918622473586261" fill="#ff3a05" stroke="none" /><path d="M 88.4268655584334 82.4767994020092 l -7.323438362095632 -11.088619088801627 a34.28872539937333,34.28872539937333 0 0,0 0.4939443849954227,-0.32016878268727644 l 7.132008344843183 11.21270171319281" fill="#ffad10" stroke="none" /><path d="M 89.03521579738668 82.08984904055464 l -9.112537108102503 -14.884644532335173 a38.452534927640755,38.452534927640755 0 0,0 0.5659247130221384,-0.3398215298320726 l 8.85567963852293 15.03888006270317" fill="#ffe215" stroke="none" /><line stroke="#e1ed5e" stroke-width="0.3" x1="56.869717070023135" x2="54.33264160355391" y1="26.7553504044142" y2="22.446841604673864" /><path d="M 56.362301976729285 25.89364864446614 a86.0,86.0 0 0,1 42.16139366436587,-11.88097634709845" fill="none" id="id84" stroke="none" /><text fill="#e1ed5e" style="font-size:6.75px; font-family:Arial;" text-anchor="middle"><textPath startOffset="22.145653131862474" xlink:href="#id84">December</textPath></text><path d="M 89.34428304082924 81.90426304109057 l -3.248832894553524 -5.517228517664009 a27.402712369992738,27.402712369992738 0 0,0 0.4073968191888919,-0.23521066322570278 l 3.153643607504232 5.572186078165886" fill="#ff5107" stroke="none" /><path d="M 95.35216902796891 79.52079915486377 l -0.2242912777062828 -0.9882687540919601 a22.013401059585785,22.013401059585785 0 0,0 0.36923558053441125,-0.08047317623153113 l 0.20729328055275317 0.9919733884572054" fill="#ff0500" stroke="none" /><path d="M 95.70440661134978 79.44403061299748 l -0.9467297371281738 -4.530444512181081 a25.6283068905502,25.6283068905502 0 0,0 0.4314141217000086,-0.08629490679714427 l 0.8688191298971885 4.546028815641091" fill="#ff3905" stroke="none" /><path d="M 96.76829788921471 79.25015418208739 l -1.9091013999705413 -12.257800484749453 a33.40557700710827,33.40557700710827 0 0,0 0.5673776500535568,-0.08338497583543188 l 1.6983986443092995 12.28876653388377" fill="#ffa20f" stroke="none" /><path d="M 97.12497278360702 79.19773525538626 l -1.8466424295255914 -13.361384716149853 a34.48839092684843,34.48839092684843 0 0,0 0.5871602211261252,-0.07601964598193353 l 1.6170043865086723 13.39111595833218" fill="#ffb010" stroke="none" /><path d="M 97.84075906011542 79.11130261209362 l -0.9209355464776995 -8.90921600679134 a29.956687564966927,29.956687564966927 0 0,0 0.5119746784097764,-0.04848453434347234 l 0.7678613046829075 8.923712296639994" fill="#ff740a" stroke="none" /><path d="M 98.1996594967304 79.07731436759882 l -0.5464226456964563 -6.35025941902053 a27.373725158538676,27.373725158538676 0 0,0 0.46852216907049926,-0.03626657902734405 l 0.4373314818507399 6.358703765042928" fill="#ff5107" stroke="none" /><path d="M 98.5590905019552 79.04949213459386 l -1.3006906818613038 -18.911757051897986 a39.956432972473856,39.956432972473856 0 0,0 0.6846927654183127,-0.04118941652543995 l 0.9758535643105074 18.931298446248118" fill="#fff417" stroke="none" /><path d="M 98.9189461498227 79.02784411241856 l -0.4696198272868495 -9.11049918941933 a30.12259493031403,30.12259493031403 0 0,0 0.516637272274069,-0.022186627424814993 l 0.3131567944119604 9.117218385269975" fill="#ff760a" stroke="none" /></svg>