<?xml version="1.0" encoding="utf-8" ?>
<svg baseProfile="full" height="200mm" version="1.1" viewBox="0,0,200,200" width="200mm" xmlns="http://www.w3.org/2000/svg" xmlns:ev="http://www.w3.org/2001/xml-events" xmlns:xlink="http://www.w3.org/1999/xlink"><defs /><rect fill="#1a1a1a" height="200" width="200" x="0" y="0" /><text alignment-baseline="middle" fill="#e1ed5e" style="dominant-baseline: central; font-size:9.0px; font-family:Arial;" text-anchor="middle" x="100.0" y="100.0">2021</text><line stroke="#e1ed5e" stroke-width="0.3" x1="100.0" x2="100.0" y1="15.0" y2="10.0" /><path d="M 100.0 14.0 a86.0,86.0 0 0,1 42.46469731375804,11.215312516191453" fill="none" id="id37" stroke="none" /><text fill="#e1ed5e" style="font-size:6.75px; font-family:Arial;" text-anchor="middle"><textPath startOffset="22.20632615414155" xlink:href="#id37">January</textPath></text><path d="M 100.0 79.0 l 0.0 -6.209886356758094 a27.209886356758094,27.209886356758094 0 0,0 0.46837346481866415,0.004031438282474392 l -0.10689298554613576 6.208966295084179" fill="#ff4f07" stroke="none" /><line stroke="#e1ed5e" stroke-width="0.3" x1="143.23703022742887" x2="145.7803849466894" y1="26.81831364943548" y2="22.513508569990506" /><path d="M 143.74570117128098 25.957352633546492 a86.0,86.0 0 0,1 28.547481713284135,27.462654790039103" fill="none" id="id38" stroke="none" /><text fill="#e1ed5e" style="font-size:6.75px; font-family:Arial;" text-anchor="middle"><textPath startOffset="19.985693538727396" xlink:href="#id38">February</textPath></text><path d="M 114.68862486808459 84.99185889309783 l 1.117492278913795 -1.1418006762670454 a22.597653835396088,22.597653835396088 0 0,0 0.27565285299238446,0.27446911203944696 l -1.136980932073502 1.1223957135774796" fill="#ff0e01" stroke="none" /><path d="M 115.19652480421416 85.50635884689758 l 0.5339301734346241 -0.509234343659228 a21.737835379245244,21.737835379245244 0 0,0 0.2559192026369533,0.27299676192272376 l -0.5426166980420403 0.4999681648584495" fill="#ff0100" stroke="none" /><line stroke="#e1ed5e" stroke-width="0.3" x1="172.23445277983987" x2="176.4835382374775" y1="55.19839476539836" y2="52.563006222186495" /><path d="M 173.08426987136738 54.67131705675599 a86.0,86.0 0 0,1 12.851231095245387,41.99856678651699" fill="none" id="id39" stroke="none" /><text fill="#e1ed5e" style="font-size:6.75px; font-family:Arial;" text-anchor="middle"><textPath startOffset="22.20632615414155" xlink:href="#id39">March</textPath></text><path d="M 119.7369772167798 92.82701384747503 l 4.415228823355582 -1.6046213593048821 a25.69777130875135,25.69777130875135 0 0,0 0.14751367434876397,0.41704102178897634 l -4.442195578514156 1.5283827110892911" fill="#ff3a05" stroke="none" /><path d="M 120.45610955862082 95.25157060432595 l 4.275868455236105 -0.9925474541820658 a25.38955595650477,25.38955595650477 0 0,0 0.09515716977632266,0.4265709336613157 l -4.292320012014465 0.9187983509707862" fill="#ff3505" stroke="none" /><path d="M 120.91429891909075 98.10471618934814 l 3.8117060436552594 -0.34542227704842204 a24.82732537324949,24.82732537324949 0 0,0 0.03490664747745459,0.4259495145207728 l -3.817087174952209 0.2797588453198805" fill="#ff2e04" stroke="none" /><line stroke="#e1ed5e" stroke-width="0.3" x1="184.98032266829074" x2="189.97916517819016" y1="98.17113171792111" y2="98.06355123074" /><path d="M 185.9800911702706 98.14961562048488 a86.0,86.0 0 0,1 -9.607161424134198,41.387399972396054" fill="none" id="id40" stroke="none" /><text fill="#e1ed5e" style="font-size:6.75px; font-family:Arial;" text-anchor="middle"><textPath startOffset="21.466115282336823" xlink:href="#id40">April</textPath></text><path d="M 120.99824983174949 100.27111621757518 l 5.562983944325115 0.07182575583687352 a26.56344760953319,26.56344760953319 0 0,0 -0.009838515732239891,0.45715716637195347 l -5.560923365907867 -0.16757273799894185" fill="#ff4606" stroke="none" /><path d="M 120.9904718944345 100.63252640178507 l 20.621665754383613 0.6214128059642693 a41.631026449523404,41.631026449523404 0 0,0 -0.027749789405165454,0.7160987611299794 l -20.607913832127245 -0.9762888141082549" fill="#f5ff19" stroke="none" /><path d="M 120.9764740272857 100.99374915477107 l 27.027610557449197 1.2804184874926792 a48.05792312702977,48.05792312702977 0 0,0 -0.046258380722089064,0.8259744624153819 l -27.001565825839577 -1.7454646662434843" fill="#abff21" stroke="none" /><path d="M 120.8583938346157 102.4346265915055 l 3.9978324053205494 0.46663368040462383 a25.024973407703342,25.024973407703342 0 0,0 -0.05362314449925764,0.4274292219415837 l -3.989207751574444 -0.5353806566336025" fill="#ff3004" stroke="none" /><path d="M 120.81339534386255 102.79330883721812 l 9.326976686639162 1.251748019623287 a30.410598664152097,30.410598664152097 0 0,0 -0.07409462570498179,0.518217639607302 l -9.304048009917578 -1.4121111312109984" fill="#ff7a0b" stroke="none" /><path d="M 120.70491114924044 103.5080841355445 l 1.4450104059950624 0.24483167517258142 a22.4656048657813,22.4656048657813 0 0,0 -0.06788202636837412,0.3807184535794352 l -1.4405819372874995 -0.26966887948523494" fill="#ff0c01" stroke="none" /><path d="M 120.5718875245553 104.21870165774334 l 3.0246923225260027 0.6202772837433075 a24.087637860027584,24.087637860027584 0 0,0 -0.0867911558826898,0.4054593860203635 l -3.01356712791887 -0.67225048917984" fill="#ff2303" stroke="none" /><path d="M 120.49622156327973 104.57218783832717 l 1.1848348422025883 0.2643066400906971 a22.213957002242363,22.213957002242363 0 0,0 -0.08646458446696781,0.37248716689527867 l -1.1801096918050675 -0.2846624643345407" fill="#ff0801" stroke="none" /><path d="M 120.32669344350535 105.2749913415812 l 4.116997188752544 1.0684041939404931 a25.253369649328164,25.253369649328164 0 0,0 -0.11281272312645971,0.4198181101166613 l -4.097996389284307 -1.1391132372327026" fill="#ff3404" stroke="none" /><path d="M 119.79798401119884 107.00284435728193 l 1.1535443720681238 0.4080259733638619 a22.22358073426708,22.22358073426708 0 0,0 -0.1306701454416016,0.3595481196609211 l -1.1463499656212954 -0.42782189003091414" fill="#ff0801" stroke="none" /><path d="M 119.54520255179757 107.68017299344265 l 7.677052509062129 3.016652868809356 a29.248474389715522,29.248474389715522 0 0,0 -0.18816154414334169,0.46700152154785207 l -7.623988350661395 -3.148353758200022" fill="#ff6b09" stroke="none" /><line stroke="#e1ed5e" stroke-width="0.3" x1="174.80103733775053" x2="179.2010983576182" y1="140.37084112569926" y2="142.7455964860345" /><path d="M 175.68104954172406 140.8457921977663 a86.0,86.0 0 0,1 -30.038265399797805,32.042727171017184" fill="none" id="id41" stroke="none" /><text fill="#e1ed5e" style="font-size:6.75px; font-family:Arial;" text-anchor="middle"><textPath startOffset="22.206326154141568" xlink:href="#id41">May</textPath></text><path d="M 118.48025628344425 109.97397251340804 l 10.706912568364416 5.778623955339803 a33.1667773696993,33.1667773696993 0 0,0 -0.27547944741644614,0.5000752154753952 l -10.605856711496461 -5.962069689213004" fill="#ff9f0e" stroke="none" /><path d="M 118.30583269289576 110.29060199501025 l 10.998544995256967 6.182818939142031 a33.617259688494386,33.617259688494386 0 0,0 -0.28790462141918066,0.501985974997101 l -10.890488377685406 -6.371224759997447" fill="#ffa50f" stroke="none" /><path d="M 116.93607887273984 112.41649034213515 l 3.1205559955032744 2.2877995356188436 a24.869353490733204,24.869353490733204 0 0,0 -0.256081785568959,0.34306340005692704 l -3.0807129432392233 -2.3411758151850854" fill="#ff2e04" stroke="none" /><path d="M 116.27256486870786 113.27417163493432 l 2.131849006939432 1.7390331423595298 a23.751184555534852,23.751184555534852 0 0,0 -0.2611544533876043,0.31457736258739494 l -2.101598553658284 -1.7754717620606952" fill="#ff1e03" stroke="none" /><path d="M 116.0416608686014 113.55231037782055 l 3.701219222971276 3.126862741765204 a25.84523418859517,25.84523418859517 0 0,0 -0.29002966802094515,0.33737002707749336 l -3.6468470453795523 -3.190109868004225" fill="#ff3c05" stroke="none" /><path d="M 115.56566222782051 114.09645910891815 l 3.3715547959150167 3.053322346231305 a25.548643654085577,25.548643654085577 0 0,0 -0.29801104923359834,0.3234321360460234 l -3.3184973386856966 -3.1109057370786632" fill="#ff3805" stroke="none" /><path d="M 115.07121518719521 114.62390073753431 l 1.9845475871570155 1.9256461116788337 a23.765238158480123,23.765238158480123 0 0,0 -0.28740023943494986,0.29113492519440265 l -1.9511067226665302 -1.9595215308539011" fill="#ff1e03" stroke="none" /><path d="M 113.75828350139079 115.86535959552629 l 2.017567162747484 2.3265568369687095 a24.079520087910254,24.079520087910254 0 0,0 -0.31548129922098117,0.2688600074167408 l -1.9772203869494556 -2.360941234608397" fill="#ff2303" stroke="none" /><path d="M 113.48314897796784 116.09983520530334 l 2.0784500160500494 2.4818165842078628 a24.2371852011999,24.2371852011999 0 0,0 -0.32215820903092585,0.2651142736132466 l -2.0354216784744326 -2.517225976678288" fill="#ff2503" stroke="none" /><path d="M 112.92097659922987 116.55440617244103 l 0.6992787338377044 0.8959186713788809 a22.136512654273133,22.136512654273133 0 0,0 -0.30239664437386665,0.23186485205145901 l -0.683753360970344 -0.9078228652577114" fill="#ff0701" stroke="none" /><path d="M 112.04921762599082 117.19931262002967 l 2.543016623858928 3.629956671820463 a25.432100967771014,25.432100967771014 0 0,0 -0.3607036277536335,0.24809524424022836 l -2.480156111482411 -3.673192705425786" fill="#ff3605" stroke="none" /><path d="M 111.1453310114006 117.79835938074945 l 1.7356085590325054 2.7716525284324645 a24.270228556011485,24.270228556011485 0 0,0 -0.3559873913165898,0.2186765312146958 l -1.6876419677836068 -2.8011175264755384" fill="#ff2603" stroke="none" /><line stroke="#e1ed5e" stroke-width="0.3" x1="143.8653032363475" x2="146.44561519142675" y1="172.8068346515853" y2="177.08958963109032" /><path d="M 144.38136562736335 173.6633856474863 a86.0,86.0 0 0,1 -40.68145358897372,12.25698825130547" fill="none" id="id42" stroke="none" /><text fill="#e1ed5e" style="font-size:6.75px; font-family:Arial;" text-anchor="middle"><textPath startOffset="21.466115282336833" xlink:href="#id42">June</textPath></text><path d="M 110.8373102113329 117.98757091392108 l 1.0278229736451012 1.7059619282711846 a22.991664169950194,22.991664169950194 0 0,0 -0.3407497422959079,0.2013209539482422 l -0.9983053603208113 -1.7234014545131764" fill="#ff1302" stroke="none" /><path d="M 109.57404056367764 118.69057910512821 l 5.449918381971695 10.639408717483693 a32.95402142493567,32.95402142493567 0 0,0 -0.5070934880765023,0.2542672020096878 l -5.265970986212433 -10.731643760402683" fill="#ff9c0e" stroke="none" /><path d="M 108.2653958097858 119.30500536409082 l 0.8610238911097379 2.0110435385083636 a23.187614740953716,23.187614740953716 0 0,0 -0.36827291915644994,0.15393811007521419 l -0.8262795124558269 -2.025566691603551" fill="#ff1602" stroke="none" /><line stroke="#e1ed5e" stroke-width="0.3" x1="102.19456741930631" x2="102.32365962044197" y1="184.97166512339345" y2="189.96999836594603" /><path d="M 102.22038585953345 185.97133177190398 a86.0,86.0 0 0,1 -42.740103519485714,-10.115201625700543" fill="none" id="id43" stroke="none" /><text fill="#e1ed5e" style="font-size:6.75px; font-family:Arial;" text-anchor="middle"><textPath startOffset="22.20632615414155" xlink:href="#id43">July</textPath></text><line stroke="#e1ed5e" stroke-width="0.3" x1="58.666819895761336" x2="56.23545636021788" y1="174.27360380694188" y2="178.64263932499728" /><path d="M 58.180547188652646 175.14741091055294 a86.0,86.0 0 0,1 -31.652253787137756,-30.449443065178592" fill="none" id="id44" stroke="none" /><text fill="#e1ed5e" style="font-size:6.75px; font-family:Arial;" text-anchor="middle"><textPath startOffset="22.20632615414155" xlink:href="#id44">August</textPath></text><path d="M 83.50135304334701 112.99209946851258 l -0.8463225699477313 0.666449014885687 a22.07722615167152,22.07722615167152 0 0,0 -0.232539615213558,-0.3005887993191084 l 0.8576690023793577 -0.6517822214533259" fill="#ff0601" stroke="none" /><path d="M 82.6465618267979 111.8261652097733 l -7.2817107869409865 4.96240075981798 a29.81185186471577,29.81185186471577 0 0,0 -0.28533760222681886,-0.4265410002148311 l 7.366051494578536 -4.836322845397328" fill="#ff720a" stroke="none" /><path d="M 82.44556493220864 111.52570212397912 l -2.4134459736701595 1.584594393235509 a23.887154457055964,23.887154457055964 0 0,0 -0.22271374621204215,-0.34565667994473387 l 2.4403645832592473 -1.542816113369327" fill="#ff2003" stroke="none" /><path d="M 82.05923443525364 110.91462005526583 l -1.2197171674730778 0.7420390958127929 a22.427701645422886,22.427701645422886 0 0,0 -0.19781139327935957,-0.3315432732262905 l 1.2323094364506693 -0.7209337287003913" fill="#ff0b01" stroke="none" /><line stroke="#e1ed5e" stroke-width="0.3" x1="26.63291911575756" x2="22.317208475507996" y1="142.92168965132927" y2="145.44649492493687" /><path d="M 25.769776987707644 143.4266507060508 a86.0,86.0 0 0,1 -11.730757126820373,-40.83630448921669" fill="none" id="id45" stroke="none" /><text fill="#e1ed5e" style="font-size:6.75px; font-family:Arial;" text-anchor="middle"><textPath startOffset="21.46611528233685" xlink:href="#id45">September</textPath></text><path d="M 81.35079622478065 109.6543875284942 l -2.838816630644834 1.4696089015337621 a24.196659222671844,24.196659222671844 0 0,0 -0.18829763032844907,-0.37152908843885335 l 2.86369293075955 -1.4205256013922236" fill="#ff2503" stroke="none" /><path d="M 81.18737489456691 109.33194174019688 l -8.587052554713138 4.259579602075264 a30.585483293179383,30.585483293179383 0 0,0 -0.22989613965206127,-0.4736541406705337 l 8.659101950979917 -4.111136505439445" fill="#ff7d0b" stroke="none" /><line stroke="#e1ed5e" stroke-width="0.3" x1="15.007084014347285" x2="10.007500721073583" y1="101.09737516637583" y2="101.16192664675087" /><path d="M 14.007167355692545 101.11028546245083 a86.0,86.0 0 0,1 10.666146001902534,-42.60595125391555" fill="none" id="id46" stroke="none" /><text fill="#e1ed5e" style="font-size:6.75px; font-family:Arial;" text-anchor="middle"><textPath startOffset="22.20632615414155" xlink:href="#id46">October</textPath></text><path d="M 79.03285615573316 98.82574320788736 l -62.90143153280056 -3.522770376337934 a84.0,84.0 0 0,0 0.09327763598234728,-1.442963742987953 l 62.831473305813795 4.604993183578899" fill="#4dd2ff" stroke="none" /><path d="M 81.43458229118936 90.18545643968196 l -6.347884103543898 -3.3557868735975394 a28.18031601902276,28.18031601902276 0 0,0 0.23039676294905548,-0.4268902105405566 l 6.289179241376371 3.464558067470569" fill="#ff5c08" stroke="none" /><path d="M 81.6062741919709 89.86733742301443 l -6.842692601630423 -3.7694753077210215 a28.81225870897311,28.81225870897311 0 0,0 0.24304149844762873,-0.43234370643916864 l 6.776793461890364 3.8867025240949746" fill="#ff6509" stroke="none" /><line stroke="#e1ed5e" stroke-width="0.3" x1="26.266209847984243" x2="21.928928074336255" y1="57.711370442889674" y2="55.22380399835377" /><path d="M 25.398753493254645 57.213857153982495 a86.0,86.0 0 0,1 29.58750427330803,-30.492523968695096" fill="none" id="id47" stroke="none" /><text fill="#e1ed5e" style="font-size:6.75px; font-family:Arial;" text-anchor="middle"><textPath startOffset="21.46611528233685" xlink:href="#id47">November</textPath></text><path d="M 82.34701348167596 88.62581576622439 l -5.004366834725163 -3.2244170295194023 a26.953196838401354,26.953196838401354 0 0,0 0.25464785431424264,-0.3878461525056736 l 4.948122345053 3.310081246002743" fill="#ff4b07" stroke="none" /><path d="M 82.7489923806493 88.02491185347247 l -7.776963745050532 -5.398515171650833 a30.467055041055513,30.467055041055513 0 0,0 0.30276618565756763,-0.42824129814535483 l 7.682884939589085 5.531582970127974" fill="#ff7b0b" stroke="none" /><path d="M 83.84228863543731 86.58626213691792 l -1.0668826491253958 -0.8856999523723054 a22.38661566147117,22.38661566147117 0 0,0 0.24869332541734027,-0.2943744553813301 l 1.051478710220931 0.9039333573827514" fill="#ff0b01" stroke="none" /><path d="M 84.5562425177563 85.77008943001954 l -8.501621336359674 -7.833411749396373 a32.56027270363581,32.56027270363581 0 0,0 0.3833315913281974,-0.40891141460664665 l 8.365522423061021 7.97859258088107" fill="#ff970d" stroke="none" /><path d="M 85.83668400450813 84.49514656593479 l -4.106105925403957 -4.495032842478363 a27.088138149352115,27.088138149352115 0 0,0 0.3469719775551484,-0.3115148673172976 l 4.028122960252838 4.565046718564939" fill="#ff4d07" stroke="none" /><path d="M 86.10567301691215 84.25364557470407 l -3.412854028539255 -3.867766261769313 a26.158215629052123,26.158215629052123 0 0,0 0.34018909069662023,-0.2950086271731416 l 3.3457711391958607 3.925939882362135" fill="#ff4006" stroke="none" /><path d="M 86.37877921826538 84.01681056812374 l -2.6271838260034417 -3.082746945830435 a25.050360920663856,25.050360920663856 0 0,0 0.3305961297912395,-0.27686475126444543 l 2.573730159253092 3.127512854488693" fill="#ff3104" stroke="none" /><path d="M 88.09926311788651 82.69761687909137 l -3.9940297132259674 -5.80688683222578 a28.047851306065493,28.047851306065493 0 0,0 0.40014307539431576,-0.27017839070644606 l 3.8934819434251122 5.874777135230892" fill="#ff5a08" stroke="none" /><path d="M 88.39885842347998 82.49532879139004 l -2.2027875372053356 -3.32373080070363 a24.9874126159219,24.9874126159219 0 0,0 0.36057190299800185,-0.23452599566989593 l 2.145248608423046 3.361155720533061" fill="#ff3004" stroke="none" /><line stroke="#e1ed5e" stroke-width="0.3" x1="56.762969772571076" x2="54.21961505331055" y1="26.818313649435495" y2="22.513508569990535" /><path d="M 56.25429882871897 25.957352633546506 a86.0,86.0 0 0,1 42.265352541879196,-11.944610805530505" fill="none" id="id48" stroke="none" /><text fill="#e1ed5e" style="font-size:6.75px; font-family:Arial;" text-anchor="middle"><textPath startOffset="22.20632615414155" xlink:href="#id48">December</textPath></text><path d="M 90.26544431104013 81.39251694778311 l -2.6561135618244665 -5.077128290761574 a26.72993638133613,26.72993638133613 0 0,0 0.4095274618149739,-0.20977587207454287 l 2.568325612420729 5.1220966881486225" fill="#ff4806" stroke="none" /><path d="M 90.58718382345135 81.22770947309562 l -0.2914224885535913 -0.5811935045360032 a21.65016379209366,21.65016379209366 0 0,0 0.3345762011649956,-0.1641750888631745 l 0.2813750203781698 0.5861237535340073" fill="#ff0000" stroke="none" /><path d="M 91.23893434514133 80.91482961587045 l -1.5254819595930291 -3.3231212119273223 a24.656532482859287,24.656532482859287 0 0,0 0.387245967116753,-0.17374597749628504 l 1.4680538740095017 3.3488875199401362" fill="#ff2b04" stroke="none" /><path d="M 92.57280143429618 80.3572730644239 l -2.7637953260719708 -7.309415039277167 a28.814480969381684,28.814480969381684 0 0,0 0.4654467246906768,-0.17142795677006953 l 2.6375662756087244 7.355906263853559" fill="#ff6509" stroke="none" /><path d="M 92.91201910852362 80.23233633223022 l -2.680339622606592 -7.4751968136369875 a28.94120821381252,28.94120821381252 0 0,0 0.47038834226312737,-0.16410925629839185 l 2.551269276280179 7.52022692310759" fill="#ff6709" stroke="none" /><path d="M 95.33964822691252 79.52364482259891 l -1.240247035601136 -5.449318001130844 a26.588674206532893,26.588674206532893 0 0,0 0.4471420833880333,-0.09772794058432814 l 1.1462622280595816 5.4698594398110405" fill="#ff4606" stroke="none" /><path d="M 98.55514903715128 79.0497635885617 l -0.07102486527717086 -1.0298555054519396 a22.032301745420064,22.032301745420064 0 0,0 0.3785757438649797,-0.022836722715445873 l 0.05328707257256815 1.0309254975476918" fill="#ff0600" stroke="none" /><path d="M 98.91598698831166 79.02799685794201 l -0.04902262657772831 -0.9484228210681674 a21.949688930881834,21.949688930881834 0 0,0 0.37749197064716905,-0.016255598331522878 l 0.032689823541235175 0.9491261459238828" fill="#ff0400" stroke="none" /><path d="M 99.27714615592234 79.0124445844662 l -0.05063188590974885 -1.4700613686017436 a22.470933042434634,22.470933042434634 0 0,0 0.3866855563740561,-0.009986947087626727 l 0.025319694340813728 1.47071510783173" fill="#ff0c01" stroke="none" /></svg>