<?xml version="1.0" encoding="utf-8" ?>
<svg baseProfile="full" height="200mm" version="1.1" viewBox="0,0,200,200" width="200mm" xmlns="http://www.w3.org/2000/svg" xmlns:ev="http://www.w3.org/2001/xml-events" xmlns:xlink="http://www.w3.org/1999/xlink"><defs /><rect fill="#1a1a1a" height="200" width="200" x="0" y="0" /><text alignment-baseline="middle" fill="#e1ed5e" style="dominant-baseline: central; font-size:9.0px; font-family:Arial;" text-anchor="middle" x="100.0" y="100.0">2023</text><line stroke="#e1ed5e" stroke-width="0.3" x1="100.0" x2="100.0" y1="15.0" y2="10.0" /><path d="M 100.0 14.0 a86.0,86.0 0 0,1 42.46469731375804,11.215312516191453" fill="none" id="id61" stroke="none" /><text fill="#e1ed5e" style="font-size:6.75px; font-family:Arial;" text-anchor="middle"><textPath startOffset="22.20632615414155" xlink:href="#id61">January</textPath></text><path d="M 100.36148047927253 79.00311137660856 l 0.026708032173652384 -1.5513578438003157 a22.55158772826526,22.55158772826526 0 0,0 0.38807348281244497,0.010022793132748153 l -0.05340815018096517 1.5506682585252078" fill="#ff0000" stroke="none" /><path d="M 100.72285384407766 79.0124445844662 l 0.3506099654124479 -10.179714943234883 a31.185751011749996,31.185751011749996 0 0,0 0.5363342798436758,0.02309568229919551 l -0.5257850776454551 10.172171534411492" fill="#ff7a0b" stroke="none" /><path d="M 101.44485096284872 79.0497635885617 l 0.7089836888511223 -10.280213167453066 a31.304631999219204,31.304631999219204 0 0,0 0.5372617376628661,0.041701851069750516 l -0.8858356158763295 10.266486054194852" fill="#ff7c0b" stroke="none" /><path d="M 102.16513564639614 79.11191278185805 l 0.5865877826635393 -5.659089667553676 a26.68940955567297,26.68940955567297 0 0,0 0.4565583131458781,0.05129964614987499 l -0.6839127993191426 5.6481540679332" fill="#ff3c05" stroke="none" /><path d="M 102.52436894288641 79.15227682838746 l 0.7189669228604074 -5.93765163352129 a26.981021681721728,26.981021681721728 0 0,0 0.46058566108131926,0.05979723770533874 l -0.8210673124495728 5.924396072651815" fill="#ff4006" stroke="none" /><path d="M 107.76421540070413 80.48803036053334 l 2.554711004673134 -6.4201520679440325 a27.909768512253073,27.909768512253073 0 0,0 0.44484998652881985,0.18146547902307034 l -2.6648448607903417 6.375225702737383" fill="#ff4d07" stroke="none" /><path d="M 108.43124777332544 80.76684994638697 l 1.0759982862415374 -2.4545401882492115 a23.680026090866505,23.680026090866505 0 0,0 0.3719093352352839,0.16686487782315915 l -1.1180897399436016 2.4356549799095215" fill="#ff1101" stroke="none" /><path d="M 109.08828744355905 81.06846463323043 l 1.7431309821028393 -3.6310631724108977 a25.027794108790257,25.027794108790257 0 0,0 0.3867732529356896,0.18978795547774763 l -1.8053755020489608 3.600520056798318" fill="#ff2403" stroke="none" /><line stroke="#e1ed5e" stroke-width="0.3" x1="143.23703022742887" x2="145.7803849466894" y1="26.81831364943548" y2="22.513508569990506" /><path d="M 143.74570117128098 25.957352633546492 a86.0,86.0 0 0,1 28.547481713284135,27.462654790039103" fill="none" id="id62" stroke="none" /><text fill="#e1ed5e" style="font-size:6.75px; font-family:Arial;" text-anchor="middle"><textPath startOffset="19.985693538727396" xlink:href="#id62">February</textPath></text><path d="M 111.60114157652 82.49532879139004 l 4.90820211976054 -7.4058629286707705 a29.884663964758705,29.884663964758705 0 0,0 0.4263478587180805,0.2878719773822801 l -5.034954672885163 7.3202790389898205" fill="#ff6909" stroke="none" /><path d="M 112.19680574252982 82.90503203632743 l 4.727915636060341 -6.626617496380165 a29.140346780391827,29.140346780391827 0 0,0 0.40582051900001825,0.2948458657907191 l -4.841281471414148 6.54425239577277" fill="#ff5e08" stroke="none" /><path d="M 112.48926042617603 83.11751280151076 l 12.365506809561733 -16.71520196485934 a41.791915144674746,41.791915144674746 0 0,0 0.5746464876108628,0.43281182079743297 l -12.65139945093098 16.49987355455606" fill="#fbff18" stroke="none" /><path d="M 113.06298171725822 83.55741782278167 l 3.21944862326772 -4.052371020582167 a26.175573429709463,26.175573429709463 0 0,0 0.3503745110341398,0.283311821008956 l -3.288726532866351 3.996353102309084" fill="#ff3505" stroke="none" /><path d="M 113.6212207817346 84.01681056812373 l 5.860673837696258 -6.876935749543866 a30.035471384228487,30.035471384228487 0 0,0 0.3906130236000218,0.33873576490128376 l -5.978180659943045 6.775034991222909" fill="#ff6b09" stroke="none" /><path d="M 114.42810811169701 84.74124197986012 l 3.4023224896623065 -3.598199789905152 a25.95205412447556,25.95205412447556 0 0,0 0.32194976010015597,0.3097154141358922 l -3.463755493374883 3.5391012890069584" fill="#ff3104" stroke="none" /><path d="M 114.68862486808459 84.99185889309783 l 1.8585014929264123 -1.898928790388885 a23.657058213546986,23.657058213546986 0 0,0 0.28857578036516135,0.28733654425518973 l -1.890913073458894 1.8666563954835764" fill="#ff1001" stroke="none" /><path d="M 114.94478906791727 85.2469230424477 l 1.824741083782368 -1.8013332616677982 a23.564075182679712,23.564075182679712 0 0,0 0.2824723722031987,0.2911126095779094 l -1.8554777196886758 1.7696564565397743" fill="#ff0f01" stroke="none" /><path d="M 115.19652480421416 85.50635884689758 l 9.450223677524386 -9.013123234636351 a34.05921582630382,34.05921582630382 0 0,0 0.40097862572967075,0.42773604050225195 l -9.603969625224519 8.849117777256044" fill="#ffa10e" stroke="none" /><path d="M 115.4437574822437 85.77008943001954 l 12.164714871189268 -11.208593823449892 a37.541247334962755,37.541247334962755 0 0,0 0.43379154309690554,0.47900345646798764 l -12.35585005490221 10.997537579712356" fill="#ffce13" stroke="none" /><path d="M 115.68641384162765 86.03803664274999 l 13.27929678436735 -11.819467278197656 a38.777500663133,38.777500663133 0 0,0 0.43949336514004955,0.5024168904651602 l -13.480782013085248 11.589134831529549" fill="#ffde14" stroke="none" /><path d="M 115.9244219780498 86.31012108654704 l 13.152334709482055 -11.306775834639383 a38.344367618481556,38.344367618481556 0 0,0 0.425968285616191,0.5042120928559605 l -13.345013608585363 11.078704792154317" fill="#ffd814" stroke="none" /><path d="M 117.04232023915458 87.72973835380427 l 13.256220844012862 -9.544316496417418 a37.33466768713177,37.33466768713177 0 0,0 0.37101304714857886,0.5247716438171525 l -13.418546510965324 9.314718352268473" fill="#ffcc13" stroke="none" /><path d="M 117.2510076193507 88.02491185347247 l 4.947975175175629 -3.434723360917994 a27.023270116821102,27.023270116821102 0 0,0 0.26196555492428597,0.3844021269997407 l -5.006365195768648 3.349043210647847" fill="#ff4106" stroke="none" /><line stroke="#e1ed5e" stroke-width="0.3" x1="172.23445277983987" x2="176.4835382374775" y1="55.19839476539836" y2="52.563006222186495" /><path d="M 173.08426987136738 54.67131705675599 a86.0,86.0 0 0,1 12.851231095245387,41.99856678651699" fill="none" id="id63" stroke="none" /><text fill="#e1ed5e" style="font-size:6.75px; font-family:Arial;" text-anchor="middle"><textPath startOffset="22.20632615414155" xlink:href="#id63">March</textPath></text><path d="M 117.84615892207809 88.93136811851018 l 21.64203348171259 -13.422927747191668 a46.466695948432275,46.466695948432275 0 0,0 0.41573133688323577,0.6833530086411346 l -21.869880616882053 13.048406965343451" fill="#c3ff1e" stroke="none" /><path d="M 118.03404312379186 89.2402003453031 l 18.474241705518736 -11.022438959435735 a42.51259554792063,42.51259554792063 0 0,0 0.369536334782326,0.6316573831058747 l -18.66123771477139 10.702802163975965" fill="#f2ff19" stroke="none" /><path d="M 118.21658344932153 89.55222093294921 l 16.57071727903335 -9.503823458198992 a40.10265247200681,40.10265247200681 0 0,0 0.33827992615814456,0.6017622423468355 l -16.73185484648393 9.217177705917363" fill="#ffee16" stroke="none" /><path d="M 118.56541770881063 90.18545643968196 l 18.040645461936155 -9.537124535495819 a41.40641156815264,41.40641156815264 0 0,0 0.32768357187222874,0.6329803612710385 l -18.2021384669685 9.225171451964435" fill="#ffff18" stroke="none" /><path d="M 118.73160827565052 90.50648371742162 l 6.233744642521779 -3.1593740053888184 a27.988649109384127,27.988649109384127 0 0,0 0.214099820494432,0.4316121735686408 l -6.287204475969618 3.0516022433212275" fill="#ff4e07" stroke="none" /><path d="M 118.89224826269711 90.83032412892265 l 32.454341619210396 -15.75226987912179 a57.07517562370417,57.07517562370417 0 0,0 0.42138277692847925,0.8875395942175595 l -32.720682589980626 15.19128786926369" fill="#50ff2b" stroke="none" /><path d="M 119.47837535516314 92.15188598940014 l 49.82557390726604 -20.075431217323825 a74.71788113607917,74.71788113607917 0 0,0 0.47038980120771845,1.1970907362053493 l -50.16375725835546 19.214791476222693" fill="#41ffd2" stroke="none" /><path d="M 119.61058180528143 92.48833698450437 l 21.12459655219722 -8.09159321299031 a43.62128334594688,43.62128334594688 0 0,0 0.26254905040943605,0.703500923921899 l -21.260750191108283 7.726769152039077" fill="#e5ff1a" stroke="none" /><path d="M 119.7369772167798 92.82701384747503 l 19.272485184481553 -7.004176365745616 a41.50578386086546,41.50578386086546 0 0,0 0.2382568749048219,0.6735842693717554 l -19.390195140196187 6.671394469947247" fill="#feff18" stroke="none" /><path d="M 120.28053869075195 94.5502522615342 l 7.654310894366184 -2.0568518480777875 a28.92585104531708,28.92585104531708 0 0,0 0.12507492279466811,0.4819646987999033 l -7.688582149031156 1.924790723729034" fill="#ff5b08" stroke="none" /><path d="M 120.37134235888165 94.90015583598534 l 27.55221725982422 -6.897533403679544 a49.40247600100088,49.40247600100088 0 0,0 0.19941474051366265,0.8267028409211177 l -27.666864800598706 6.4222453310990195" fill="#a2ff22" stroke="none" /><path d="M 120.83666639777658 97.38593545837742 l 18.930201058642236 -2.3748888813837903 a40.078590338899254,40.078590338899254 0 0,0 0.07998474158176379,0.68526042001404 l -18.96827615322759 2.048684723044898" fill="#ffee16" stroke="none" /><line stroke="#e1ed5e" stroke-width="0.3" x1="184.98032266829074" x2="189.97916517819016" y1="98.17113171792111" y2="98.06355123074" /><path d="M 185.9800911702706 98.14961562048488 a86.0,86.0 0 0,1 -9.607161424134198,41.387399972396054" fill="none" id="id64" stroke="none" /><text fill="#e1ed5e" style="font-size:6.75px; font-family:Arial;" text-anchor="middle"><textPath startOffset="21.466115282336823" xlink:href="#id64">April</textPath></text><path d="M 120.99513854157772 99.54816195383933 l 46.34875599602579 -0.9974752636068142 a67.35948812574017,67.35948812574017 0 0,0 0.014969821506531105,1.1594291730029462 l -46.359058824650035 0.19950983254340518" fill="#38ff82" stroke="none" /><path d="M 120.9764740272857 100.99374915477107 l 9.684740473791447 0.4588093617396531 a30.695602305948512,30.695602305948512 0 0,0 -0.029546196871828082,0.527567193158877 l -9.675407926032088 -0.6254482712339535" fill="#ff740a" stroke="none" /><path d="M 120.89721153311464 102.0752229133903 l 20.908063927310405 2.0763006235462456 a42.01090577456948,42.01090577456948 0 0,0 -0.0776555559059503,0.7189940026824632 l -20.8692260699034 -2.4358909481135003" fill="#f8ff18" stroke="none" /><path d="M 120.8583938346157 102.4346265915055 l 21.84053649913633 2.5492639248808975 a42.988810361836435,42.988810361836435 0 0,0 -0.09211578978838554,0.7342534781474667 l -21.793419200101095 -2.9248351573157594" fill="#ecff1a" stroke="none" /><path d="M 120.81339534386255 102.79330883721812 l 19.638155492494224 2.6355831125853917 a40.81422341376836,40.81422341376836 0 0,0 -0.09944278442790033,0.6955026026771526 l -19.58987865704972 -2.9732311872429533" fill="#fff717" stroke="none" /><path d="M 120.70491114924044 103.5080841355445 l 18.14883372459774 3.0750016365190715 a39.4074930565705,39.4074930565705 0 0,0 -0.11907360156824366,0.667827993306873 l -18.093213680690308 -3.386948380559163" fill="#ffe615" stroke="none" /><path d="M 120.64145759157962 103.86396538481128 l 11.856977406191316 2.2195598379012833 a33.06293327035161,33.06293327035161 0 0,0 -0.10953288017330981,0.5585057962155129 l -11.817014593042343 -2.4233293611847415" fill="#ff940d" stroke="none" /><path d="M 120.49622156327973 104.57218783832717 l 36.48620308223918 8.139147670916127 a58.38300068436694,58.38300068436694 0 0,0 -0.22724730643887145,0.978975448524085 l -36.34069520986976 -8.765991776788779" fill="#43ff2d" stroke="none" /><path d="M 120.32669344350535 105.2749913415812 l 18.419171385442336 4.779969248188414 a40.029292696785255,40.029292696785255 0 0,0 -0.17882023574111774,0.6654566199532163 l -18.33416307335944 -5.096316801317179" fill="#ffee16" stroke="none" /><path d="M 119.67450827220406 107.3425965602758 l 16.505389766233133 6.159870246656891 a38.617374741740676,38.617374741740676 0 0,0 -0.2377832124375378,0.6207769344564124 l -16.39691227420209 -6.4430707479464475" fill="#ffdc14" stroke="none" /><path d="M 119.54520255179757 107.68017299344265 l 16.84720256114137 6.6200096817741 a39.101181241093386,39.101181241093386 0 0,0 -0.2515460650056997,0.6243167042014921 l -16.73075388187828 -6.909025753818406" fill="#ffe215" stroke="none" /><path d="M 119.41010516605496 108.01547362559984 l 16.923851937313305 6.9887662991298685 a39.31009608876908,39.31009608876908 0 0,0 -0.2636565934923375,0.6232063041172446 l -16.801044362628655 -7.279047128913277" fill="#ffe515" stroke="none" /><path d="M 119.26925614724726 108.34839909993367 l 8.198009529813932 3.5517850225745944 a29.934345924437068,29.934345924437068 0 0,0 -0.20891167942687328,0.4710406860349316 l -8.135656765655785 -3.6923740451022136" fill="#ff6909" stroke="none" /><path d="M 118.81262510543309 109.33194174019688 l 18.890417147421303 9.370530230618416 a42.08683705078887,42.08683705078887 0 0,0 -0.3275184235870693,0.6462249214181843 l -18.726320054047964 -9.694309363739293" fill="#f7ff18" stroke="none" /><path d="M 118.64920377521936 109.65438752849418 l 6.694319222420145 3.4655394831692607 a28.538161165766418,28.538161165766418 0 0,0 -0.22959289280142847,0.434303228839568 l -6.633673821393823 -3.5802577270949634" fill="#ff5608" stroke="none" /><line stroke="#e1ed5e" stroke-width="0.3" x1="174.80103733775053" x2="179.2010983576182" y1="140.37084112569926" y2="142.7455964860345" /><path d="M 175.68104954172406 140.8457921977663 a86.0,86.0 0 0,1 -30.038265399797805,32.042727171017184" fill="none" id="id65" stroke="none" /><text fill="#e1ed5e" style="font-size:6.75px; font-family:Arial;" text-anchor="middle"><textPath startOffset="22.206326154141568" xlink:href="#id65">May</textPath></text><path d="M 118.12598468904814 110.60418214915192 l 19.591310505424588 11.461436644909014 a43.6976645777759,43.6976645777759 0 0,0 -0.38541157938705944,0.6459719758853385 l -19.3911180503393 -11.796970714680457" fill="#e4ff1a" stroke="none" /><path d="M 117.55443506779139 111.5257021239791 l 22.75586832332333 14.940803213219834 a48.22236477245484,48.22236477245484 0 0,0 -0.46154978900070776,0.6899543106583321 l -22.4953154289119 -15.330294438083973" fill="#afff20" stroke="none" /><path d="M 117.35343817320211 111.8261652097733 l 16.889176592209417 11.509776370710346 a41.4381808893697,41.4381808893697 0 0,0 -0.40676328654218924,0.5859728521034854 l -16.68855239850509 -11.79879048500085" fill="#ffff18" stroke="none" /><path d="M 116.498646956653 112.99209946851258 l 14.829916022607183 11.678033027896685 a39.87598645470554,39.87598645470554 0 0,0 -0.42929744174058054,0.5356145660706256 l -14.626700668811747 -11.93157542754556" fill="#ffec16" stroke="none" /><path d="M 116.0416608686014 113.55231037782055 l 19.75872201454171 16.69255668746046 a46.86597271343214,46.86597271343214 0 0,0 -0.5259198817224605,0.6117636376582235 l -19.46845962324847 -17.03019742428021" fill="#bfff1e" stroke="none" /><path d="M 115.80600337817218 113.82643327865902 l 18.43567426803289 16.12675982127524 a45.493804687106234,45.493804687106234 0 0,0 -0.5206682548749116,0.5849763039182247 l -18.155347163509646 -16.44171029493433" fill="#ceff1d" stroke="none" /><path d="M 115.56566222782051 114.09645910891815 l 15.526557412815174 14.061045297567471 a41.947242776883314,41.947242776883314 0 0,0 -0.48929179966061787,0.5310296122275334 l -15.282219205158833 -14.326226164596338" fill="#f9ff18" stroke="none" /><path d="M 115.32070863581623 114.36230785411682 l 12.993217309614657 12.18041485234362 a38.809722121079346,38.809722121079346 0 0,0 -0.46108435295296074,0.4834451006802287 l -12.781626405282733 -12.402267069606356" fill="#ffde14" stroke="none" /><path d="M 115.07121518719521 114.62390073753431 l 13.37669343653803 12.979672480462028 a39.63887939215185,39.63887939215185 0 0,0 -0.4793650016157093,0.48559421578976175 l -13.151287809866785 -13.208007190232454" fill="#ffe915" stroke="none" /><path d="M 114.29624159901734 115.38237550388516 l 14.696246260998306 15.812769875110586 a42.587573862921964,42.587573862921964 0 0,0 -0.5412686976727181,0.494436121967074 l -14.421878013858723 -16.063398763664242" fill="#f1ff19" stroke="none" /><path d="M 114.0293411484842 115.62618273729858 l 2.1507061377254977 2.395502879759921 a24.219312183959207,24.219312183959207 0 0,0 -0.3126109416573712,0.27584280936169 l -2.1091528431615387 -2.4321688308939" fill="#ff1802" stroke="none" /><path d="M 113.75828350139079 115.86535959552629 l 11.868841783424243 13.686550568419236 a39.11604459427758,39.11604459427758 0 0,0 -0.5124844898875014,0.4367504003956972 l -11.631491816959693 -13.88882535903788" fill="#ffe215" stroke="none" /><path d="M 113.48314897796784 116.09983520530334 l 12.764524073035625 15.241746151867755 a40.88074195217778,40.88074195217778 0 0,0 -0.5433826783861446,0.447166951007398 l -12.50027126610479 -15.45920822173233" fill="#fff817" stroke="none" /><path d="M 113.20401910651253 116.32954008644616 l 11.488896984002434 14.208431715823957 a39.27222716945727,39.27222716945727 0 0,0 -0.5293195068865214,0.4205234291379717 l -11.24261998439856 -14.404089058967054" fill="#ffe415" stroke="none" /><path d="M 112.92097659922987 116.55440617244103 l 11.240993382853706 14.40200505065333 a39.26958351228634,39.26958351228634 0 0,0 -0.5364435882714531,0.41132206835845264 l -10.991421066088758 -14.593366460839153" fill="#ffe415" stroke="none" /><path d="M 112.63410532772338 116.77436683061366 l 16.193630866020953 21.500367253557776 a47.91652787160346,47.91652787160346 0 0,0 -0.6631077697545585,0.4905512753965864 l -15.82113812584783 -21.775928477694134" fill="#b3ff20" stroke="none" /><path d="M 112.04921762599082 117.19931262002967 l 17.258235395480114 24.634776717506192 a51.078545724273106,51.078545724273106 0 0,0 -0.7244472946404765,0.49828145511683497 l -16.831631216216756 -24.928198961988123" fill="#8fff24" stroke="none" /><line stroke="#e1ed5e" stroke-width="0.3" x1="143.8653032363475" x2="146.44561519142675" y1="172.8068346515853" y2="177.08958963109032" /><path d="M 144.38136562736335 173.6633856474863 a86.0,86.0 0 0,1 -40.68145358897372,12.25698825130547" fill="none" id="id66" stroke="none" /><text fill="#e1ed5e" style="font-size:6.75px; font-family:Arial;" text-anchor="middle"><textPath startOffset="21.466115282336833" xlink:href="#id66">June</textPath></text><path d="M 110.5260780823613 118.17145234162733 l 8.931713626077725 15.419058001983382 a38.819171079676806,38.819171079676806 0 0,0 -0.5810882998092084,0.32995710210471546 l -8.664976559347318 -15.570518269882726" fill="#ffde14" stroke="none" /><path d="M 110.21172684928248 118.3499491758327 l 16.600094981327395 29.829518916553877 a55.13741865141734,55.13741865141734 0 0,0 -0.833302804400376,0.45438313026014093 l -16.08416936505837 -30.110842698573787" fill="#64ff29" stroke="none" /><path d="M 109.57404056367764 118.69057910512821 l 8.48262991264837 16.55991160131244 a39.60606574422006,39.60606574422006 0 0,0 -0.6094545417763997,0.30559315931543357 l -8.196321463189209 -16.703472601537175" fill="#ffe815" stroke="none" /><path d="M 108.2653958097858 119.30500536409082 l 8.16872041779423 19.079206260947657 a41.75437555822561,41.75437555822561 0 0,0 -0.66315599712047,0.2771992605799003 l -7.8390929611762985 -19.21699056454753" fill="#fbff18" stroke="none" /><path d="M 107.59598834532513 119.57807347666477 l 6.824407960438067 17.58938460805046 a39.866875599855234,39.866875599855234 0 0,0 -0.6419132307407923,0.24271665753441674 l -6.520624508937 -17.704249515691505" fill="#ffec16" stroke="none" /><path d="M 107.2578585660854 119.70592522655815 l 6.256218585589076 16.986356860783584 a39.1018394201407,39.1018394201407 0 0,0 -0.6335995760986206,0.22718626559580887 l -5.962899448860721 -17.091530667419352" fill="#ffe215" stroke="none" /><path d="M 106.57524785965236 119.94407469862006 l 6.3956012483312845 19.399169698532198 a41.426245379905396,41.426245379905396 0 0,0 -0.6791510493964988,0.21744271913349783 l -6.060728853843845 -19.506385264325402" fill="#ffff18" stroke="none" /><path d="M 106.2309692047433 120.05430185196036 l 5.4867883560442365 17.659164453287563 a39.491915413290144,39.491915413290144 0 0,0 -0.6509114396108905,0.1961142772468033 l -5.1820019419931 -17.750994099640092" fill="#ffe715" stroke="none" /><path d="M 105.88484417918355 120.15858648285463 l 0.7558130488102802 2.5890443732064767 a23.697110329813004,23.697110329813004 0 0,0 -0.39254695665373,0.11093769099591246 l -0.7111349240519445 -2.6016708575409084" fill="#ff1101" stroke="none" /><path d="M 105.53697534728816 120.25689768951611 l 4.960725873587422 18.148702167549338 a39.81446761296449,39.81446761296449 0 0,0 -0.6626446164334856,0.17501046588328134 l -4.647590814342439 -18.231403982736204" fill="#ffeb16" stroke="none" /><path d="M 105.18746579009965 120.34920634021253 l 7.12660771642973 27.95600333483711 a49.85007209698616,49.85007209698616 0 0,0 -0.8333192411886237,0.20480959492775488 l -6.644335190497895 -28.074534188078896" fill="#9dff22" stroke="none" /><path d="M 104.83641907484287 120.43548508189849 l 4.069347008226901 17.194349536881468 a38.669330521268236,38.669330521268236 0 0,0 -0.649055230724508,0.1477228573704896 l -3.7727716281095316 -17.26184912782964" fill="#ffdd14" stroke="none" /><path d="M 104.13013068566511 120.58985236759428 l 3.4617367226348827 17.25772220765786 a38.60149416764174,38.60149416764174 0 0,0 -0.6526085978778232,0.12507399100483862 l -3.164160510185355 -17.314753397011167" fill="#ffdc14" stroke="none" /><path d="M 103.7750983002368 120.6578951692458 l 7.5386714558823575 41.25272304597587 a62.93588828232596,62.93588828232596 0 0,0 -1.0673657782414547,0.18557522211832259 l -6.827456706168853 -41.376376846615194" fill="#33ff4f" stroke="none" /><path d="M 102.70371172650421 120.8252237178851 l 1.9158643439228054 14.756863013239393 a35.88071040561665,35.88071040561665 0 0,0 -0.6131715717148,0.07424653807785099 l -1.6615653491566251 -14.787655080042594" fill="#ffb911" stroke="none" /><path d="M 102.34483914955558 120.86867818915974 l 1.9821016199175958 17.64037454428894 a38.75138137989484,38.75138137989484 0 0,0 -0.6635111228911802,0.06877564082097357 l -1.678157900420813 -17.67187955356567" fill="#ffde14" stroke="none" /><path d="M 101.98527174616119 120.90594882070398 l 0.8612205151744448 9.06910202514684 a30.109901883021564,30.109901883021564 0 0,0 -0.5163929645435652,0.044556557849094076 l -0.7049832328893378 -9.082582835274597" fill="#ff6c09" stroke="none" /><path d="M 101.62511606390274 120.93702456842531 l 1.5566907262917211 20.055473394028528 a41.11579725180955,41.11579725180955 0 0,0 -0.7060898861555162,0.04869609258025127 l -1.2112380793572746 -20.079297831125064" fill="#fffb17" stroke="none" /><path d="M 101.26447882468166 120.96189622390904 l 0.8088650789990208 13.408959892539146 a34.433334214399174,34.433334214399174 0 0,0 -0.591944975985927,0.03059679382201779 l -0.5779320345996142 -13.420896493123365" fill="#ffa60f" stroke="none" /><path d="M 100.90346689309514 120.98055641714683 l 0.10097067134593755 2.3447686714819627 a23.346941669329542,23.346941669329542 0 0,0 -0.40165594646513253,0.013833842920271332 l -0.06059437320615272 -2.346159312828328" fill="#ff0c01" stroke="none" /><line stroke="#e1ed5e" stroke-width="0.3" x1="102.19456741930631" x2="102.32365962044197" y1="184.97166512339345" y2="189.96999836594603" /><path d="M 102.22038585953345 185.97133177190398 a86.0,86.0 0 0,1 -42.740103519485714,-10.115201625700543" fill="none" id="id67" stroke="none" /><text fill="#e1ed5e" style="font-size:6.75px; font-family:Arial;" text-anchor="middle"><textPath startOffset="22.20632615414155" xlink:href="#id67">July</textPath></text><path d="M 100.18074693466247 120.99922214144158 l 0.10412130711118646 12.096838387705992 a33.09728648188807,33.09728648188807 0 0,0 -0.5697364835472755,0.0 l 0.10412130711117812 -12.096838387705992" fill="#ff940d" stroke="none" /><path d="M 99.45781275523022 120.99299961872073 l -0.0730585835790986 2.8287622625123374 a23.829705549071935,23.829705549071935 0 0,0 -0.40996131621264364,-0.01411989664733017 l 0.12174025146638526 -2.8270855674389135" fill="#ff1302" stroke="none" /><path d="M 99.09653310690486 120.98055641714683 l -0.8368780358373558 19.434211678753513 a40.45222219751426,40.45222219751426 0 0,0 -0.6954159463091125,-0.03594506110018867 l 1.1712820505599573 -19.416926810891123" fill="#fff316" stroke="none" /><path d="M 98.01472825383883 120.90594882070398 l -2.170761054832235 22.85924816189658 a43.96208679724795,43.96208679724795 0 0,0 -0.7527301617850464,-0.07802355899695684 l 2.5639238132228743 -22.818495234443862" fill="#e1ff1b" stroke="none" /><path d="M 97.65516085044442 120.86867818915974 l -3.597743098023328 32.01931481489864 a53.220805027419196,53.220805027419196 0 0,0 -0.9094994022604524,-0.11012771158465764 l 4.14836992333517 -31.952641574588636" fill="#78ff26" stroke="none" /><path d="M 97.2962882734958 120.8252237178851 l -3.4119717413094066 26.28056613259658 a47.50112653102272,47.50112653102272 0 0,0 -0.8099426331988525,-0.11225066874727407 l 3.86384296569509 -26.2179408983567" fill="#b7ff1f" stroke="none" /><path d="M 95.86986931433489 120.58985236759428 l -3.6669078545288745 18.280557473004748 a39.64470420085648,39.64470420085648 0 0,0 -0.667934993112823,-0.13997227201708937 l 3.981034309071084 -18.21472922026112" fill="#ffe915" stroke="none" /><path d="M 95.51606077576429 120.51570834832081 l -6.1062980144466374 27.93860997829889 a49.5981258644817,49.5981258644817 0 0,0 -0.8324923807193574,-0.18947255548922579 l 6.586310544558858 -27.82936068923198" fill="#a0ff22" stroke="none" /><path d="M 95.16358092515715 120.4354850818985 l -0.6310758303231961 2.6665060484932073 a23.74016627420107,23.74016627420107 0 0,0 -0.39685273286706185,-0.09753674635970343 l 0.6768818479334685 -2.655248043819474" fill="#ff1101" stroke="none" /><path d="M 94.11515582081647 120.15858648285463 l -6.3210093408627035 21.65267415362413 a43.55645045414495,43.55645045414495 0 0,0 -0.7179036917491947,-0.21629849327025036 l 6.692788007052144 -21.54066029124815" fill="#e5ff1a" stroke="none" /><path d="M 93.76903079525671 120.05430185196036 l -5.8322014824858845 18.770872579852732 a40.65604821782287,40.65604821782287 0 0,0 -0.6665242663976156,-0.21340002195792024 l 6.15444709397444 -18.667699711235105" fill="#fff517" stroke="none" /><path d="M 93.08242187328487 119.8279376855182 l -2.581016550272695 7.397998893060514 a28.835306889618693,28.835306889618693 0 0,0 -0.46724242370362473,-0.16753650945094395 l 2.7079785346060463 -7.352474842569612" fill="#ff5a08" stroke="none" /><path d="M 91.7346041902142 119.30500536409082 l -13.800802062174517 32.2337325362691 a56.063879573986874,56.063879573986874 0 0,0 -0.8838853059726238,-0.3874693431436486 l 14.353608042804884 -31.991398639831004" fill="#5aff2a" stroke="none" /><line stroke="#e1ed5e" stroke-width="0.3" x1="58.666819895761336" x2="56.23545636021788" y1="174.27360380694188" y2="178.64263932499728" /><path d="M 58.180547188652646 175.14741091055294 a86.0,86.0 0 0,1 -31.652253787137756,-30.449443065178592" fill="none" id="id68" stroke="none" /><text fill="#e1ed5e" style="font-size:6.75px; font-family:Arial;" text-anchor="middle"><textPath startOffset="22.20632615414155" xlink:href="#id68">August</textPath></text><path d="M 88.8546689885994 117.79835938074946 l -7.632193186176039 12.188109716249492 a35.380556014509565,35.380556014509565 0 0,0 -0.5133856795866304,-0.3276670307149182 l 7.840860667809593 -12.05492825671077" fill="#ffb210" stroke="none" /><path d="M 88.54995079064634 117.60387380957326 l -25.31522862028755 38.92088863059087 a67.42947740274796,67.42947740274796 0 0,0 -0.967533694866189,-0.641228574957476 l 25.9814370138937 -38.47936203454208" fill="#38ff83" stroke="none" /><path d="M 87.65650970185807 116.9893568818739 l -27.62294186760759 38.01971777680133 a67.99495565748362,67.99495565748362 0 0,0 -0.940969335704191,-0.6961066191542635 l 28.273296173730344 -37.538601208907295" fill="#39ff89" stroke="none" /><path d="M 85.97065885151581 115.62618273729859 l -24.544926738983264 27.33866875412028 a57.740389734862205,57.740389734862205 0 0,0 -0.7338540968663805,-0.6703583179747375 l 25.011880385316502 -26.912117669558963" fill="#49ff2c" stroke="none" /><path d="M 84.9287848128048 114.62390073753433 l -1.8989198160885714 1.8425597773038123 a23.645925736084013,23.645925736084013 0 0,0 -0.28092874084441255,-0.2945526616370612 l 1.9303551083119415 -1.8095999990842508" fill="#ff1001" stroke="none" /><path d="M 84.4343377721795 114.09645910891817 l -6.6474293657750385 6.019995478675514 a29.968202871046238,29.968202871046238 0 0,0 -0.34298058819044586,-0.38534232674420993 l 6.750068803613818 -5.904678982190438" fill="#ff6a09" stroke="none" /><path d="M 84.19399662182784 113.82643327865904 l -1.9475907834121369 1.7036712808860104 a23.587586847421296,23.587586847421296 0 0,0 -0.26469483436878827,-0.3078998919235457 l 1.9766281273517063 -1.6698942898009344" fill="#ff0f01" stroke="none" /><path d="M 83.95833913139862 113.55231037782056 l -2.026239386347019 1.7118068564389015 a23.652532519034438,23.652532519034438 0 0,0 -0.2600697319663458,-0.3132707457581011 l 2.0554051182069015 -1.6766748535670393" fill="#ff1001" stroke="none" /><path d="M 83.72743513129214 113.27417163493432 l -2.114770423751473 1.7251014698575253 a23.72914437626128,23.72914437626128 0 0,0 -0.2554635478922288,-0.3187300553117275 l 2.1441518836985627 -1.6884435809675382" fill="#ff1101" stroke="none" /><path d="M 83.06392112726016 112.41649034213515 l -10.493664211498007 7.693308546489768 a34.011686476977786,34.011686476977786 0 0,0 -0.3420931180629996,-0.4751374206798654 l 10.624537121936614 -7.511537520358762" fill="#ffa00e" stroke="none" /><path d="M 82.6465618267979 111.8261652097733 l -14.62774975717072 9.968640424389259 a38.70154950475172,38.70154950475172 0 0,0 -0.37042339363085625,-0.5537327137720855 l 14.797176256212307 -9.715370796411351" fill="#ffdd14" stroke="none" /><line stroke="#e1ed5e" stroke-width="0.3" x1="26.63291911575756" x2="22.317208475507996" y1="142.92168965132927" y2="145.44649492493687" /><path d="M 25.769776987707644 143.4266507060508 a86.0,86.0 0 0,1 -11.730757126820373,-40.83630448921669" fill="none" id="id69" stroke="none" /><text fill="#e1ed5e" style="font-size:6.75px; font-family:Arial;" text-anchor="middle"><textPath startOffset="21.46611528233685" xlink:href="#id69">September</textPath></text><path d="M 81.51974371655577 109.97397251340807 l -11.89592541551178 6.42034565408926 a34.51790959466004,34.51790959466004 0 0,0 -0.27770067844466445,-0.5253050293841852 l 12.00467860218133 -6.214625609618949" fill="#ffa70f" stroke="none" /><path d="M 81.02952815118164 109.00673069616217 l -5.6401056364053295 2.677788563713205 a27.243504078781754,27.243504078781754 0 0,0 -0.19748346890563317,-0.42536182306856957 l 5.68536372215079 -2.5803066733658087" fill="#ff4406" stroke="none" /><path d="M 80.58989483394504 108.01547362559985 l -19.144605686163324 7.905834648351877 a41.712753278252464,41.712753278252464 0 0,0 -0.2683468533342136,-0.6660148830102449 l 19.277855153754928 -7.575120397498826" fill="#fcff18" stroke="none" /><path d="M 80.45479744820244 107.68017299344265 l -30.681999306263474 12.056312122235791 a53.96573589984489,53.96573589984489 0 0,0 -0.3322894456093272,-0.8675028875377829 l 30.88498303146631 -11.52638566786485" fill="#70ff27" stroke="none" /><path d="M 80.20201598880116 107.00284435728193 l -17.773096490437066 6.286611222591237 a39.85217333684359,39.85217333684359 0 0,0 -0.22318957101202863,-0.6486933660833353 l 17.878676892392324 -5.979745153418604" fill="#ffeb16" stroke="none" /><path d="M 80.0844068197444 106.66101706037122 l -23.984813535587264 8.022018259981296 a46.29078996987566,46.29078996987566 0 0,0 -0.2462399974387807,-0.7578487863114152 l 24.119345784042295 -7.607970573692079" fill="#c5ff1e" stroke="none" /><path d="M 79.97269907076064 106.31721596034903 l -27.408281004556354 8.645400137515713 a49.73946435065346,49.73946435065346 0 0,0 -0.2505287465802327,-0.8187424393204702 l 27.553036523642717 -8.172330725643196" fill="#9eff22" stroke="none" /><path d="M 79.76711848015287 105.62410040840567 l -18.91141389112833 5.256774250582731 a40.6284296591233,40.6284296591233 0 0,0 -0.1814967210254923,-0.6754168173733235 l 18.999098688495593 -4.9304665000338685" fill="#fff517" stroke="none" /><path d="M 79.23777060512086 103.15116336523772 l -19.443169320558702 2.9509645472932724 a40.66583395097439,40.66583395097439 0 0,0 -0.0990812373953815,-0.6929739435737782 l 19.49108460897068 -2.6158451317390936" fill="#fff517" stroke="none" /><path d="M 79.18660465613746 102.79330883721812 l -11.007841873173158 1.4773323369414277 a32.10653382196971,32.10653382196971 0 0,0 -0.06879740787160296,-0.548383031110065 l 11.031640790291608 -1.287631551543954" fill="#ff870c" stroke="none" /><path d="M 79.10278846688536 102.07522291339032 l -26.016407604030036 2.58359088237349 a47.14437619195599,47.14437619195599 0 0,0 -0.07324306221561913,-0.80823108830343 l 26.05702526252273 -2.1353784055214935" fill="#bbff1f" stroke="none" /><line stroke="#e1ed5e" stroke-width="0.3" x1="15.007084014347285" x2="10.007500721073583" y1="101.09737516637583" y2="101.16192664675087" /><path d="M 14.007167355692545 101.11028546245083 a86.0,86.0 0 0,1 10.666146001902534,-42.60595125391555" fill="none" id="id70" stroke="none" /><text fill="#e1ed5e" style="font-size:6.75px; font-family:Arial;" text-anchor="middle"><textPath startOffset="22.20632615414155" xlink:href="#id70">October</textPath></text><path d="M 79.03285615573316 98.82574320788736 l -3.8585171726564176 -0.21609476384233325 a24.86456358708775,24.86456358708775 0 0,0 0.027610806084955933,-0.4271269493022155 l 3.8542257755670484 0.2824807773975605" fill="#ff2203" stroke="none" /><path d="M 79.05617556472873 98.46500227214037 l -4.632855904746344 -0.3395475028577136 a25.64528215944306,25.64528215944306 0 0,0 0.036056675873914236,-0.4399827738727136 l 4.626324745052933 0.4192441939382056" fill="#ff2d04" stroke="none" /><path d="M 79.21141760316559 97.0276538004421 l -27.44420682750645 -3.923965680124562 a48.723311401233204,48.723311401233204 0 0,0 0.1258548807446931,-0.8292264162855832 l 27.37259605332245 4.395791208802237" fill="#a9ff21" stroke="none" /><path d="M 79.54389044137918 95.25157060432595 l -9.970598623111314 -2.314451995809558 a31.235698556722745,31.235698556722745 0 0,0 0.12608393802622364,-0.5226993224889351 l 9.929281884824277 2.48573654995789" fill="#ff7b0b" stroke="none" /><path d="M 79.71946130924805 94.55025226153421 l -6.779097520468715 -1.8216661768387967 a28.019589079986346,28.019589079986346 0 0,0 0.1291746145827148,-0.4647098171145369 l 6.746736135319639 1.9380872973722763" fill="#ff4f07" stroke="none" /><path d="M 79.91906864156998 93.8553929516997 l -25.875232688507047 -7.917617679991979 a48.05949623350193,48.05949623350193 0 0,0 0.2488669842026665,-0.7889763489585786 l 25.73511022053618 8.361844195376973" fill="#b1ff20" stroke="none" /><path d="M 80.14247586403 93.16781622104843 l -1.9130966864853496 -0.6582204336992351 a23.023164123639116,23.023164123639116 0 0,0 0.1321605478626103,-0.37363566573837637 l 1.9014830578129298 0.6910537258642225" fill="#ff0701" stroke="none" /><path d="M 80.2630227832202 92.82701384747504 l -24.164966413099833 -8.78224499899769 a46.71134825264251,46.71134825264251 0 0,0 0.28114762304935853,-0.7533358519683294 l 24.010214201548848 9.196903987995361" fill="#c0ff1e" stroke="none" /><path d="M 81.10775173730289 90.83032412892265 l -12.813109995387341 -6.219062121375579 a35.242630425010105,35.242630425010105 0 0,0 0.26958931880768017,-0.5434756161530615 l 12.704160663626249 6.438697326027603" fill="#ffb110" stroke="none" /><line stroke="#e1ed5e" stroke-width="0.3" x1="26.266209847984243" x2="21.928928074336255" y1="57.711370442889674" y2="55.22380399835377" /><path d="M 25.398753493254645 57.213857153982495 a86.0,86.0 0 0,1 29.58750427330803,-30.492523968695096" fill="none" id="id71" stroke="none" /><text fill="#e1ed5e" style="font-size:6.75px; font-family:Arial;" text-anchor="middle"><textPath startOffset="21.46611528233685" xlink:href="#id71">November</textPath></text><path d="M 81.96595687620814 89.24020034530311 l -24.327978014747515 -14.515001857637515 a49.32906269563571,49.32906269563571 0 0,0 0.44134055075516937,-0.725447822757191 l 24.074521665706126 14.93161745360178" fill="#a3ff22" stroke="none" /><path d="M 82.15384107792192 88.93136811851018 l -22.77797714289243 -14.127468274854268 a47.80338789368135,47.80338789368135 0 0,0 0.4397283498575749,-0.6955446484830538 l 22.53142119678889 14.517460571051537" fill="#b4ff20" stroke="none" /><path d="M 82.95767976084542 87.72973835380427 l -6.9085705317477 -4.974086088992953 a29.51292424568937,29.51292424568937 0 0,0 0.3003816821598425,-0.4097202768903014 l 6.821926237074225 5.092268809554758" fill="#ff6309" stroke="none" /><path d="M 83.39014120810768 87.1503855733568 l -19.52050217790915 -15.101328045185925 a45.67995368727573,45.67995368727573 0 0,0 0.4864826305150287,-0.6177835376694681 l 19.25766546680015 15.43510397680844" fill="#ccff1d" stroke="none" /><path d="M 83.84228863543731 86.58626213691792 l -4.546404236499121 -3.7743139032521995 a26.90891165291376,26.90891165291376 0 0,0 0.29893159482082976,-0.35384072038918707 l 4.480762028191167 3.852013573270502" fill="#ff3f05" stroke="none" /><path d="M 84.07557802195018 86.31012108654704 l -34.252698646705205 -29.446299374554386 a66.17003333447832,66.17003333447832 0 0,0 0.7499526819491027,-0.8573255578973451 l 33.740754101178254 30.031540488654674" fill="#37ff75" stroke="none" /><path d="M 84.5562425177563 85.77008943001954 l -10.057665473081217 -9.26715408405476 a34.67613905991098,34.67613905991098 0 0,0 0.4082416535003137,-0.4354837321280069 l 9.896656497610445 9.438907233060815" fill="#ffa90f" stroke="none" /><path d="M 85.05521093208273 85.24692304244772 l -11.442777146421909 -11.295988928454609 a37.07907070369568,37.07907070369568 0 0,0 0.4523014513024636,-0.450359125129643 l 11.246639894952128 11.491283904234363" fill="#ffc812" stroke="none" /><path d="M 86.65592168130627 83.78471172551755 l -1.9329012853000342 -2.348798530607385 a24.041868162182237,24.041868162182237 0 0,0 0.32181368726427456,-0.2602176211258809 l 1.8921841994712594 2.3817222489974026" fill="#ff1602" stroke="none" /><path d="M 87.80319425747018 82.90503203632743 l -7.981619892504499 -11.186989384015144 a34.74245202234634,34.74245202234634 0 0,0 0.48981705611073517,-0.3431481499514832 l 7.787871696810104 11.32272237673057" fill="#ffaa0f" stroke="none" /><path d="M 88.70189139769569 82.29822771554957 l -6.213785472407539 -9.735701729274435 a32.54967610188702,32.54967610188702 0 0,0 0.4748855882907198,-0.29737331182156246 l 6.045280731744577 9.841219382418927" fill="#ff8d0d" stroke="none" /><line stroke="#e1ed5e" stroke-width="0.3" x1="56.76296977257108" x2="54.21961505331056" y1="26.818313649435495" y2="22.513508569990535" /><path d="M 56.25429882871898 25.957352633546506 a86.0,86.0 0 0,1 42.26535254187918,-11.944610805530505" fill="none" id="id72" stroke="none" /><text fill="#e1ed5e" style="font-size:6.75px; font-family:Arial;" text-anchor="middle"><textPath startOffset="22.20632615414155" xlink:href="#id72">December</textPath></text><path d="M 89.63071344664047 81.73862282372117 l -31.107859660078574 -54.78413152883649 a84.0,84.0 0 0,0 1.2635036437118177,-0.7031384097592617 l 30.16023192729471 55.31148533615593" fill="#4dd2ff" stroke="none" /><path d="M 89.94658935756843 81.56283822128135 l -2.953894766170949 -5.4172099020150775 a27.170223449122595,27.170223449122595 0 0,0 0.41254096827073966,-0.22036509805174237 l 2.860208751371904 5.467253726568569" fill="#ff4306" stroke="none" /><path d="M 90.26544431104013 81.39251694778311 l -9.048057947007491 -17.29525109146584 a40.51904359668413,40.51904359668413 0 0,0 0.6207893966746084,-0.3179924405677151 l 8.74900806274412 17.448436057346058" fill="#fff417" stroke="none" /><path d="M 90.58718382345135 81.22770947309562 l -8.321795125580378 -16.596431171361928 a39.565931211169755,39.565931211169755 0 0,0 0.6114419774054077,-0.30003192284947966 l 8.034881881164544 16.73721825434624" fill="#ffe815" stroke="none" /><path d="M 90.91171255644093 81.06846463323043 l -9.151553591191906 -19.06332315614887 a42.14618695860365,42.14618695860365 0 0,0 0.6567214611188286,-0.3083395316686932 l 8.822053918773468 19.21802767045757" fill="#f6ff19" stroke="none" /><path d="M 91.23893434514133 80.91482961587045 l -6.923290571607706 -15.081747516033447 a37.59491067997334,37.59491067997334 0 0,0 0.5904511331856974,-0.2649182122230034 l 6.662657319955234 15.198686058772978" fill="#ffcf13" stroke="none" /><path d="M 91.56875222667455 80.76684994638697 l -9.175143078918493 -20.930105287441503 a43.85284572787408,43.85284572787408 0 0,0 0.6939529953565928,-0.29711445668271624 l 8.813506325771591 21.084939272087006" fill="#e2ff1b" stroke="none" /><path d="M 92.23578459929587 80.48803036053334 l -10.710576824679068 -26.916364247874984 a49.96907178771241,49.96907178771241 0 0,0 0.8019246867523211,-0.3111343198123906 l 10.245668972927069 27.096741271577926" fill="#9bff22" stroke="none" /><path d="M 94.28887869178378 79.79150937346287 l -1.0284961059346502 -3.6392772617715505 a24.78181745037623,24.78181745037623 0 0,0 0.41149866922945616,-0.11247813075269625 l 0.9656995474814717 3.6564419333505427" fill="#ff2103" stroke="none" /><path d="M 94.63758080256005 79.69619591428918 l -0.9042026493038229 -3.423595353009717 a24.54098680767915,24.54098680767915 0 0,0 0.4093566448394618,-0.10435412347548587 l 0.8451371157793617 3.438652472654066" fill="#ff1d02" stroke="none" /><path d="M 99.27714615592234 79.0124445844662 l -0.443414400056581 -12.8742267464975 a33.88186052751733,33.88186052751733 0 0,0 0.58304771165175,-0.015058402233661878 l 0.221740053209952 12.879951940873521" fill="#ff9f0e" stroke="none" /><path d="M 99.63851952072746 79.00311137660856 l -0.4344126062276852 -25.23321073358107 a46.23694986003183,46.23694986003183 0 0,0 0.7958930855002148,-0.0068505030593148716 l 6.181269973266045e-15 25.236949860031828" fill="#c6ff1e" stroke="none" /></svg>