<?xml version="1.0" encoding="utf-8" ?>
<svg baseProfile="full" height="200mm" version="1.1" viewBox="0,0,200,200" width="200mm" xmlns="http://www.w3.org/2000/svg" xmlns:ev="http://www.w3.org/2001/xml-events" xmlns:xlink="http://www.w3.org/1999/xlink"><defs /><rect fill="#1a1a1a" height="200" width="200" x="0" y="0" /><text alignment-baseline="middle" fill="#e1ed5e" style="dominant-baseline: central; font-size:9.0px; font-family:Arial;" text-anchor="middle" x="100.0" y="100.0">2025</text><line stroke="#e1ed5e" stroke-width="0.3" x1="100.0" x2="100.0" y1="15.0" y2="10.0" /><path d="M 100.0 14.0 a86.0,86.0 0 0,1 42.46469731375804,11.215312516191453" fill="none" id="id85" stroke="none" /><text fill="#e1ed5e" style="font-size:6.75px; font-family:Arial;" text-anchor="middle"><textPath startOffset="22.20632615414155" xlink:href="#id85">January</textPath></text><path d="M 101.08401301168833 79.027996857942 l 0.41758536317178707 -8.078871244244896 a29.089656242178798,29.089656242178798 0 0,0 0.4998405694470377,0.030151748154431512 l -0.5565879814584367 8.07048622671016" fill="#ff4e07" stroke="none" /><path d="M 102.52436894288641 79.15227682838746 l 2.490245799634421 -20.565914188711155 a41.71613261591139,41.71613261591139 0 0,0 0.7121247203056044,0.0924542268119888 l -2.843885248447872 20.52000163873503" fill="#fff817" stroke="none" /><path d="M 102.88285421437855 79.19881850522331 l 0.3801688759132758 -2.7431015231694458 a23.76932019467372,23.76932019467372 0 0,0 0.40479267693994786,0.05965591819063697 l -0.4273305332818795 2.7361511208178397" fill="#ff0000" stroke="none" /><path d="M 103.59715602781102 79.31037775812273 l 7.313707057445464 -42.06596406616802 a63.697021485558764,63.697021485558764 0 0,0 1.078617695784669,0.19711048955384294 l -8.036719874333034 41.93383809526344" fill="#33ff53" stroke="none" /><path d="M 103.95276090670814 79.375362276772 l 5.519392833951977 -28.798978824965875 a50.32311168031649,50.32311168031649 0 0,0 0.8493429123638769,0.17037019801692055 l -6.014302155782979 28.699704670871746" fill="#9fff22" stroke="none" /><path d="M 104.66035177308747 79.52364482259891 l 6.960216339053291 -30.581352826846018 a52.363414230699874,52.363414230699874 0 0,0 0.8771527998157014,0.20759372804603696 l -7.485592825831516 30.457013186659115" fill="#88ff25" stroke="none" /><path d="M 105.01212808612495 79.60689891045804 l 6.277670001880339 -25.54227600637963 a47.30241441842526,47.30241441842526 0 0,0 0.7890293006910323,0.2011411372163772 l -6.716408191256397 25.430431872994387" fill="#c2ff1e" stroke="none" /><path d="M 105.36241919743992 79.69619591428918 l 8.050346631820679 -30.481141965287428 a52.52630800459313,52.52630800459313 0 0,0 0.8721921177374818,0.23840305302577686 l -8.573836638781872 30.33805237143536" fill="#86ff25" stroke="none" /><path d="M 106.40334571778207 80.00007090966166 l 19.21003715334621 -59.99978727101504 a84.0,84.0 0 0,0 1.37326871103033,0.45274510296305515 l -20.239988686618958 59.66022844379275" fill="#4dd2ff" stroke="none" /><path d="M 106.74666289553966 80.11325718540242 l 14.415028399660851 -42.490334390161564 a65.86893758883505,65.86893758883505 0 0,0 1.070583512966785,0.37350556621579006 l -15.14429391669091 42.23590797077357" fill="#36ff6d" stroke="none" /><path d="M 107.4271985657038 80.35727306442388 l 2.1110685667772455 -5.583147270488253 a26.968931557456106,26.968931557456106 0 0,0 0.43280875984925987,0.16792307473399357 l -2.2068604916261725 5.545981491863714" fill="#ff2f04" stroke="none" /><path d="M 107.76421540070413 80.48803036053334 l 7.760513391977703 -19.502666254881447 a41.98998711663151,41.98998711663151 0 0,0 0.6692726668434459,0.27301312524132326 l -8.095069928409536 19.366192243456545" fill="#fffb17" stroke="none" /><path d="M 108.43124777332544 80.76684994638697 l 2.134605269653868 -4.869407774537868 a26.316735063172125,26.316735063172125 0 0,0 0.41332046701935404,0.18544484554915353 l -2.2181078551400026 4.8319425984721835" fill="#ff2603" stroke="none" /><path d="M 109.73455568895987 81.39251694778311 l 6.037672567294543 -11.540936593354903 a34.02484961455215,34.02484961455215 0 0,0 0.5166186590823446,0.27595979604461063 l -6.235436272905199 11.435298070808539" fill="#ff930d" stroke="none" /><path d="M 110.05341064243156 81.56283822128135 l 6.18038763580451 -11.334343214389992 a33.90986163482761,33.90986163482761 0 0,0 0.510062306349639,0.2838491212508323 l -6.374574031226184 11.22627869557898" fill="#ff920d" stroke="none" /><path d="M 110.36928655335952 81.73862282372117 l 7.054470513386337 -12.423646136208644 a35.286795915878734,35.286795915878734 0 0,0 0.5256107173007608,0.30446765328490505 l -7.267277963152426 12.30037432553369" fill="#ffa40f" stroke="none" /><line stroke="#e1ed5e" stroke-width="0.3" x1="143.23703022742887" x2="145.7803849466894" y1="26.81831364943548" y2="22.513508569990506" /><path d="M 143.74570117128098 25.957352633546492 a86.0,86.0 0 0,1 28.547481713284135,27.462654790039103" fill="none" id="id86" stroke="none" /><text fill="#e1ed5e" style="font-size:6.75px; font-family:Arial;" text-anchor="middle"><textPath startOffset="19.985693538727396" xlink:href="#id86">February</textPath></text><line stroke="#e1ed5e" stroke-width="0.3" x1="172.23445277983987" x2="176.4835382374775" y1="55.19839476539836" y2="52.563006222186495" /><path d="M 173.08426987136738 54.67131705675599 a86.0,86.0 0 0,1 12.851231095245387,41.99856678651699" fill="none" id="id87" stroke="none" /><text fill="#e1ed5e" style="font-size:6.75px; font-family:Arial;" text-anchor="middle"><textPath startOffset="22.20632615414155" xlink:href="#id87">March</textPath></text><line stroke="#e1ed5e" stroke-width="0.3" x1="184.98032266829074" x2="189.97916517819016" y1="98.17113171792111" y2="98.06355123074" /><path d="M 185.9800911702706 98.14961562048488 a86.0,86.0 0 0,1 -9.607161424134198,41.387399972396054" fill="none" id="id88" stroke="none" /><text fill="#e1ed5e" style="font-size:6.75px; font-family:Arial;" text-anchor="middle"><textPath startOffset="21.466115282336823" xlink:href="#id88">April</textPath></text><line stroke="#e1ed5e" stroke-width="0.3" x1="174.80103733775053" x2="179.2010983576182" y1="140.37084112569926" y2="142.7455964860345" /><path d="M 175.68104954172406 140.8457921977663 a86.0,86.0 0 0,1 -30.038265399797805,32.042727171017184" fill="none" id="id89" stroke="none" /><text fill="#e1ed5e" style="font-size:6.75px; font-family:Arial;" text-anchor="middle"><textPath startOffset="22.206326154141568" xlink:href="#id89">May</textPath></text><line stroke="#e1ed5e" stroke-width="0.3" x1="143.8653032363475" x2="146.44561519142675" y1="172.8068346515853" y2="177.08958963109032" /><path d="M 144.38136562736335 173.6633856474863 a86.0,86.0 0 0,1 -40.68145358897372,12.25698825130547" fill="none" id="id90" stroke="none" /><text fill="#e1ed5e" style="font-size:6.75px; font-family:Arial;" text-anchor="middle"><textPath startOffset="21.466115282336833" xlink:href="#id90">June</textPath></text><line stroke="#e1ed5e" stroke-width="0.3" x1="102.19456741930631" x2="102.32365962044197" y1="184.97166512339345" y2="189.96999836594603" /><path d="M 102.22038585953345 185.97133177190398 a86.0,86.0 0 0,1 -42.740103519485714,-10.115201625700543" fill="none" id="id91" stroke="none" /><text fill="#e1ed5e" style="font-size:6.75px; font-family:Arial;" text-anchor="middle"><textPath startOffset="22.20632615414155" xlink:href="#id91">July</textPath></text><line stroke="#e1ed5e" stroke-width="0.3" x1="58.666819895761336" x2="56.23545636021788" y1="174.27360380694188" y2="178.64263932499728" /><path d="M 58.180547188652646 175.14741091055294 a86.0,86.0 0 0,1 -31.652253787137756,-30.449443065178592" fill="none" id="id92" stroke="none" /><text fill="#e1ed5e" style="font-size:6.75px; font-family:Arial;" text-anchor="middle"><textPath startOffset="22.20632615414155" xlink:href="#id92">August</textPath></text><line stroke="#e1ed5e" stroke-width="0.3" x1="26.63291911575756" x2="22.317208475507996" y1="142.92168965132927" y2="145.44649492493687" /><path d="M 25.769776987707644 143.4266507060508 a86.0,86.0 0 0,1 -11.730757126820373,-40.83630448921669" fill="none" id="id93" stroke="none" /><text fill="#e1ed5e" style="font-size:6.75px; font-family:Arial;" text-anchor="middle"><textPath startOffset="21.46611528233685" xlink:href="#id93">September</textPath></text><line stroke="#e1ed5e" stroke-width="0.3" x1="15.007084014347285" x2="10.007500721073583" y1="101.09737516637583" y2="101.16192664675087" /><path d="M 14.007167355692545 101.11028546245083 a86.0,86.0 0 0,1 10.666146001902534,-42.60595125391555" fill="none" id="id94" stroke="none" /><text fill="#e1ed5e" style="font-size:6.75px; font-family:Arial;" text-anchor="middle"><textPath startOffset="22.20632615414155" xlink:href="#id94">October</textPath></text><line stroke="#e1ed5e" stroke-width="0.3" x1="26.266209847984243" x2="21.928928074336255" y1="57.711370442889674" y2="55.22380399835377" /><path d="M 25.398753493254645 57.213857153982495 a86.0,86.0 0 0,1 29.58750427330803,-30.492523968695096" fill="none" id="id95" stroke="none" /><text fill="#e1ed5e" style="font-size:6.75px; font-family:Arial;" text-anchor="middle"><textPath startOffset="21.46611528233685" xlink:href="#id95">November</textPath></text><line stroke="#e1ed5e" stroke-width="0.3" x1="56.762969772571076" x2="54.21961505331055" y1="26.818313649435495" y2="22.513508569990535" /><path d="M 56.25429882871897 25.957352633546506 a86.0,86.0 0 0,1 42.265352541879196,-11.944610805530505" fill="none" id="id96" stroke="none" /><text fill="#e1ed5e" style="font-size:6.75px; font-family:Arial;" text-anchor="middle"><textPath startOffset="22.20632615414155" xlink:href="#id96">December</textPath></text></svg>